<?xml version="1.0" encoding="utf-8"?>
<!-- Generator: Adobe Illustrator 12.0.0, SVG Export Plug-In . SVG Version: 6.00 Build 51448)  -->
<!DOCTYPE svg PUBLIC "-//W3C//DTD SVG 1.1//EN" "http://www.w3.org/Graphics/SVG/1.1/DTD/svg11.dtd" [
	<!ENTITY ns_svg "http://www.w3.org/2000/svg">
	<!ENTITY ns_xlink "http://www.w3.org/1999/xlink">
]>
<svg  version="1.1" id="Layer_1" xmlns="&ns_svg;" xmlns:xlink="&ns_xlink;" width="370.752" height="146.151"
	 viewBox="0 0 370.752 146.151" overflow="visible" enable-background="new 0 0 370.752 146.151" xml:space="preserve">
<path d="M55.417,56.587c-0.108-0.123-0.243-0.187-0.405-0.187c-0.09,0-0.274,0.117-0.553,0.348s-0.674,0.486-1.187,0.764
	c-0.512,0.278-1.164,0.524-1.955,0.74c-0.792,0.215-1.754,0.322-2.886,0.322c-1.259,0-2.41-0.176-3.453-0.529
	s-1.938-0.861-2.684-1.523c-0.746-0.664-1.326-1.449-1.74-2.359c-0.413-0.909-0.62-1.903-0.62-2.981c0-0.901,0.193-1.758,0.58-2.571
	c0.386-0.812,0.944-1.531,1.672-2.16c0.729-0.627,1.609-1.125,2.644-1.496c1.033-0.371,2.198-0.557,3.493-0.557
	c0.899,0,1.699,0.075,2.401,0.226c0.701,0.149,1.312,0.313,1.834,0.489c0.521,0.178,0.948,0.342,1.281,0.492
	c0.332,0.149,0.562,0.225,0.688,0.225c0.143,0,0.233-0.022,0.269-0.067c0.037-0.044,0.081-0.101,0.135-0.172l0.324,0.212
	l-1.672,2.836l-0.351-0.158c0.09-0.089,0.135-0.203,0.135-0.346c0-0.141-0.135-0.322-0.405-0.543s-0.638-0.434-1.106-0.636
	c-0.467-0.203-1.016-0.38-1.645-0.53c-0.63-0.15-1.304-0.225-2.023-0.225c-0.72,0-1.443,0.101-2.171,0.304
	c-0.729,0.203-1.376,0.515-1.943,0.938c-0.566,0.422-1.029,0.965-1.389,1.625c-0.36,0.662-0.539,1.451-0.539,2.367
	c0,0.793,0.184,1.52,0.553,2.18c0.368,0.66,0.858,1.229,1.47,1.705c0.611,0.477,1.308,0.847,2.09,1.11
	c0.783,0.265,1.587,0.397,2.414,0.397c0.648,0,1.264-0.094,1.848-0.279s1.102-0.41,1.551-0.675c0.449-0.265,0.809-0.535,1.079-0.81
	c0.27-0.272,0.405-0.498,0.405-0.676c0-0.158-0.045-0.281-0.135-0.369l0.35-0.214l1.997,2.546L55.417,56.587z"/>
<path d="M58.303,58.177c0.287,0,0.481-0.062,0.58-0.185c0.099-0.124,0.193-0.283,0.283-0.478l4.262-9.594
	c0.09-0.212,0.135-0.362,0.135-0.45c0-0.089-0.05-0.168-0.148-0.238c-0.099-0.07-0.275-0.114-0.526-0.133v-0.265h4.369v0.317
	c-0.144,0-0.283,0.022-0.418,0.066c-0.134,0.044-0.202,0.128-0.202,0.252c0,0.088,0.022,0.178,0.068,0.266
	c0.044,0.088,0.085,0.177,0.121,0.265l4.613,9.646c0.053,0.125,0.134,0.243,0.242,0.358c0.108,0.115,0.306,0.172,0.594,0.172v0.318
	h-3.399v-0.318c0.324,0,0.54-0.026,0.648-0.079c0.107-0.053,0.161-0.133,0.161-0.238c0-0.123-0.018-0.229-0.054-0.318
	c-0.036-0.088-0.072-0.176-0.107-0.266l-1.106-2.226h-6.555l-0.918,2.015c-0.071,0.158-0.148,0.31-0.229,0.45
	c-0.081,0.142-0.121,0.257-0.121,0.345c0,0.105,0.054,0.186,0.162,0.238s0.296,0.079,0.566,0.079v0.318h-3.021V58.177z
	 M62.484,53.566h5.26l-2.724-5.565L62.484,53.566z"/>
<path d="M75.27,58.178c0.288,0,0.481-0.049,0.58-0.146s0.149-0.295,0.149-0.596v-9.541c0-0.301-0.05-0.499-0.149-0.596
	c-0.099-0.098-0.292-0.146-0.58-0.146v-0.319h3.938v0.319c-0.288,0-0.481,0.022-0.58,0.065c-0.099,0.045-0.148,0.103-0.148,0.172
	c0,0.054,0.099,0.203,0.297,0.451l7.31,8.241v-8.188c0-0.301-0.05-0.499-0.149-0.596c-0.099-0.098-0.292-0.146-0.58-0.146v-0.319
	h2.968v0.319c-0.288,0-0.482,0.048-0.58,0.146c-0.1,0.097-0.149,0.295-0.149,0.596v9.541c0,0.301,0.049,0.498,0.149,0.596
	c0.098,0.098,0.292,0.146,0.58,0.146v0.317H84.71v-0.317c0.359,0,0.575-0.019,0.647-0.054c0.072-0.034,0.108-0.097,0.108-0.186
	s-0.031-0.163-0.094-0.226c-0.063-0.061-0.14-0.146-0.229-0.252l-7.634-8.559v8.533c0,0.301,0.049,0.498,0.148,0.596
	c0.099,0.098,0.292,0.146,0.58,0.146v0.317H75.27V58.178z"/>
<path d="M91.292,58.177c0.287,0,0.481-0.062,0.58-0.185c0.099-0.124,0.193-0.283,0.283-0.478l4.262-9.594
	c0.09-0.212,0.135-0.362,0.135-0.45c0-0.089-0.05-0.168-0.148-0.238c-0.099-0.07-0.275-0.114-0.526-0.133v-0.265h4.369v0.317
	c-0.144,0-0.283,0.022-0.418,0.066c-0.134,0.044-0.202,0.128-0.202,0.252c0,0.088,0.022,0.178,0.068,0.266
	c0.044,0.088,0.085,0.177,0.121,0.265l4.613,9.646c0.053,0.125,0.134,0.243,0.242,0.358c0.108,0.115,0.306,0.172,0.594,0.172v0.318
	h-3.399v-0.318c0.324,0,0.54-0.026,0.648-0.079c0.107-0.053,0.161-0.133,0.161-0.238c0-0.123-0.018-0.229-0.054-0.318
	c-0.036-0.088-0.072-0.176-0.107-0.266l-1.106-2.226h-6.555l-0.918,2.015c-0.071,0.158-0.148,0.31-0.229,0.45
	c-0.081,0.142-0.121,0.257-0.121,0.345c0,0.105,0.054,0.186,0.162,0.238s0.296,0.079,0.566,0.079v0.318h-3.021V58.177z
	 M95.473,53.566h5.26l-2.724-5.565L95.473,53.566z"/>
<path d="M108.825,47.895c0-0.301-0.04-0.5-0.121-0.596c-0.081-0.098-0.266-0.146-0.553-0.146v-0.319h6.528
	c1.061,0,1.977,0.151,2.75,0.451c0.774,0.301,1.408,0.711,1.903,1.232c0.494,0.521,0.859,1.136,1.091,1.842
	c0.235,0.707,0.352,1.475,0.352,2.306c0,0.812-0.117,1.576-0.352,2.292c-0.232,0.717-0.597,1.334-1.091,1.855
	c-0.495,0.521-1.129,0.932-1.903,1.232c-0.773,0.301-1.689,0.45-2.75,0.45h-6.528v-0.317c0.287,0,0.472-0.049,0.553-0.146
	s0.121-0.295,0.121-0.596V47.895z M114.354,57.012c0.846,0,1.561-0.115,2.145-0.346c0.584-0.229,1.06-0.543,1.429-0.941
	c0.369-0.396,0.639-0.855,0.809-1.377c0.172-0.521,0.256-1.082,0.256-1.683s-0.084-1.161-0.256-1.683
	c-0.17-0.521-0.44-0.981-0.809-1.378c-0.369-0.398-0.845-0.712-1.429-0.941s-1.299-0.344-2.145-0.344h-3.857v8.692H114.354z"/>
<path d="M125.225,58.178c0.288,0,0.473-0.049,0.554-0.146c0.08-0.098,0.121-0.295,0.121-0.596v-9.541
	c0-0.301-0.041-0.499-0.121-0.596c-0.081-0.098-0.266-0.146-0.554-0.146v-0.319h3.021v0.319c-0.288,0-0.471,0.048-0.552,0.146
	c-0.081,0.097-0.122,0.295-0.122,0.596v9.541c0,0.301,0.041,0.498,0.122,0.596c0.081,0.098,0.264,0.146,0.552,0.146v0.317h-3.021
	V58.178z"/>
<path d="M131.752,58.177c0.287,0,0.481-0.062,0.58-0.185c0.099-0.124,0.193-0.283,0.284-0.478l4.261-9.594
	c0.09-0.212,0.135-0.362,0.135-0.45c0-0.089-0.05-0.168-0.148-0.238c-0.099-0.07-0.275-0.114-0.527-0.133v-0.265h4.37v0.317
	c-0.144,0-0.283,0.022-0.418,0.066c-0.134,0.044-0.202,0.128-0.202,0.252c0,0.088,0.023,0.178,0.068,0.266s0.085,0.177,0.121,0.265
	l4.612,9.646c0.055,0.125,0.135,0.243,0.243,0.358c0.108,0.115,0.306,0.172,0.594,0.172v0.318h-3.399v-0.318
	c0.324,0,0.54-0.026,0.647-0.079c0.108-0.053,0.162-0.133,0.162-0.238c0-0.123-0.018-0.229-0.054-0.318
	c-0.036-0.088-0.072-0.176-0.108-0.266l-1.105-2.226h-6.555l-0.917,2.015c-0.072,0.158-0.149,0.31-0.23,0.45
	c-0.081,0.142-0.121,0.257-0.121,0.345c0,0.105,0.054,0.186,0.161,0.238c0.109,0.053,0.297,0.079,0.567,0.079v0.318h-3.021V58.177z
	 M135.934,53.566h5.26l-2.724-5.565L135.934,53.566z"/>
<path d="M148.719,58.178c0.287,0,0.481-0.049,0.58-0.146s0.149-0.295,0.149-0.596v-9.541c0-0.301-0.05-0.499-0.149-0.596
	c-0.099-0.098-0.293-0.146-0.58-0.146v-0.319h3.938v0.319c-0.288,0-0.481,0.022-0.58,0.065c-0.098,0.045-0.148,0.103-0.148,0.172
	c0,0.054,0.099,0.203,0.297,0.451l7.309,8.241v-8.188c0-0.301-0.049-0.499-0.148-0.596c-0.099-0.098-0.292-0.146-0.579-0.146v-0.319
	h2.967v0.319c-0.288,0-0.482,0.048-0.58,0.146c-0.099,0.097-0.149,0.295-0.149,0.596v9.541c0,0.301,0.05,0.498,0.149,0.596
	c0.098,0.098,0.292,0.146,0.58,0.146v0.317h-3.615v-0.317c0.36,0,0.576-0.019,0.648-0.054c0.071-0.034,0.107-0.097,0.107-0.186
	s-0.031-0.163-0.094-0.226c-0.063-0.061-0.14-0.146-0.229-0.252l-7.634-8.559v8.533c0,0.301,0.049,0.498,0.149,0.596
	c0.098,0.098,0.292,0.146,0.579,0.146v0.317h-2.967V58.178z"/>
<path d="M189.584,56.587c-0.108-0.123-0.243-0.187-0.404-0.187c-0.091,0-0.274,0.117-0.554,0.348
	c-0.277,0.23-0.674,0.486-1.188,0.764c-0.512,0.278-1.164,0.524-1.956,0.74c-0.791,0.215-1.753,0.322-2.885,0.322
	c-1.259,0-2.41-0.176-3.453-0.529s-1.938-0.861-2.684-1.523c-0.746-0.664-1.326-1.449-1.739-2.359
	c-0.414-0.909-0.621-1.903-0.621-2.981c0-0.901,0.193-1.758,0.58-2.571c0.386-0.812,0.944-1.531,1.673-2.16
	c0.727-0.627,1.608-1.125,2.643-1.496c1.033-0.371,2.198-0.557,3.492-0.557c0.9,0,1.7,0.075,2.402,0.226
	c0.701,0.149,1.312,0.313,1.834,0.489c0.521,0.178,0.947,0.342,1.28,0.492c0.333,0.149,0.562,0.225,0.687,0.225
	c0.146,0,0.234-0.022,0.271-0.067c0.035-0.044,0.08-0.101,0.135-0.172l0.323,0.212l-1.672,2.836l-0.351-0.158
	c0.088-0.089,0.135-0.203,0.135-0.346c0-0.141-0.135-0.322-0.405-0.543s-0.638-0.434-1.106-0.636
	c-0.467-0.203-1.016-0.38-1.645-0.53c-0.63-0.15-1.304-0.225-2.023-0.225c-0.719,0-1.443,0.101-2.171,0.304
	c-0.729,0.203-1.376,0.515-1.943,0.938c-0.566,0.422-1.029,0.965-1.388,1.625c-0.361,0.662-0.54,1.451-0.54,2.367
	c0,0.793,0.184,1.52,0.552,2.18c0.369,0.66,0.86,1.229,1.471,1.705c0.611,0.477,1.308,0.847,2.09,1.11
	c0.782,0.265,1.587,0.397,2.415,0.397c0.646,0,1.263-0.094,1.847-0.279s1.101-0.41,1.551-0.675c0.449-0.265,0.809-0.535,1.078-0.81
	c0.271-0.272,0.406-0.498,0.406-0.676c0-0.158-0.046-0.281-0.136-0.369l0.351-0.214l1.996,2.546L189.584,56.587z"/>
<path d="M195.114,47.895c0-0.3-0.041-0.499-0.122-0.596c-0.08-0.098-0.247-0.146-0.499-0.146v-0.318h10.871
	c0.27,0,0.449-0.047,0.539-0.146c0.09-0.097,0.135-0.26,0.135-0.489h0.324v2.756h-0.324c0-0.229-0.045-0.394-0.135-0.49
	c-0.09-0.098-0.27-0.146-0.539-0.146h-8.47v3.445h5.961c0.27,0,0.449-0.049,0.539-0.145c0.09-0.099,0.136-0.262,0.136-0.492h0.323
	v2.757h-0.323c0-0.229-0.046-0.394-0.136-0.49s-0.27-0.146-0.539-0.146h-5.961v3.764h8.767c0.27,0,0.449-0.049,0.539-0.146
	c0.09-0.097,0.135-0.261,0.135-0.49h0.324v2.677h-0.324c0-0.23-0.045-0.38-0.135-0.45c-0.09-0.071-0.27-0.105-0.539-0.105h-11.168
	v-0.318c0.252,0,0.419-0.049,0.499-0.146c0.081-0.097,0.122-0.296,0.122-0.596V47.895z"/>
<path d="M210.92,58.178c0.287,0,0.481-0.049,0.58-0.146s0.149-0.295,0.149-0.596v-9.541c0-0.301-0.051-0.499-0.149-0.596
	c-0.099-0.098-0.293-0.146-0.58-0.146v-0.319h3.938v0.319c-0.288,0-0.481,0.022-0.58,0.065c-0.099,0.045-0.148,0.103-0.148,0.172
	c0,0.054,0.099,0.203,0.297,0.451l7.31,8.241v-8.188c0-0.301-0.05-0.499-0.148-0.596c-0.099-0.098-0.292-0.146-0.579-0.146v-0.319
	h2.967v0.319c-0.288,0-0.481,0.048-0.58,0.146c-0.099,0.097-0.148,0.295-0.148,0.596v9.541c0,0.301,0.05,0.498,0.148,0.596
	s0.292,0.146,0.58,0.146v0.317h-3.614v-0.317c0.359,0,0.575-0.019,0.647-0.054c0.071-0.034,0.107-0.097,0.107-0.186
	s-0.031-0.163-0.095-0.226c-0.063-0.061-0.14-0.146-0.229-0.252l-7.634-8.559v8.533c0,0.301,0.049,0.498,0.148,0.596
	c0.099,0.098,0.292,0.146,0.579,0.146v0.317h-2.967V58.178z"/>
<path d="M238.919,48.955c0-0.229-0.046-0.394-0.135-0.49c-0.091-0.098-0.271-0.146-0.54-0.146h-4.181v9.116
	c0,0.302,0.04,0.5,0.121,0.597c0.081,0.098,0.266,0.146,0.553,0.146v0.318h-3.129v-0.318c0.288,0,0.473-0.049,0.554-0.146
	c0.08-0.097,0.121-0.295,0.121-0.597v-9.116h-4.181c-0.271,0-0.45,0.049-0.54,0.146c-0.09,0.097-0.135,0.261-0.135,0.49h-0.323
	v-2.756h0.323c0,0.229,0.045,0.393,0.135,0.489c0.09,0.099,0.27,0.146,0.54,0.146h10.142c0.27,0,0.449-0.047,0.54-0.146
	c0.089-0.097,0.135-0.26,0.135-0.489h0.323v2.756H238.919z"/>
<path d="M244.799,57.435c0,0.301,0.041,0.5,0.122,0.597c0.081,0.098,0.265,0.146,0.553,0.146v0.316h-3.021v-0.316
	c0.288,0,0.473-0.049,0.554-0.146c0.08-0.097,0.121-0.296,0.121-0.597v-9.54c0-0.3-0.041-0.499-0.121-0.596
	c-0.081-0.098-0.266-0.146-0.554-0.146v-0.318h8.255c1.187,0,2.05,0.291,2.589,0.875c0.54,0.582,0.81,1.379,0.81,2.386
	c0,1.024-0.283,1.797-0.85,2.317c-0.566,0.522-1.372,0.801-2.414,0.836l2.967,4.453c0.126,0.193,0.233,0.321,0.323,0.383
	c0.09,0.063,0.207,0.094,0.352,0.094v0.316h-2.914v-0.316c0.198,0,0.319-0.014,0.364-0.04c0.045-0.027,0.067-0.084,0.067-0.172
	c0-0.089-0.026-0.177-0.081-0.265c-0.054-0.09-0.126-0.213-0.216-0.373l-2.643-4.08h-4.263V57.435z M250.545,51.764
	c0.647,0,1.105-0.141,1.375-0.424c0.271-0.282,0.405-0.715,0.405-1.299c0-0.635-0.14-1.1-0.418-1.392
	c-0.279-0.291-0.823-0.437-1.632-0.437h-5.477v3.551H250.545z"/>
<path d="M259.554,47.895c0-0.3-0.041-0.499-0.122-0.596c-0.08-0.098-0.247-0.146-0.499-0.146v-0.318h10.871
	c0.27,0,0.449-0.047,0.539-0.146c0.09-0.097,0.135-0.26,0.135-0.489h0.324v2.756h-0.324c0-0.229-0.045-0.394-0.135-0.49
	c-0.09-0.098-0.27-0.146-0.539-0.146h-8.47v3.445h5.961c0.27,0,0.449-0.049,0.539-0.145c0.09-0.099,0.136-0.262,0.136-0.492h0.323
	v2.757h-0.323c0-0.229-0.046-0.394-0.136-0.49s-0.27-0.146-0.539-0.146h-5.961v3.764h8.767c0.27,0,0.449-0.049,0.539-0.146
	c0.09-0.097,0.135-0.261,0.135-0.49h0.324v2.677h-0.324c0-0.23-0.045-0.38-0.135-0.45c-0.09-0.071-0.27-0.105-0.539-0.105h-11.168
	v-0.318c0.252,0,0.419-0.049,0.499-0.146c0.081-0.097,0.122-0.296,0.122-0.596V47.895z"/>
<path d="M293.379,52.877c0-0.266-0.072-0.441-0.216-0.53c-0.198-0.141-0.477-0.212-0.836-0.212h-5.746v5.406
	c0,0.195,0.045,0.349,0.136,0.464c0.09,0.115,0.26,0.172,0.512,0.172v0.318h-3.561v-0.318c0.252,0,0.423-0.057,0.513-0.172
	s0.136-0.269,0.136-0.464V45.51c0-0.195-0.046-0.349-0.136-0.464s-0.261-0.172-0.513-0.172v-0.318h11.6
	c0.467,0,0.764-0.04,0.89-0.12c0.126-0.078,0.188-0.216,0.188-0.41h0.324v3.021h-0.324c0-0.23-0.07-0.411-0.216-0.544
	c-0.144-0.132-0.422-0.198-0.836-0.198h-8.713v4.081h5.719c0.468,0,0.766-0.04,0.892-0.118c0.125-0.08,0.188-0.218,0.188-0.412
	h0.324v3.021H293.379z"/>
<path d="M305.867,46.676c1.043,0,1.982,0.158,2.819,0.477c0.836,0.318,1.551,0.747,2.144,1.285c0.594,0.539,1.048,1.171,1.362,1.895
	c0.314,0.726,0.473,1.502,0.473,2.332c0,0.832-0.158,1.608-0.473,2.332c-0.314,0.726-0.769,1.356-1.362,1.896
	c-0.593,0.539-1.308,0.954-2.144,1.246c-0.837,0.291-1.776,0.437-2.819,0.437s-1.981-0.146-2.818-0.437
	c-0.837-0.292-1.552-0.707-2.145-1.246c-0.594-0.539-1.048-1.17-1.362-1.896c-0.314-0.724-0.472-1.5-0.472-2.332
	c0-0.83,0.157-1.606,0.472-2.332c0.314-0.724,0.769-1.355,1.362-1.895c0.593-0.538,1.308-0.967,2.145-1.285
	S304.824,46.676,305.867,46.676 M305.867,48.16c-0.772,0-1.47,0.114-2.091,0.344c-0.62,0.229-1.146,0.549-1.577,0.953
	c-0.432,0.408-0.765,0.885-0.998,1.432c-0.234,0.548-0.351,1.131-0.351,1.75c0,0.636,0.116,1.229,0.351,1.775
	c0.233,0.547,0.566,1.024,0.998,1.432c0.432,0.406,0.957,0.729,1.577,0.967c0.621,0.238,1.318,0.357,2.091,0.357
	c0.773,0,1.47-0.119,2.091-0.357c0.62-0.238,1.146-0.561,1.578-0.967c0.432-0.407,0.764-0.885,0.998-1.432
	c0.233-0.547,0.352-1.14,0.352-1.775c0-0.619-0.118-1.202-0.352-1.75c-0.234-0.547-0.566-1.023-0.998-1.432
	c-0.432-0.404-0.958-0.724-1.578-0.953C307.337,48.274,306.641,48.16,305.867,48.16"/>
<path d="M318.976,57.435c0,0.301,0.041,0.5,0.122,0.597c0.081,0.098,0.265,0.146,0.553,0.146v0.316h-3.021v-0.316
	c0.288,0,0.473-0.049,0.554-0.146c0.08-0.097,0.121-0.296,0.121-0.597v-9.54c0-0.3-0.041-0.499-0.121-0.596
	c-0.081-0.098-0.266-0.146-0.554-0.146v-0.318h8.255c1.187,0,2.05,0.291,2.589,0.875c0.54,0.582,0.81,1.379,0.81,2.386
	c0,1.024-0.283,1.797-0.85,2.317c-0.566,0.522-1.372,0.801-2.414,0.836l2.967,4.453c0.126,0.193,0.233,0.321,0.323,0.383
	c0.09,0.063,0.207,0.094,0.351,0.094v0.316h-2.913v-0.316c0.198,0,0.319-0.014,0.364-0.04c0.045-0.027,0.067-0.084,0.067-0.172
	c0-0.089-0.026-0.177-0.081-0.265c-0.054-0.09-0.126-0.213-0.216-0.373l-2.643-4.08h-4.263V57.435z M324.722,51.764
	c0.646,0,1.105-0.141,1.375-0.424c0.271-0.282,0.405-0.715,0.405-1.299c0-0.635-0.14-1.1-0.418-1.392
	c-0.279-0.291-0.823-0.437-1.632-0.437h-5.477v3.551H324.722z"/>
<path d="M0.647,71.934c0-0.193-0.045-0.349-0.135-0.463C0.422,71.355,0.251,71.299,0,71.299V70.98h9.063
	c1.78,0,3.057,0.326,3.83,0.979c0.773,0.654,1.16,1.573,1.16,2.757c0,1.324-0.382,2.35-1.147,3.073
	c-0.764,0.726-2.018,1.087-3.762,1.087H2.913v5.088c0,0.195,0.044,0.35,0.135,0.465c0.089,0.114,0.26,0.172,0.512,0.172v0.317H0
	v-0.317c0.251,0,0.422-0.058,0.512-0.172c0.09-0.115,0.135-0.27,0.135-0.465V71.934z M9.009,77.075c1.097,0,1.87-0.203,2.32-0.61
	c0.449-0.406,0.674-0.962,0.674-1.668c0-0.689-0.202-1.197-0.607-1.524c-0.405-0.327-1.2-0.49-2.387-0.49H2.913v4.293H9.009z"/>
<path d="M20.337,83.859c0,0.301,0.041,0.5,0.121,0.597c0.082,0.097,0.266,0.146,0.554,0.146v0.317h-3.021v-0.317
	c0.287,0,0.472-0.049,0.552-0.146c0.082-0.097,0.122-0.296,0.122-0.597v-9.541c0-0.299-0.04-0.498-0.122-0.596
	c-0.08-0.097-0.265-0.146-0.552-0.146v-0.318h8.254c1.187,0,2.049,0.291,2.589,0.874s0.81,1.379,0.81,2.387
	c0,1.023-0.284,1.797-0.851,2.317c-0.566,0.522-1.371,0.8-2.414,0.835l2.968,4.453c0.125,0.193,0.233,0.322,0.323,0.384
	c0.09,0.062,0.207,0.093,0.351,0.093v0.317h-2.913v-0.317c0.198,0,0.319-0.014,0.364-0.039c0.045-0.027,0.068-0.084,0.068-0.172
	c0-0.09-0.028-0.178-0.082-0.266c-0.054-0.089-0.125-0.212-0.215-0.372l-2.644-4.081h-4.262V83.859z M26.083,78.188
	c0.647,0,1.106-0.141,1.375-0.424c0.27-0.281,0.405-0.715,0.405-1.299c0-0.635-0.139-1.099-0.418-1.391
	c-0.279-0.291-0.823-0.438-1.632-0.438h-5.476v3.551H26.083z"/>
<path d="M40.19,73.1c1.043,0,1.983,0.159,2.819,0.478c0.836,0.317,1.551,0.747,2.144,1.285c0.594,0.538,1.048,1.171,1.363,1.895
	c0.314,0.726,0.471,1.502,0.471,2.332c0,0.831-0.157,1.608-0.471,2.332c-0.315,0.726-0.769,1.356-1.363,1.896
	c-0.593,0.539-1.308,0.953-2.144,1.246c-0.836,0.291-1.776,0.437-2.819,0.437s-1.982-0.146-2.819-0.437
	c-0.836-0.293-1.551-0.707-2.144-1.246c-0.594-0.539-1.048-1.17-1.362-1.896c-0.315-0.724-0.472-1.501-0.472-2.332
	c0-0.83,0.157-1.606,0.472-2.332c0.314-0.724,0.768-1.356,1.362-1.895c0.593-0.538,1.308-0.968,2.144-1.285
	C38.208,73.259,39.147,73.1,40.19,73.1 M40.19,74.584c-0.773,0-1.47,0.115-2.09,0.346c-0.621,0.229-1.147,0.547-1.578,0.952
	c-0.432,0.407-0.765,0.884-0.999,1.431c-0.233,0.549-0.35,1.131-0.35,1.75c0,0.637,0.117,1.229,0.35,1.775
	c0.234,0.549,0.567,1.025,0.999,1.432c0.431,0.406,0.957,0.729,1.578,0.968c0.62,0.237,1.317,0.356,2.09,0.356
	s1.47-0.119,2.091-0.356c0.62-0.239,1.146-0.562,1.577-0.968c0.432-0.406,0.765-0.883,0.999-1.432
	c0.233-0.547,0.35-1.139,0.35-1.775c0-0.619-0.117-1.201-0.35-1.75c-0.234-0.547-0.567-1.023-0.999-1.431
	c-0.431-0.405-0.957-0.724-1.577-0.952C41.66,74.699,40.963,74.584,40.19,74.584"/>
<path d="M61.958,75.379c0-0.229-0.045-0.393-0.135-0.49c-0.09-0.097-0.27-0.146-0.539-0.146h-7.931v3.551h5.314
	c0.27,0,0.449-0.048,0.54-0.146c0.089-0.098,0.134-0.242,0.134-0.438h0.324v2.598h-0.324c0-0.177-0.045-0.309-0.134-0.397
	c-0.091-0.089-0.27-0.134-0.54-0.134h-5.314v4.082c0,0.301,0.045,0.5,0.135,0.597c0.09,0.097,0.287,0.146,0.594,0.146v0.318h-3.129
	v-0.318c0.305,0,0.503-0.049,0.593-0.146c0.09-0.097,0.135-0.296,0.135-0.597v-9.541c0-0.299-0.041-0.498-0.121-0.596
	c-0.081-0.097-0.266-0.146-0.554-0.146v-0.318h10.278c0.269,0,0.449-0.048,0.539-0.146c0.09-0.098,0.135-0.26,0.135-0.49h0.324
	v2.756H61.958z"/>
<path d="M66.57,74.318c0-0.299-0.04-0.498-0.121-0.596c-0.081-0.097-0.248-0.146-0.499-0.146v-0.317h10.87
	c0.27,0,0.45-0.048,0.54-0.146c0.089-0.098,0.135-0.26,0.135-0.49h0.324v2.756h-0.324c0-0.229-0.046-0.393-0.135-0.49
	c-0.09-0.097-0.27-0.146-0.54-0.146h-8.47v3.445h5.962c0.269,0,0.449-0.048,0.539-0.145c0.09-0.098,0.135-0.262,0.135-0.491h0.324
	v2.756h-0.324c0-0.229-0.045-0.393-0.135-0.489c-0.09-0.098-0.27-0.146-0.539-0.146h-5.962v3.763h8.767
	c0.27,0,0.449-0.049,0.539-0.146s0.135-0.261,0.135-0.491h0.324v2.678h-0.324c0-0.23-0.045-0.381-0.135-0.451
	s-0.269-0.105-0.539-0.105H65.95v-0.318c0.251,0,0.418-0.049,0.499-0.146s0.121-0.296,0.121-0.597V74.318z"/>
<path d="M82.728,81.66c-0.036,0.176-0.054,0.291-0.054,0.344c0,0.142,0.139,0.305,0.418,0.49c0.279,0.187,0.648,0.358,1.106,0.518
	c0.459,0.158,0.989,0.296,1.592,0.411c0.602,0.114,1.227,0.172,1.875,0.172c1.24,0,2.207-0.164,2.899-0.491
	c0.692-0.326,1.039-0.79,1.039-1.391c0-0.565-0.239-0.963-0.715-1.193c-0.477-0.229-1.075-0.393-1.794-0.49
	c-0.72-0.097-1.497-0.166-2.333-0.212c-0.836-0.044-1.615-0.153-2.333-0.331c-0.72-0.176-1.318-0.468-1.794-0.873
	c-0.477-0.408-0.715-1.017-0.715-1.83c0-0.67,0.139-1.24,0.418-1.709c0.279-0.468,0.652-0.849,1.12-1.14
	c0.467-0.292,1.011-0.504,1.631-0.636c0.621-0.133,1.264-0.199,1.929-0.199c0.701,0,1.322,0.049,1.861,0.146
	c0.54,0.097,1.002,0.207,1.39,0.33c0.386,0.125,0.696,0.235,0.93,0.332c0.234,0.098,0.405,0.146,0.512,0.146
	c0.09,0,0.163-0.021,0.216-0.066c0.054-0.045,0.126-0.146,0.216-0.306l0.351,0.133l-0.998,2.597l-0.324-0.131
	c0.018-0.037,0.031-0.076,0.04-0.121c0.009-0.043,0.014-0.109,0.014-0.199c0-0.141-0.122-0.291-0.364-0.449
	c-0.243-0.159-0.567-0.309-0.971-0.451c-0.405-0.141-0.863-0.255-1.376-0.344c-0.513-0.088-1.038-0.133-1.578-0.133
	c-0.701,0-1.268,0.058-1.699,0.173c-0.432,0.114-0.769,0.265-1.012,0.45c-0.243,0.185-0.409,0.397-0.499,0.636
	c-0.09,0.239-0.135,0.481-0.135,0.729c0,0.512,0.239,0.879,0.715,1.1c0.477,0.221,1.074,0.375,1.794,0.464
	c0.719,0.088,1.497,0.153,2.333,0.198c0.837,0.045,1.614,0.154,2.334,0.33c0.718,0.178,1.316,0.465,1.793,0.862
	s0.715,0.993,0.715,1.789c0,1.272-0.463,2.204-1.389,2.796c-0.927,0.592-2.424,0.887-4.491,0.887c-0.702,0-1.34-0.047-1.916-0.146
	c-0.575-0.096-1.083-0.212-1.523-0.344c-0.441-0.134-0.814-0.257-1.12-0.371c-0.306-0.115-0.53-0.172-0.674-0.172
	s-0.252,0.044-0.324,0.132c-0.072,0.089-0.126,0.177-0.162,0.266l-0.323-0.106l1.052-2.677L82.728,81.66z"/>
<path d="M97.725,81.66c-0.036,0.176-0.054,0.291-0.054,0.344c0,0.142,0.139,0.305,0.418,0.49c0.279,0.187,0.648,0.358,1.106,0.518
	c0.459,0.158,0.989,0.296,1.592,0.411c0.602,0.114,1.227,0.172,1.875,0.172c1.24,0,2.207-0.164,2.899-0.491
	c0.692-0.326,1.039-0.79,1.039-1.391c0-0.565-0.239-0.963-0.715-1.193c-0.477-0.229-1.075-0.393-1.794-0.49
	c-0.72-0.097-1.497-0.166-2.333-0.212c-0.836-0.044-1.615-0.153-2.333-0.331c-0.72-0.176-1.318-0.468-1.794-0.873
	c-0.477-0.408-0.715-1.017-0.715-1.83c0-0.67,0.139-1.24,0.418-1.709c0.279-0.468,0.652-0.849,1.12-1.14
	c0.467-0.292,1.011-0.504,1.631-0.636c0.621-0.133,1.264-0.199,1.929-0.199c0.701,0,1.322,0.049,1.861,0.146
	c0.54,0.097,1.002,0.207,1.39,0.33c0.386,0.125,0.696,0.235,0.93,0.332c0.234,0.098,0.405,0.146,0.512,0.146
	c0.09,0,0.163-0.021,0.216-0.066c0.054-0.045,0.126-0.146,0.216-0.306l0.351,0.133l-0.998,2.597l-0.324-0.131
	c0.018-0.037,0.031-0.076,0.04-0.121c0.009-0.043,0.014-0.109,0.014-0.199c0-0.141-0.122-0.291-0.364-0.449
	c-0.243-0.159-0.567-0.309-0.971-0.451c-0.405-0.141-0.863-0.255-1.376-0.344c-0.513-0.088-1.038-0.133-1.578-0.133
	c-0.701,0-1.268,0.058-1.699,0.173c-0.432,0.114-0.769,0.265-1.012,0.45c-0.243,0.185-0.409,0.397-0.499,0.636
	c-0.09,0.239-0.135,0.481-0.135,0.729c0,0.512,0.239,0.879,0.715,1.1c0.477,0.221,1.074,0.375,1.794,0.464
	c0.719,0.088,1.497,0.153,2.333,0.198c0.837,0.045,1.614,0.154,2.334,0.33c0.718,0.178,1.316,0.465,1.793,0.862
	s0.715,0.993,0.715,1.789c0,1.272-0.463,2.204-1.389,2.796c-0.927,0.592-2.424,0.887-4.491,0.887c-0.702,0-1.34-0.047-1.916-0.146
	c-0.575-0.096-1.083-0.212-1.523-0.344c-0.441-0.134-0.814-0.257-1.12-0.371c-0.306-0.115-0.53-0.172-0.674-0.172
	s-0.252,0.044-0.324,0.132c-0.072,0.089-0.126,0.177-0.162,0.266l-0.323-0.106l1.052-2.677L97.725,81.66z"/>
<path d="M112.856,84.602c0.289,0,0.473-0.049,0.555-0.146c0.08-0.097,0.121-0.295,0.121-0.596v-9.541c0-0.3-0.041-0.499-0.121-0.596
	c-0.082-0.098-0.266-0.145-0.555-0.145v-0.319h3.021v0.319c-0.287,0-0.47,0.047-0.552,0.145c-0.08,0.097-0.121,0.296-0.121,0.596
	v9.541c0,0.301,0.041,0.499,0.121,0.596c0.082,0.098,0.265,0.146,0.552,0.146v0.318h-3.021V84.602z"/>
<path d="M127.126,73.1c1.043,0,1.982,0.159,2.819,0.478c0.836,0.317,1.551,0.747,2.144,1.285c0.594,0.538,1.048,1.171,1.362,1.895
	c0.315,0.726,0.473,1.502,0.473,2.332c0,0.831-0.158,1.608-0.473,2.332c-0.314,0.726-0.768,1.356-1.362,1.896
	c-0.593,0.539-1.308,0.953-2.144,1.246c-0.837,0.291-1.776,0.437-2.819,0.437s-1.982-0.146-2.818-0.437
	c-0.837-0.293-1.552-0.707-2.145-1.246c-0.594-0.539-1.048-1.17-1.362-1.896c-0.315-0.724-0.472-1.501-0.472-2.332
	c0-0.83,0.157-1.606,0.472-2.332c0.314-0.724,0.768-1.356,1.362-1.895c0.593-0.538,1.308-0.968,2.145-1.285
	C125.144,73.259,126.083,73.1,127.126,73.1 M127.126,74.584c-0.773,0-1.47,0.115-2.091,0.346c-0.62,0.229-1.145,0.547-1.577,0.952
	c-0.432,0.407-0.765,0.884-0.998,1.431c-0.234,0.549-0.351,1.131-0.351,1.75c0,0.637,0.117,1.229,0.351,1.775
	c0.233,0.549,0.566,1.025,0.998,1.432s0.957,0.729,1.577,0.968c0.621,0.237,1.318,0.356,2.091,0.356s1.47-0.119,2.091-0.356
	c0.62-0.239,1.146-0.562,1.578-0.968s0.764-0.883,0.998-1.432c0.233-0.547,0.351-1.139,0.351-1.775c0-0.619-0.118-1.201-0.351-1.75
	c-0.234-0.547-0.566-1.023-0.998-1.431c-0.432-0.405-0.958-0.724-1.578-0.952C128.596,74.699,127.899,74.584,127.126,74.584"/>
<path d="M137.835,84.602c0.287,0,0.481-0.049,0.58-0.146c0.099-0.097,0.149-0.295,0.149-0.596v-9.541c0-0.3-0.05-0.499-0.149-0.596
	c-0.099-0.098-0.293-0.145-0.58-0.145v-0.319h3.938v0.319c-0.288,0-0.481,0.021-0.58,0.065c-0.098,0.044-0.148,0.103-0.148,0.172
	c0,0.054,0.099,0.203,0.297,0.451l7.309,8.241v-8.189c0-0.3-0.049-0.499-0.148-0.596c-0.099-0.098-0.292-0.145-0.579-0.145v-0.319
	h2.967v0.319c-0.288,0-0.482,0.047-0.58,0.145c-0.099,0.097-0.149,0.296-0.149,0.596v9.541c0,0.301,0.05,0.499,0.149,0.596
	c0.098,0.098,0.292,0.146,0.58,0.146v0.318h-3.615v-0.318c0.36,0,0.576-0.018,0.648-0.053c0.071-0.035,0.107-0.098,0.107-0.187
	c0-0.088-0.031-0.163-0.094-0.225s-0.14-0.146-0.229-0.252l-7.634-8.56v8.533c0,0.301,0.049,0.499,0.149,0.596
	c0.098,0.098,0.292,0.146,0.579,0.146v0.318h-2.967V84.602z"/>
<path d="M153.857,84.602c0.287,0,0.481-0.063,0.58-0.186c0.099-0.124,0.193-0.283,0.284-0.477l4.261-9.594
	c0.09-0.213,0.135-0.362,0.135-0.45c0-0.089-0.05-0.169-0.148-0.239c-0.099-0.07-0.275-0.114-0.527-0.132V73.26h4.37v0.317
	c-0.144,0-0.283,0.022-0.418,0.065c-0.134,0.045-0.202,0.129-0.202,0.253c0,0.088,0.023,0.177,0.068,0.265s0.085,0.178,0.121,0.266
	l4.612,9.646c0.055,0.124,0.135,0.243,0.243,0.358c0.108,0.115,0.306,0.172,0.594,0.172v0.318h-3.399v-0.318
	c0.324,0,0.54-0.027,0.647-0.079c0.108-0.054,0.162-0.134,0.162-0.239c0-0.123-0.018-0.229-0.054-0.318
	c-0.036-0.088-0.072-0.176-0.108-0.265l-1.105-2.226h-6.555l-0.917,2.014c-0.072,0.159-0.149,0.311-0.23,0.451
	s-0.121,0.256-0.121,0.344c0,0.105,0.054,0.186,0.161,0.239c0.109,0.052,0.297,0.079,0.567,0.079v0.318h-3.021V84.602z
	 M158.038,79.99h5.26l-2.724-5.564L158.038,79.99z"/>
<path d="M182.368,85.423c0-0.194-0.045-0.327-0.135-0.397c-0.09-0.07-0.269-0.105-0.539-0.105h-10.817v-0.318
	c0.288,0,0.472-0.049,0.553-0.146s0.122-0.296,0.122-0.597v-9.541c0-0.3-0.041-0.498-0.122-0.596
	c-0.081-0.097-0.265-0.146-0.553-0.146v-0.317h3.021v0.317c-0.288,0-0.471,0.05-0.552,0.146c-0.082,0.098-0.123,0.296-0.123,0.596
	v9.117h8.471c0.27,0,0.449-0.057,0.539-0.173c0.09-0.114,0.135-0.321,0.135-0.623h0.324v2.783H182.368z"/>
<path d="M194.507,71.935c0-0.195-0.045-0.349-0.135-0.464s-0.261-0.174-0.513-0.174V70.98h8.362c1.114,0,2.117,0.172,3.008,0.516
	c0.89,0.346,1.645,0.826,2.266,1.445c0.62,0.618,1.101,1.355,1.442,2.212s0.513,1.789,0.513,2.796c0,1.008-0.144,1.939-0.432,2.797
	c-0.287,0.856-0.714,1.594-1.281,2.213c-0.566,0.619-1.267,1.1-2.104,1.443c-0.836,0.346-1.803,0.518-2.899,0.518h-8.875v-0.318
	c0.252,0,0.423-0.057,0.513-0.172s0.135-0.27,0.135-0.465V71.935z M202.491,83.17c1.582,0,2.77-0.44,3.561-1.324
	c0.791-0.883,1.187-2.182,1.187-3.896c0-1.713-0.454-3.012-1.362-3.895c-0.908-0.885-2.197-1.325-3.87-1.325h-5.233v10.44H202.491z"
	/>
<path d="M214.225,74.318c0-0.299-0.041-0.498-0.122-0.596c-0.08-0.097-0.247-0.146-0.499-0.146v-0.317h10.871
	c0.271,0,0.449-0.048,0.539-0.146s0.135-0.26,0.135-0.49h0.324v2.756h-0.324c0-0.229-0.045-0.393-0.135-0.49
	c-0.09-0.097-0.269-0.146-0.539-0.146h-8.47v3.445h5.961c0.27,0,0.449-0.048,0.539-0.145c0.09-0.098,0.136-0.262,0.136-0.491h0.323
	v2.756h-0.323c0-0.229-0.046-0.393-0.136-0.489c-0.09-0.098-0.27-0.146-0.539-0.146h-5.961v3.763h8.767
	c0.27,0,0.449-0.049,0.539-0.146s0.135-0.261,0.135-0.491h0.324v2.678h-0.324c0-0.23-0.045-0.381-0.135-0.451
	s-0.27-0.105-0.539-0.105h-11.168v-0.318c0.252,0,0.419-0.049,0.499-0.146c0.081-0.097,0.122-0.296,0.122-0.597V74.318z"/>
<path d="M231.217,73.259v0.317c-0.161-0.016-0.306,0.01-0.431,0.08c-0.126,0.07-0.189,0.194-0.189,0.371
	c0,0.088,0.036,0.194,0.108,0.318c0.071,0.123,0.135,0.256,0.188,0.396l3.83,8.031l3.507-8.242c0.036-0.088,0.071-0.186,0.108-0.293
	c0.035-0.104,0.054-0.192,0.054-0.264c0-0.265-0.198-0.398-0.594-0.398v-0.317h2.751v0.317c-0.233,0-0.413,0.143-0.539,0.425
	l-4.127,9.62c-0.036,0.089-0.081,0.195-0.135,0.318c-0.053,0.123-0.081,0.229-0.081,0.317c0,0.248,0.197,0.362,0.594,0.345v0.318
	h-3.129v-0.318c0.323,0,0.485-0.08,0.485-0.238c0-0.106-0.036-0.244-0.108-0.412c-0.071-0.166-0.171-0.383-0.297-0.648l-4.369-9.195
	c-0.091-0.177-0.193-0.31-0.311-0.397c-0.117-0.089-0.283-0.134-0.499-0.134v-0.317H231.217z"/>
<path d="M244.192,74.318c0-0.299-0.041-0.498-0.122-0.596c-0.08-0.097-0.247-0.146-0.499-0.146v-0.317h10.871
	c0.27,0,0.449-0.048,0.539-0.146s0.135-0.26,0.135-0.49h0.324v2.756h-0.324c0-0.229-0.045-0.393-0.135-0.49
	c-0.09-0.097-0.27-0.146-0.539-0.146h-8.47v3.445h5.961c0.27,0,0.448-0.048,0.539-0.145c0.09-0.098,0.136-0.262,0.136-0.491h0.323
	v2.756h-0.323c0-0.229-0.046-0.393-0.136-0.489c-0.091-0.098-0.27-0.146-0.539-0.146h-5.961v3.763h8.767
	c0.27,0,0.449-0.049,0.539-0.146s0.135-0.261,0.135-0.491h0.324v2.678h-0.324c0-0.23-0.045-0.381-0.135-0.451
	s-0.27-0.105-0.539-0.105h-11.168v-0.318c0.252,0,0.419-0.049,0.499-0.146c0.081-0.097,0.122-0.296,0.122-0.597V74.318z"/>
<path d="M271.543,85.423c0-0.194-0.045-0.327-0.135-0.397s-0.27-0.105-0.539-0.105h-10.817v-0.318c0.288,0,0.473-0.049,0.553-0.146
	c0.081-0.097,0.122-0.296,0.122-0.597v-9.541c0-0.3-0.041-0.498-0.122-0.596c-0.08-0.097-0.265-0.146-0.553-0.146v-0.317h3.021
	v0.317c-0.288,0-0.472,0.05-0.553,0.146c-0.082,0.098-0.123,0.296-0.123,0.596v9.117h8.472c0.27,0,0.449-0.057,0.539-0.173
	c0.09-0.114,0.135-0.321,0.135-0.623h0.324v2.783H271.543z"/>
<path d="M280.769,73.1c1.043,0,1.982,0.159,2.819,0.478c0.836,0.317,1.551,0.747,2.144,1.285c0.594,0.538,1.048,1.171,1.362,1.895
	c0.314,0.726,0.473,1.502,0.473,2.332c0,0.831-0.158,1.608-0.473,2.332c-0.314,0.726-0.769,1.356-1.362,1.896
	c-0.593,0.539-1.308,0.953-2.144,1.246c-0.837,0.291-1.776,0.437-2.819,0.437s-1.982-0.146-2.818-0.437
	c-0.837-0.293-1.552-0.707-2.145-1.246c-0.594-0.539-1.048-1.17-1.362-1.896c-0.314-0.724-0.472-1.501-0.472-2.332
	c0-0.83,0.157-1.606,0.472-2.332c0.314-0.724,0.769-1.356,1.362-1.895c0.593-0.538,1.308-0.968,2.145-1.285
	C278.786,73.259,279.726,73.1,280.769,73.1 M280.769,74.584c-0.773,0-1.47,0.115-2.091,0.346c-0.62,0.229-1.146,0.547-1.577,0.952
	c-0.432,0.407-0.765,0.884-0.998,1.431c-0.234,0.549-0.351,1.131-0.351,1.75c0,0.637,0.116,1.229,0.351,1.775
	c0.233,0.549,0.566,1.025,0.998,1.432s0.957,0.729,1.577,0.968c0.621,0.237,1.317,0.356,2.091,0.356s1.47-0.119,2.091-0.356
	c0.62-0.239,1.146-0.562,1.578-0.968s0.764-0.883,0.998-1.432c0.233-0.547,0.351-1.139,0.351-1.775c0-0.619-0.117-1.201-0.351-1.75
	c-0.234-0.547-0.566-1.023-0.998-1.431c-0.432-0.405-0.958-0.724-1.578-0.952C282.238,74.699,281.542,74.584,280.769,74.584"/>
<path d="M292.205,74.319c0-0.302-0.041-0.499-0.121-0.597c-0.081-0.097-0.265-0.146-0.554-0.146V73.26h7.229
	c2.697,0,4.046,1.086,4.046,3.258c0,0.496-0.107,0.946-0.323,1.353c-0.216,0.407-0.499,0.755-0.85,1.047
	c-0.352,0.291-0.756,0.517-1.214,0.677c-0.459,0.158-0.94,0.237-1.443,0.237h-5.099v4.028c0,0.301,0.041,0.5,0.122,0.596
	c0.081,0.098,0.265,0.146,0.553,0.146v0.317h-3.021v-0.317c0.289,0,0.473-0.049,0.554-0.146c0.08-0.096,0.121-0.295,0.121-0.596
	V74.319z M298.841,78.348c0.755,0,1.308-0.168,1.658-0.504c0.352-0.336,0.526-0.795,0.526-1.379c0-0.636-0.212-1.099-0.634-1.391
	c-0.423-0.291-1.065-0.438-1.929-0.438h-4.586v3.711H298.841z"/>
<path d="M317.912,84.602c0.287,0,0.48-0.049,0.579-0.146c0.099-0.097,0.148-0.295,0.148-0.596v-8.32h-0.054l-4.882,8.823
	l-4.883-8.823h-0.054v8.32c0,0.301,0.049,0.499,0.148,0.596c0.099,0.098,0.292,0.146,0.58,0.146v0.318h-2.968v-0.318
	c0.288,0,0.481-0.049,0.58-0.146c0.099-0.097,0.148-0.295,0.148-0.596v-9.541c0-0.3-0.05-0.499-0.148-0.596
	c-0.099-0.098-0.292-0.145-0.58-0.145v-0.319h3.615v0.319c-0.432,0-0.647,0.097-0.647,0.291c0,0.035,0.054,0.149,0.161,0.344
	l4.047,7.234l4.046-7.234c0.107-0.194,0.162-0.309,0.162-0.344c0-0.194-0.216-0.291-0.647-0.291v-0.319h3.669v0.319
	c-0.253,0-0.419,0.047-0.5,0.145c-0.081,0.097-0.121,0.296-0.121,0.596v9.541c0,0.301,0.04,0.499,0.121,0.596
	c0.081,0.098,0.247,0.146,0.5,0.146v0.318h-3.021V84.602z"/>
<path d="M326.624,74.318c0-0.299-0.041-0.498-0.122-0.596c-0.08-0.097-0.247-0.146-0.499-0.146v-0.317h10.871
	c0.27,0,0.449-0.048,0.539-0.146s0.135-0.26,0.135-0.49h0.324v2.756h-0.324c0-0.229-0.045-0.393-0.135-0.49
	c-0.09-0.097-0.27-0.146-0.539-0.146h-8.47v3.445h5.961c0.27,0,0.449-0.048,0.539-0.145c0.09-0.098,0.136-0.262,0.136-0.491h0.323
	v2.756h-0.323c0-0.229-0.046-0.393-0.136-0.489c-0.09-0.098-0.27-0.146-0.539-0.146h-5.961v3.763h8.767
	c0.27,0,0.449-0.049,0.539-0.146s0.135-0.261,0.135-0.491h0.324v2.678h-0.324c0-0.23-0.045-0.381-0.135-0.451
	s-0.27-0.105-0.539-0.105h-11.168v-0.318c0.252,0,0.419-0.049,0.499-0.146c0.081-0.097,0.122-0.296,0.122-0.597V74.318z"/>
<path d="M342.43,84.602c0.287,0,0.481-0.049,0.58-0.146c0.099-0.097,0.149-0.295,0.149-0.596v-9.541c0-0.3-0.051-0.499-0.149-0.596
	c-0.099-0.098-0.293-0.145-0.58-0.145v-0.319h3.938v0.319c-0.288,0-0.481,0.021-0.58,0.065s-0.148,0.103-0.148,0.172
	c0,0.054,0.099,0.203,0.297,0.451l7.31,8.241v-8.189c0-0.3-0.05-0.499-0.148-0.596c-0.099-0.098-0.292-0.145-0.579-0.145v-0.319
	h2.967v0.319c-0.287,0-0.481,0.047-0.58,0.145c-0.099,0.097-0.148,0.296-0.148,0.596v9.541c0,0.301,0.05,0.499,0.148,0.596
	c0.099,0.098,0.293,0.146,0.58,0.146v0.318h-3.614v-0.318c0.359,0,0.575-0.018,0.647-0.053c0.071-0.035,0.107-0.098,0.107-0.187
	c0-0.088-0.031-0.163-0.094-0.225c-0.063-0.062-0.141-0.146-0.229-0.252l-7.634-8.56v8.533c0,0.301,0.049,0.499,0.148,0.596
	c0.099,0.098,0.292,0.146,0.579,0.146v0.318h-2.967V84.602z"/>
<path d="M370.429,75.379c0-0.229-0.046-0.393-0.135-0.49c-0.091-0.097-0.271-0.146-0.54-0.146h-4.181v9.116
	c0,0.301,0.04,0.5,0.121,0.597s0.266,0.146,0.553,0.146v0.318h-3.129v-0.318c0.289,0,0.473-0.049,0.554-0.146
	c0.08-0.097,0.121-0.296,0.121-0.597v-9.116h-4.181c-0.271,0-0.45,0.049-0.539,0.146c-0.091,0.098-0.136,0.262-0.136,0.49h-0.323
	v-2.756h0.323c0,0.23,0.045,0.393,0.136,0.49c0.089,0.098,0.269,0.146,0.539,0.146h10.142c0.27,0,0.449-0.048,0.54-0.146
	c0.089-0.098,0.135-0.26,0.135-0.49h0.323v2.756H370.429z"/>
<path d="M29.765,111.025c0.252,0,0.422-0.058,0.513-0.172c0.09-0.115,0.134-0.27,0.134-0.465V98.357
	c0-0.193-0.044-0.349-0.134-0.463c-0.091-0.115-0.261-0.173-0.513-0.173v-0.317h3.561v0.317c-0.252,0-0.423,0.058-0.513,0.173
	c-0.09,0.114-0.135,0.27-0.135,0.463v12.031c0,0.195,0.045,0.35,0.135,0.465c0.09,0.114,0.261,0.172,0.513,0.172v0.317h-3.561
	V111.025z"/>
<path d="M38.531,111.025c0.288,0,0.481-0.049,0.58-0.146c0.099-0.096,0.149-0.295,0.149-0.596v-9.54c0-0.302-0.05-0.499-0.149-0.597
	c-0.099-0.097-0.292-0.146-0.58-0.146v-0.317h3.938v0.317c-0.288,0-0.481,0.022-0.58,0.065c-0.099,0.045-0.148,0.103-0.148,0.172
	c0,0.055,0.099,0.203,0.297,0.451l7.31,8.242v-8.188c0-0.302-0.05-0.499-0.149-0.597c-0.099-0.097-0.292-0.146-0.58-0.146v-0.317
	h2.968v0.317c-0.288,0-0.482,0.049-0.58,0.146c-0.1,0.098-0.149,0.295-0.149,0.597v9.54c0,0.301,0.049,0.5,0.149,0.596
	c0.098,0.098,0.292,0.146,0.58,0.146v0.317h-3.615v-0.317c0.359,0,0.575-0.018,0.647-0.054c0.072-0.034,0.108-0.096,0.108-0.185
	c0-0.088-0.031-0.163-0.094-0.227c-0.063-0.061-0.14-0.145-0.229-0.25l-7.634-8.561v8.533c0,0.301,0.049,0.5,0.148,0.596
	c0.099,0.098,0.292,0.146,0.58,0.146v0.317h-2.967V111.025z"/>
<path d="M79.828,110.389c0,0.194,0.044,0.351,0.135,0.465c0.09,0.115,0.26,0.172,0.512,0.172v0.318h-3.561v-0.318
	c0.252,0,0.423-0.057,0.513-0.172c0.09-0.114,0.135-0.271,0.135-0.465v-5.299h-9.549v5.299c0,0.194,0.045,0.351,0.135,0.465
	c0.09,0.115,0.261,0.172,0.513,0.172v0.318H65.1v-0.318c0.252,0,0.422-0.057,0.513-0.172c0.09-0.114,0.134-0.271,0.134-0.465V98.357
	c0-0.194-0.044-0.348-0.134-0.463c-0.091-0.115-0.261-0.172-0.513-0.172v-0.318h3.561v0.318c-0.252,0-0.423,0.057-0.513,0.172
	c-0.09,0.115-0.135,0.269-0.135,0.463v4.982h9.549v-4.982c0-0.194-0.045-0.348-0.135-0.463c-0.09-0.115-0.261-0.172-0.513-0.172
	v-0.318h3.561v0.318c-0.252,0-0.422,0.057-0.512,0.172c-0.091,0.115-0.135,0.269-0.135,0.463V110.389z"/>
<path d="M86.437,100.742c0-0.299-0.04-0.498-0.121-0.596c-0.081-0.097-0.248-0.146-0.499-0.146v-0.318h10.87
	c0.27,0,0.45-0.048,0.54-0.146c0.089-0.098,0.135-0.26,0.135-0.49h0.324v2.756h-0.324c0-0.229-0.046-0.393-0.135-0.49
	c-0.09-0.097-0.27-0.146-0.54-0.146h-8.47v3.444h5.962c0.269,0,0.449-0.047,0.539-0.145c0.09-0.098,0.135-0.262,0.135-0.491h0.324
	v2.757h-0.324c0-0.229-0.045-0.394-0.135-0.49c-0.09-0.098-0.27-0.146-0.539-0.146h-5.962v3.763h8.767
	c0.27,0,0.449-0.05,0.539-0.146c0.09-0.097,0.135-0.261,0.135-0.491h0.324v2.678h-0.324c0-0.229-0.045-0.381-0.135-0.451
	s-0.269-0.105-0.539-0.105H85.816v-0.318c0.251,0,0.418-0.049,0.499-0.146s0.121-0.296,0.121-0.597V100.742z"/>
<path d="M100.273,111.025c0.287,0,0.481-0.063,0.58-0.187c0.099-0.123,0.193-0.282,0.283-0.476l4.262-9.594
	c0.09-0.213,0.135-0.362,0.135-0.451c0-0.088-0.05-0.168-0.148-0.238c-0.099-0.07-0.275-0.114-0.526-0.132v-0.265h4.369v0.317
	c-0.144,0-0.283,0.022-0.418,0.065c-0.134,0.045-0.202,0.129-0.202,0.252c0,0.089,0.022,0.178,0.068,0.266
	c0.044,0.088,0.085,0.178,0.121,0.266l4.612,9.646c0.054,0.123,0.134,0.243,0.244,0.357c0.107,0.114,0.304,0.172,0.593,0.172v0.317
	h-3.4v-0.317c0.324,0,0.541-0.027,0.649-0.079c0.107-0.054,0.162-0.134,0.162-0.239c0-0.124-0.02-0.229-0.055-0.318
	c-0.035-0.089-0.072-0.177-0.107-0.265l-1.106-2.226h-6.555l-0.918,2.014c-0.071,0.16-0.148,0.311-0.229,0.451
	s-0.121,0.256-0.121,0.344c0,0.105,0.054,0.186,0.162,0.239c0.108,0.052,0.296,0.079,0.566,0.079v0.317h-3.021V111.025z
	 M104.455,106.414h5.26l-2.724-5.564L104.455,106.414z"/>
<path d="M128.785,111.848c0-0.195-0.045-0.328-0.135-0.397c-0.09-0.072-0.269-0.106-0.539-0.106h-10.817v-0.318
	c0.288,0,0.472-0.049,0.553-0.146c0.081-0.096,0.122-0.296,0.122-0.596v-9.54c0-0.302-0.041-0.5-0.122-0.597
	c-0.081-0.096-0.265-0.146-0.553-0.146v-0.319h3.021v0.319c-0.288,0-0.471,0.05-0.552,0.146c-0.082,0.097-0.123,0.295-0.123,0.597
	v9.116h8.471c0.27,0,0.449-0.057,0.539-0.172c0.09-0.115,0.135-0.322,0.135-0.623h0.324v2.783H128.785z"/>
<path d="M142.246,101.803c0-0.229-0.046-0.393-0.135-0.49c-0.091-0.097-0.27-0.146-0.54-0.146h-4.18v9.116
	c0,0.301,0.04,0.5,0.121,0.597s0.265,0.146,0.552,0.146v0.318h-3.129v-0.318c0.289,0,0.473-0.049,0.554-0.146
	c0.08-0.097,0.121-0.296,0.121-0.597v-9.116h-4.18c-0.271,0-0.451,0.049-0.54,0.146c-0.09,0.098-0.135,0.262-0.135,0.49h-0.323
	v-2.756h0.323c0,0.23,0.045,0.393,0.135,0.49c0.089,0.098,0.269,0.146,0.54,0.146h10.141c0.27,0,0.449-0.048,0.54-0.146
	c0.089-0.098,0.135-0.26,0.135-0.49h0.323v2.756H142.246z"/>
<path d="M157.998,110.283c0,0.301,0.04,0.5,0.121,0.597s0.266,0.146,0.553,0.146v0.318h-3.021v-0.318
	c0.287,0,0.472-0.049,0.553-0.146s0.121-0.296,0.121-0.597v-4.399h-8.145v4.399c0,0.301,0.04,0.5,0.121,0.597
	c0.081,0.097,0.264,0.146,0.552,0.146v0.318h-3.02v-0.318c0.287,0,0.472-0.049,0.553-0.146c0.081-0.097,0.121-0.296,0.121-0.597
	v-9.541c0-0.299-0.04-0.498-0.121-0.596c-0.081-0.097-0.266-0.146-0.553-0.146v-0.317h3.02V100c-0.288,0-0.471,0.05-0.552,0.146
	c-0.081,0.098-0.121,0.297-0.121,0.596v3.658h8.145v-3.658c0-0.299-0.04-0.498-0.121-0.596c-0.081-0.097-0.266-0.146-0.553-0.146
	v-0.317h3.021V100c-0.287,0-0.472,0.05-0.553,0.146c-0.081,0.098-0.121,0.297-0.121,0.596V110.283z"/>
<path d="M170,111.025c0.287,0,0.481-0.063,0.58-0.187c0.099-0.123,0.193-0.282,0.284-0.476l4.261-9.594
	c0.09-0.213,0.135-0.362,0.135-0.451c0-0.088-0.05-0.168-0.148-0.238c-0.099-0.07-0.275-0.114-0.527-0.132v-0.265h4.37v0.317
	c-0.144,0-0.283,0.022-0.418,0.065c-0.134,0.045-0.202,0.129-0.202,0.252c0,0.089,0.023,0.178,0.068,0.266
	c0.045,0.088,0.085,0.178,0.121,0.266l4.612,9.646c0.055,0.123,0.135,0.243,0.243,0.357c0.108,0.114,0.306,0.172,0.594,0.172v0.317
	h-3.399v-0.317c0.324,0,0.54-0.027,0.647-0.079c0.108-0.054,0.162-0.134,0.162-0.239c0-0.124-0.018-0.229-0.054-0.318
	c-0.036-0.089-0.072-0.177-0.108-0.265l-1.105-2.226h-6.555l-0.917,2.014c-0.072,0.16-0.149,0.311-0.23,0.451
	s-0.121,0.256-0.121,0.344c0,0.105,0.054,0.186,0.161,0.239c0.109,0.052,0.297,0.079,0.567,0.079v0.317H170V111.025z
	 M174.182,106.414h5.26l-2.724-5.564L174.182,106.414z"/>
<path d="M186.968,111.025c0.287,0,0.48-0.049,0.58-0.146c0.099-0.096,0.148-0.295,0.148-0.596v-9.54c0-0.302-0.05-0.499-0.148-0.597
	c-0.1-0.097-0.293-0.146-0.58-0.146v-0.317h3.938v0.317c-0.287,0-0.48,0.022-0.579,0.065c-0.099,0.045-0.148,0.103-0.148,0.172
	c0,0.055,0.099,0.203,0.297,0.451l7.31,8.242v-8.188c0-0.302-0.05-0.499-0.148-0.597c-0.099-0.097-0.292-0.146-0.579-0.146v-0.317
	h2.967v0.317c-0.288,0-0.481,0.049-0.58,0.146c-0.099,0.098-0.148,0.295-0.148,0.597v9.54c0,0.301,0.05,0.5,0.148,0.596
	c0.099,0.098,0.292,0.146,0.58,0.146v0.317h-3.614v-0.317c0.359,0,0.575-0.018,0.647-0.054c0.071-0.034,0.107-0.096,0.107-0.185
	c0-0.088-0.031-0.163-0.095-0.227c-0.063-0.061-0.14-0.145-0.229-0.25l-7.635-8.561v8.533c0,0.301,0.05,0.5,0.15,0.596
	c0.098,0.098,0.291,0.146,0.578,0.146v0.317h-2.967V111.025z"/>
<path d="M205.525,100.743c0-0.302-0.04-0.499-0.121-0.597c-0.081-0.097-0.266-0.146-0.553-0.146v-0.317h6.527
	c1.061,0,1.978,0.149,2.751,0.449c0.773,0.301,1.406,0.712,1.902,1.232c0.494,0.521,0.858,1.136,1.092,1.843
	c0.233,0.706,0.351,1.476,0.351,2.305c0,0.813-0.117,1.577-0.351,2.292c-0.233,0.717-0.598,1.336-1.092,1.856
	c-0.496,0.52-1.129,0.931-1.902,1.231s-1.69,0.45-2.751,0.45h-6.527v-0.317c0.287,0,0.472-0.049,0.553-0.146
	s0.121-0.296,0.121-0.597V100.743z M211.056,109.859c0.845,0,1.56-0.114,2.144-0.344c0.585-0.23,1.062-0.545,1.43-0.941
	c0.369-0.398,0.639-0.857,0.81-1.379c0.171-0.521,0.256-1.082,0.256-1.683c0-0.6-0.085-1.161-0.256-1.683s-0.44-0.98-0.81-1.378
	c-0.368-0.397-0.845-0.712-1.43-0.941c-0.584-0.229-1.299-0.344-2.144-0.344h-3.857v8.692H211.056z"/>
<path d="M229.855,111.025c0.287,0,0.477-0.058,0.566-0.172c0.09-0.115,0.135-0.27,0.135-0.465V98.357
	c0-0.193-0.05-0.349-0.148-0.463c-0.099-0.115-0.301-0.173-0.606-0.173v-0.317h4.559v0.317c-0.414,0-0.621,0.115-0.621,0.345
	c0,0.105,0.036,0.203,0.108,0.291l4.396,8.48l4.559-8.48c0.018-0.053,0.041-0.105,0.067-0.158c0.027-0.053,0.041-0.106,0.041-0.159
	c0-0.088-0.05-0.163-0.148-0.226c-0.1-0.062-0.274-0.093-0.526-0.093v-0.317h4.828v0.317c-0.306,0-0.508,0.058-0.606,0.173
	c-0.1,0.114-0.148,0.27-0.148,0.463v12.031c0,0.195,0.049,0.35,0.148,0.465c0.099,0.114,0.301,0.172,0.606,0.172v0.317h-3.776
	v-0.317c0.306,0,0.508-0.058,0.607-0.172c0.099-0.115,0.147-0.27,0.147-0.465V99.921l-0.08-0.053l-5.746,11.211l-5.745-11.211
	l-0.026,0.053v10.468c-0.019,0.195,0.018,0.35,0.107,0.465c0.09,0.114,0.261,0.172,0.513,0.172v0.317h-3.21V111.025z"/>
<path d="M252.838,100.742c0-0.299-0.041-0.498-0.122-0.596c-0.08-0.097-0.247-0.146-0.499-0.146v-0.318h10.871
	c0.271,0,0.449-0.048,0.539-0.146s0.135-0.26,0.135-0.49h0.324v2.756h-0.324c0-0.229-0.045-0.393-0.135-0.49
	c-0.09-0.097-0.269-0.146-0.539-0.146h-8.47v3.444h5.961c0.27,0,0.449-0.047,0.539-0.145s0.136-0.262,0.136-0.491h0.323v2.757
	h-0.323c0-0.229-0.046-0.394-0.136-0.49c-0.09-0.098-0.27-0.146-0.539-0.146h-5.961v3.763h8.767c0.27,0,0.449-0.05,0.539-0.146
	c0.09-0.097,0.135-0.261,0.135-0.491h0.324v2.678h-0.324c0-0.229-0.045-0.381-0.135-0.451s-0.27-0.105-0.539-0.105h-11.168v-0.318
	c0.252,0,0.419-0.049,0.499-0.146c0.081-0.097,0.122-0.296,0.122-0.597V100.742z"/>
<path d="M269.21,100.743c0-0.302-0.04-0.499-0.121-0.597c-0.081-0.097-0.266-0.146-0.553-0.146v-0.317h6.527
	c1.061,0,1.978,0.149,2.751,0.449c0.773,0.301,1.407,0.712,1.902,1.232c0.494,0.521,0.858,1.136,1.092,1.843
	c0.233,0.706,0.351,1.476,0.351,2.305c0,0.813-0.117,1.577-0.351,2.292c-0.233,0.717-0.598,1.336-1.092,1.856
	c-0.495,0.52-1.129,0.931-1.902,1.231s-1.69,0.45-2.751,0.45h-6.527v-0.317c0.287,0,0.472-0.049,0.553-0.146
	s0.121-0.296,0.121-0.597V100.743z M274.74,109.859c0.845,0,1.56-0.114,2.144-0.344c0.586-0.23,1.062-0.545,1.43-0.941
	c0.369-0.398,0.639-0.857,0.81-1.379c0.171-0.521,0.256-1.082,0.256-1.683c0-0.6-0.085-1.161-0.256-1.683s-0.44-0.98-0.81-1.378
	c-0.368-0.397-0.844-0.712-1.43-0.941c-0.584-0.229-1.299-0.344-2.144-0.344h-3.857v8.692H274.74z"/>
<path d="M285.61,111.025c0.288,0,0.473-0.049,0.554-0.146c0.08-0.096,0.121-0.295,0.121-0.596v-9.54
	c0-0.302-0.041-0.499-0.121-0.597c-0.081-0.097-0.266-0.146-0.554-0.146v-0.317h3.021v0.317c-0.287,0-0.471,0.049-0.552,0.146
	c-0.081,0.098-0.122,0.295-0.122,0.597v9.54c0,0.301,0.041,0.5,0.122,0.596c0.081,0.098,0.265,0.146,0.552,0.146v0.317h-3.021
	V111.025z"/>
<path d="M303.521,102.969c0.036-0.105,0.054-0.176,0.054-0.212v-0.238c0-0.106-0.116-0.243-0.351-0.411
	c-0.233-0.168-0.544-0.336-0.931-0.504c-0.387-0.167-0.818-0.308-1.294-0.424c-0.478-0.113-0.957-0.172-1.443-0.172
	c-0.773,0-1.466,0.119-2.077,0.357s-1.133,0.565-1.563,0.98c-0.433,0.415-0.761,0.896-0.985,1.445
	c-0.226,0.548-0.338,1.131-0.338,1.748c0,0.619,0.112,1.193,0.338,1.723c0.225,0.529,0.548,0.984,0.971,1.365
	c0.422,0.38,0.921,0.68,1.497,0.9c0.575,0.221,1.214,0.332,1.915,0.332s1.326-0.07,1.875-0.213c0.548-0.141,1.012-0.313,1.389-0.516
	c0.378-0.203,0.665-0.407,0.863-0.61c0.198-0.202,0.297-0.358,0.297-0.464c0-0.193-0.036-0.371-0.108-0.529l0.271-0.16l1.888,2.438
	l-0.297,0.212c-0.144-0.105-0.252-0.172-0.322-0.197c-0.073-0.027-0.136-0.041-0.189-0.041c-0.162,0-0.383,0.09-0.661,0.266
	c-0.279,0.177-0.644,0.371-1.093,0.583s-0.984,0.397-1.604,0.556c-0.62,0.16-1.362,0.239-2.226,0.239
	c-0.917,0-1.776-0.12-2.576-0.358s-1.497-0.609-2.091-1.111c-0.593-0.506-1.06-1.127-1.402-1.869
	c-0.342-0.742-0.513-1.59-0.513-2.545c0-0.953,0.176-1.801,0.526-2.543s0.831-1.369,1.443-1.883c0.61-0.512,1.321-0.904,2.131-1.179
	c0.809-0.274,1.672-0.411,2.589-0.411c0.773,0,1.412,0.045,1.916,0.133c0.503,0.088,1.024,0.229,1.564,0.424
	c0.359,0.123,0.656,0.238,0.89,0.345s0.413,0.159,0.539,0.159c0.145,0,0.288-0.098,0.432-0.291l0.325,0.105l-1.323,2.729
	L303.521,102.969z"/>
<path d="M309.59,111.025c0.288,0,0.473-0.049,0.554-0.146c0.08-0.096,0.121-0.295,0.121-0.596v-9.54
	c0-0.302-0.041-0.499-0.121-0.597c-0.081-0.097-0.266-0.146-0.554-0.146v-0.317h3.021v0.317c-0.287,0-0.471,0.049-0.552,0.146
	c-0.081,0.098-0.122,0.295-0.122,0.597v9.54c0,0.301,0.041,0.5,0.122,0.596c0.081,0.098,0.265,0.146,0.552,0.146v0.317h-3.021
	V111.025z"/>
<path d="M318.086,111.025c0.287,0,0.481-0.049,0.58-0.146c0.099-0.096,0.149-0.295,0.149-0.596v-9.54
	c0-0.302-0.051-0.499-0.149-0.597c-0.099-0.097-0.293-0.146-0.58-0.146v-0.317h3.938v0.317c-0.288,0-0.481,0.022-0.58,0.065
	c-0.099,0.045-0.148,0.103-0.148,0.172c0,0.055,0.099,0.203,0.297,0.451l7.31,8.242v-8.188c0-0.302-0.05-0.499-0.148-0.597
	c-0.099-0.097-0.292-0.146-0.579-0.146v-0.317h2.967v0.317c-0.288,0-0.481,0.049-0.58,0.146c-0.099,0.098-0.148,0.295-0.148,0.597
	v9.54c0,0.301,0.05,0.5,0.148,0.596c0.099,0.098,0.292,0.146,0.58,0.146v0.317h-3.614v-0.317c0.359,0,0.575-0.018,0.647-0.054
	c0.071-0.034,0.107-0.096,0.107-0.185c0-0.088-0.031-0.163-0.095-0.227c-0.063-0.061-0.14-0.145-0.229-0.25l-7.634-8.561v8.533
	c0,0.301,0.049,0.5,0.148,0.596c0.099,0.098,0.292,0.146,0.579,0.146v0.317h-2.967V111.025z"/>
<path d="M336.753,100.742c0-0.299-0.041-0.498-0.122-0.596c-0.08-0.097-0.247-0.146-0.499-0.146v-0.318h10.871
	c0.27,0,0.449-0.048,0.539-0.146s0.135-0.26,0.135-0.49h0.324v2.756h-0.324c0-0.229-0.045-0.393-0.135-0.49
	c-0.09-0.097-0.27-0.146-0.539-0.146h-8.47v3.444h5.961c0.27,0,0.449-0.047,0.539-0.145s0.136-0.262,0.136-0.491h0.323v2.757h-0.323
	c0-0.229-0.046-0.394-0.136-0.49c-0.09-0.098-0.27-0.146-0.539-0.146h-5.961v3.763h8.767c0.27,0,0.449-0.05,0.539-0.146
	c0.09-0.097,0.135-0.261,0.135-0.491h0.324v2.678h-0.324c0-0.229-0.045-0.381-0.135-0.451s-0.27-0.105-0.539-0.105h-11.168v-0.318
	c0.252,0,0.419-0.049,0.499-0.146c0.081-0.097,0.122-0.296,0.122-0.597V100.742z"/>
<path fill="#CE1141" d="M180.369,0l-3.942,11.081l-9.089-3.655l4.488,21.195L160.657,18.18v6.782l-9.199-3.124l2.191,9.257
	l-6.023,0.751l0.329,0.321l0.877,0.647l1.093,0.862l1.317,1.072l1.421,0.97l1.096,0.863l0.79,0.579
	c7.569-2.871,16.382-4.524,25.796-4.524c9.422,0,18.239,1.653,25.814,4.53l0.05-0.047l0.77-0.538l1.205-0.863l1.204-0.97
	l1.312-0.967l1.205-0.753l0.441-0.32l0.435-0.216l0.224-0.216l-0.769-0.11l-1.094-0.211l-1.313-0.218l-1.313-0.321l-1.099-0.217
	l-0.876-0.216h-0.331l3.074-8.715l-8.657,2.369l-0.325-6.779l-11.282,10.867l4.161-21.09l-8.869,4.092L180.369,0"/>
<line fill="none" stroke="#CE1141" stroke-miterlimit="10" x1="29.95" y1="119.834" x2="343.965" y2="119.834"/>
<path d="M36.53,140.631l-1.243,5.337h-0.966l3.658-15.508h0.944l3.704,15.508h-1.012l-1.243-5.337H36.53z M40.142,139.779
	l-0.989-4.373c-0.277-1.195-0.484-2.301-0.691-3.543h-0.091c-0.185,1.266-0.415,2.416-0.668,3.565l-0.966,4.351H40.142z"/>
<path d="M48.314,130.688c0.621-0.229,1.265-0.299,1.955-0.299c1.427,0,2.463,0.369,3.222,1.036c1.127,0.943,2.14,2.922,2.14,6.305
	c0,3.797-0.897,5.545-1.68,6.534c-0.966,1.22-2.439,1.772-3.981,1.772c-0.575,0-1.196-0.023-1.656-0.139V130.688z M49.303,145.117
	c0.322,0.045,0.598,0.045,0.759,0.045c2.255,0,4.533-1.402,4.533-7.293c0-4.35-1.426-6.627-4.326-6.627
	c-0.321,0-0.69,0.045-0.966,0.092V145.117z"/>
<path d="M59.177,132.094c0,0.529-0.253,0.851-0.782,0.851c-0.414,0-0.714-0.321-0.714-0.851c0-0.508,0.3-0.853,0.737-0.853
	C58.924,131.241,59.177,131.586,59.177,132.094 M57.934,134.924h0.99v11.045h-0.99V134.924z"/>
<path d="M61.686,134.924l1.749,6.994c0.161,0.6,0.368,1.588,0.506,2.44h0.069c0.115-0.783,0.322-1.728,0.483-2.44l1.68-6.994h1.013
	l-2.854,11.045h-0.828l-2.808-11.045H61.686z"/>
<path d="M70.202,132.094c0,0.529-0.253,0.851-0.782,0.851c-0.414,0-0.714-0.321-0.714-0.851c0-0.508,0.3-0.853,0.737-0.853
	C69.949,131.241,70.202,131.586,70.202,132.094 M68.959,134.924h0.99v11.045h-0.99V134.924z"/>
<path d="M72.228,144.656c0.368,0.254,0.966,0.576,1.657,0.576c1.15,0,1.909-0.783,1.909-2.003c0-0.989-0.298-1.725-1.495-2.577
	c-1.219-0.873-2.232-1.703-2.232-3.129c0-1.68,1.288-2.783,2.692-2.783c0.828,0,1.427,0.32,1.795,0.598l-0.437,0.805
	c-0.414-0.322-0.852-0.529-1.427-0.529c-1.058,0-1.634,0.853-1.634,1.703c0,0.897,0.299,1.403,1.427,2.232
	c1.058,0.759,2.324,1.679,2.324,3.404c0,2.187-1.45,3.152-2.968,3.152c-0.736,0-1.519-0.253-1.979-0.643L72.228,144.656z"/>
<path d="M80.076,132.094c0,0.529-0.253,0.851-0.782,0.851c-0.414,0-0.714-0.321-0.714-0.851c0-0.508,0.3-0.853,0.737-0.853
	C79.823,131.241,80.076,131.586,80.076,132.094 M78.833,134.924h0.99v11.045h-0.99V134.924z"/>
<path d="M88.522,140.445c0,4.074-1.634,5.707-3.337,5.707c-1.565,0-3.199-1.633-3.199-5.707c0-4.072,1.634-5.705,3.36-5.705
	C86.911,134.74,88.522,136.373,88.522,140.445 M83.022,140.445c0,1.795,0.345,4.832,2.255,4.832c1.864,0,2.209-3.037,2.209-4.832
	s-0.345-4.832-2.255-4.832C83.367,135.613,83.022,138.65,83.022,140.445"/>
<path d="M90.687,137.477c0-1.356-0.069-1.771-0.092-2.554h0.898l0.046,1.358h0.045c0.415-0.898,1.266-1.541,2.44-1.541
	c1.173,0,2.508,0.781,2.508,3.589v7.639h-0.99v-7.247c0-1.564-0.276-3.131-1.817-3.131c-0.898,0-1.772,0.783-2.002,2.303
	c-0.046,0.299-0.046,0.621-0.046,0.965v7.11h-0.99V137.477z"/>
<path d="M108.799,140.445c0,4.074-1.634,5.707-3.337,5.707c-1.565,0-3.199-1.633-3.199-5.707c0-4.072,1.634-5.705,3.36-5.705
	C107.188,134.74,108.799,136.373,108.799,140.445 M103.299,140.445c0,1.795,0.345,4.832,2.255,4.832
	c1.864,0,2.209-3.037,2.209-4.832s-0.345-4.832-2.255-4.832C103.645,135.613,103.299,138.65,103.299,140.445"/>
<path d="M111.24,145.969v-10.193h-1.334v-0.852h1.334v-0.828c0-1.15,0.138-2.44,0.874-3.338c0.645-0.759,1.496-0.896,1.934-0.896
	c0.505,0,0.874,0.115,1.15,0.275l-0.276,0.807c-0.207-0.094-0.506-0.207-0.99-0.207c-1.45,0-1.703,1.633-1.703,3.359v0.828h2.094
	v0.852h-2.094v10.193H111.24z"/>
<path d="M120.285,132.508v2.416h2.094v0.852h-2.094v7.523c0,1.541,0.507,1.957,1.174,1.957c0.276,0,0.506-0.023,0.667-0.069
	l0.115,0.759c-0.253,0.115-0.529,0.161-0.989,0.161c-0.599,0-1.128-0.185-1.473-0.644c-0.346-0.461-0.483-1.129-0.483-2.531v-7.156
	h-1.381v-0.852h1.381v-1.842L120.285,132.508z"/>
<path d="M124.037,130.045h0.989v6.074h0.047c0.23-0.39,0.575-0.759,0.92-0.988c0.392-0.254,0.782-0.392,1.449-0.392
	c1.013,0,2.44,0.714,2.44,3.497v7.732h-0.99v-7.387c0-1.541-0.368-2.992-1.749-2.992c-1.012,0-1.771,0.783-2.07,2.209
	c-0.047,0.276-0.047,0.554-0.047,0.83v7.34h-0.989V130.045z"/>
<path d="M133.059,140.032c0,4.44,1.542,5.2,2.784,5.2c0.714,0,1.289-0.184,1.658-0.438l0.23,0.761
	c-0.529,0.367-1.335,0.551-2.071,0.551c-2.416,0-3.613-2.276-3.613-5.613c0-3.497,1.266-5.752,3.29-5.752
	c2.187,0,2.785,2.691,2.785,4.646v0.646H133.059z M137.063,139.227c0.046-2.715-1.081-3.612-1.887-3.612
	c-1.288,0-1.978,1.841-2.093,3.612H137.063z"/>
<path fill="#CE1141" d="M150.136,145.67c-0.506,0.274-1.242,0.437-2.163,0.437c-2.439,0-4.786-1.933-4.786-7.731
	c0-6.281,2.899-8.054,5.016-8.054c0.852,0,1.495,0.16,1.818,0.368l-0.323,0.875c-0.39-0.186-0.758-0.346-1.656-0.346
	c-1.61,0-3.819,1.703-3.819,6.972c0,5.408,1.955,7.019,3.911,7.019c0.76,0,1.357-0.185,1.726-0.392L150.136,145.67z"/>
<path fill="#CE1141" d="M156.419,143.482c0,0.807,0,1.795,0.093,2.486h-0.921l-0.092-1.221h-0.069
	c-0.414,0.852-1.127,1.404-2.071,1.404c-1.358,0-2.439-1.15-2.439-3.037c0-2.67,2.002-3.912,4.51-3.936v-0.414
	c0-1.886-0.299-3.152-1.91-3.152c-0.552,0-1.127,0.207-1.565,0.529l-0.276-0.759c0.368-0.323,1.22-0.644,2.049-0.644
	c1.495,0,2.691,0.873,2.691,3.521V143.482z M155.43,140.031c-0.852,0-3.475,0.069-3.475,3.016c0,1.656,0.806,2.23,1.542,2.23
	c0.944,0,1.68-0.759,1.887-2.094c0.046-0.253,0.046-0.506,0.046-0.714V140.031z"/>
<path fill="#CE1141" d="M159.137,137.477c0-1.356-0.069-1.771-0.092-2.554h0.898l0.046,1.358h0.045
	c0.415-0.898,1.266-1.541,2.44-1.541c1.173,0,2.508,0.781,2.508,3.589v7.639h-0.99v-7.247c0-1.564-0.276-3.131-1.818-3.131
	c-0.897,0-1.771,0.783-2.001,2.303c-0.047,0.299-0.047,0.621-0.047,0.965v7.11h-0.989V137.477z"/>
<path fill="#CE1141" d="M172.531,143.482c0,0.807,0,1.795,0.093,2.486h-0.921l-0.092-1.221h-0.069
	c-0.414,0.852-1.127,1.404-2.07,1.404c-1.359,0-2.44-1.15-2.44-3.037c0-2.67,2.002-3.912,4.51-3.936v-0.414
	c0-1.886-0.299-3.152-1.91-3.152c-0.552,0-1.127,0.207-1.565,0.529l-0.276-0.759c0.368-0.323,1.22-0.644,2.048-0.644
	c1.496,0,2.692,0.873,2.692,3.521V143.482z M171.542,140.031c-0.852,0-3.475,0.069-3.475,3.016c0,1.656,0.806,2.23,1.542,2.23
	c0.944,0,1.68-0.759,1.887-2.094c0.046-0.253,0.046-0.506,0.046-0.714V140.031z"/>
<path fill="#CE1141" d="M181.047,130.045v13.668c0,0.553,0.07,1.842,0.092,2.256h-0.852l-0.091-1.473h-0.092
	c-0.322,0.781-1.059,1.655-2.324,1.655c-1.565,0-3.083-1.655-3.083-5.66c0-3.958,1.61-5.752,3.198-5.752
	c0.713,0,1.588,0.3,2.117,1.427h0.046v-6.121H181.047z M180.058,139.088c0-0.252,0-0.528-0.023-0.781
	c-0.092-1.45-0.99-2.693-2.002-2.693c-1.726,0-2.301,2.371-2.301,4.832c0,2.486,0.621,4.832,2.163,4.832
	c0.644,0,1.61-0.344,2.117-2.461c0.046-0.23,0.046-0.506,0.046-0.76V139.088z"/>
<path fill="#CE1141" d="M184.985,132.094c0,0.529-0.254,0.851-0.784,0.851c-0.414,0-0.713-0.321-0.713-0.851
	c0-0.508,0.299-0.853,0.737-0.853C184.731,131.241,184.985,131.586,184.985,132.094 M183.741,134.924h0.989v11.045h-0.989V134.924z"
	/>
<path fill="#CE1141" d="M192.278,143.482c0,0.807,0,1.795,0.093,2.486h-0.921l-0.092-1.221h-0.069
	c-0.414,0.852-1.127,1.404-2.071,1.404c-1.357,0-2.439-1.15-2.439-3.037c0-2.67,2.003-3.912,4.511-3.936v-0.414
	c0-1.886-0.299-3.152-1.91-3.152c-0.552,0-1.127,0.207-1.565,0.529l-0.275-0.759c0.368-0.323,1.22-0.644,2.049-0.644
	c1.495,0,2.691,0.873,2.691,3.521V143.482z M191.289,140.031c-0.852,0-3.476,0.069-3.476,3.016c0,1.656,0.807,2.23,1.543,2.23
	c0.943,0,1.68-0.759,1.887-2.094c0.046-0.253,0.046-0.506,0.046-0.714V140.031z"/>
<path fill="#CE1141" d="M194.996,137.477c0-1.356-0.069-1.771-0.092-2.554h0.897l0.046,1.358h0.046
	c0.415-0.898,1.266-1.541,2.439-1.541c1.173,0,2.508,0.781,2.508,3.589v7.639h-0.989v-7.247c0-1.564-0.276-3.131-1.818-3.131
	c-0.897,0-1.771,0.783-2.001,2.303c-0.047,0.299-0.047,0.621-0.047,0.965v7.11h-0.989V137.477z"/>
<polygon fill="#CE1141" points="208.185,130.459 208.185,137.386 213.27,137.386 213.27,130.459 214.26,130.459 214.26,145.969 
	213.27,145.969 213.27,138.261 208.185,138.261 208.185,145.969 207.195,145.969 207.195,130.459 "/>
<path fill="#CE1141" d="M217.437,140.032c0,4.44,1.542,5.2,2.785,5.2c0.713,0,1.288-0.184,1.656-0.438l0.23,0.761
	c-0.529,0.367-1.335,0.551-2.071,0.551c-2.416,0-3.612-2.276-3.612-5.613c0-3.497,1.266-5.752,3.29-5.752
	c2.187,0,2.784,2.691,2.784,4.646v0.646H217.437z M221.44,139.227c0.046-2.715-1.081-3.612-1.887-3.612
	c-1.288,0-1.979,1.841-2.094,3.612H221.44z"/>
<path fill="#CE1141" d="M229.358,143.482c0,0.807,0,1.795,0.093,2.486h-0.921l-0.092-1.221h-0.069
	c-0.414,0.852-1.127,1.404-2.071,1.404c-1.357,0-2.438-1.15-2.438-3.037c0-2.67,2.002-3.912,4.51-3.936v-0.414
	c0-1.886-0.299-3.152-1.91-3.152c-0.552,0-1.127,0.207-1.564,0.529l-0.276-0.759c0.368-0.323,1.22-0.644,2.049-0.644
	c1.495,0,2.691,0.873,2.691,3.521V143.482z M228.369,140.031c-0.852,0-3.475,0.069-3.475,3.016c0,1.656,0.806,2.23,1.542,2.23
	c0.943,0,1.68-0.759,1.887-2.094c0.046-0.253,0.046-0.506,0.046-0.714V140.031z"/>
<path fill="#CE1141" d="M232.053,137.477c0-0.828-0.069-1.862-0.093-2.554h0.943l0.047,1.795h0.046
	c0.275-0.967,1.242-1.978,2.393-1.978h0.207v1.08h-0.184c-1.427,0-2.255,1.404-2.348,2.761c-0.022,0.323-0.022,0.623-0.022,0.944
	v6.442h-0.989V137.477z"/>
<path fill="#CE1141" d="M239.072,132.508v2.416h2.094v0.852h-2.094v7.523c0,1.541,0.507,1.957,1.174,1.957
	c0.276,0,0.506-0.023,0.667-0.069l0.115,0.759c-0.253,0.115-0.529,0.161-0.989,0.161c-0.599,0-1.128-0.185-1.473-0.644
	c-0.346-0.461-0.483-1.129-0.483-2.531v-7.156h-1.381v-0.852h1.381v-1.842L239.072,132.508z"/>
<path fill="#CE1141" d="M246.461,130.688c0.621-0.229,1.381-0.299,2.094-0.299c1.45,0,2.394,0.369,3.084,1.082
	c0.667,0.713,1.012,1.749,1.012,2.899c0,2.186-1.012,3.359-2.554,4.072v0.047c1.196,0.299,1.841,1.473,2.209,3.728
	c0.391,2.37,0.645,3.313,0.828,3.751h-0.989c-0.23-0.484-0.506-1.887-0.852-3.913c-0.392-2.254-1.174-3.198-2.991-3.198h-0.852
	v7.111h-0.989V130.688z M247.45,138.076h0.874c1.91,0,3.291-1.357,3.291-3.521c0-2.07-0.852-3.313-3.106-3.313
	c-0.414,0-0.782,0.022-1.059,0.092V138.076z"/>
<path fill="#CE1141" d="M255.482,140.032c0,4.44,1.542,5.2,2.784,5.2c0.714,0,1.289-0.184,1.658-0.438l0.229,0.761
	c-0.529,0.367-1.335,0.551-2.071,0.551c-2.416,0-3.612-2.276-3.612-5.613c0-3.497,1.266-5.752,3.29-5.752
	c2.187,0,2.784,2.691,2.784,4.646v0.646H255.482z M259.486,139.227c0.046-2.715-1.081-3.612-1.887-3.612
	c-1.288,0-1.979,1.841-2.094,3.612H259.486z"/>
<path fill="#CE1141" d="M262.134,144.656c0.369,0.254,0.967,0.576,1.657,0.576c1.15,0,1.91-0.783,1.91-2.003
	c0-0.989-0.3-1.725-1.496-2.577c-1.22-0.873-2.231-1.703-2.231-3.129c0-1.68,1.288-2.783,2.691-2.783
	c0.829,0,1.427,0.32,1.795,0.598l-0.437,0.805c-0.415-0.322-0.852-0.529-1.427-0.529c-1.059,0-1.634,0.853-1.634,1.703
	c0,0.897,0.299,1.403,1.427,2.232c1.059,0.759,2.323,1.679,2.323,3.404c0,2.187-1.449,3.152-2.968,3.152
	c-0.736,0-1.519-0.253-1.979-0.643L262.134,144.656z"/>
<path fill="#CE1141" d="M269.2,140.032c0,4.44,1.542,5.2,2.785,5.2c0.713,0,1.288-0.184,1.657-0.438l0.229,0.761
	c-0.529,0.367-1.335,0.551-2.071,0.551c-2.416,0-3.612-2.276-3.612-5.613c0-3.497,1.266-5.752,3.29-5.752
	c2.187,0,2.784,2.691,2.784,4.646v0.646H269.2z M273.204,139.227c0.046-2.715-1.081-3.612-1.887-3.612
	c-1.288,0-1.979,1.841-2.094,3.612H273.204z"/>
<path fill="#CE1141" d="M281.121,143.482c0,0.807,0,1.795,0.093,2.486h-0.921l-0.092-1.221h-0.069
	c-0.414,0.852-1.127,1.404-2.07,1.404c-1.358,0-2.439-1.15-2.439-3.037c0-2.67,2.002-3.912,4.51-3.936v-0.414
	c0-1.886-0.299-3.152-1.91-3.152c-0.552,0-1.127,0.207-1.564,0.529l-0.276-0.759c0.368-0.323,1.22-0.644,2.048-0.644
	c1.496,0,2.692,0.873,2.692,3.521V143.482z M280.132,140.031c-0.852,0-3.475,0.069-3.475,3.016c0,1.656,0.806,2.23,1.542,2.23
	c0.943,0,1.68-0.759,1.887-2.094c0.046-0.253,0.046-0.506,0.046-0.714V140.031z"/>
<path fill="#CE1141" d="M283.815,137.477c0-0.828-0.069-1.862-0.093-2.554h0.943l0.047,1.795h0.046
	c0.275-0.967,1.242-1.978,2.393-1.978h0.207v1.08h-0.184c-1.427,0-2.256,1.404-2.348,2.761c-0.022,0.323-0.022,0.623-0.022,0.944
	v6.442h-0.989V137.477z"/>
<path fill="#CE1141" d="M293.344,145.646c-0.438,0.275-1.059,0.459-1.795,0.459c-2.163,0-3.682-1.955-3.682-5.637
	c0-3.014,1.357-5.729,3.935-5.729c0.529,0,1.174,0.16,1.519,0.39l-0.322,0.874c-0.229-0.137-0.713-0.367-1.357-0.367
	c-1.979,0-2.738,2.576-2.738,4.901c0,2.944,1.081,4.694,2.83,4.694c0.507,0,0.943-0.115,1.381-0.346L293.344,145.646z"/>
<path fill="#CE1141" d="M295.07,130.045h0.989v6.074h0.047c0.229-0.39,0.575-0.759,0.92-0.988c0.392-0.254,0.782-0.392,1.449-0.392
	c1.013,0,2.439,0.714,2.439,3.497v7.732h-0.989v-7.387c0-1.541-0.368-2.992-1.749-2.992c-1.013,0-1.771,0.783-2.07,2.209
	c-0.047,0.276-0.047,0.554-0.047,0.83v7.34h-0.989V130.045z"/>
<path fill="#CE1141" d="M313.62,145.67c-0.506,0.274-1.242,0.437-2.163,0.437c-2.438,0-4.786-1.933-4.786-7.731
	c0-6.281,2.899-8.054,5.017-8.054c0.852,0,1.495,0.16,1.817,0.368l-0.322,0.875c-0.391-0.186-0.759-0.346-1.656-0.346
	c-1.61,0-3.819,1.703-3.819,6.972c0,5.408,1.955,7.019,3.911,7.019c0.76,0,1.357-0.185,1.726-0.392L313.62,145.67z"/>
<path fill="#CE1141" d="M315.348,140.032c0,4.44,1.542,5.2,2.784,5.2c0.714,0,1.289-0.184,1.657-0.438l0.23,0.761
	c-0.529,0.367-1.335,0.551-2.071,0.551c-2.416,0-3.612-2.276-3.612-5.613c0-3.497,1.266-5.752,3.29-5.752
	c2.187,0,2.784,2.691,2.784,4.646v0.646H315.348z M319.352,139.227c0.046-2.715-1.081-3.612-1.887-3.612
	c-1.288,0-1.979,1.841-2.094,3.612H319.352z"/>
<path fill="#CE1141" d="M322.437,137.477c0-1.356-0.068-1.771-0.092-2.554h0.897l0.046,1.358h0.046
	c0.415-0.898,1.266-1.541,2.439-1.541c1.173,0,2.508,0.781,2.508,3.589v7.639h-0.989v-7.247c0-1.564-0.276-3.131-1.818-3.131
	c-0.896,0-1.771,0.783-2.002,2.303c-0.046,0.299-0.046,0.621-0.046,0.965v7.11h-0.989V137.477z"/>
<path fill="#CE1141" d="M332.104,132.508v2.416h2.094v0.852h-2.094v7.523c0,1.541,0.507,1.957,1.174,1.957
	c0.276,0,0.506-0.023,0.667-0.069l0.115,0.759c-0.253,0.115-0.529,0.161-0.989,0.161c-0.599,0-1.128-0.185-1.473-0.644
	c-0.346-0.461-0.483-1.129-0.483-2.531v-7.156h-1.381v-0.852h1.381v-1.842L332.104,132.508z"/>
<path fill="#CE1141" d="M335.833,137.477c0-0.828-0.069-1.862-0.093-2.554h0.943l0.047,1.795h0.046
	c0.275-0.967,1.242-1.978,2.393-1.978h0.207v1.08h-0.184c-1.427,0-2.255,1.404-2.348,2.761c-0.022,0.323-0.022,0.623-0.022,0.944
	v6.442h-0.989V137.477z"/>
<path fill="#CE1141" d="M340.896,140.032c0,4.44,1.542,5.2,2.784,5.2c0.714,0,1.289-0.184,1.658-0.438l0.229,0.761
	c-0.529,0.367-1.335,0.551-2.071,0.551c-2.416,0-3.612-2.276-3.612-5.613c0-3.497,1.266-5.752,3.29-5.752
	c2.187,0,2.784,2.691,2.784,4.646v0.646H340.896z M344.9,139.227c0.046-2.715-1.081-3.612-1.887-3.612
	c-1.288,0-1.979,1.841-2.093,3.612H344.9z"/>
</svg>
