<?xml version="1.0" encoding="utf-8"?>
<!-- Generator: Adobe Illustrator 15.0.2, SVG Export Plug-In  -->
<!DOCTYPE svg PUBLIC "-//W3C//DTD SVG 1.1//EN" "http://www.w3.org/Graphics/SVG/1.1/DTD/svg11.dtd" [
	<!ENTITY ns_flows "http://ns.adobe.com/Flows/1.0/">
]>
<svg version="1.1"
	 xmlns="http://www.w3.org/2000/svg" xmlns:xlink="http://www.w3.org/1999/xlink" xmlns:a="http://ns.adobe.com/AdobeSVGViewerExtensions/3.0/"
	 x="0px" y="0px" width="127px" height="73px" viewBox="0 0 127 73" overflow="visible" enable-background="new 0 0 127 73"
	 xml:space="preserve">
<defs>
</defs>
<path fill="#FFFFFF" d="M15.578,12.928l0.346,0.26l0.432,0.347l0.521,0.432l0.562,0.391l0.433,0.345l0.312,0.234
	c2.99-1.155,6.469-1.82,10.187-1.82c3.72,0,7.201,0.666,10.192,1.821l0.021-0.021l0.304-0.216l0.476-0.345l0.476-0.391l0.519-0.389
	l0.477-0.303l0.174-0.129l0.171-0.087l0.088-0.086l-0.303-0.044l-0.434-0.086l-0.519-0.087l-0.519-0.129l-0.434-0.086l-0.346-0.087
	H38.58l1.211-3.502l-3.416,0.952l-0.129-2.723l-4.454,4.365l1.643-8.474l-3.502,1.642L28.375,0l-1.557,4.454l-3.589-1.47
	l1.773,8.518l-4.411-4.195v2.726L16.96,8.778l0.865,3.719l-2.378,0.302L15.578,12.928z"/>
<path fill="#FFFFFF" d="M23.652,27.89l1.304,1.184c0,0,0.739-1.184,3.019-1.658c2.28-0.474,7.49-0.147,12.434,6.958
	c1.32,2.093,2.455,5.257,2.693,8.052c0.39,4.595-0.74,8.645-0.74,8.645s-1.568,6.955-3.937,7.576c0.119,0.297,0.709,1.66,0.709,1.66
	s2.687-0.55,4.293-6.604c1.5-5.649,1.772-7.136,1.332-12.402c-0.441-5.267-4.146-10.598-7.49-12.905
	C33.924,26.083,28.657,23.449,23.652,27.89z"/>
<path fill="#FFFFFF" d="M24.792,39.989c0,0-1.254-3.672-1.417-5.274c1.998-2.229,4.414-4.043,7.526-3.646
	c0,0,0.581,0.041,1.325,0.325c2.025,0.775,5.46,2.788,3.416,5.669c0,0,2.438,0.813,3.717,4.507c0.458,1.323,0.5,2.876,0.604,5.088
	c0,1.37-0.604,4.925-0.604,4.925l-1.812-0.324c0,0,0.72-2.742,0.65-5.461c-0.07-2.718-0.628-5.786-3.044-7.04
	c-0.974-0.588-2.117-0.621-3.183-0.487c-2.466,0.306-4.727,1.881-5.019,2.253c0,0,0.889,2.216,2.647,5.042
	c1.76,2.826,4.393,6.262,7.295,8.83l-1.229,1.254c0,0-7.157-6.575-10.178-14.034c-2.997,1.232-4.623,4.904-4.508,5.205
	c0.059,0.15,1.084,2.62,3.207,4.669c2.123,2.051,5.345,3.685,7.504,4.3c-0.256,0.836-0.581,1.671-0.581,1.671
	s-7.458-1.72-11.569-9.524c-2.277-5.157-1.395-10.014-1.395-10.014l1.72,0.324c0,0-0.488,3.742,0.324,6.088
	C21.866,41.222,24.466,40.082,24.792,39.989z M25.251,35.235c0,0,0.664,2.999,0.984,3.525c2.061-1.626,4.808-2.176,6.523-2.358
	c1.717-0.184,1.534-0.276,1.694-0.688c0.159-0.412,0-0.776-0.642-1.351c-0.641-0.572-2.014-1.511-3.25-1.602
	c-1.235-0.093-2.404,0.159-3.457,0.894C26.053,34.39,25.251,35.235,25.251,35.235z"/>
<path fill="#FFFFFF" d="M12.411,39.35c-0.338,3.663,1.111,8.091,1.111,8.091c2.376,6.167,7.521,10.287,13.655,13.175
	c6.136,2.887,8.452,1.172,8.452,1.172s-0.151-0.332-0.812-1.563c-0.012,0.006-0.024,0.014-0.038,0.02
	c-0.399,0.206-1.122,0.414-1.918,0.313c-1.786-0.229-3.692-0.952-5.202-1.566c-7.455-3.03-11.221-9.471-11.221-9.471
	c-4.09-7.192-1.653-13.238-1.419-13.874c0.233-0.637,1.526-4.605,5.733-4.704v-1.766c0,0-2.091-0.084-4.032,1.438
	c-1.941,1.521-2.687,3.021-2.687,3.021S12.797,35.144,12.411,39.35z"/>
<path fill="#FFFFFF" d="M55.581,47.668c0,0,0.461-0.967,1.125-0.563c0.719,0.437,0.494,1.056-0.003,1.58l-1.424,1.533l-1.07-1.962
	c0,0-0.511-0.934,0.375-1.425c0,0,0.832-0.293,0.98,0.832"/>
<path fill="#FFFFFF" d="M1.625,47.672c0,0,0.102-1.145,1.138-0.756c0,0,0.824,0.266,0.082,1.602l-0.945,1.705H1.883l-1.655-1.881
	c0,0-0.539-0.729,0.204-1.2C0.432,47.142,1.065,46.657,1.625,47.672z"/>
<path fill="#FFFFFF" d="M0.655,53.32c-0.065-0.173-0.097-0.343-0.094-0.51c0.003-0.168,0.042-0.327,0.116-0.477
	c0.075-0.148,0.188-0.286,0.338-0.41c0.149-0.123,0.336-0.228,0.561-0.312c0.222-0.086,0.426-0.13,0.611-0.137
	c0.188-0.008,0.361,0.021,0.524,0.083c0.159,0.059,0.297,0.149,0.415,0.271c0.118,0.122,0.21,0.271,0.278,0.45
	c0.033,0.089,0.06,0.175,0.075,0.258c0.017,0.082,0.027,0.161,0.032,0.235c0.004,0.062,0.004,0.13,0,0.201
	c-0.004,0.069-0.011,0.14-0.021,0.21l-0.427,0.163l-0.011-0.029c0.017-0.041,0.036-0.094,0.058-0.158
	c0.021-0.062,0.039-0.138,0.053-0.223c0.011-0.082,0.013-0.167,0.007-0.255c-0.007-0.089-0.03-0.185-0.07-0.29
	c-0.043-0.112-0.105-0.21-0.19-0.292c-0.084-0.083-0.188-0.146-0.307-0.188s-0.253-0.056-0.405-0.045
	c-0.153,0.01-0.313,0.049-0.485,0.113c-0.182,0.069-0.329,0.15-0.444,0.245c-0.115,0.094-0.202,0.195-0.263,0.306
	c-0.061,0.107-0.094,0.219-0.1,0.335c-0.007,0.117,0.012,0.231,0.053,0.343C1,53.311,1.047,53.4,1.105,53.478
	c0.06,0.078,0.119,0.142,0.184,0.194c0.062,0.053,0.121,0.094,0.178,0.126s0.104,0.058,0.142,0.073l0.011,0.027l-0.42,0.16
	c-0.05-0.049-0.097-0.093-0.142-0.136c-0.045-0.041-0.093-0.095-0.145-0.159c-0.056-0.067-0.102-0.133-0.14-0.192
	C0.735,53.508,0.696,53.425,0.655,53.32z"/>
<path fill="#FFFFFF" d="M1.15,54.438l2.975-0.341l0.196,0.42L2.16,56.587l-0.169-0.359l0.61-0.57l-0.46-0.978l-0.828,0.104
	L1.15,54.438z M2.846,55.427l1.022-0.964l-1.394,0.175L2.846,55.427z"/>
<path fill="#FFFFFF" d="M3.424,58.855l-0.207-0.367l1.512-2.294l-2.128,1.203l-0.173-0.307l2.469-1.396l0.264,0.466l-1.394,2.097
	l1.955-1.104l0.172,0.305L3.424,58.855z"/>
<path fill="#FFFFFF" d="M3.712,59.336L6.6,58.547l0.26,0.388l-1.819,2.376l-0.223-0.33l0.516-0.657l-0.606-0.901L3.925,59.65
	L3.712,59.336z M5.542,60.06l0.866-1.113L5.05,59.33L5.542,60.06z"/>
<path fill="#FFFFFF" d="M7.88,62.625c-0.202,0.162-0.417,0.267-0.646,0.314S6.793,62.98,6.59,62.915
	c-0.16-0.056-0.298-0.131-0.415-0.229c-0.116-0.097-0.247-0.235-0.39-0.414l-0.409-0.51l2.213-1.772l0.404,0.505
	c0.167,0.208,0.281,0.384,0.346,0.527c0.063,0.144,0.102,0.278,0.114,0.405c0.02,0.219-0.018,0.429-0.11,0.633
	C8.251,62.264,8.097,62.451,7.88,62.625z M7.641,62.315c0.17-0.136,0.292-0.28,0.366-0.434c0.075-0.152,0.101-0.312,0.08-0.477
	c-0.017-0.116-0.049-0.229-0.101-0.334c-0.051-0.106-0.129-0.225-0.235-0.358l-0.181-0.226l-1.702,1.363l0.181,0.226
	c0.104,0.131,0.208,0.237,0.307,0.318c0.101,0.083,0.21,0.142,0.332,0.178c0.151,0.047,0.306,0.05,0.461,0.01
	C7.305,62.542,7.469,62.452,7.641,62.315z"/>
<path fill="#FFFFFF" d="M7.927,64.742l-0.75-0.806l0.213-0.197l0.246,0.265l1.653-1.54L9.043,62.2l0.212-0.197l0.75,0.806
	l-0.212,0.196l-0.246-0.264l-1.653,1.54l0.246,0.264L7.927,64.742z"/>
<path fill="#FFFFFF" d="M8.23,65.078l2.629-1.43l0.342,0.316l-1.226,2.729l-0.292-0.271l0.351-0.756l-0.798-0.736l-0.728,0.405
	L8.23,65.078z M10.176,65.361l0.586-1.28l-1.229,0.686L10.176,65.361z"/>
<path fill="#FFFFFF" d="M12.029,68.278l-0.337-0.255l0.479-2.708l-1.479,1.951l-0.281-0.215l1.715-2.26l0.428,0.324l-0.447,2.48
	l1.358-1.79l0.281,0.213L12.029,68.278z"/>
<path fill="#FFFFFF" d="M15.86,70.514l-0.335-0.175l0.647-1.231l-1.16-0.608l-0.646,1.232l-0.333-0.175l1.316-2.515l0.334,0.176
	l-0.516,0.984l1.16,0.608l0.516-0.984L17.177,68L15.86,70.514z"/>
<path fill="#FFFFFF" d="M16.655,70.867l1.051-2.635l1.646,0.657l-0.125,0.312l-1.296-0.518l-0.288,0.722l1.209,0.481l-0.124,0.312
	l-1.208-0.482l-0.39,0.979l1.296,0.518l-0.124,0.312L16.655,70.867z"/>
<path fill="#FFFFFF" d="M18.677,71.664l1.71-2.456l0.447,0.13l0.125,2.989l-0.382-0.11l-0.026-0.834l-1.04-0.303l-0.47,0.691
	L18.677,71.664z M20.542,71.043l-0.048-1.404l-0.792,1.16L20.542,71.043z"/>
<path fill="#FFFFFF" d="M23.673,72.854l-0.48-0.091l-0.674-1.276l-0.426-0.08l-0.209,1.109l-0.37-0.071l0.526-2.787l0.719,0.136
	c0.16,0.031,0.292,0.064,0.397,0.104c0.104,0.038,0.199,0.098,0.285,0.18c0.085,0.081,0.147,0.176,0.187,0.285
	s0.043,0.237,0.016,0.383c-0.039,0.205-0.123,0.366-0.252,0.483c-0.13,0.116-0.291,0.192-0.481,0.225L23.673,72.854z M23.252,70.7
	c0.015-0.081,0.015-0.156-0.002-0.224c-0.018-0.067-0.052-0.128-0.104-0.18c-0.046-0.044-0.103-0.081-0.17-0.107
	c-0.066-0.028-0.152-0.051-0.257-0.071l-0.369-0.069l-0.198,1.049l0.328,0.062c0.106,0.021,0.204,0.029,0.292,0.027
	c0.089-0.003,0.169-0.027,0.24-0.075c0.064-0.042,0.115-0.097,0.154-0.164C23.206,70.879,23.234,70.796,23.252,70.7z"/>
<path fill="#FFFFFF" d="M24.743,72.96l0.251-2.488l-0.948-0.096l0.034-0.333l2.271,0.229l-0.033,0.333l-0.947-0.097l-0.251,2.489
	L24.743,72.96z"/>
<path fill="#FFFFFF" d="M30.349,73.109l-0.489,0.005l-0.912-1.116l-0.432,0.005l0.017,1.128l-0.379,0.005L28.118,70.3l0.729-0.009
	c0.163-0.002,0.299,0.005,0.409,0.021s0.215,0.056,0.314,0.12c0.101,0.062,0.18,0.144,0.238,0.242
	c0.061,0.101,0.089,0.224,0.092,0.372c0.003,0.208-0.047,0.385-0.15,0.525s-0.245,0.247-0.425,0.317L30.349,73.109z M29.509,71.082
	c-0.001-0.083-0.016-0.155-0.047-0.219c-0.03-0.064-0.076-0.115-0.137-0.156c-0.055-0.035-0.117-0.059-0.188-0.073
	c-0.071-0.014-0.159-0.02-0.265-0.019L28.5,70.621l0.014,1.07l0.332-0.005c0.108-0.001,0.206-0.012,0.292-0.032
	s0.159-0.062,0.219-0.122c0.055-0.052,0.095-0.118,0.119-0.191C29.5,71.269,29.511,71.182,29.509,71.082z"/>
<path fill="#FFFFFF" d="M30.872,73.114L30.62,70.29l1.77-0.159l0.029,0.333l-1.394,0.124l0.069,0.773l1.298-0.116l0.03,0.334
	l-1.298,0.115l0.095,1.053l1.393-0.125l0.029,0.333L30.872,73.114z"/>
<path fill="#FFFFFF" d="M34.125,72.757c-0.202,0.037-0.378,0.05-0.527,0.033c-0.148-0.016-0.292-0.042-0.429-0.08l-0.086-0.466
	l0.025-0.005c0.145,0.092,0.3,0.157,0.467,0.19c0.167,0.035,0.32,0.039,0.464,0.013c0.205-0.038,0.352-0.11,0.44-0.214
	c0.089-0.104,0.121-0.228,0.096-0.367c-0.021-0.112-0.064-0.197-0.134-0.257c-0.067-0.062-0.165-0.096-0.292-0.107
	c-0.09-0.009-0.173-0.014-0.248-0.018c-0.073-0.003-0.167-0.01-0.278-0.017c-0.102-0.008-0.192-0.023-0.275-0.048
	c-0.084-0.024-0.161-0.062-0.23-0.114c-0.069-0.051-0.127-0.113-0.175-0.19c-0.047-0.077-0.081-0.171-0.102-0.279
	c-0.042-0.227,0.012-0.434,0.159-0.619c0.146-0.186,0.357-0.303,0.631-0.354c0.156-0.028,0.307-0.04,0.452-0.034
	c0.145,0.005,0.282,0.026,0.411,0.061l0.083,0.443l-0.028,0.006c-0.104-0.064-0.23-0.115-0.38-0.149
	c-0.15-0.034-0.301-0.037-0.453-0.01c-0.173,0.031-0.305,0.099-0.396,0.198c-0.091,0.101-0.125,0.216-0.101,0.347
	c0.022,0.12,0.071,0.208,0.146,0.267c0.075,0.058,0.176,0.093,0.3,0.103c0.083,0.008,0.183,0.014,0.302,0.021
	c0.119,0.005,0.217,0.013,0.297,0.021c0.203,0.023,0.359,0.087,0.47,0.189c0.111,0.102,0.183,0.24,0.215,0.414
	c0.02,0.107,0.018,0.22-0.008,0.334c-0.024,0.115-0.069,0.215-0.137,0.305c-0.075,0.097-0.165,0.178-0.27,0.243
	C34.431,72.678,34.293,72.726,34.125,72.757z"/>
<path fill="#FFFFFF" d="M35.761,72.362L35,69.631l1.709-0.476l0.09,0.322l-1.346,0.375l0.209,0.748l1.253-0.35l0.09,0.323
	l-1.254,0.349l0.283,1.015l1.345-0.374l0.09,0.322L35.761,72.362z"/>
<path fill="#FFFFFF" d="M37.851,71.771l-0.116-2.992l0.436-0.166l1.904,2.311l-0.373,0.143l-0.521-0.648l-1.014,0.387l0.042,0.83
	L37.851,71.771z M38.966,70.153l-0.885-1.091l0.066,1.403L38.966,70.153z"/>
<path fill="#FFFFFF" d="M42.551,69.708l-0.438,0.219l-1.306-0.608l-0.388,0.191l0.502,1.011l-0.337,0.167l-1.264-2.54l0.655-0.325
	c0.146-0.072,0.271-0.125,0.378-0.158c0.107-0.034,0.219-0.042,0.336-0.03c0.116,0.014,0.224,0.052,0.319,0.116
	c0.097,0.063,0.178,0.163,0.244,0.295c0.092,0.188,0.123,0.366,0.091,0.538c-0.033,0.172-0.115,0.33-0.248,0.47L42.551,69.708z
	 M40.917,68.249c-0.037-0.075-0.083-0.133-0.138-0.178c-0.056-0.045-0.118-0.071-0.19-0.081c-0.064-0.008-0.131-0.002-0.201,0.017
	s-0.153,0.052-0.248,0.1l-0.335,0.166l0.477,0.957l0.297-0.148c0.098-0.048,0.181-0.1,0.25-0.156
	c0.067-0.055,0.116-0.123,0.146-0.203c0.025-0.071,0.033-0.146,0.024-0.225C40.986,68.419,40.959,68.336,40.917,68.249z"/>
<path fill="#FFFFFF" d="M43.959,68.896c-0.158,0.099-0.319,0.163-0.483,0.192c-0.165,0.029-0.328,0.023-0.489-0.021
	c-0.16-0.045-0.316-0.127-0.468-0.251c-0.149-0.123-0.29-0.286-0.416-0.488c-0.126-0.201-0.211-0.393-0.254-0.574
	c-0.043-0.181-0.05-0.358-0.021-0.529c0.028-0.169,0.09-0.322,0.187-0.46c0.095-0.139,0.226-0.26,0.387-0.362
	c0.081-0.05,0.16-0.092,0.237-0.124c0.078-0.032,0.153-0.059,0.225-0.078c0.062-0.016,0.128-0.029,0.197-0.039
	s0.141-0.016,0.21-0.021l0.242,0.386l-0.026,0.016c-0.044-0.007-0.1-0.016-0.167-0.024c-0.066-0.01-0.143-0.012-0.229-0.008
	c-0.082,0.007-0.166,0.021-0.252,0.044c-0.085,0.024-0.175,0.065-0.271,0.125c-0.103,0.064-0.187,0.146-0.251,0.245
	c-0.064,0.101-0.106,0.212-0.125,0.336c-0.017,0.125-0.004,0.262,0.036,0.408c0.04,0.147,0.108,0.299,0.206,0.454
	c0.104,0.164,0.212,0.293,0.326,0.387c0.114,0.095,0.232,0.161,0.352,0.199c0.117,0.038,0.233,0.048,0.349,0.032
	c0.116-0.017,0.225-0.056,0.326-0.12c0.092-0.058,0.171-0.123,0.235-0.195c0.064-0.07,0.116-0.145,0.156-0.217
	c0.039-0.069,0.068-0.137,0.089-0.198c0.021-0.062,0.036-0.112,0.045-0.153l0.024-0.016l0.239,0.383
	c-0.037,0.057-0.072,0.111-0.104,0.163c-0.032,0.054-0.076,0.111-0.128,0.175c-0.056,0.065-0.11,0.124-0.162,0.173
	S44.055,68.834,43.959,68.896z"/>
<path fill="#FFFFFF" d="M46.826,66.739l-0.299,0.233l-0.854-1.095l-1.026,0.804l0.855,1.093l-0.297,0.232l-1.748-2.234l0.297-0.232
	l0.686,0.876l1.025-0.802l-0.687-0.876l0.298-0.233L46.826,66.739z"/>
<path fill="#FFFFFF" d="M49.37,64.344c-0.127,0.137-0.267,0.239-0.417,0.312c-0.152,0.07-0.312,0.105-0.479,0.104
	s-0.339-0.042-0.517-0.123c-0.178-0.08-0.354-0.202-0.527-0.365c-0.174-0.162-0.304-0.325-0.393-0.49
	c-0.088-0.165-0.141-0.334-0.157-0.507c-0.017-0.169,0.005-0.334,0.062-0.492c0.058-0.159,0.151-0.309,0.282-0.449
	c0.065-0.07,0.131-0.131,0.198-0.182c0.067-0.052,0.133-0.095,0.197-0.132c0.056-0.032,0.115-0.062,0.181-0.088
	c0.064-0.028,0.131-0.053,0.199-0.074l0.333,0.312l-0.021,0.022c-0.045,0.004-0.101,0.008-0.168,0.017
	c-0.066,0.008-0.142,0.026-0.224,0.051c-0.079,0.026-0.157,0.062-0.233,0.106c-0.077,0.044-0.152,0.107-0.229,0.188
	c-0.083,0.089-0.143,0.189-0.18,0.303c-0.037,0.111-0.049,0.23-0.033,0.356c0.016,0.124,0.062,0.252,0.139,0.385
	c0.077,0.132,0.182,0.261,0.315,0.386c0.142,0.133,0.28,0.229,0.414,0.291c0.136,0.062,0.267,0.096,0.392,0.103
	c0.123,0.006,0.238-0.012,0.345-0.058c0.108-0.046,0.203-0.112,0.285-0.199c0.075-0.081,0.133-0.164,0.178-0.249
	c0.043-0.086,0.075-0.17,0.097-0.25c0.019-0.079,0.029-0.15,0.034-0.215c0.006-0.065,0.007-0.119,0.006-0.161l0.02-0.02l0.329,0.307
	c-0.021,0.064-0.041,0.128-0.06,0.187c-0.018,0.059-0.045,0.125-0.079,0.2c-0.037,0.079-0.075,0.149-0.112,0.21
	C49.504,64.19,49.446,64.263,49.37,64.344z"/>
<path fill="#FFFFFF" d="M50.342,63.165l-2.235-1.749l1.095-1.397l0.264,0.206l-0.861,1.102l0.613,0.479l0.803-1.027l0.266,0.208
	l-0.805,1.026l0.829,0.648l0.861-1.103l0.265,0.208L50.342,63.165z"/>
<path fill="#FFFFFF" d="M52.957,59.488l-0.231,0.354l-2.733-0.281l2.05,1.334l-0.192,0.295l-2.376-1.547l0.292-0.449l2.505,0.267
	l-1.882-1.225l0.192-0.295L52.957,59.488z"/>
<path fill="#FFFFFF" d="M53.707,58.157l-2.202-1.189l-0.453,0.838l-0.294-0.158l1.086-2.009l0.294,0.158l-0.453,0.838l2.202,1.19
	L53.707,58.157z"/>
<path fill="#FFFFFF" d="M55.49,54.462l-0.201,0.446l-1.397,0.355l-0.177,0.394l1.028,0.463l-0.155,0.344l-2.586-1.167l0.3-0.666
	c0.067-0.147,0.131-0.269,0.192-0.361s0.142-0.172,0.241-0.234c0.1-0.063,0.206-0.102,0.321-0.114
	c0.115-0.011,0.24,0.015,0.376,0.075c0.189,0.085,0.327,0.205,0.411,0.358c0.084,0.152,0.12,0.328,0.106,0.521L55.49,54.462z
	 M53.297,54.366c-0.076-0.034-0.148-0.051-0.219-0.051c-0.07,0.001-0.137,0.021-0.198,0.06c-0.055,0.035-0.104,0.081-0.146,0.141
	s-0.086,0.137-0.129,0.232l-0.153,0.341l0.975,0.439l0.136-0.303c0.045-0.1,0.076-0.19,0.095-0.278
	c0.019-0.086,0.013-0.17-0.017-0.251c-0.025-0.071-0.066-0.135-0.124-0.188C53.46,54.454,53.387,54.406,53.297,54.366z"/>
<path fill="#FFFFFF" d="M55.674,53.972l-2.656-0.996l0.624-1.663l0.313,0.115l-0.491,1.312l0.728,0.271l0.457-1.219l0.314,0.118
	l-0.458,1.22l0.989,0.371l0.49-1.31l0.313,0.118L55.674,53.972z"/>
<path fill="#FFFFFF" d="M2.517,44.39c0.008,0.158-0.013,0.306-0.06,0.44s-0.122,0.254-0.223,0.355
	c-0.102,0.102-0.229,0.182-0.386,0.241c-0.155,0.062-0.334,0.097-0.539,0.104c-0.203,0.01-0.382-0.008-0.535-0.053
	c-0.153-0.044-0.289-0.114-0.404-0.208c-0.113-0.093-0.201-0.203-0.265-0.333c-0.062-0.129-0.098-0.277-0.104-0.441
	C-0.002,44.414,0,44.338,0.009,44.267c0.008-0.071,0.021-0.139,0.037-0.2c0.013-0.051,0.031-0.106,0.053-0.162
	c0.022-0.056,0.047-0.111,0.074-0.167l0.391-0.018l0.001,0.026c-0.023,0.029-0.055,0.067-0.09,0.114
	c-0.036,0.045-0.068,0.102-0.103,0.167c-0.031,0.063-0.057,0.133-0.074,0.206c-0.02,0.075-0.026,0.159-0.021,0.254
	c0.005,0.103,0.03,0.2,0.077,0.291c0.046,0.09,0.112,0.168,0.198,0.232c0.085,0.065,0.191,0.114,0.318,0.147
	c0.126,0.032,0.269,0.045,0.425,0.038c0.167-0.008,0.309-0.035,0.426-0.081c0.119-0.045,0.218-0.105,0.297-0.177
	c0.078-0.071,0.135-0.153,0.171-0.246c0.038-0.093,0.055-0.191,0.049-0.293c-0.004-0.093-0.02-0.179-0.046-0.257
	c-0.025-0.078-0.058-0.148-0.095-0.208c-0.036-0.06-0.073-0.109-0.11-0.15c-0.037-0.042-0.068-0.075-0.095-0.099l-0.003-0.024
	l0.386-0.018c0.027,0.052,0.055,0.102,0.078,0.147c0.025,0.046,0.05,0.104,0.075,0.169c0.026,0.069,0.046,0.134,0.062,0.193
	C2.503,44.214,2.513,44.292,2.517,44.39z"/>
<path fill="#FFFFFF" d="M2.449,43.313l-2.432-0.074l0.046-1.521l0.288,0.01l-0.037,1.199l0.666,0.02l0.034-1.119l0.288,0.01
	l-0.034,1.118l0.901,0.028l0.037-1.2l0.287,0.009L2.449,43.313z"/>
<path fill="#FFFFFF" d="M2.695,39.682L2.661,40.04l-2.188,0.873l2.087,0.197l-0.027,0.3L0.11,41.182l0.043-0.456l2.01-0.792
	l-1.917-0.182l0.027-0.3L2.695,39.682z"/>
<path fill="#FFFFFF" d="M2.896,38.613L0.79,38.211l-0.153,0.804L0.353,38.96l0.367-1.922l0.282,0.053l-0.153,0.805l2.107,0.401
	L2.896,38.613z"/>
<path fill="#FFFFFF" d="M3.673,35.415L3.562,35.82l-1.134,0.488l-0.098,0.356l0.932,0.255l-0.085,0.312l-2.346-0.642l0.165-0.604
	c0.037-0.134,0.074-0.244,0.114-0.331s0.098-0.164,0.174-0.231c0.074-0.066,0.159-0.113,0.256-0.139
	c0.096-0.025,0.205-0.021,0.328,0.013c0.172,0.047,0.305,0.13,0.396,0.249c0.092,0.118,0.146,0.261,0.159,0.427L3.673,35.415z
	 M1.805,35.627c-0.068-0.018-0.132-0.022-0.19-0.013c-0.061,0.01-0.113,0.035-0.161,0.077c-0.041,0.036-0.076,0.083-0.104,0.138
	c-0.029,0.056-0.055,0.127-0.079,0.214l-0.084,0.311l0.884,0.241l0.075-0.274c0.024-0.089,0.039-0.172,0.042-0.248
	s-0.012-0.146-0.047-0.21c-0.032-0.057-0.075-0.104-0.13-0.144C1.956,35.682,1.887,35.65,1.805,35.627z"/>
<path fill="#FFFFFF" d="M3.75,35.219L1.462,34.4l0.512-1.435l0.271,0.099l-0.404,1.128l0.627,0.224l0.375-1.05l0.272,0.097
	l-0.375,1.051l0.849,0.304l0.403-1.127l0.271,0.097L3.75,35.219z"/>
<path fill="#FFFFFF" d="M5.799,30.68c-0.076,0.139-0.17,0.254-0.281,0.346c-0.11,0.092-0.235,0.154-0.375,0.188
	c-0.14,0.034-0.291,0.037-0.455,0.007c-0.164-0.028-0.336-0.093-0.516-0.19c-0.179-0.098-0.322-0.206-0.43-0.325
	c-0.107-0.118-0.188-0.248-0.238-0.388c-0.049-0.139-0.067-0.278-0.052-0.422c0.014-0.145,0.06-0.288,0.139-0.433
	c0.04-0.07,0.082-0.136,0.126-0.191c0.045-0.059,0.09-0.107,0.135-0.152c0.039-0.039,0.083-0.076,0.131-0.112
	c0.049-0.037,0.099-0.07,0.149-0.104l0.342,0.188l-0.013,0.022c-0.036,0.013-0.081,0.029-0.135,0.051
	c-0.055,0.022-0.112,0.051-0.176,0.09c-0.06,0.039-0.115,0.084-0.17,0.139c-0.055,0.054-0.104,0.122-0.149,0.207
	c-0.049,0.09-0.078,0.186-0.085,0.287s0.009,0.203,0.047,0.305c0.04,0.099,0.104,0.197,0.196,0.29
	c0.092,0.094,0.206,0.179,0.344,0.254c0.146,0.081,0.282,0.132,0.406,0.155c0.125,0.021,0.24,0.022,0.348,0.002
	C5.19,30.87,5.282,30.83,5.36,30.77c0.08-0.062,0.146-0.136,0.193-0.227c0.045-0.082,0.078-0.163,0.096-0.244
	c0.019-0.081,0.027-0.155,0.026-0.228c-0.001-0.069-0.007-0.131-0.016-0.187c-0.011-0.055-0.021-0.1-0.03-0.133l0.012-0.021
	l0.337,0.186c-0.003,0.06-0.007,0.114-0.01,0.167c-0.002,0.052-0.01,0.114-0.024,0.184c-0.014,0.072-0.029,0.139-0.049,0.197
	C5.879,30.521,5.846,30.594,5.799,30.68z"/>
<path fill="#FFFFFF" d="M6.157,29.938L4.573,27.92l0.219-0.333l2.481,0.647l-0.188,0.286l-0.69-0.188l-0.508,0.775l0.448,0.557
	L6.157,29.938z M6.117,28.255l-1.162-0.312l0.752,0.938L6.117,28.255z"/>
<path fill="#FFFFFF" d="M8.494,26.661L8.27,26.948l-2.312-0.443l1.653,1.29l-0.187,0.238l-1.917-1.495l0.282-0.362l2.119,0.414
	l-1.52-1.186l0.188-0.238L8.494,26.661z"/>
<path fill="#FFFFFF" d="M8.657,26.46l-1.234-2.25l0.27-0.292l2.344,1.045l-0.23,0.25l-0.647-0.298l-0.63,0.684l0.352,0.62
	L8.657,26.46z M8.892,24.795l-1.097-0.5l0.589,1.052L8.892,24.795z"/>
<path fill="#FFFFFF" d="M10.806,22.599c0.15,0.164,0.253,0.341,0.309,0.533c0.055,0.192,0.061,0.375,0.017,0.553
	c-0.038,0.14-0.094,0.263-0.17,0.366c-0.075,0.105-0.186,0.226-0.33,0.358l-0.412,0.379l-1.646-1.789l0.405-0.375
	c0.168-0.154,0.312-0.263,0.432-0.326c0.117-0.062,0.231-0.102,0.339-0.121c0.186-0.029,0.367-0.011,0.546,0.058
	C10.475,22.302,10.645,22.424,10.806,22.599z M10.555,22.823c-0.127-0.138-0.258-0.234-0.393-0.29
	c-0.136-0.055-0.272-0.069-0.412-0.041c-0.099,0.021-0.191,0.054-0.279,0.104c-0.087,0.049-0.184,0.123-0.292,0.222L9,22.985
	l1.269,1.378l0.182-0.167c0.104-0.097,0.189-0.191,0.254-0.28c0.062-0.09,0.106-0.188,0.13-0.293
	c0.031-0.131,0.023-0.264-0.021-0.395S10.683,22.962,10.555,22.823z"/>
<path fill="#FFFFFF" d="M12.592,22.729l-0.738,0.593L11.7,23.128l0.242-0.194l-1.212-1.512l-0.243,0.195l-0.154-0.194l0.737-0.592
	l0.155,0.193l-0.243,0.194l1.212,1.512l0.243-0.195L12.592,22.729z"/>
<path fill="#FFFFFF" d="M12.922,22.473l-1.405-1.986l1.245-0.88l0.166,0.233l-0.98,0.695l0.386,0.544l0.914-0.646l0.165,0.233
	l-0.914,0.646l0.521,0.737l0.981-0.693l0.166,0.233L12.922,22.473z"/>
<path fill="#FFFFFF" d="M15.977,20.495l-0.312,0.188l-1.998-1.252l1.072,1.803l-0.261,0.154l-1.244-2.091l0.396-0.233l1.827,1.152
	l-0.985-1.654l0.26-0.154L15.977,20.495z"/>
<path fill="#FFFFFF" d="M19.719,17.513c0.08,0.207,0.109,0.41,0.09,0.608c-0.019,0.198-0.083,0.372-0.188,0.521
	c-0.087,0.116-0.187,0.209-0.294,0.278c-0.108,0.07-0.255,0.142-0.439,0.211l-0.522,0.202l-0.874-2.27l0.517-0.199
	c0.213-0.083,0.387-0.131,0.521-0.146c0.134-0.015,0.255-0.011,0.361,0.013c0.185,0.04,0.346,0.125,0.488,0.254
	C19.52,17.115,19.634,17.291,19.719,17.513z M19.403,17.628c-0.066-0.174-0.152-0.312-0.259-0.413
	c-0.105-0.101-0.229-0.164-0.369-0.188c-0.1-0.019-0.197-0.021-0.299-0.006c-0.1,0.014-0.217,0.047-0.354,0.1l-0.23,0.088
	l0.673,1.75l0.231-0.089c0.134-0.052,0.247-0.106,0.34-0.168c0.092-0.06,0.169-0.135,0.23-0.225
	c0.077-0.111,0.119-0.236,0.127-0.375C19.501,17.962,19.471,17.806,19.403,17.628z"/>
<path fill="#FFFFFF" d="M20.516,18.536l-0.687-2.332l1.461-0.43l0.081,0.273l-1.15,0.34l0.188,0.639l1.071-0.317l0.081,0.275
	L20.491,17.3l0.256,0.869l1.148-0.339l0.081,0.275L20.516,18.536z"/>
<path fill="#FFFFFF" d="M26.305,17.354l-0.416,0.052l-0.886-0.862l-0.368,0.047l0.123,0.96l-0.32,0.041l-0.308-2.411l0.622-0.08
	c0.138-0.019,0.255-0.025,0.35-0.022c0.097,0.004,0.188,0.027,0.28,0.072c0.091,0.043,0.167,0.104,0.227,0.183
	c0.061,0.079,0.099,0.183,0.114,0.309c0.023,0.177-0.002,0.331-0.078,0.46c-0.074,0.131-0.185,0.233-0.332,0.311L26.305,17.354z
	 M25.391,15.71c-0.009-0.069-0.029-0.13-0.061-0.181c-0.032-0.051-0.076-0.091-0.132-0.119c-0.05-0.025-0.105-0.039-0.167-0.044
	c-0.063-0.004-0.139-0.001-0.229,0.011l-0.318,0.04l0.116,0.907l0.282-0.035c0.092-0.013,0.174-0.031,0.246-0.056
	c0.071-0.026,0.129-0.067,0.175-0.125c0.041-0.051,0.069-0.109,0.083-0.175C25.4,15.869,25.402,15.794,25.391,15.71z"/>
<path fill="#FFFFFF" d="M26.521,17.352l-0.122-2.43l1.52-0.077l0.014,0.288l-1.195,0.061l0.033,0.666l1.114-0.057l0.015,0.288
	l-1.114,0.057l0.045,0.898l1.194-0.06l0.016,0.288L26.521,17.352z"/>
<path fill="#FFFFFF" d="M29.371,17.34c-0.159-0.004-0.305-0.033-0.438-0.091c-0.132-0.056-0.245-0.139-0.339-0.247
	c-0.095-0.107-0.166-0.241-0.215-0.4c-0.05-0.159-0.072-0.341-0.066-0.545c0.005-0.204,0.035-0.381,0.091-0.53
	c0.056-0.15,0.134-0.28,0.236-0.391c0.101-0.105,0.217-0.186,0.352-0.239c0.135-0.055,0.283-0.079,0.447-0.075
	c0.082,0.002,0.158,0.01,0.229,0.024c0.071,0.014,0.137,0.03,0.197,0.051c0.052,0.018,0.104,0.039,0.159,0.064
	c0.055,0.026,0.108,0.055,0.16,0.085l-0.01,0.391l-0.026-0.001c-0.026-0.026-0.062-0.06-0.105-0.098
	C30,15.3,29.945,15.263,29.882,15.225c-0.062-0.035-0.128-0.065-0.2-0.09c-0.073-0.022-0.157-0.035-0.252-0.038
	c-0.104-0.004-0.202,0.016-0.296,0.056c-0.093,0.04-0.176,0.101-0.248,0.181c-0.071,0.081-0.126,0.185-0.167,0.309
	s-0.063,0.265-0.068,0.422c-0.004,0.166,0.014,0.31,0.051,0.431c0.036,0.122,0.09,0.225,0.156,0.309
	c0.065,0.083,0.145,0.146,0.233,0.188c0.091,0.043,0.187,0.066,0.29,0.069c0.093,0.002,0.18-0.008,0.26-0.027
	c0.08-0.021,0.151-0.048,0.214-0.082c0.062-0.032,0.113-0.063,0.158-0.099s0.08-0.064,0.105-0.088h0.023l-0.01,0.385
	c-0.054,0.023-0.105,0.046-0.153,0.067c-0.048,0.022-0.105,0.042-0.174,0.063c-0.071,0.021-0.137,0.037-0.198,0.048
	C29.545,17.338,29.466,17.342,29.371,17.34z"/>
<path fill="#FFFFFF" d="M32.208,17.519l-0.322-0.031l0.112-1.188l-1.111-0.104l-0.112,1.187l-0.321-0.03l0.229-2.421l0.322,0.03
	l-0.09,0.948l1.11,0.105l0.091-0.948l0.321,0.03L32.208,17.519z"/>
<path fill="#FFFFFF" d="M32.716,17.61l0.45-2.391l1.496,0.282l-0.054,0.282l-1.179-0.222l-0.124,0.653l1.101,0.207l-0.055,0.283
	l-1.099-0.207l-0.167,0.89l1.18,0.222l-0.054,0.283L32.716,17.61z"/>
<path fill="#FFFFFF" d="M36.396,18.464l-0.404-0.108l-0.493-1.132l-0.358-0.097l-0.25,0.934l-0.312-0.083l0.629-2.349l0.605,0.163
	c0.136,0.036,0.246,0.074,0.333,0.113c0.087,0.04,0.164,0.096,0.232,0.172c0.066,0.075,0.114,0.16,0.14,0.256
	c0.025,0.097,0.022,0.206-0.011,0.329c-0.046,0.172-0.129,0.304-0.247,0.397c-0.119,0.092-0.261,0.146-0.426,0.16L36.396,18.464z
	 M36.176,16.6c0.018-0.069,0.022-0.133,0.013-0.192c-0.01-0.059-0.036-0.112-0.078-0.16c-0.036-0.041-0.083-0.076-0.139-0.104
	c-0.056-0.028-0.127-0.054-0.215-0.077l-0.312-0.083l-0.236,0.885l0.274,0.074c0.091,0.023,0.174,0.038,0.249,0.042
	c0.076,0.003,0.146-0.013,0.21-0.048c0.058-0.032,0.104-0.076,0.144-0.131C36.125,16.749,36.154,16.681,36.176,16.6z"/>
<path fill="#FFFFFF" d="M37.48,18.902c-0.148-0.053-0.277-0.127-0.386-0.222c-0.108-0.096-0.19-0.209-0.246-0.341
	c-0.055-0.132-0.083-0.281-0.08-0.447c0.003-0.167,0.039-0.348,0.107-0.54s0.151-0.351,0.251-0.477s0.215-0.225,0.346-0.297
	c0.127-0.071,0.263-0.11,0.408-0.12c0.144-0.009,0.294,0.015,0.449,0.068c0.077,0.028,0.146,0.059,0.21,0.093
	c0.062,0.036,0.12,0.072,0.171,0.11c0.043,0.032,0.088,0.069,0.131,0.11c0.043,0.042,0.085,0.085,0.126,0.132l-0.131,0.366
	l-0.025-0.008c-0.018-0.034-0.042-0.076-0.07-0.125c-0.03-0.05-0.069-0.103-0.118-0.158c-0.047-0.053-0.103-0.101-0.163-0.146
	c-0.062-0.045-0.139-0.084-0.229-0.116c-0.098-0.035-0.196-0.047-0.298-0.039c-0.102,0.009-0.199,0.041-0.292,0.096
	c-0.092,0.056-0.178,0.136-0.255,0.241c-0.078,0.105-0.143,0.231-0.196,0.379c-0.056,0.157-0.085,0.3-0.087,0.427
	s0.016,0.24,0.054,0.343c0.036,0.098,0.091,0.182,0.163,0.251c0.072,0.068,0.156,0.121,0.254,0.155
	c0.087,0.03,0.173,0.05,0.256,0.054c0.083,0.005,0.157,0.001,0.229-0.01c0.067-0.013,0.128-0.027,0.182-0.047
	c0.053-0.019,0.095-0.035,0.127-0.051l0.022,0.008l-0.129,0.364c-0.059,0.005-0.115,0.011-0.167,0.018
	c-0.052,0.006-0.114,0.008-0.184,0.006c-0.075-0.002-0.144-0.008-0.204-0.018C37.648,18.956,37.573,18.935,37.48,18.902z"/>
<path fill="#FFFFFF" d="M40.119,19.965l-0.294-0.133l0.489-1.083l-1.017-0.46l-0.49,1.083l-0.294-0.134l1.002-2.215l0.294,0.134
	l-0.393,0.869l1.018,0.46l0.395-0.869l0.294,0.133L40.119,19.965z"/>
<path fill="#FFFFFF" d="M40.577,20.204l1.177-2.127l1.333,0.738l-0.139,0.252l-1.051-0.581l-0.321,0.583l0.978,0.541l-0.14,0.252
	l-0.979-0.541L41,20.108l1.049,0.582l-0.139,0.252L40.577,20.204z"/>
<path fill="#FFFFFF" d="M44.005,22.339l1.493-1.92l1.199,0.934L46.52,21.58l-0.942-0.733l-0.409,0.525l0.879,0.684l-0.177,0.227
	L44.992,21.6l-0.555,0.712l0.944,0.733l-0.177,0.228L44.005,22.339z"/>
<path fill="#FFFFFF" d="M46.776,24.685l-0.267-0.244l0.621-2.273l-1.415,1.548l-0.222-0.202l1.64-1.796l0.338,0.31l-0.576,2.082
	l1.298-1.422l0.224,0.203L46.776,24.685z"/>
<path fill="#FFFFFF" d="M48.461,26.583c-0.104-0.121-0.178-0.249-0.225-0.385c-0.046-0.136-0.061-0.275-0.044-0.417
	c0.018-0.142,0.069-0.285,0.154-0.428c0.085-0.145,0.206-0.282,0.361-0.415c0.154-0.133,0.306-0.229,0.455-0.288
	c0.147-0.06,0.297-0.087,0.446-0.084c0.146,0.002,0.283,0.035,0.413,0.099c0.129,0.064,0.248,0.158,0.355,0.283
	c0.054,0.062,0.099,0.124,0.136,0.186c0.037,0.062,0.069,0.122,0.094,0.182c0.022,0.05,0.041,0.104,0.059,0.162
	c0.018,0.058,0.032,0.115,0.044,0.176l-0.297,0.253l-0.018-0.021c0.001-0.038,0.001-0.086,0-0.144s-0.009-0.123-0.023-0.194
	c-0.016-0.068-0.039-0.138-0.069-0.208c-0.031-0.068-0.078-0.14-0.14-0.213c-0.067-0.079-0.146-0.14-0.239-0.182
	c-0.092-0.042-0.192-0.064-0.301-0.063c-0.107,0.001-0.222,0.029-0.34,0.081c-0.12,0.053-0.239,0.129-0.358,0.231
	c-0.126,0.108-0.223,0.217-0.287,0.326c-0.064,0.107-0.105,0.216-0.124,0.322c-0.018,0.104-0.012,0.204,0.018,0.3
	c0.028,0.096,0.075,0.183,0.143,0.261c0.061,0.07,0.126,0.129,0.194,0.175c0.068,0.045,0.137,0.081,0.204,0.104
	c0.064,0.023,0.125,0.041,0.179,0.051c0.056,0.01,0.101,0.017,0.136,0.02l0.016,0.02l-0.292,0.25
	c-0.053-0.024-0.104-0.046-0.152-0.068c-0.048-0.021-0.104-0.049-0.163-0.087c-0.063-0.039-0.119-0.078-0.167-0.115
	C48.58,26.712,48.523,26.656,48.461,26.583z"/>
<path fill="#FFFFFF" d="M49.029,27.176l2.447-0.771l0.234,0.321l-1.48,2.096l-0.202-0.276l0.417-0.576l-0.548-0.75l-0.676,0.222
	L49.029,27.176z M50.618,27.73l0.701-0.977l-1.143,0.372L50.618,27.73z"/>
<path fill="#FFFFFF" d="M51.354,30.646l-0.22-0.357l0.42-1.164l-0.195-0.314l-0.823,0.507l-0.169-0.276l2.07-1.274l0.33,0.534
	c0.073,0.119,0.128,0.224,0.164,0.312c0.037,0.089,0.054,0.184,0.051,0.285c-0.001,0.101-0.025,0.194-0.072,0.281
	c-0.048,0.088-0.125,0.165-0.233,0.231c-0.152,0.094-0.303,0.133-0.452,0.119c-0.148-0.015-0.29-0.073-0.42-0.176L51.354,30.646z
	 M52.475,29.135c0.062-0.036,0.107-0.08,0.142-0.131c0.032-0.05,0.051-0.106,0.053-0.17c0.002-0.055-0.007-0.111-0.029-0.17
	c-0.021-0.058-0.056-0.126-0.103-0.203l-0.168-0.273l-0.78,0.479l0.15,0.243c0.048,0.079,0.099,0.146,0.15,0.2
	c0.053,0.055,0.115,0.091,0.187,0.108c0.062,0.017,0.128,0.018,0.192,0.004C52.334,29.208,52.403,29.18,52.475,29.135z"/>
<path fill="#FFFFFF" d="M53.4,32.003c-0.197,0.101-0.396,0.15-0.597,0.15s-0.378-0.044-0.537-0.134
	c-0.124-0.075-0.227-0.164-0.307-0.266c-0.08-0.101-0.166-0.239-0.254-0.417l-0.252-0.5l2.169-1.097l0.25,0.494
	c0.104,0.205,0.169,0.373,0.197,0.505c0.028,0.131,0.035,0.251,0.023,0.36c-0.021,0.187-0.089,0.356-0.204,0.511
	C53.775,31.766,53.611,31.896,53.4,32.003z M53.252,31.699c0.167-0.084,0.295-0.183,0.385-0.298s0.141-0.244,0.151-0.386
	c0.008-0.102,0-0.199-0.024-0.298c-0.022-0.098-0.068-0.212-0.134-0.343l-0.112-0.22L51.846,31l0.112,0.22
	c0.063,0.129,0.131,0.236,0.2,0.321c0.068,0.086,0.15,0.155,0.247,0.207c0.117,0.065,0.246,0.095,0.386,0.089
	C52.929,31.831,53.083,31.785,53.252,31.699z"/>
<path fill="#FFFFFF" d="M52.786,33.682l-0.366-0.868l0.229-0.097l0.12,0.285l1.782-0.753l-0.12-0.285l0.229-0.096l0.365,0.868
	l-0.229,0.097l-0.12-0.285L52.893,33.3l0.121,0.285L52.786,33.682z"/>
<path fill="#FFFFFF" d="M55.542,34.997c-0.071,0.122-0.173,0.233-0.307,0.333c-0.133,0.101-0.295,0.183-0.486,0.248
	c-0.187,0.063-0.362,0.097-0.529,0.103c-0.167,0.004-0.316-0.021-0.449-0.076c-0.14-0.059-0.256-0.141-0.35-0.247
	c-0.094-0.108-0.167-0.237-0.218-0.39c-0.055-0.153-0.075-0.304-0.065-0.445c0.01-0.144,0.051-0.277,0.125-0.402
	c0.071-0.124,0.174-0.234,0.308-0.333c0.134-0.098,0.294-0.179,0.482-0.244c0.193-0.065,0.372-0.101,0.534-0.103
	s0.312,0.022,0.447,0.076c0.131,0.054,0.246,0.134,0.342,0.24c0.096,0.107,0.17,0.238,0.224,0.394
	c0.053,0.156,0.074,0.307,0.063,0.451C55.652,34.744,55.611,34.876,55.542,34.997z M54.641,35.258
	c0.152-0.052,0.281-0.114,0.39-0.188c0.104-0.073,0.188-0.152,0.243-0.238c0.06-0.088,0.094-0.182,0.104-0.281
	c0.01-0.1-0.003-0.202-0.04-0.31c-0.038-0.112-0.09-0.202-0.158-0.271c-0.065-0.068-0.152-0.122-0.256-0.158
	c-0.099-0.034-0.213-0.047-0.342-0.039c-0.13,0.009-0.271,0.038-0.419,0.089c-0.303,0.104-0.512,0.245-0.629,0.427
	c-0.117,0.181-0.14,0.378-0.066,0.592c0.073,0.212,0.211,0.355,0.415,0.427C54.086,35.377,54.339,35.361,54.641,35.258z"/>
<path fill="#FFFFFF" d="M54.04,37.7l-0.351-1.364l2.355-0.604l0.081,0.313l-2.078,0.532l0.27,1.051L54.04,37.7z"/>
<path fill="#FFFFFF" d="M56.514,39.27c-0.09,0.108-0.208,0.204-0.354,0.28c-0.146,0.077-0.32,0.134-0.521,0.168
	c-0.192,0.034-0.374,0.04-0.539,0.019c-0.165-0.022-0.309-0.07-0.432-0.146c-0.128-0.078-0.231-0.178-0.308-0.299
	c-0.075-0.122-0.127-0.26-0.154-0.417c-0.029-0.161-0.027-0.312,0.005-0.452c0.033-0.14,0.095-0.266,0.187-0.378
	c0.091-0.11,0.208-0.205,0.355-0.28c0.146-0.077,0.318-0.133,0.515-0.166c0.202-0.036,0.383-0.042,0.544-0.019
	s0.305,0.071,0.431,0.145c0.123,0.073,0.223,0.171,0.301,0.292c0.078,0.119,0.131,0.261,0.159,0.423
	c0.028,0.163,0.024,0.314-0.009,0.456C56.662,39.036,56.601,39.161,56.514,39.27z M55.583,39.388
	c0.159-0.028,0.297-0.069,0.413-0.125c0.115-0.057,0.209-0.122,0.278-0.198c0.072-0.077,0.12-0.165,0.146-0.263
	c0.025-0.097,0.029-0.2,0.01-0.312c-0.021-0.115-0.058-0.213-0.114-0.292c-0.055-0.08-0.131-0.146-0.228-0.196
	c-0.093-0.049-0.204-0.08-0.333-0.093c-0.13-0.011-0.272-0.004-0.428,0.023c-0.314,0.055-0.543,0.162-0.688,0.323
	c-0.144,0.161-0.196,0.354-0.157,0.575s0.153,0.384,0.344,0.486C55.015,39.418,55.267,39.441,55.583,39.388z"/>
<path fill="#FFFFFF" d="M54.519,41.323c-0.014-0.171-0.001-0.33,0.039-0.479c0.04-0.146,0.109-0.273,0.208-0.386
	c0.099-0.109,0.226-0.2,0.379-0.268c0.154-0.067,0.333-0.11,0.54-0.127c0.196-0.018,0.374-0.003,0.533,0.038
	c0.159,0.042,0.297,0.108,0.416,0.202c0.114,0.089,0.207,0.203,0.277,0.343c0.068,0.14,0.11,0.295,0.126,0.467
	c0.006,0.082,0.007,0.16,0.001,0.236c-0.006,0.075-0.017,0.147-0.031,0.218c-0.012,0.056-0.028,0.119-0.052,0.187
	c-0.023,0.069-0.043,0.126-0.062,0.168l-0.389,0.032l-0.002-0.027c0.033-0.043,0.062-0.087,0.091-0.134
	c0.028-0.045,0.057-0.107,0.088-0.188c0.027-0.068,0.047-0.146,0.063-0.231c0.015-0.087,0.018-0.178,0.01-0.275
	c-0.021-0.232-0.124-0.414-0.312-0.543c-0.188-0.13-0.427-0.183-0.72-0.157c-0.163,0.014-0.303,0.045-0.421,0.093
	s-0.216,0.111-0.295,0.19c-0.078,0.075-0.135,0.166-0.17,0.268c-0.036,0.102-0.048,0.214-0.038,0.337
	c0.008,0.091,0.021,0.181,0.042,0.271c0.021,0.089,0.046,0.163,0.077,0.224l0.628-0.053L55.5,41.164l0.283-0.022l0.073,0.879
	l-1.059,0.088c-0.022-0.039-0.05-0.092-0.084-0.159c-0.034-0.066-0.062-0.129-0.083-0.188c-0.03-0.076-0.054-0.146-0.072-0.21
	C54.54,41.492,54.527,41.414,54.519,41.323z"/>
<path fill="#FFFFFF" d="M54.65,43.4l-0.015-0.943l0.248-0.004l0.005,0.311l1.938-0.031l-0.006-0.311l0.247-0.004l0.017,0.944
	l-0.248,0.003l-0.005-0.31l-1.938,0.03l0.006,0.311L54.65,43.4z"/>
<path fill="#FFFFFF" d="M54.651,43.824l2.429,0.108l-0.068,1.521l-0.287-0.012l0.054-1.2l-0.666-0.029l-0.049,1.119l-0.287-0.012
	l0.051-1.12l-0.902-0.04l-0.053,1.199l-0.287-0.012L54.651,43.824z"/>
<path fill="#FFFFFF" d="M70.9,28.872c-0.048-0.056-0.106-0.083-0.18-0.083c-0.041,0-0.122,0.052-0.246,0.156
	c-0.125,0.104-0.301,0.218-0.529,0.343s-0.519,0.235-0.87,0.332c-0.353,0.097-0.78,0.146-1.285,0.146
	c-0.562,0-1.073-0.08-1.537-0.24c-0.465-0.16-0.863-0.391-1.194-0.69c-0.332-0.3-0.59-0.657-0.772-1.068
	c-0.184-0.412-0.275-0.863-0.275-1.352c0-0.409,0.086-0.797,0.258-1.165c0.171-0.369,0.419-0.694,0.743-0.979
	c0.324-0.285,0.716-0.512,1.176-0.68s0.979-0.252,1.557-0.252c0.399,0,0.756,0.034,1.067,0.104c0.313,0.066,0.584,0.142,0.817,0.222
	c0.231,0.081,0.422,0.154,0.57,0.224c0.147,0.066,0.25,0.102,0.306,0.102c0.063,0,0.104-0.01,0.121-0.03
	c0.016-0.02,0.036-0.045,0.06-0.078l0.145,0.098l-0.744,1.285l-0.157-0.072c0.041-0.04,0.06-0.092,0.06-0.156
	c0-0.063-0.06-0.146-0.18-0.246c-0.12-0.1-0.284-0.196-0.492-0.288s-0.453-0.172-0.732-0.239c-0.28-0.068-0.58-0.104-0.9-0.104
	c-0.321,0-0.643,0.046-0.967,0.139c-0.325,0.093-0.613,0.233-0.865,0.427c-0.252,0.191-0.458,0.438-0.619,0.738
	c-0.16,0.301-0.239,0.658-0.239,1.074c0,0.36,0.082,0.69,0.245,0.99c0.164,0.301,0.383,0.559,0.655,0.774
	c0.272,0.217,0.582,0.385,0.931,0.505c0.349,0.119,0.708,0.18,1.074,0.18c0.288,0,0.563-0.042,0.823-0.126s0.49-0.187,0.69-0.308
	c0.199-0.119,0.359-0.241,0.479-0.365s0.181-0.227,0.181-0.307c0-0.072-0.02-0.128-0.061-0.169l0.156-0.096l0.889,1.153L70.9,28.872
	z"/>
<path fill="#FFFFFF" d="M71.174,29.587c0.128,0,0.214-0.027,0.258-0.084c0.044-0.056,0.086-0.128,0.126-0.216l1.898-4.35
	c0.039-0.097,0.06-0.165,0.06-0.204c0-0.04-0.021-0.076-0.065-0.108s-0.122-0.052-0.234-0.06v-0.121h1.946v0.145
	c-0.064,0-0.126,0.011-0.187,0.03c-0.06,0.021-0.09,0.058-0.09,0.114c0,0.04,0.01,0.08,0.03,0.12c0.02,0.04,0.038,0.08,0.054,0.121
	l2.054,4.374c0.023,0.057,0.061,0.11,0.108,0.161c0.048,0.053,0.136,0.079,0.264,0.079v0.145h-1.513v-0.145
	c0.144,0,0.24-0.012,0.288-0.036c0.048-0.023,0.072-0.061,0.072-0.107c0-0.056-0.009-0.104-0.024-0.145s-0.033-0.079-0.048-0.119
	l-0.493-1.008H72.76l-0.408,0.911c-0.032,0.072-0.065,0.141-0.103,0.204c-0.036,0.064-0.055,0.117-0.055,0.156
	c0,0.048,0.023,0.084,0.072,0.107c0.049,0.024,0.133,0.036,0.252,0.036v0.145h-1.346L71.174,29.587L71.174,29.587z M73.037,27.496
	h2.342l-1.213-2.521L73.037,27.496z"/>
<path fill="#FFFFFF" d="M77.717,29.587c0.128,0,0.214-0.021,0.259-0.065c0.044-0.044,0.066-0.134,0.066-0.271v-4.326
	c0-0.136-0.022-0.227-0.066-0.271s-0.13-0.066-0.259-0.066v-0.145h1.755v0.145c-0.128,0-0.214,0.011-0.258,0.03
	c-0.044,0.021-0.066,0.046-0.066,0.078c0,0.023,0.044,0.092,0.133,0.205l3.257,3.737v-3.714c0-0.136-0.022-0.227-0.066-0.271
	s-0.13-0.066-0.258-0.066v-0.145h1.325v0.145c-0.128,0-0.214,0.022-0.26,0.066c-0.044,0.044-0.064,0.134-0.064,0.271v4.326
	c0,0.137,0.021,0.227,0.064,0.271c0.045,0.044,0.132,0.065,0.26,0.065v0.145h-1.611v-0.145c0.16,0,0.256-0.008,0.289-0.023
	c0.032-0.017,0.048-0.044,0.048-0.084s-0.014-0.074-0.042-0.103c-0.028-0.027-0.062-0.065-0.102-0.113l-3.402-3.883v3.87
	c0,0.137,0.022,0.228,0.066,0.271s0.13,0.065,0.259,0.065v0.145h-1.326V29.587L77.717,29.587z"/>
<path fill="#FFFFFF" d="M83.845,29.587c0.128,0,0.215-0.027,0.259-0.084c0.043-0.056,0.085-0.128,0.126-0.216l1.897-4.35
	c0.04-0.097,0.06-0.165,0.06-0.204c0-0.04-0.021-0.076-0.064-0.108s-0.122-0.052-0.234-0.06v-0.121h1.945v0.145
	c-0.063,0-0.125,0.011-0.187,0.03c-0.06,0.021-0.09,0.058-0.09,0.114c0,0.04,0.01,0.08,0.03,0.12c0.02,0.04,0.038,0.08,0.055,0.121
	l2.054,4.374c0.023,0.057,0.061,0.11,0.108,0.161c0.048,0.053,0.136,0.079,0.264,0.079v0.145h-1.513v-0.145
	c0.145,0,0.24-0.012,0.288-0.036c0.048-0.023,0.072-0.061,0.072-0.107c0-0.056-0.008-0.104-0.024-0.145
	c-0.016-0.04-0.032-0.079-0.048-0.119l-0.493-1.008h-2.918l-0.408,0.911c-0.031,0.072-0.065,0.141-0.103,0.204
	c-0.036,0.064-0.054,0.117-0.054,0.156c0,0.048,0.022,0.084,0.071,0.107c0.047,0.024,0.133,0.036,0.252,0.036v0.145h-1.346V29.587z
	 M85.708,27.496h2.341l-1.213-2.521L85.708,27.496z"/>
<path fill="#FFFFFF" d="M90.593,24.654c-0.037-0.044-0.118-0.066-0.246-0.066v-0.145h2.906c0.472,0,0.881,0.069,1.225,0.204
	c0.346,0.136,0.627,0.322,0.848,0.559s0.383,0.516,0.486,0.835c0.104,0.321,0.156,0.669,0.156,1.046c0,0.369-0.052,0.715-0.156,1.04
	c-0.104,0.324-0.266,0.604-0.486,0.841c-0.221,0.237-0.502,0.424-0.848,0.56c-0.344,0.136-0.753,0.204-1.225,0.204h-2.906v-0.145
	c0.128,0,0.209-0.021,0.246-0.065c0.036-0.044,0.054-0.134,0.054-0.271v-4.326C90.647,24.788,90.629,24.698,90.593,24.654z
	 M93.109,29.056c0.376,0,0.695-0.053,0.955-0.156c0.262-0.104,0.474-0.246,0.639-0.426c0.164-0.18,0.283-0.388,0.359-0.623
	c0.076-0.236,0.114-0.49,0.114-0.763c0-0.271-0.038-0.525-0.114-0.762c-0.076-0.235-0.196-0.444-0.359-0.624
	c-0.165-0.18-0.377-0.322-0.639-0.426c-0.26-0.104-0.579-0.156-0.955-0.156H91.39v3.936H93.109z"/>
<path fill="#FFFFFF" d="M96.94,29.587c0.128,0,0.21-0.021,0.247-0.065s0.055-0.134,0.055-0.271v-4.326
	c0-0.136-0.019-0.227-0.055-0.271s-0.118-0.066-0.247-0.066v-0.145h1.345v0.145c-0.128,0-0.211,0.022-0.247,0.066
	s-0.055,0.134-0.055,0.271v4.326c0,0.137,0.019,0.227,0.055,0.271s0.118,0.065,0.247,0.065v0.145H96.94V29.587z"/>
<path fill="#FFFFFF" d="M98.834,29.587c0.128,0,0.214-0.027,0.259-0.084c0.043-0.056,0.085-0.128,0.125-0.216l1.898-4.35
	c0.04-0.097,0.06-0.165,0.06-0.204c0-0.04-0.022-0.076-0.066-0.108s-0.122-0.052-0.232-0.06v-0.121h1.945v0.145
	c-0.064,0-0.127,0.011-0.188,0.03c-0.059,0.021-0.09,0.058-0.09,0.114c0,0.04,0.011,0.08,0.031,0.12
	c0.02,0.04,0.038,0.08,0.054,0.121l2.053,4.374c0.024,0.057,0.061,0.11,0.108,0.161c0.048,0.053,0.137,0.079,0.265,0.079v0.145
	h-1.513v-0.145c0.144,0,0.24-0.012,0.288-0.036c0.047-0.023,0.071-0.061,0.071-0.107c0-0.056-0.009-0.104-0.023-0.145
	s-0.032-0.079-0.047-0.119l-0.493-1.008h-2.918l-0.408,0.911c-0.032,0.072-0.065,0.141-0.102,0.204
	c-0.036,0.064-0.055,0.117-0.055,0.156c0,0.048,0.024,0.084,0.072,0.107c0.048,0.024,0.133,0.036,0.253,0.036v0.145h-1.346v-0.146
	H98.834z M100.696,27.496h2.343l-1.213-2.521L100.696,27.496z"/>
<path fill="#FFFFFF" d="M105.378,29.587c0.128,0,0.215-0.021,0.258-0.065c0.044-0.044,0.066-0.134,0.066-0.271v-4.326
	c0-0.136-0.022-0.227-0.066-0.271c-0.043-0.044-0.13-0.066-0.258-0.066v-0.145h1.755v0.145c-0.128,0-0.214,0.011-0.258,0.03
	c-0.044,0.021-0.066,0.046-0.066,0.078c0,0.023,0.044,0.092,0.132,0.205l3.258,3.737v-3.714c0-0.136-0.022-0.227-0.066-0.271
	c-0.043-0.044-0.13-0.066-0.258-0.066v-0.145h1.325v0.145c-0.129,0-0.215,0.022-0.259,0.066s-0.065,0.134-0.065,0.271v4.326
	c0,0.137,0.021,0.227,0.065,0.271c0.043,0.044,0.13,0.065,0.259,0.065v0.145h-1.61v-0.145c0.16,0,0.256-0.008,0.288-0.023
	c0.032-0.017,0.048-0.044,0.048-0.084s-0.014-0.074-0.042-0.103c-0.028-0.027-0.063-0.065-0.104-0.113l-3.401-3.883v3.87
	c0,0.137,0.021,0.228,0.065,0.271s0.131,0.065,0.26,0.065v0.145h-1.326L105.378,29.587L105.378,29.587z"/>
<path fill="#FFFFFF" d="M71.147,40.019c0.04,0.052,0.116,0.078,0.229,0.078v0.144h-1.583v-0.144c0.111,0,0.188-0.026,0.229-0.078
	c0.04-0.053,0.061-0.123,0.061-0.211v-2.404h-4.248v2.404c0,0.088,0.02,0.158,0.06,0.211c0.04,0.052,0.116,0.078,0.229,0.078v0.144
	h-1.583v-0.144c0.111,0,0.188-0.026,0.229-0.078c0.04-0.053,0.061-0.122,0.061-0.21v-5.454c0-0.088-0.021-0.158-0.061-0.21
	c-0.04-0.053-0.116-0.079-0.229-0.079v-0.145h1.583v0.145c-0.112,0-0.188,0.025-0.229,0.079c-0.04,0.052-0.06,0.122-0.06,0.21v2.257
	h4.248v-2.257c0-0.088-0.021-0.158-0.061-0.21c-0.041-0.053-0.115-0.079-0.229-0.079v-0.145h1.583v0.145
	c-0.112,0-0.188,0.025-0.229,0.079c-0.04,0.053-0.06,0.122-0.06,0.21v5.454C71.087,39.896,71.107,39.966,71.147,40.019z"/>
<path fill="#FFFFFF" d="M72.967,35.163c-0.036-0.044-0.11-0.065-0.223-0.065v-0.145h4.84c0.12,0,0.2-0.021,0.24-0.066
	c0.039-0.044,0.06-0.117,0.06-0.223h0.145v1.254h-0.145c0-0.104-0.021-0.179-0.06-0.222c-0.04-0.045-0.12-0.066-0.24-0.066h-3.771
	v1.56h2.654c0.12,0,0.2-0.022,0.24-0.066s0.061-0.118,0.061-0.222h0.145v1.253h-0.145c0-0.104-0.021-0.178-0.061-0.222
	c-0.04-0.046-0.121-0.067-0.24-0.067h-2.654v1.7h3.903c0.12,0,0.2-0.022,0.241-0.066c0.04-0.044,0.06-0.118,0.06-0.223h0.145v1.221
	h-0.145c0-0.105-0.02-0.175-0.06-0.208c-0.041-0.032-0.121-0.049-0.241-0.049h-4.972v-0.144c0.111,0,0.187-0.022,0.223-0.066
	s0.054-0.135,0.054-0.271v-4.325C73.021,35.297,73.003,35.208,72.967,35.163z"/>
<path fill="#FFFFFF" d="M78.177,40.097c0.128,0,0.213-0.028,0.257-0.084c0.044-0.057,0.087-0.129,0.127-0.217l1.897-4.351
	c0.041-0.096,0.061-0.164,0.061-0.204s-0.021-0.077-0.065-0.108c-0.044-0.032-0.123-0.052-0.234-0.061v-0.12h1.946v0.145
	c-0.064,0-0.126,0.011-0.187,0.029c-0.061,0.021-0.09,0.06-0.09,0.114c0,0.04,0.01,0.08,0.03,0.12
	c0.021,0.041,0.038,0.08,0.055,0.12l2.054,4.374c0.023,0.056,0.061,0.109,0.108,0.163c0.048,0.052,0.136,0.077,0.264,0.077v0.145
	h-1.513v-0.145c0.145,0,0.24-0.012,0.288-0.035c0.048-0.024,0.072-0.061,0.072-0.108c0-0.056-0.008-0.104-0.024-0.145
	c-0.016-0.04-0.032-0.08-0.048-0.119l-0.493-1.008h-2.918l-0.408,0.911c-0.031,0.072-0.065,0.141-0.102,0.204
	c-0.036,0.064-0.054,0.116-0.054,0.156c0,0.048,0.023,0.083,0.071,0.108c0.048,0.023,0.134,0.035,0.252,0.035v0.145h-1.345v-0.143
	H78.177z M80.039,38.005h2.342l-1.213-2.521L80.039,38.005z"/>
<path fill="#FFFFFF" d="M85.841,40.03c0.037,0.044,0.119,0.066,0.247,0.066v0.144h-1.343v-0.144c0.128,0,0.21-0.022,0.246-0.066
	c0.035-0.044,0.054-0.135,0.054-0.271v-4.325c0-0.137-0.019-0.227-0.054-0.271c-0.036-0.044-0.118-0.065-0.246-0.065v-0.145h3.677
	c0.529,0,0.914,0.133,1.154,0.397c0.239,0.264,0.36,0.625,0.36,1.083c0,0.465-0.126,0.815-0.379,1.052
	c-0.252,0.237-0.61,0.364-1.076,0.379l1.321,2.016c0.056,0.088,0.105,0.146,0.146,0.174c0.039,0.028,0.092,0.042,0.155,0.042v0.145
	h-1.297v-0.145c0.088,0,0.143-0.005,0.162-0.018C88.988,40.066,89,40.04,89,40c0-0.041-0.013-0.08-0.036-0.12
	c-0.024-0.04-0.057-0.096-0.096-0.168l-1.179-1.848h-1.9v1.896C85.788,39.896,85.805,39.986,85.841,40.03z M88.35,37.188
	c0.289,0,0.493-0.064,0.613-0.192c0.121-0.128,0.181-0.324,0.181-0.588c0-0.288-0.062-0.498-0.187-0.629
	c-0.124-0.132-0.366-0.198-0.729-0.198h-2.442v1.608L88.35,37.188L88.35,37.188z"/>
<path fill="#FFFFFF" d="M95.292,35.909c0-0.104-0.021-0.178-0.061-0.222s-0.12-0.066-0.239-0.066h-1.862v4.138
	c0,0.138,0.018,0.228,0.054,0.271c0.037,0.044,0.119,0.066,0.247,0.066v0.144h-1.392v-0.144c0.128,0,0.21-0.022,0.246-0.066
	c0.035-0.044,0.054-0.134,0.054-0.271v-4.138h-1.861c-0.12,0-0.2,0.022-0.24,0.066c-0.039,0.044-0.06,0.119-0.06,0.222h-0.144
	v-1.245h0.144c0,0.104,0.021,0.178,0.06,0.224c0.04,0.044,0.12,0.065,0.24,0.065h4.517c0.12,0,0.199-0.021,0.239-0.065
	c0.04-0.045,0.061-0.118,0.061-0.224h0.144v1.245H95.292z"/>
<path fill="#FFFFFF" d="M65.893,50.528c0.04,0.052,0.116,0.077,0.229,0.077v0.145h-1.583v-0.145c0.111,0,0.188-0.025,0.229-0.077
	c0.04-0.053,0.061-0.123,0.061-0.211v-5.454c0-0.088-0.021-0.158-0.061-0.21s-0.116-0.079-0.229-0.079v-0.144h4.018
	c0.792,0,1.359,0.149,1.703,0.45c0.343,0.302,0.516,0.735,0.516,1.305c0,0.505-0.132,0.905-0.396,1.202
	c-0.264,0.296-0.695,0.483-1.294,0.565l1.513,2.34c0.088,0.128,0.158,0.212,0.21,0.251c0.053,0.042,0.14,0.062,0.258,0.062v0.145
	h-1.729v-0.145c0.104,0,0.17-0.008,0.198-0.023c0.027-0.017,0.042-0.044,0.042-0.085c0-0.048-0.021-0.092-0.061-0.132l-1.476-2.354
	h-2.207v2.307C65.833,50.405,65.853,50.476,65.893,50.528z M68.46,47.194c0.488,0,0.832-0.092,1.032-0.276
	c0.199-0.184,0.3-0.437,0.3-0.757c0-0.16-0.021-0.296-0.061-0.409c-0.04-0.111-0.111-0.206-0.216-0.282
	c-0.104-0.074-0.246-0.131-0.425-0.168c-0.18-0.035-0.41-0.054-0.69-0.054h-2.567v1.947L68.46,47.194L68.46,47.194z"/>
<path fill="#FFFFFF" d="M72.294,45.672c-0.036-0.044-0.11-0.065-0.222-0.065v-0.146h4.84c0.12,0,0.199-0.021,0.239-0.064
	c0.04-0.045,0.061-0.119,0.061-0.224h0.145v1.253h-0.145c0-0.104-0.021-0.178-0.061-0.222s-0.119-0.065-0.239-0.065h-3.771v1.559
	h2.654c0.12,0,0.2-0.022,0.24-0.066c0.041-0.044,0.061-0.117,0.061-0.222h0.145v1.252h-0.145c0-0.104-0.02-0.178-0.061-0.222
	c-0.04-0.043-0.12-0.066-0.24-0.066h-2.654v1.699h3.903c0.121,0,0.2-0.022,0.24-0.065c0.04-0.045,0.06-0.117,0.06-0.223h0.146v1.22
	h-0.146c0-0.105-0.02-0.174-0.06-0.208c-0.04-0.031-0.12-0.048-0.24-0.048h-4.972v-0.145c0.111,0,0.187-0.021,0.222-0.065
	c0.036-0.044,0.055-0.134,0.055-0.271v-4.326C72.349,45.807,72.331,45.717,72.294,45.672z"/>
<path fill="#FFFFFF" d="M78.545,49.271c-0.017,0.08-0.024,0.132-0.024,0.155c0,0.064,0.062,0.139,0.187,0.224
	c0.125,0.083,0.289,0.162,0.493,0.232c0.204,0.072,0.439,0.135,0.708,0.187c0.269,0.053,0.547,0.078,0.835,0.078
	c0.552,0,0.982-0.074,1.291-0.222s0.462-0.357,0.462-0.63c0-0.255-0.106-0.435-0.319-0.54c-0.213-0.104-0.479-0.178-0.801-0.222
	c-0.321-0.045-0.668-0.077-1.042-0.097c-0.373-0.021-0.722-0.07-1.041-0.149c-0.321-0.08-0.588-0.212-0.801-0.396
	c-0.214-0.185-0.319-0.46-0.319-0.828c0-0.306,0.062-0.562,0.186-0.774c0.125-0.212,0.292-0.384,0.5-0.516
	c0.209-0.131,0.452-0.229,0.729-0.288c0.275-0.061,0.563-0.089,0.861-0.089c0.312,0,0.59,0.021,0.83,0.064
	c0.241,0.044,0.448,0.096,0.62,0.151c0.174,0.056,0.312,0.106,0.416,0.151c0.105,0.044,0.182,0.065,0.229,0.065
	c0.04,0,0.072-0.009,0.096-0.03c0.024-0.02,0.056-0.064,0.096-0.139l0.156,0.062l-0.447,1.179l-0.145-0.061
	c0.008-0.016,0.014-0.032,0.018-0.054c0.005-0.02,0.007-0.05,0.007-0.09c0-0.064-0.055-0.132-0.163-0.205
	c-0.108-0.071-0.253-0.14-0.435-0.203c-0.181-0.063-0.386-0.116-0.614-0.156s-0.464-0.061-0.704-0.061
	c-0.313,0-0.567,0.025-0.76,0.078c-0.192,0.052-0.344,0.12-0.451,0.203c-0.108,0.084-0.184,0.181-0.224,0.288s-0.06,0.218-0.06,0.33
	c0,0.23,0.104,0.397,0.318,0.497c0.212,0.102,0.479,0.171,0.801,0.209c0.32,0.041,0.668,0.07,1.042,0.092
	c0.373,0.019,0.72,0.068,1.041,0.149c0.32,0.08,0.588,0.209,0.801,0.39c0.212,0.179,0.318,0.448,0.318,0.808
	c0,0.576-0.205,0.997-0.617,1.266c-0.412,0.268-1.078,0.401-1.999,0.401c-0.313,0-0.597-0.023-0.854-0.066
	c-0.257-0.044-0.481-0.096-0.679-0.155c-0.196-0.061-0.363-0.116-0.499-0.168s-0.236-0.078-0.301-0.078
	c-0.063,0-0.112,0.021-0.145,0.061s-0.056,0.079-0.072,0.119l-0.145-0.048l0.469-1.212L78.545,49.271z"/>
<path fill="#FFFFFF" d="M84.293,45.672c-0.036-0.044-0.11-0.065-0.223-0.065v-0.146h4.84c0.12,0,0.199-0.021,0.239-0.064
	c0.041-0.045,0.062-0.119,0.062-0.224h0.144v1.253h-0.144c0-0.104-0.021-0.178-0.062-0.222c-0.04-0.044-0.12-0.065-0.239-0.065
	h-3.771v1.559h2.654c0.12,0,0.2-0.022,0.24-0.066s0.06-0.117,0.06-0.222h0.145v1.252h-0.145c0-0.104-0.02-0.178-0.06-0.222
	c-0.041-0.043-0.12-0.066-0.24-0.066h-2.654v1.699h3.903c0.12,0,0.2-0.022,0.24-0.065c0.04-0.045,0.061-0.117,0.061-0.223h0.144
	v1.22h-0.144c0-0.105-0.021-0.174-0.061-0.208c-0.04-0.031-0.12-0.048-0.24-0.048H84.07v-0.145c0.112,0,0.188-0.021,0.223-0.065
	c0.036-0.044,0.054-0.134,0.054-0.271v-4.326C84.347,45.807,84.33,45.717,84.293,45.672z"/>
<path fill="#FFFFFF" d="M89.502,50.605c0.128,0,0.214-0.027,0.259-0.083c0.043-0.057,0.085-0.129,0.125-0.217l1.897-4.352
	c0.041-0.096,0.06-0.163,0.06-0.204c0-0.04-0.021-0.076-0.066-0.106c-0.044-0.032-0.121-0.053-0.233-0.061v-0.121h1.946v0.146
	c-0.064,0-0.127,0.009-0.188,0.03c-0.06,0.02-0.09,0.058-0.09,0.112c0,0.041,0.011,0.081,0.031,0.12
	c0.02,0.041,0.038,0.081,0.054,0.121l2.053,4.375c0.024,0.056,0.062,0.11,0.108,0.162c0.048,0.052,0.136,0.078,0.264,0.078v0.145
	h-1.513v-0.145c0.145,0,0.24-0.013,0.289-0.035c0.048-0.025,0.071-0.062,0.071-0.108c0-0.056-0.008-0.104-0.023-0.145
	c-0.016-0.04-0.032-0.08-0.048-0.12l-0.493-1.007h-2.919l-0.408,0.911c-0.032,0.071-0.064,0.141-0.102,0.204
	c-0.036,0.063-0.055,0.116-0.055,0.156c0,0.047,0.024,0.083,0.072,0.108c0.048,0.022,0.132,0.035,0.252,0.035v0.145h-1.345
	L89.502,50.605L89.502,50.605z M91.365,48.515h2.342l-1.213-2.522L91.365,48.515z"/>
<path fill="#FFFFFF" d="M97.167,50.54c0.036,0.044,0.119,0.066,0.247,0.066v0.145H96.07v-0.145c0.129,0,0.211-0.021,0.246-0.065
	c0.037-0.044,0.055-0.134,0.055-0.271v-4.326c0-0.137-0.019-0.227-0.055-0.271c-0.035-0.044-0.117-0.065-0.246-0.065v-0.146h3.678
	c0.528,0,0.914,0.133,1.153,0.396c0.241,0.266,0.361,0.626,0.361,1.083c0,0.466-0.126,0.815-0.379,1.053
	c-0.252,0.237-0.611,0.364-1.076,0.379l1.321,2.017c0.057,0.088,0.104,0.146,0.145,0.174c0.04,0.027,0.093,0.042,0.156,0.042v0.145
	h-1.297v-0.145c0.088,0,0.142-0.007,0.162-0.019c0.02-0.011,0.03-0.038,0.03-0.079c0-0.04-0.013-0.078-0.037-0.118
	c-0.023-0.04-0.057-0.097-0.097-0.168l-1.178-1.849h-1.901v1.896C97.113,50.406,97.13,50.495,97.167,50.54z M99.676,47.697
	c0.289,0,0.494-0.064,0.613-0.192c0.121-0.127,0.181-0.323,0.181-0.588c0-0.288-0.062-0.498-0.186-0.629
	c-0.125-0.133-0.368-0.198-0.729-0.198h-2.441v1.607H99.676z"/>
<path fill="#FFFFFF" d="M106.568,46.961c0.017-0.047,0.024-0.08,0.024-0.096v-0.108c0-0.047-0.052-0.109-0.156-0.186
	c-0.104-0.077-0.242-0.152-0.414-0.229c-0.172-0.075-0.363-0.14-0.576-0.191c-0.212-0.053-0.426-0.078-0.643-0.078
	c-0.344,0-0.653,0.054-0.925,0.163c-0.272,0.106-0.504,0.255-0.697,0.442c-0.191,0.188-0.338,0.405-0.438,0.652
	c-0.101,0.248-0.15,0.512-0.15,0.792c0,0.279,0.05,0.539,0.15,0.779c0.1,0.24,0.243,0.446,0.433,0.618
	c0.188,0.172,0.41,0.307,0.667,0.406c0.257,0.101,0.541,0.151,0.853,0.151c0.312,0,0.591-0.033,0.835-0.097
	c0.243-0.064,0.45-0.143,0.617-0.234c0.168-0.092,0.296-0.185,0.386-0.277c0.088-0.091,0.132-0.16,0.132-0.21
	c0-0.087-0.017-0.167-0.048-0.239l0.119-0.071l0.841,1.104l-0.133,0.096c-0.063-0.048-0.111-0.078-0.144-0.089
	c-0.032-0.014-0.06-0.019-0.084-0.019c-0.072,0-0.17,0.04-0.294,0.119c-0.124,0.08-0.286,0.167-0.487,0.264
	c-0.2,0.097-0.438,0.18-0.714,0.251c-0.276,0.072-0.605,0.108-0.99,0.108c-0.408,0-0.791-0.055-1.146-0.163
	c-0.356-0.108-0.667-0.276-0.932-0.504c-0.264-0.227-0.472-0.51-0.623-0.845c-0.152-0.336-0.229-0.721-0.229-1.152
	c0-0.433,0.078-0.816,0.234-1.151c0.155-0.336,0.37-0.619,0.643-0.852c0.272-0.231,0.588-0.41,0.949-0.534
	c0.36-0.125,0.744-0.185,1.152-0.185c0.345,0,0.628,0.019,0.853,0.059c0.224,0.042,0.457,0.105,0.696,0.193
	c0.16,0.057,0.292,0.108,0.396,0.158c0.104,0.048,0.185,0.072,0.24,0.072c0.063,0,0.128-0.044,0.192-0.133l0.145,0.049l-0.588,1.238
	L106.568,46.961z"/>
<path fill="#FFFFFF" d="M113.562,50.54c0.036,0.044,0.118,0.065,0.246,0.065v0.145h-1.343v-0.145c0.128,0,0.21-0.021,0.247-0.065
	c0.036-0.044,0.054-0.134,0.054-0.271v-1.995h-3.63v1.995c0,0.136,0.018,0.226,0.054,0.271c0.036,0.044,0.118,0.065,0.246,0.065
	v0.145h-1.343v-0.145c0.128,0,0.211-0.021,0.247-0.065s0.054-0.134,0.054-0.271v-4.326c0-0.137-0.018-0.227-0.054-0.271
	c-0.036-0.044-0.118-0.065-0.247-0.065v-0.146h1.343v0.146c-0.128,0-0.21,0.021-0.246,0.064c-0.036,0.045-0.054,0.136-0.054,0.271
	v1.656h3.63v-1.656c0-0.136-0.019-0.227-0.054-0.271c-0.037-0.043-0.118-0.064-0.247-0.064v-0.146h1.343v0.146
	c-0.128,0-0.21,0.021-0.246,0.065s-0.054,0.135-0.054,0.271v4.326C113.508,50.405,113.526,50.495,113.562,50.54z"/>
<path fill="#FFFFFF" d="M70.9,60.4c-0.048-0.057-0.106-0.083-0.18-0.083c-0.041,0-0.122,0.051-0.246,0.155
	c-0.125,0.104-0.301,0.22-0.529,0.343c-0.229,0.125-0.519,0.235-0.87,0.333c-0.353,0.095-0.78,0.144-1.285,0.144
	c-0.562,0-1.073-0.08-1.537-0.24c-0.465-0.159-0.863-0.39-1.194-0.689c-0.332-0.301-0.59-0.657-0.772-1.07
	c-0.184-0.412-0.275-0.861-0.275-1.351c0-0.408,0.086-0.796,0.258-1.166c0.171-0.367,0.419-0.694,0.743-0.979
	c0.324-0.283,0.716-0.511,1.176-0.678c0.46-0.168,0.979-0.252,1.557-0.252c0.399,0,0.756,0.033,1.067,0.102
	c0.313,0.068,0.584,0.143,0.817,0.223c0.231,0.081,0.422,0.153,0.57,0.222c0.147,0.068,0.25,0.103,0.306,0.103
	c0.063,0,0.104-0.01,0.121-0.029c0.016-0.021,0.036-0.046,0.06-0.079l0.145,0.097l-0.744,1.285l-0.157-0.072
	c0.041-0.04,0.06-0.091,0.06-0.155c0-0.063-0.06-0.146-0.18-0.246c-0.12-0.101-0.284-0.196-0.492-0.289
	c-0.208-0.091-0.453-0.171-0.732-0.24c-0.28-0.067-0.58-0.102-0.9-0.102c-0.321,0-0.643,0.045-0.967,0.138
	c-0.325,0.092-0.613,0.235-0.865,0.427s-0.458,0.438-0.619,0.738c-0.16,0.3-0.239,0.658-0.239,1.074c0,0.359,0.082,0.69,0.245,0.989
	c0.164,0.301,0.383,0.56,0.655,0.775c0.273,0.216,0.582,0.384,0.931,0.503c0.349,0.121,0.708,0.18,1.074,0.18
	c0.288,0,0.563-0.042,0.823-0.126s0.49-0.187,0.69-0.307c0.199-0.12,0.359-0.242,0.479-0.366c0.12-0.125,0.181-0.226,0.181-0.306
	c0-0.073-0.02-0.128-0.061-0.168l0.156-0.096l0.889,1.152L70.9,60.4z"/>
<path fill="#FFFFFF" d="M72.294,56.183c-0.036-0.044-0.11-0.065-0.222-0.065v-0.145h4.84c0.12,0,0.199-0.021,0.239-0.066
	c0.04-0.044,0.061-0.118,0.061-0.222h0.145v1.253h-0.145c0-0.104-0.021-0.179-0.061-0.224c-0.04-0.044-0.119-0.063-0.239-0.063
	h-3.771v1.558h2.654c0.12,0,0.2-0.021,0.24-0.065c0.041-0.044,0.061-0.118,0.061-0.224h0.145v1.253h-0.145
	c0-0.104-0.02-0.178-0.061-0.222c-0.04-0.044-0.12-0.066-0.24-0.066h-2.654v1.699h3.903c0.121,0,0.2-0.021,0.24-0.064
	c0.04-0.045,0.06-0.119,0.06-0.224h0.146v1.221h-0.146c0-0.105-0.02-0.175-0.06-0.207c-0.04-0.033-0.12-0.05-0.24-0.05h-4.972
	v-0.144c0.111,0,0.187-0.021,0.222-0.066c0.036-0.044,0.055-0.134,0.055-0.27v-4.327C72.349,56.316,72.331,56.226,72.294,56.183z"/>
<path fill="#FFFFFF" d="M78.378,61.114c0.128,0,0.214-0.021,0.258-0.066c0.044-0.044,0.066-0.134,0.066-0.27v-4.327
	c0-0.136-0.022-0.227-0.066-0.27c-0.044-0.044-0.13-0.065-0.258-0.065v-0.145h1.755v0.145c-0.128,0-0.214,0.009-0.258,0.029
	s-0.066,0.046-0.066,0.078c0,0.024,0.044,0.093,0.132,0.204l3.258,3.738v-3.714c0-0.136-0.022-0.227-0.066-0.27
	c-0.044-0.044-0.13-0.065-0.258-0.065v-0.145H84.2v0.145c-0.129,0-0.215,0.021-0.259,0.065c-0.044,0.043-0.065,0.134-0.065,0.27
	v4.327c0,0.136,0.021,0.226,0.065,0.27c0.044,0.045,0.13,0.066,0.259,0.066v0.144h-1.61v-0.144c0.16,0,0.257-0.007,0.289-0.023
	s0.048-0.045,0.048-0.084c0-0.041-0.014-0.073-0.042-0.102c-0.028-0.029-0.062-0.066-0.103-0.114l-3.401-3.881v3.869
	c0,0.136,0.021,0.227,0.065,0.271c0.045,0.046,0.131,0.066,0.259,0.066v0.144h-1.325L78.378,61.114L78.378,61.114z"/>
<path fill="#FFFFFF" d="M89.838,56.927c0-0.104-0.021-0.177-0.061-0.222c-0.041-0.043-0.12-0.065-0.239-0.065h-1.862v4.138
	c0,0.136,0.018,0.227,0.054,0.271s0.118,0.066,0.246,0.066v0.144h-1.393v-0.144c0.128,0,0.21-0.021,0.246-0.066
	c0.037-0.044,0.054-0.135,0.054-0.271V56.64h-1.861c-0.121,0-0.199,0.022-0.24,0.065c-0.04,0.045-0.061,0.118-0.061,0.222H84.58
	v-1.244h0.144c0,0.104,0.021,0.178,0.061,0.222c0.041,0.045,0.119,0.065,0.24,0.065h4.517c0.119,0,0.199-0.021,0.239-0.065
	c0.04-0.044,0.061-0.118,0.061-0.222h0.144v1.244H89.838z"/>
<path fill="#FFFFFF" d="M91.499,61.049c0.036,0.044,0.118,0.065,0.246,0.065v0.144h-1.344v-0.144c0.128,0,0.21-0.021,0.246-0.066
	c0.036-0.044,0.055-0.134,0.055-0.27v-4.327c0-0.136-0.019-0.227-0.055-0.27c-0.036-0.044-0.118-0.065-0.246-0.065v-0.145h3.679
	c0.527,0,0.913,0.132,1.152,0.396c0.24,0.265,0.361,0.627,0.361,1.084c0,0.464-0.126,0.815-0.379,1.053
	c-0.252,0.236-0.611,0.363-1.076,0.378l1.321,2.017c0.056,0.088,0.104,0.146,0.144,0.173c0.04,0.029,0.092,0.042,0.156,0.042v0.144
	h-1.297v-0.144c0.088,0,0.143-0.005,0.163-0.019c0.02-0.012,0.03-0.038,0.03-0.078c0-0.039-0.014-0.079-0.036-0.119
	c-0.024-0.04-0.057-0.097-0.097-0.168l-1.178-1.849h-1.901v1.896C91.443,60.915,91.461,61.005,91.499,61.049z M94.006,58.207
	c0.289,0,0.493-0.062,0.614-0.19c0.12-0.128,0.181-0.324,0.181-0.589c0-0.288-0.063-0.498-0.188-0.631
	c-0.123-0.131-0.366-0.197-0.728-0.197h-2.443v1.608L94.006,58.207L94.006,58.207z"/>
<path fill="#FFFFFF" d="M96.953,56.183c-0.036-0.044-0.11-0.065-0.223-0.065v-0.145h4.84c0.12,0,0.2-0.021,0.24-0.066
	c0.04-0.044,0.061-0.118,0.061-0.222h0.145v1.253h-0.145c0-0.104-0.021-0.179-0.061-0.224c-0.041-0.044-0.121-0.063-0.24-0.063
	h-3.771v1.558h2.654c0.12,0,0.2-0.021,0.239-0.065c0.041-0.044,0.062-0.118,0.062-0.224h0.144v1.253h-0.144
	c0-0.104-0.021-0.178-0.062-0.222c-0.04-0.044-0.119-0.066-0.239-0.066h-2.654v1.699h3.903c0.119,0,0.199-0.021,0.24-0.064
	c0.04-0.045,0.061-0.119,0.061-0.224h0.144v1.221h-0.144c0-0.105-0.021-0.175-0.061-0.207c-0.041-0.033-0.121-0.05-0.24-0.05h-4.973
	v-0.144c0.112,0,0.187-0.021,0.223-0.066c0.035-0.044,0.054-0.134,0.054-0.27v-4.327C97.005,56.316,96.988,56.226,96.953,56.183z"/>
</svg>
