<?xml version="1.0" encoding="utf-8"?>
<!-- Generator: Adobe Illustrator 16.0.0, SVG Export Plug-In . SVG Version: 6.00 Build 0)  -->
<!DOCTYPE svg PUBLIC "-//W3C//DTD SVG 1.1//EN" "http://www.w3.org/Graphics/SVG/1.1/DTD/svg11.dtd">
<svg version="1.1" id="Layer_1" xmlns="http://www.w3.org/2000/svg" xmlns:xlink="http://www.w3.org/1999/xlink" x="0px" y="0px"
	 width="333px" height="103px" viewBox="0 0 333 103" enable-background="new 0 0 333 103" xml:space="preserve">
<radialGradient id="SVGID_1_" cx="48.7515" cy="22.2822" r="14.7847" gradientTransform="matrix(1.1357 0 0 1.0388 5.3926 10.2299)" gradientUnits="userSpaceOnUse">
	<stop  offset="0" style="stop-color:#F05A28"/>
	<stop  offset="0.4597" style="stop-color:#F47F32"/>
	<stop  offset="1" style="stop-color:#FAAF40"/>
</radialGradient>
<path fill="url(#SVGID_1_)" d="M60.76,18.019c-9.274,0-16.791,6.878-16.791,15.359c0,8.484,7.517,15.357,16.791,15.357
	c9.273,0,16.79-6.874,16.79-15.357C77.55,24.897,70.033,18.019,60.76,18.019z M65.513,40.962c-3.758-0.506-6.759-3.521-9.545-5.875
	c-2.351-1.991-3.916-3.47-3.142-6.87c0.852-3.758,6.704-5.412,10.042-5.412c6.087,0,11.02,4.513,11.02,10.08
	c0,4.32-2.817,8.158-7.304,8.15C66.221,41.032,65.863,41.007,65.513,40.962z"/>
<path fill="#31497C" d="M19.576,19.917c-2.188,0-4.005,0.198-5.45,0.594c-1.447,0.398-2.669,1.008-3.667,1.834
	c-1.584,1.345-2.781,2.941-3.59,4.792c-0.808,1.851-1.215,3.902-1.215,6.158c0,2.392,0.398,4.496,1.191,6.314
	c0.79,1.814,1.977,3.341,3.563,4.582c1.117,0.877,2.362,1.502,3.73,1.873c1.369,0.371,3.25,0.554,5.641,0.554h8.679V33.836H16.863
	c-0.227,0-0.422,0.036-0.597,0.104c-0.172,0.07-0.358,0.188-0.566,0.359l-1.007,0.854l-0.311-0.208l3.332-6.145h16.113v20.89
	c0,0.206,0.033,0.388,0.104,0.542c0.07,0.155,0.163,0.294,0.285,0.414l0.617,0.646v0.364H19.778c-3.475,0-6.175-0.301-8.093-0.896
	c-1.921-0.592-3.724-1.585-5.411-2.979c-2.066-1.686-3.627-3.717-4.687-6.083C0.53,39.332,0,36.695,0,33.786
	c0-2.257,0.306-4.372,0.916-6.353c0.612-1.982,1.522-3.794,2.726-5.449c0.841-1.153,1.806-2.187,2.891-3.098
	c1.084-0.913,2.273-1.698,3.564-2.35c1.136-0.569,2.36-0.973,3.666-1.213s3.245-0.36,5.813-0.36h13.786l-3.433,6.273h-0.31
	l0.053-0.466v-0.102c0-0.224-0.089-0.404-0.26-0.542c-0.174-0.136-0.386-0.208-0.645-0.208H19.576z"/>
<path fill="#BE1E2D" d="M60.734,14.315c2.772,0,5.349,0.392,7.733,1.174c2.382,0.784,4.431,1.909,6.134,3.373
	c2.22,1.892,3.894,4.058,5.023,6.491c1.126,2.436,1.69,5.086,1.69,7.943c0,2.841-0.569,5.475-1.704,7.915
	c-1.139,2.435-2.808,4.59-5.01,6.467c-1.723,1.499-3.775,2.642-6.158,3.436c-2.386,0.788-4.956,1.188-7.709,1.188
	c-2.738,0-5.298-0.399-7.682-1.188c-2.386-0.794-4.439-1.937-6.158-3.436c-2.223-1.859-3.894-4.001-5.023-6.428
	c-1.127-2.429-1.69-5.079-1.69-7.954c0-2.84,0.568-5.484,1.702-7.927c1.138-2.445,2.806-4.616,5.012-6.507
	c1.704-1.464,3.745-2.589,6.133-3.373C55.41,14.707,57.979,14.315,60.734,14.315z M60.734,19.247c-4.391,0-7.971,1.314-10.743,3.939
	c-2.772,2.625-4.159,5.992-4.159,10.109c0,4.129,1.386,7.509,4.159,10.135c2.771,2.625,6.352,3.936,10.743,3.936
	c4.389,0,7.974-1.311,10.753-3.936c2.781-2.626,4.173-6.006,4.173-10.135c0-4.117-1.393-7.483-4.173-10.109
	C68.708,20.561,65.124,19.247,60.734,19.247z"/>
<path fill="#31497C" d="M88.004,51.657h-7.822l23.159-37.961l23.009,37.961h-7.926v-0.364c0.343,0,0.615-0.068,0.812-0.207
	c0.199-0.137,0.296-0.316,0.296-0.543c0-0.154-0.021-0.296-0.065-0.426c-0.041-0.127-0.088-0.228-0.141-0.297l-7.798-12.808H100.27
	c-0.534,0-0.887,0.013-1.061,0.037c-0.172,0.026-0.289,0.085-0.36,0.168l-0.75,0.622l-0.255-0.207l3.279-5.654h7.307l-5.089-8.395
	l-16.241,26.21c-0.07,0.103-0.121,0.221-0.154,0.35c-0.035,0.13-0.053,0.264-0.053,0.399c0,0.227,0.098,0.406,0.297,0.543
	c0.198,0.139,0.469,0.207,0.814,0.207V51.657z"/>
<path fill="#31497C" d="M130.042,49.691V16.844c0-0.185-0.027-0.346-0.077-0.476c-0.053-0.131-0.147-0.265-0.286-0.402l-0.619-0.644
	v-0.36h7.385v0.36l-0.619,0.644c-0.139,0.123-0.235,0.257-0.295,0.402c-0.062,0.146-0.092,0.306-0.092,0.476v29.774h13.402
	c0.188,0,0.363-0.028,0.529-0.089c0.163-0.06,0.359-0.183,0.582-0.373l0.981-0.853l0.337,0.204l-3.331,6.15h-18.878v-0.364
	l0.619-0.646c0.121-0.12,0.21-0.258,0.274-0.414C130.012,50.079,130.042,49.897,130.042,49.691z"/>
<g>
	<path fill="#31497C" d="M167.893,26.105c-0.054,0.345-0.153,1.096-0.292,2.257c-0.059,0.55-0.096,1.286-0.11,2.215
		c-1.17,0.295-2.124,0.444-2.861,0.444c-1.447,0-2.54-0.415-3.277-1.247c-0.739-0.83-1.107-1.846-1.107-3.043
		c0-1.573,0.539-2.887,1.616-3.94c1.079-1.051,2.412-1.58,4.007-1.58c0.742,0,1.391,0.068,1.943,0.21l-0.408,1.72
		c-0.699-0.201-1.338-0.299-1.915-0.299c-1.011,0-1.808,0.356-2.392,1.07c-0.585,0.714-0.877,1.591-0.877,2.636
		c0,0.841,0.231,1.551,0.695,2.13c0.463,0.58,1.127,0.872,1.992,0.872c0.262,0,0.573-0.03,0.933-0.089
		c-0.007-0.087-0.008-0.25-0.008-0.494c0-0.23,0.018-0.66,0.054-1.291c0.036-0.628,0.056-1.154,0.056-1.572H167.893z"/>
	<path fill="#3A3A3A" d="M175.868,23.76c-0.339,2.698-0.51,4.489-0.51,5.375c0,0.51,0.039,1.06,0.118,1.646l-1.23,0.181
		c-0.029-0.425-0.045-0.995-0.045-1.696h-0.058c-0.631,1.179-1.5,1.769-2.607,1.769c-1.268,0-1.901-0.72-1.901-2.163
		c0-0.382,0.056-1.162,0.164-2.337c0.109-1.176,0.164-2.05,0.164-2.63l1.26-0.145c0,0.207-0.074,0.904-0.225,2.085
		c-0.151,1.184-0.227,2.072-0.227,2.67c0,0.567,0.104,0.96,0.311,1.182c0.204,0.222,0.529,0.332,0.972,0.332
		c0.528,0,1.038-0.346,1.524-1.041c0.489-0.695,0.774-1.458,0.856-2.287c0.117-1.183,0.176-2.115,0.176-2.797L175.868,23.76z"/>
	<path fill="#3A3A3A" d="M179.331,23.769c0.007,0.348-0.036,0.829-0.126,1.445c-0.09,0.614-0.184,1.376-0.281,2.282
		c-0.072,0.688-0.152,1.799-0.24,3.329l-1.267,0.074c0.11-0.769,0.262-1.9,0.451-3.402c0.102-0.972,0.153-1.867,0.153-2.686
		c0-0.346-0.01-0.626-0.029-0.845L179.331,23.769z M179.857,21.619c0,0.281-0.094,0.521-0.277,0.722
		c-0.185,0.201-0.417,0.298-0.699,0.298c-0.442,0-0.662-0.236-0.662-0.707c0-0.28,0.092-0.521,0.275-0.713
		c0.183-0.193,0.417-0.292,0.699-0.292C179.637,20.927,179.857,21.157,179.857,21.619z"/>
	<path fill="#3A3A3A" d="M187.958,20.534c0,0.128-0.082,0.652-0.247,1.573c-0.165,0.922-0.312,2.014-0.437,3.274
		c-0.126,1.26-0.19,2.446-0.19,3.557c0,0.656,0.02,1.287,0.059,1.886l-1.137,0.095c-0.078-0.404-0.115-0.969-0.115-1.697h-0.059
		c-0.641,1.179-1.52,1.77-2.637,1.77c-0.69,0-1.246-0.256-1.675-0.762c-0.427-0.505-0.642-1.189-0.642-2.049
		c0-1.322,0.336-2.406,1.005-3.254c0.671-0.85,1.574-1.274,2.71-1.274c0.729,0,1.294,0.16,1.695,0.48h0.06
		c0.103-1.005,0.189-2.188,0.263-3.555L187.958,20.534z M186.269,25.005c-0.423-0.28-0.879-0.422-1.37-0.422
		c-0.906,0-1.597,0.283-2.067,0.849c-0.472,0.563-0.705,1.336-0.705,2.312c0,1.497,0.526,2.243,1.579,2.243
		c0.529,0,1.045-0.333,1.548-0.998c0.502-0.665,0.792-1.442,0.871-2.33L186.269,25.005z"/>
	<path fill="#3A3A3A" d="M195.128,25.283c0,0.655-0.304,1.154-0.909,1.493c-0.773,0.437-2.089,0.673-3.948,0.707
		c0,0.873,0.15,1.507,0.454,1.904c0.306,0.396,0.813,0.593,1.534,0.593c0.704,0,1.472-0.247,2.302-0.743l-0.182,1.079
		c-0.656,0.468-1.467,0.707-2.433,0.707c-0.991,0-1.721-0.299-2.189-0.892c-0.468-0.594-0.702-1.348-0.702-2.262
		c0-1.344,0.391-2.396,1.177-3.15c0.784-0.753,1.686-1.134,2.712-1.134c0.621,0,1.141,0.15,1.56,0.453
		C194.918,24.338,195.128,24.755,195.128,25.283z M193.971,25.312c0-0.26-0.12-0.455-0.357-0.594
		c-0.237-0.139-0.544-0.208-0.918-0.208c-0.529,0-1.021,0.175-1.474,0.524c-0.454,0.35-0.75,0.885-0.886,1.61
		c1.491-0.029,2.513-0.186,3.065-0.474C193.78,25.978,193.971,25.69,193.971,25.312z"/>
	<path fill="#3A3A3A" d="M198.697,20.504c0,0.288-0.07,0.936-0.212,1.948c-0.143,1.012-0.263,1.992-0.363,2.938
		c-0.237,2.27-0.38,4.067-0.429,5.396l-1.324,0.146c0-0.203,0.081-0.852,0.242-1.949c0.164-1.095,0.314-2.293,0.447-3.593
		c0.211-1.983,0.314-3.59,0.314-4.814L198.697,20.504z"/>
	<path fill="#3A3A3A" d="M201.854,23.769c0.007,0.348-0.037,0.829-0.128,1.445c-0.089,0.614-0.182,1.376-0.278,2.282
		c-0.073,0.688-0.154,1.799-0.24,3.329l-1.268,0.074c0.113-0.769,0.261-1.9,0.45-3.402c0.104-0.972,0.153-1.867,0.153-2.686
		c0-0.346-0.008-0.626-0.029-0.845L201.854,23.769z M202.38,21.619c0,0.281-0.091,0.521-0.277,0.722
		c-0.184,0.201-0.417,0.298-0.7,0.298c-0.439,0-0.662-0.236-0.662-0.707c0-0.28,0.095-0.521,0.277-0.713
		c0.187-0.193,0.418-0.292,0.698-0.292C202.159,20.927,202.38,21.157,202.38,21.619z"/>
	<path fill="#3A3A3A" d="M209.71,25.843c0,0.382-0.055,1.165-0.165,2.344c-0.108,1.18-0.162,2.059-0.162,2.637l-1.232,0.074
		c0-0.215,0.071-0.9,0.212-2.062c0.143-1.161,0.211-2.038,0.211-2.636c0-0.568-0.102-0.96-0.31-1.183
		c-0.205-0.223-0.53-0.332-0.973-0.332c-0.527,0-1.037,0.345-1.526,1.038c-0.486,0.692-0.771,1.456-0.854,2.291
		c-0.106,1.087-0.189,2.023-0.249,2.81l-1.187,0.074c0.341-2.518,0.509-4.213,0.509-5.099c0-0.509-0.038-1.133-0.115-1.865
		l1.23-0.182c0.03,0.426,0.044,0.995,0.044,1.697h0.058c0.633-1.18,1.499-1.77,2.607-1.77
		C209.076,23.68,209.71,24.402,209.71,25.843z"/>
	<path fill="#3A3A3A" d="M217.424,25.283c0,0.655-0.301,1.154-0.908,1.493c-0.773,0.437-2.087,0.673-3.947,0.707
		c0,0.873,0.153,1.507,0.455,1.904c0.304,0.396,0.815,0.593,1.532,0.593c0.706,0,1.471-0.247,2.303-0.743l-0.185,1.079
		c-0.652,0.468-1.463,0.707-2.431,0.707c-0.991,0-1.719-0.299-2.188-0.892c-0.468-0.594-0.703-1.348-0.703-2.262
		c0-1.344,0.395-2.396,1.176-3.15c0.784-0.753,1.688-1.134,2.714-1.134c0.621,0,1.142,0.15,1.557,0.453
		C217.219,24.338,217.424,24.755,217.424,25.283z M216.267,25.312c0-0.26-0.117-0.455-0.356-0.594
		c-0.236-0.139-0.541-0.208-0.917-0.208c-0.528,0-1.021,0.175-1.476,0.524c-0.453,0.35-0.748,0.885-0.884,1.61
		c1.49-0.029,2.513-0.186,3.065-0.474C216.077,25.978,216.267,25.69,216.267,25.312z"/>
	<path fill="#3A3A3A" d="M223.335,23.855l-0.329,1.055c-0.481-0.177-1.042-0.269-1.674-0.269c-0.94,0-1.413,0.316-1.413,0.947
		c0,0.229,0.091,0.417,0.269,0.574c0.181,0.156,0.523,0.339,1.029,0.554c1.232,0.527,1.849,1.201,1.849,2.017
		c0,1.496-0.94,2.242-2.826,2.242c-0.759,0-1.463-0.064-2.112-0.195l0.337-1.072c0.573,0.216,1.2,0.321,1.878,0.321
		c1.093,0,1.639-0.313,1.639-0.939c0-0.438-0.437-0.848-1.312-1.23c-1.24-0.543-1.863-1.216-1.863-2.018
		c0-0.695,0.254-1.227,0.765-1.596c0.509-0.367,1.133-0.553,1.871-0.553C222.238,23.694,222.87,23.75,223.335,23.855z"/>
	<path fill="#31497C" d="M236.494,25.428c0,1.5-0.48,2.818-1.445,3.955c-0.965,1.137-2.178,1.704-3.638,1.704
		c-1.107,0-2.021-0.408-2.742-1.223c-0.72-0.816-1.08-1.844-1.08-3.082c0-1.514,0.484-2.837,1.456-3.965
		c0.971-1.128,2.18-1.692,3.634-1.692c1.106,0,2.021,0.407,2.737,1.219C236.134,23.156,236.494,24.186,236.494,25.428z
		 M234.565,25.566c0-0.87-0.212-1.562-0.639-2.083c-0.425-0.52-0.956-0.779-1.599-0.779c-0.845,0-1.522,0.407-2.03,1.223
		c-0.511,0.817-0.767,1.712-0.767,2.688c0,0.869,0.212,1.565,0.634,2.086c0.424,0.521,0.956,0.782,1.597,0.782
		c0.84,0,1.519-0.412,2.032-1.237C234.306,27.42,234.565,26.527,234.565,25.566z"/>
	<path fill="#3A3A3A" d="M242.586,23.825l-0.437,1.158c-0.338-0.097-0.666-0.145-0.976-0.145c-1.111,0-1.729,0.573-1.857,1.719
		c-0.177,1.66-0.311,3.084-0.386,4.267l-1.187,0.074c0.338-2.518,0.508-4.213,0.508-5.099c0-0.509-0.039-1.133-0.115-1.865
		l1.23-0.182c0.04,0.398,0.06,0.754,0.06,1.072h0.058c0.582-0.772,1.205-1.159,1.871-1.159
		C241.706,23.665,242.117,23.721,242.586,23.825z"/>
	<path fill="#3A3A3A" d="M245.234,23.769c0.003,0.348-0.037,0.829-0.129,1.445c-0.09,0.614-0.182,1.376-0.28,2.282
		c-0.071,0.688-0.151,1.799-0.24,3.329l-1.267,0.074c0.112-0.769,0.262-1.9,0.451-3.402c0.102-0.972,0.153-1.867,0.153-2.686
		c0-0.346-0.011-0.626-0.029-0.845L245.234,23.769z M245.759,21.619c0,0.281-0.093,0.521-0.278,0.722
		c-0.185,0.201-0.416,0.298-0.698,0.298c-0.44,0-0.663-0.236-0.663-0.707c0-0.28,0.091-0.521,0.277-0.713
		c0.187-0.193,0.419-0.292,0.699-0.292C245.536,20.927,245.759,21.157,245.759,21.619z"/>
	<path fill="#3A3A3A" d="M252.854,25.283c0,0.655-0.302,1.154-0.91,1.493c-0.772,0.437-2.088,0.673-3.948,0.707
		c0,0.873,0.154,1.507,0.457,1.904c0.303,0.396,0.815,0.593,1.531,0.593c0.703,0,1.472-0.247,2.303-0.743l-0.183,1.079
		c-0.655,0.468-1.467,0.707-2.433,0.707c-0.991,0-1.717-0.299-2.188-0.892c-0.469-0.594-0.704-1.348-0.704-2.262
		c0-1.344,0.396-2.396,1.178-3.15c0.783-0.753,1.689-1.134,2.713-1.134c0.623,0,1.139,0.15,1.559,0.453
		C252.648,24.338,252.854,24.755,252.854,25.283z M251.697,25.312c0-0.26-0.121-0.455-0.356-0.594
		c-0.238-0.139-0.545-0.208-0.918-0.208c-0.528,0-1.021,0.175-1.476,0.524c-0.454,0.35-0.75,0.885-0.885,1.61
		c1.489-0.029,2.513-0.186,3.067-0.474C251.507,25.978,251.697,25.69,251.697,25.312z"/>
	<path fill="#3A3A3A" d="M260.331,25.843c0,0.382-0.056,1.165-0.165,2.344c-0.107,1.18-0.165,2.059-0.165,2.637l-1.229,0.074
		c0-0.215,0.068-0.9,0.211-2.062c0.143-1.161,0.212-2.038,0.212-2.636c0-0.568-0.103-0.96-0.311-1.183
		c-0.207-0.223-0.531-0.332-0.973-0.332c-0.527,0-1.038,0.345-1.525,1.038c-0.487,0.692-0.771,1.456-0.855,2.291
		c-0.106,1.087-0.188,2.023-0.249,2.81l-1.187,0.074c0.339-2.518,0.511-4.213,0.511-5.099c0-0.509-0.039-1.133-0.117-1.865
		l1.23-0.182c0.029,0.426,0.044,0.995,0.044,1.697h0.06c0.63-1.18,1.5-1.77,2.607-1.77C259.697,23.68,260.331,24.402,260.331,25.843
		z"/>
	<path fill="#3A3A3A" d="M266.284,29.492l-0.181,0.969c-0.512,0.345-1.036,0.516-1.575,0.516c-0.666,0-1.128-0.164-1.391-0.49
		c-0.262-0.329-0.394-0.853-0.394-1.569c0-0.601,0.14-1.901,0.414-3.897c-0.258,0-0.651,0.014-1.187,0.043l0.153-1.056
		c0.455,0.029,0.854,0.044,1.194,0.044c0.029-0.201,0.133-0.893,0.313-2.077l1.094-0.115c-0.088,0.494-0.202,1.227-0.343,2.192
		c0.452,0,1.096-0.026,1.937-0.073l-0.146,1.084c-0.802-0.029-1.455-0.043-1.96-0.043c-0.253,1.631-0.379,2.799-0.379,3.502
		c0,0.553,0.069,0.934,0.211,1.136c0.141,0.206,0.38,0.307,0.716,0.307C265.246,29.965,265.754,29.808,266.284,29.492z"/>
	<path fill="#3A3A3A" d="M273.737,25.283c0,0.655-0.304,1.154-0.909,1.493c-0.773,0.437-2.089,0.673-3.948,0.707
		c0,0.873,0.151,1.507,0.455,1.904c0.303,0.396,0.812,0.593,1.534,0.593c0.702,0,1.471-0.247,2.302-0.743l-0.185,1.079
		c-0.654,0.468-1.467,0.707-2.43,0.707c-0.992,0-1.723-0.299-2.189-0.892c-0.472-0.594-0.703-1.348-0.703-2.262
		c0-1.344,0.391-2.396,1.176-3.15c0.784-0.753,1.688-1.134,2.713-1.134c0.62,0,1.14,0.15,1.559,0.453
		C273.527,24.338,273.737,24.755,273.737,25.283z M272.58,25.312c0-0.26-0.121-0.455-0.357-0.594
		c-0.238-0.139-0.545-0.208-0.919-0.208c-0.528,0-1.02,0.175-1.475,0.524c-0.454,0.35-0.75,0.885-0.885,1.61
		c1.491-0.029,2.514-0.186,3.067-0.474C272.391,25.978,272.58,25.69,272.58,25.312z"/>
	<path fill="#3A3A3A" d="M281.984,20.534c0,0.128-0.083,0.652-0.247,1.573c-0.166,0.922-0.311,2.014-0.437,3.274
		c-0.128,1.26-0.189,2.446-0.189,3.557c0,0.656,0.018,1.287,0.058,1.886l-1.136,0.095c-0.078-0.404-0.118-0.969-0.118-1.697h-0.056
		c-0.642,1.179-1.521,1.77-2.639,1.77c-0.688,0-1.248-0.256-1.673-0.762c-0.43-0.505-0.643-1.189-0.643-2.049
		c0-1.322,0.335-2.406,1.006-3.254c0.671-0.85,1.573-1.274,2.71-1.274c0.728,0,1.291,0.16,1.696,0.48h0.058
		c0.103-1.005,0.19-2.188,0.263-3.555L281.984,20.534z M280.297,25.005c-0.424-0.28-0.88-0.422-1.371-0.422
		c-0.907,0-1.598,0.283-2.068,0.849c-0.471,0.563-0.705,1.336-0.705,2.312c0,1.497,0.524,2.243,1.58,2.243
		c0.527,0,1.045-0.333,1.548-0.998c0.502-0.665,0.79-1.442,0.87-2.33L280.297,25.005z"/>
	<path fill="#31497C" d="M168.183,49.468h-2.214c0-0.527-0.117-1.439-0.349-2.724h-3.19c-0.175,0.411-0.327,0.786-0.452,1.121
		c-0.311,0.797-0.472,1.329-0.489,1.603h-2.082c0.015-0.179,0.716-1.732,2.104-4.666c1.39-2.93,2.098-4.536,2.127-4.817h2.608
		c0,0.551,0.322,2.119,0.97,4.713C167.86,47.291,168.183,48.882,168.183,49.468z M165.414,45.354
		c-0.503-2.492-0.755-3.846-0.755-4.064h-0.111c-0.018,0.171-0.569,1.526-1.652,4.064H165.414z"/>
	<path fill="#3A3A3A" d="M176.226,45.135c0,1.314-0.335,2.399-1.004,3.252c-0.67,0.851-1.573,1.277-2.709,1.277
		c-0.772,0-1.338-0.16-1.696-0.481h-0.059c-0.141,1.351-0.248,2.53-0.321,3.54l-1.296,0.072c0.612-4.475,0.918-7.333,0.918-8.571
		c0-0.461-0.038-1.009-0.117-1.645l1.23-0.183c0.029,0.404,0.043,0.969,0.043,1.699h0.059c0.641-1.182,1.521-1.771,2.637-1.771
		c0.69,0,1.246,0.255,1.676,0.761C176.013,43.591,176.226,44.275,176.226,45.135z M174.98,45.572c0-1.496-0.527-2.242-1.579-2.242
		c-0.523,0-1.042,0.331-1.545,0.997c-0.504,0.666-0.796,1.441-0.874,2.331l-0.146,1.653c0.473,0.28,0.927,0.422,1.369,0.422
		c0.927,0,1.621-0.292,2.083-0.876C174.75,47.268,174.98,46.508,174.98,45.572z"/>
	<path fill="#3A3A3A" d="M184.378,45.135c0,1.314-0.333,2.399-1.004,3.252c-0.67,0.851-1.572,1.277-2.709,1.277
		c-0.772,0-1.338-0.16-1.696-0.481h-0.061c-0.14,1.351-0.246,2.53-0.318,3.54l-1.297,0.072c0.612-4.475,0.919-7.333,0.919-8.571
		c0-0.461-0.04-1.009-0.118-1.645l1.232-0.183c0.029,0.404,0.043,0.969,0.043,1.699h0.057c0.643-1.182,1.521-1.771,2.637-1.771
		c0.691,0,1.248,0.255,1.677,0.761C184.166,43.591,184.378,44.275,184.378,45.135z M183.135,45.572c0-1.496-0.526-2.242-1.582-2.242
		c-0.523,0-1.038,0.331-1.543,0.997c-0.504,0.666-0.796,1.441-0.873,2.331l-0.147,1.653c0.473,0.28,0.929,0.422,1.37,0.422
		c0.927,0,1.623-0.292,2.082-0.876C182.903,47.268,183.135,46.508,183.135,45.572z"/>
	<path fill="#3A3A3A" d="M190.697,42.469l-0.438,1.158c-0.341-0.099-0.664-0.146-0.976-0.146c-1.112,0-1.731,0.572-1.858,1.719
		c-0.18,1.661-0.306,3.084-0.386,4.268l-1.185,0.072c0.338-2.517,0.509-4.213,0.509-5.098c0-0.509-0.038-1.132-0.118-1.863
		l1.23-0.183c0.039,0.397,0.059,0.755,0.059,1.071h0.059c0.583-0.771,1.208-1.158,1.873-1.158
		C189.815,42.309,190.226,42.364,190.697,42.469z"/>
	<path fill="#3A3A3A" d="M198.005,45.403c0,1.169-0.354,2.19-1.06,3.052c-0.707,0.862-1.638,1.296-2.794,1.296
		c-0.763,0-1.418-0.306-1.97-0.92c-0.553-0.615-0.826-1.409-0.826-2.386c0-1.15,0.352-2.141,1.056-2.971
		c0.705-0.831,1.641-1.246,2.812-1.246c0.771,0,1.428,0.288,1.97,0.86C197.734,43.66,198.005,44.432,198.005,45.403z
		 M196.767,45.615c0-0.682-0.155-1.26-0.462-1.744c-0.308-0.485-0.754-0.725-1.336-0.725c-0.725,0-1.303,0.338-1.733,1.016
		c-0.432,0.677-0.649,1.412-0.649,2.203c0,0.68,0.158,1.259,0.471,1.744s0.762,0.725,1.35,0.725c0.714,0,1.286-0.339,1.715-1.016
		C196.552,47.141,196.767,46.405,196.767,45.615z"/>
	<path fill="#3A3A3A" d="M205.289,42.222c-0.44,2.464-0.661,4.26-0.661,5.381c0,0.509,0.042,1.106,0.13,1.792l-1.232,0.181
		c-0.029-0.433-0.043-0.972-0.043-1.623h-0.066c-0.614,1.12-1.428,1.682-2.438,1.682c-0.587,0-1.034-0.234-1.344-0.704
		c-0.309-0.471-0.462-1.077-0.462-1.832c0-1.213,0.427-2.269,1.274-3.168c0.849-0.899,2.071-1.358,3.662-1.376l0.321-0.227
		L205.289,42.222z M203.964,43.379c-1.233,0.025-2.132,0.362-2.7,1.01c-0.563,0.647-0.848,1.507-0.848,2.575
		c0,1.106,0.371,1.66,1.107,1.66c0.516,0,0.989-0.372,1.421-1.11c0.433-0.741,0.701-1.41,0.804-2.01
		C203.854,44.901,203.926,44.196,203.964,43.379z"/>
	<path fill="#3A3A3A" d="M212.064,42.498l-0.298,1.144c-0.465-0.149-0.948-0.227-1.448-0.227c-0.729,0-1.312,0.285-1.753,0.85
		c-0.438,0.564-0.659,1.23-0.659,1.998c0,0.703,0.155,1.274,0.464,1.708c0.31,0.433,0.764,0.652,1.364,0.652
		c0.638,0,1.308-0.222,2.012-0.669l-0.184,1.077c-0.499,0.422-1.189,0.633-2.068,0.633c-0.933,0-1.646-0.331-2.141-0.99
		c-0.44-0.578-0.662-1.325-0.662-2.243c0-1.118,0.363-2.072,1.088-2.862c0.727-0.792,1.714-1.187,2.962-1.187
		C211.289,42.383,211.73,42.421,212.064,42.498z"/>
	<path fill="#3A3A3A" d="M219.467,44.487c0,0.382-0.053,1.165-0.162,2.344c-0.109,1.179-0.164,2.058-0.164,2.636l-1.231,0.072
		c0-0.214,0.072-0.899,0.211-2.061c0.143-1.161,0.213-2.038,0.213-2.636c0-0.568-0.104-0.96-0.31-1.183
		c-0.208-0.223-0.53-0.331-0.974-0.331c-0.526,0-1.036,0.345-1.525,1.038c-0.487,0.691-0.772,1.456-0.855,2.29
		c-0.105,1.088-0.19,2.023-0.247,2.811l-1.218,0.072c0.06-0.448,0.264-2.284,0.613-5.505c0.205-1.94,0.305-3.546,0.305-4.814
		l1.385-0.073c0,0.175-0.044,0.546-0.132,1.115c-0.126,0.84-0.241,1.791-0.349,2.855c-0.025,0.244-0.065,0.567-0.124,0.977h0.059
		c0.631-1.182,1.499-1.771,2.604-1.771C218.836,42.323,219.467,43.043,219.467,44.487z"/>
	<path fill="#3A3A3A" d="M228.644,48.135l-0.183,0.969c-0.509,0.345-1.033,0.516-1.572,0.516c-0.665,0-1.128-0.163-1.391-0.491
		c-0.262-0.328-0.394-0.852-0.394-1.57c0-0.6,0.14-1.9,0.414-3.895c-0.255,0-0.651,0.013-1.187,0.043l0.153-1.056
		c0.457,0.028,0.854,0.044,1.193,0.044c0.03-0.201,0.137-0.893,0.313-2.077l1.093-0.116c-0.087,0.495-0.199,1.227-0.342,2.193
		c0.451,0,1.098-0.027,1.938-0.074l-0.146,1.085c-0.802-0.03-1.453-0.043-1.96-0.043c-0.251,1.631-0.378,2.799-0.378,3.502
		c0,0.554,0.071,0.933,0.211,1.136c0.142,0.205,0.378,0.306,0.715,0.306C227.608,48.608,228.115,48.452,228.644,48.135z"/>
	<path fill="#3A3A3A" d="M236.673,45.403c0,1.169-0.354,2.19-1.06,3.052s-1.638,1.296-2.794,1.296c-0.76,0-1.418-0.306-1.969-0.92
		c-0.549-0.615-0.828-1.409-0.828-2.386c0-1.15,0.354-2.141,1.057-2.971c0.705-0.831,1.643-1.246,2.812-1.246
		c0.771,0,1.431,0.288,1.972,0.86C236.404,43.66,236.673,44.432,236.673,45.403z M235.435,45.615c0-0.682-0.151-1.26-0.462-1.744
		c-0.308-0.485-0.754-0.725-1.337-0.725c-0.722,0-1.301,0.338-1.732,1.016c-0.433,0.677-0.648,1.412-0.648,2.203
		c0,0.68,0.156,1.259,0.469,1.744c0.313,0.484,0.766,0.725,1.353,0.725c0.713,0,1.284-0.339,1.714-1.016
		C235.22,47.141,235.435,46.405,235.435,45.615z"/>
	<path fill="#31497C" d="M247.261,47.88l-0.232,1.587h-5.745c0.092-0.583,0.295-2.235,0.611-4.959
		c0.193-1.825,0.299-3.332,0.313-4.523h2.017c-0.083,0.478-0.272,1.985-0.566,4.523c-0.158,1.459-0.297,2.622-0.423,3.48
		C244.385,47.989,245.729,47.954,247.261,47.88z"/>
	<path fill="#3A3A3A" d="M250.434,42.411c0.002,0.35-0.037,0.83-0.128,1.446c-0.091,0.615-0.183,1.377-0.281,2.283
		c-0.072,0.688-0.151,1.798-0.239,3.328l-1.268,0.072c0.113-0.769,0.262-1.9,0.45-3.4c0.104-0.973,0.154-1.869,0.154-2.688
		c0-0.345-0.01-0.626-0.03-0.843L250.434,42.411z M250.958,40.263c0,0.28-0.091,0.521-0.277,0.721
		c-0.185,0.2-0.418,0.299-0.699,0.299c-0.44,0-0.662-0.236-0.662-0.707c0-0.281,0.091-0.521,0.275-0.713
		c0.188-0.194,0.42-0.291,0.699-0.291C250.735,39.571,250.958,39.8,250.958,40.263z"/>
	<path fill="#3A3A3A" d="M258.732,45.135c0,1.314-0.335,2.399-1.005,3.252c-0.671,0.851-1.574,1.277-2.711,1.277
		c-0.771,0-1.335-0.16-1.695-0.481h-0.059c-0.142,1.351-0.249,2.53-0.32,3.54l-1.296,0.072c0.611-4.475,0.916-7.333,0.916-8.571
		c0-0.461-0.038-1.009-0.115-1.645l1.23-0.183c0.03,0.404,0.045,0.969,0.045,1.699h0.057c0.641-1.182,1.519-1.771,2.638-1.771
		c0.688,0,1.248,0.255,1.674,0.761C258.517,43.591,258.732,44.275,258.732,45.135z M257.486,45.572c0-1.496-0.526-2.242-1.581-2.242
		c-0.522,0-1.037,0.331-1.544,0.997c-0.506,0.666-0.795,1.441-0.873,2.331l-0.146,1.653c0.47,0.28,0.929,0.422,1.369,0.422
		c0.927,0,1.621-0.292,2.082-0.876C257.258,47.268,257.486,46.508,257.486,45.572z"/>
	<path fill="#3A3A3A" d="M262.122,42.411c0.003,0.35-0.036,0.83-0.128,1.446c-0.092,0.615-0.183,1.377-0.28,2.283
		c-0.073,0.688-0.153,1.798-0.241,3.328l-1.267,0.072c0.114-0.769,0.264-1.9,0.451-3.4c0.104-0.973,0.155-1.869,0.155-2.688
		c0-0.345-0.014-0.626-0.03-0.843L262.122,42.411z M262.646,40.263c0,0.28-0.09,0.521-0.275,0.721
		c-0.187,0.2-0.42,0.299-0.699,0.299c-0.441,0-0.663-0.236-0.663-0.707c0-0.281,0.092-0.521,0.276-0.713
		c0.185-0.194,0.419-0.291,0.699-0.291C262.424,39.571,262.646,39.8,262.646,40.263z"/>
	<path fill="#3A3A3A" d="M270.749,39.178c0,0.127-0.085,0.651-0.249,1.572c-0.162,0.921-0.311,2.013-0.438,3.274
		c-0.126,1.259-0.188,2.446-0.188,3.558c0,0.656,0.02,1.285,0.06,1.886l-1.137,0.095c-0.078-0.406-0.117-0.969-0.117-1.697h-0.059
		c-0.64,1.18-1.519,1.771-2.636,1.771c-0.688,0-1.249-0.257-1.676-0.763c-0.425-0.506-0.64-1.189-0.64-2.05
		c0-1.321,0.334-2.406,1.004-3.254c0.669-0.849,1.574-1.275,2.71-1.275c0.728,0,1.292,0.161,1.695,0.482h0.061
		c0.102-1.006,0.188-2.189,0.262-3.555L270.749,39.178z M269.059,43.648c-0.422-0.279-0.878-0.421-1.369-0.421
		c-0.907,0-1.599,0.283-2.067,0.848c-0.471,0.563-0.707,1.336-0.707,2.312c0,1.496,0.527,2.242,1.58,2.242
		c0.528,0,1.046-0.331,1.548-0.997c0.503-0.667,0.794-1.442,0.869-2.331L269.059,43.648z"/>
	<path fill="#3A3A3A" d="M277.47,39.148c0,0.289-0.073,0.936-0.215,1.949c-0.145,1.011-0.266,1.992-0.36,2.938
		c-0.238,2.268-0.381,4.066-0.43,5.396l-1.325,0.146c0-0.203,0.079-0.852,0.244-1.948c0.162-1.097,0.311-2.295,0.447-3.594
		c0.207-1.983,0.312-3.59,0.312-4.814L277.47,39.148z"/>
	<path fill="#3A3A3A" d="M285.287,45.403c0,1.169-0.354,2.19-1.06,3.052s-1.639,1.296-2.793,1.296c-0.763,0-1.42-0.306-1.97-0.92
		c-0.552-0.615-0.827-1.409-0.827-2.386c0-1.15,0.352-2.141,1.056-2.971c0.703-0.831,1.642-1.246,2.812-1.246
		c0.771,0,1.426,0.288,1.97,0.86C285.018,43.66,285.287,44.432,285.287,45.403z M284.05,45.615c0-0.682-0.155-1.26-0.464-1.744
		c-0.309-0.485-0.754-0.725-1.336-0.725c-0.725,0-1.302,0.338-1.732,1.016c-0.434,0.677-0.648,1.412-0.648,2.203
		c0,0.68,0.156,1.259,0.469,1.744c0.316,0.484,0.765,0.725,1.353,0.725c0.714,0,1.285-0.339,1.714-1.016
		C283.835,47.141,284.05,46.405,284.05,45.615z"/>
	<path fill="#3A3A3A" d="M296.937,42.469c0,0.438-0.51,1.642-1.526,3.616c-1.018,1.974-1.54,3.102-1.569,3.383h-0.939
		c0-0.19-0.16-0.968-0.477-2.341c-0.318-1.373-0.549-2.476-0.696-3.317h-0.059c-0.324,0.873-0.819,1.991-1.484,3.357
		c-0.666,1.365-1.009,2.13-1.026,2.302h-0.948c0-0.251-0.254-1.377-0.762-3.371c-0.507-1.997-0.76-3.179-0.76-3.547l1.281-0.081
		c0,0.411,0.163,1.395,0.489,2.95c0.323,1.554,0.486,2.446,0.486,2.68h0.074c0.036-0.379,0.424-1.329,1.157-2.847
		c0.732-1.52,1.1-2.422,1.1-2.703h1.182c0,0.222,0.188,1.154,0.569,2.789c0.382,1.635,0.572,2.557,0.572,2.761h0.072
		c0.025-0.252,0.36-1.129,1.013-2.633c0.651-1.503,0.976-2.476,0.976-2.917L296.937,42.469z"/>
	<path fill="#3A3A3A" d="M303.946,43.926c0,0.655-0.305,1.155-0.912,1.493c-0.772,0.437-2.086,0.673-3.946,0.706
		c0,0.875,0.151,1.508,0.455,1.904c0.302,0.398,0.813,0.595,1.534,0.595c0.7,0,1.471-0.249,2.299-0.743l-0.181,1.077
		c-0.654,0.469-1.468,0.707-2.432,0.707c-0.991,0-1.721-0.298-2.188-0.893c-0.471-0.593-0.703-1.347-0.703-2.261
		c0-1.344,0.391-2.395,1.176-3.149c0.784-0.753,1.688-1.133,2.712-1.133c0.622,0,1.142,0.149,1.561,0.451
		C303.735,42.982,303.946,43.398,303.946,43.926z M302.788,43.955c0-0.259-0.12-0.455-0.358-0.594
		c-0.237-0.139-0.543-0.208-0.917-0.208c-0.53,0-1.022,0.176-1.475,0.524c-0.454,0.351-0.75,0.885-0.886,1.609
		c1.49-0.03,2.514-0.185,3.066-0.473C302.6,44.621,302.788,44.333,302.788,43.955z"/>
	<path fill="#3A3A3A" d="M310.03,42.469l-0.438,1.158c-0.34-0.099-0.666-0.146-0.976-0.146c-1.113,0-1.731,0.572-1.856,1.719
		c-0.181,1.661-0.31,3.084-0.387,4.268l-1.188,0.072c0.34-2.517,0.511-4.213,0.511-5.098c0-0.509-0.041-1.132-0.117-1.863
		l1.232-0.183c0.037,0.397,0.058,0.755,0.058,1.071h0.058c0.582-0.771,1.205-1.158,1.87-1.158
		C309.148,42.309,309.559,42.364,310.03,42.469z"/>
	<path fill="#3A3A3A" d="M312.676,42.411c0.005,0.35-0.039,0.83-0.129,1.446c-0.09,0.615-0.184,1.377-0.28,2.283
		c-0.07,0.688-0.152,1.798-0.24,3.328l-1.267,0.072c0.111-0.769,0.261-1.9,0.451-3.4c0.103-0.973,0.154-1.869,0.154-2.688
		c0-0.345-0.009-0.626-0.029-0.843L312.676,42.411z M313.2,40.263c0,0.28-0.093,0.521-0.278,0.721
		c-0.184,0.2-0.416,0.299-0.699,0.299c-0.441,0-0.662-0.236-0.662-0.707c0-0.281,0.093-0.521,0.277-0.713
		c0.184-0.194,0.416-0.291,0.698-0.291C312.979,39.571,313.2,39.8,313.2,40.263z"/>
	<path fill="#3A3A3A" d="M320.529,44.487c0,0.382-0.054,1.165-0.164,2.344c-0.108,1.179-0.164,2.058-0.164,2.636l-1.23,0.072
		c0-0.214,0.071-0.899,0.212-2.061c0.141-1.161,0.211-2.038,0.211-2.636c0-0.568-0.104-0.96-0.311-1.183
		c-0.205-0.223-0.53-0.331-0.97-0.331c-0.531,0-1.039,0.345-1.528,1.038c-0.488,0.691-0.772,1.456-0.854,2.29
		c-0.107,1.088-0.189,2.023-0.249,2.811l-1.187,0.072c0.341-2.517,0.51-4.213,0.51-5.098c0-0.509-0.039-1.132-0.116-1.863
		l1.229-0.183c0.03,0.427,0.045,0.995,0.045,1.699h0.059c0.631-1.182,1.499-1.771,2.605-1.771
		C319.896,42.323,320.529,43.043,320.529,44.487z"/>
	<path fill="#3A3A3A" d="M329.301,41.632l-0.219,1.004c-0.795,0-1.281,0.15-1.455,0.453l-0.009,0.058
		c0.214,0.359,0.321,0.742,0.321,1.15c0,0.859-0.296,1.533-0.892,2.024c-0.596,0.492-1.338,0.736-2.226,0.736
		c-0.487,0-0.853-0.046-1.1-0.146c-0.282,0.2-0.423,0.477-0.423,0.837c0,0.251,0.114,0.42,0.34,0.499
		c0.226,0.081,1.096,0.12,2.61,0.12c1.317,0,1.974,0.51,1.974,1.53c0,1.005-0.41,1.813-1.23,2.422
		c-0.82,0.607-1.765,0.912-2.833,0.912c-1.019,0-1.746-0.188-2.173-0.563c-0.431-0.375-0.645-0.896-0.645-1.562
		c0-0.907,0.477-1.562,1.433-1.968l0.009-0.064c-0.296-0.16-0.444-0.455-0.444-0.881c0-0.506,0.274-0.983,0.822-1.435l0.007-0.058
		c-0.188-0.102-0.378-0.311-0.568-0.625c-0.189-0.318-0.283-0.672-0.283-1.064c0-0.861,0.293-1.522,0.878-1.99
		c0.585-0.465,1.329-0.698,2.231-0.698c0.752,0,1.353,0.161,1.799,0.479h0.065c0.137-0.476,0.298-0.807,0.481-0.996
		c0.184-0.188,0.434-0.284,0.751-0.284C328.863,41.523,329.12,41.559,329.301,41.632z M327.117,50.371c0-0.39-0.141-0.636-0.42-0.75
		c-0.278-0.113-0.911-0.167-1.896-0.167c-0.459,0-0.938-0.029-1.427-0.087c-0.662,0.324-0.991,0.827-0.991,1.5
		c0,1.023,0.634,1.536,1.901,1.536c0.792,0,1.46-0.189,2.01-0.571C326.843,51.448,327.117,50.964,327.117,50.371z M326.789,44.509
		c0-0.463-0.153-0.819-0.458-1.071c-0.278-0.232-0.64-0.349-1.086-0.349c-0.534,0-0.972,0.167-1.312,0.506
		c-0.339,0.338-0.509,0.772-0.509,1.307c0,0.449,0.14,0.79,0.418,1.03c0.28,0.24,0.659,0.36,1.141,0.36
		c0.529,0,0.963-0.163,1.3-0.494C326.619,45.466,326.789,45.036,326.789,44.509z"/>
</g>
<g>
	<path fill="#31497C" d="M7.675,90.458h-6.44C1.431,85.757,1.53,80.59,1.53,74.96c0-5.535-0.099-10.246-0.295-14.132h6.44
		c-0.197,3.823-0.297,8.533-0.297,14.132C7.378,80.682,7.478,85.848,7.675,90.458z"/>
	<path fill="#31497C" d="M38.647,90.458h-5.62c0-0.62-2.087-3.903-6.259-9.854c-4.369-6.266-6.858-10.551-7.465-12.857h-0.362
		c0.378,3.323,0.567,6.326,0.567,9.013c0,3.746,0.106,8.314,0.318,13.698H14.23c0.227-4.701,0.34-9.868,0.34-15.498
		c0-5.535-0.113-10.246-0.34-14.132h6.759c0,0.805,1.873,4.013,5.62,9.627c3.991,5.963,6.282,10.008,6.874,12.128h0.342
		c-0.366-3.381-0.547-6.415-0.547-9.102c0-4.111-0.107-8.328-0.318-12.653h5.688c-0.212,3.763-0.317,8.474-0.317,14.132
		C38.331,80.665,38.435,85.832,38.647,90.458z"/>
	<path fill="#31497C" d="M65.935,60.828l-0.159,4.894c-3.035-0.229-5.895-0.342-8.58-0.342c-0.031,2.867-0.045,6.062-0.045,9.58
		c0,5.462,0.082,10.63,0.25,15.498h-6.372c0.198-4.825,0.296-9.989,0.296-15.498c0-3.459-0.031-6.653-0.09-9.58
		c-2.139,0-5.075,0.12-8.807,0.365l0.182-4.917H65.935z"/>
	<path fill="#31497C" d="M89.263,85.452l-0.183,5.006H69.713c0.196-4.581,0.296-9.746,0.296-15.498c0-5.521-0.1-10.231-0.296-14.132
		h18.479l-0.25,4.986c-4.553-0.245-8.681-0.366-12.382-0.366c0.152,2.11,0.229,4.596,0.229,7.466c3.169,0,6.562-0.084,10.172-0.251
		v4.754c-3.55-0.148-6.942-0.226-10.172-0.226c0,3.08,0.059,5.962,0.181,8.649C80.129,85.841,84.559,85.711,89.263,85.452z"/>
	<path fill="#31497C" d="M118.278,90.458h-6.736c-1.76-5.37-3.11-8.687-4.051-9.944c-0.941-1.259-2.457-1.89-4.551-1.89
		c-0.88,0-1.722,0.011-2.526,0.025c0,3.899,0.068,7.836,0.205,11.809h-6.327c0.197-4.581,0.297-9.746,0.297-15.498
		c0-5.521-0.1-10.231-0.297-14.132h3.937c0.456,0,1.408-0.021,2.855-0.068c1.449-0.044,2.79-0.068,4.018-0.068
		c6.964,0,10.446,2.384,10.446,7.146c0,3.777-1.988,6.41-5.963,7.898v0.34c1.532,0.424,2.876,1.62,4.029,3.584
		C114.766,81.626,116.322,85.226,118.278,90.458z M109.744,69.521c0-3.018-1.942-4.527-5.825-4.527
		c-1.427,0-2.686,0.106-3.778,0.317c0.166,2.352,0.249,5.418,0.249,9.193c0.835,0.034,1.54,0.047,2.117,0.047
		C107.332,74.552,109.744,72.875,109.744,69.521z"/>
	<path fill="#31497C" d="M146.475,90.458h-5.622c0-0.62-2.085-3.903-6.257-9.854c-4.369-6.266-6.858-10.551-7.465-12.857h-0.363
		c0.377,3.323,0.567,6.326,0.567,9.013c0,3.746,0.106,8.314,0.32,13.698h-5.599c0.227-4.701,0.342-9.868,0.342-15.498
		c0-5.535-0.115-10.246-0.342-14.132h6.759c0,0.805,1.873,4.013,5.621,9.627c3.99,5.963,6.282,10.008,6.874,12.128h0.34
		c-0.363-3.381-0.547-6.415-0.547-9.102c0-4.111-0.106-8.328-0.317-12.653h5.688c-0.212,3.763-0.319,8.474-0.319,14.132
		C146.156,80.665,146.262,85.832,146.475,90.458z"/>
	<path fill="#31497C" d="M178.861,90.458h-7.283c0-1-0.691-3.837-2.072-8.51h-10.514c-1.425,4.597-2.14,7.434-2.14,8.51h-6.85
		c0-0.592,1.771-5.443,5.314-14.564c3.542-9.118,5.313-14.141,5.313-15.065h8.602c0,0.866,1.604,5.814,4.813,14.848
		C177.254,84.714,178.861,89.641,178.861,90.458z M168.345,77.598c-2.592-7.826-3.891-12.059-3.891-12.694h-0.364
		c0,0.59-1.34,4.825-4.029,12.694H168.345z"/>
	<path fill="#31497C" d="M202.005,60.828l-0.16,4.894c-3.034-0.229-5.895-0.342-8.579-0.342c-0.03,2.867-0.046,6.062-0.046,9.58
		c0,5.462,0.083,10.63,0.25,15.498h-6.371c0.195-4.825,0.295-9.989,0.295-15.498c0-3.459-0.029-6.653-0.092-9.58
		c-2.139,0-5.072,0.12-8.806,0.365l0.181-4.917H202.005z"/>
	<path fill="#31497C" d="M212.221,90.458h-6.438c0.196-4.701,0.296-9.868,0.296-15.498c0-5.535-0.1-10.246-0.296-14.132h6.438
		c-0.196,3.823-0.292,8.533-0.292,14.132C211.929,80.682,212.024,85.848,212.221,90.458z"/>
	<path fill="#31497C" d="M246.223,75.098c0,4.658-1.425,8.52-4.277,11.584c-2.854,3.066-6.382,4.598-10.583,4.598
		c-4.005,0-7.358-1.407-10.061-4.223c-2.7-2.814-4.05-6.392-4.05-10.731c0-4.656,1.425-8.517,4.279-11.583
		c2.853-3.063,6.379-4.596,10.582-4.596c4.006,0,7.358,1.404,10.06,4.21C244.872,67.165,246.223,70.743,246.223,75.098z
		 M239.941,75.758c0-3.171-0.811-5.743-2.435-7.716c-1.624-1.971-3.626-2.957-6.007-2.957c-2.218,0-4.097,0.993-5.645,2.979
		c-1.548,1.989-2.321,4.5-2.321,7.532c0,3.157,0.814,5.726,2.445,7.706c1.63,1.979,3.629,2.969,5.995,2.969
		c2.217,0,4.098-0.998,5.646-2.993C239.166,81.284,239.941,78.777,239.941,75.758z"/>
	<path fill="#31497C" d="M275.673,90.458h-5.62c0-0.62-2.087-3.903-6.258-9.854c-4.369-6.266-6.858-10.551-7.465-12.857h-0.363
		c0.379,3.323,0.566,6.326,0.566,9.013c0,3.746,0.106,8.314,0.32,13.698h-5.599c0.228-4.701,0.342-9.868,0.342-15.498
		c0-5.535-0.114-10.246-0.342-14.132h6.758c0,0.805,1.875,4.013,5.622,9.627c3.99,5.963,6.281,10.008,6.873,12.128h0.34
		c-0.364-3.381-0.546-6.415-0.546-9.102c0-4.111-0.104-8.328-0.316-12.653h5.688c-0.212,3.763-0.317,8.474-0.317,14.132
		C275.355,80.665,275.461,85.832,275.673,90.458z"/>
	<path fill="#31497C" d="M308.059,90.458h-7.282c0-1-0.692-3.837-2.072-8.51H288.19c-1.426,4.597-2.141,7.434-2.141,8.51h-6.849
		c0-0.592,1.77-5.443,5.313-14.564c3.542-9.118,5.314-14.141,5.314-15.065h8.602c0,0.866,1.604,5.814,4.813,14.848
		C306.452,84.714,308.059,89.641,308.059,90.458z M297.542,77.598c-2.592-7.826-3.891-12.059-3.891-12.694h-0.364
		c0,0.59-1.342,4.825-4.029,12.694H297.542z"/>
	<path fill="#31497C" d="M330.678,85.499l-0.182,4.959h-18.913c0.182-4.11,0.273-9.274,0.273-15.498
		c0-5.701-0.092-10.413-0.273-14.132h6.394c-0.182,3.445-0.272,8.156-0.272,14.132c0,4.568-0.099,8.193-0.295,10.881
		C321.597,85.841,326.019,85.726,330.678,85.499z"/>
</g>
</svg>
