<?xml version="1.0" encoding="utf-8"?>
<!-- Generator: Adobe Illustrator 12.0.0, SVG Export Plug-In . SVG Version: 6.00 Build 51448)  -->
<!DOCTYPE svg PUBLIC "-//W3C//DTD SVG 1.1//EN" "http://www.w3.org/Graphics/SVG/1.1/DTD/svg11.dtd" [
	<!ENTITY ns_svg "http://www.w3.org/2000/svg">
	<!ENTITY ns_xlink "http://www.w3.org/1999/xlink">
]>
<svg  version="1.1" id="Layer_1" xmlns="&ns_svg;" xmlns:xlink="&ns_xlink;" width="287.057" height="184.471"
	 viewBox="0 0 287.057 184.471" overflow="visible" enable-background="new 0 0 287.057 184.471" xml:space="preserve">
<path fill="#CE1141" d="M39.293,32.609l0.873,0.653l1.09,0.874l1.311,1.089l1.417,0.982l1.09,0.872l0.787,0.59
	c7.542-2.912,16.317-4.589,25.692-4.589c9.382,0,18.164,1.679,25.708,4.594l0.049-0.05l0.767-0.545l1.199-0.872l1.199-0.982
	l1.308-0.98l1.199-0.763l0.438-0.327l0.434-0.22l0.22-0.218l-0.763-0.108l-1.091-0.218l-1.308-0.219l-1.309-0.327l-1.092-0.218
	l-0.872-0.22h-0.33l3.056-8.834l-8.616,2.4l-0.326-6.868L80.19,29.119l4.144-21.375L75.5,11.886L71.574,0l-3.927,11.233
	l-9.052-3.708l4.473,21.485L51.944,18.428v6.874l-9.163-3.164l2.182,9.381l-5.998,0.762L39.293,32.609z"/>
<g>
	<path fill="#CE1141" d="M59.661,70.343l3.287,2.985c0,0,1.867-2.985,7.615-4.181c5.75-1.194,18.891-0.374,31.359,17.547
		c3.332,5.281,6.195,13.262,6.794,20.311c0.98,11.588-1.867,21.801-1.867,21.801s-3.958,17.543-9.93,19.11
		c0.299,0.748,1.79,4.186,1.79,4.186s6.776-1.386,10.83-16.654c3.781-14.249,4.469-18,3.358-31.282
		c-1.112-13.284-10.453-26.731-18.891-32.552C85.568,65.789,72.281,59.144,59.661,70.343z"/>
	<path fill="#CE1141" d="M62.534,100.863c0,0-3.164-9.262-3.575-13.303C64,81.935,70.093,77.363,77.945,78.359
		c0,0,1.465,0.104,3.341,0.82c5.107,1.958,13.772,7.033,8.614,14.301c0,0,6.146,2.053,9.376,11.368
		c1.157,3.336,1.263,7.255,1.524,12.833c0,3.454-1.524,12.423-1.524,12.423l-4.571-0.818c0,0,1.816-6.918,1.642-13.773
		c-0.177-6.856-1.582-14.593-7.677-17.755c-2.457-1.485-5.342-1.566-8.028-1.231c-6.221,0.772-11.923,4.745-12.658,5.684
		c0,0,2.241,5.589,6.68,12.716s11.077,15.794,18.4,22.271l-3.104,3.163c0,0-18.051-16.584-25.668-35.396
		c-7.56,3.107-11.663,12.369-11.369,13.129c0.146,0.382,2.733,6.607,8.088,11.775c5.355,5.175,13.479,9.295,18.929,10.846
		c-0.647,2.108-1.466,4.215-1.466,4.215s-18.812-4.339-29.183-24.024c-5.742-13.007-3.516-25.255-3.516-25.255l4.336,0.818
		c0,0-1.229,9.437,0.821,15.355C55.153,103.968,61.713,101.095,62.534,100.863z M63.694,88.873c0,0,1.675,7.563,2.484,8.894
		c5.194-4.101,12.124-5.487,16.453-5.949c4.33-0.462,3.869-0.695,4.273-1.731c0.404-1.038,0-1.961-1.617-3.406
		c-1.616-1.443-5.081-3.813-8.197-4.042c-3.118-0.23-6.064,0.405-8.72,2.255C65.716,86.736,63.694,88.873,63.694,88.873z"/>
	<path fill="#CE1141" d="M31.303,99.248c-0.852,9.24,2.806,20.408,2.806,20.408c5.993,15.553,18.967,25.945,34.442,33.229
		c15.476,7.282,21.319,2.957,21.319,2.957s-0.381-0.836-2.048-3.946c-0.03,0.017-0.064,0.035-0.096,0.05
		c-1.008,0.519-2.832,1.043-4.836,0.789c-4.509-0.577-9.315-2.399-13.124-3.95c-18.803-7.642-28.301-23.889-28.301-23.889
		c-10.316-18.139-4.171-33.388-3.581-34.992c0.589-1.604,3.849-11.615,14.462-11.865v-4.449c0,0-5.273-0.213-10.171,3.625
		c-4.896,3.836-6.776,7.618-6.776,7.618S32.281,88.638,31.303,99.248z"/>
</g>
<path fill="#CE1141" d="M35.399,84.833"/>
<path fill="#CE1141" d="M140.189,120.23c0,0,1.163-2.438,2.836-1.424c1.814,1.101,1.246,2.665-0.009,3.986l-3.59,3.868l-2.7-4.948
	c0,0-1.29-2.354,0.944-3.593c0,0,2.097-0.74,2.475,2.098"/>
<path fill="#CE1141" d="M4.101,120.242c0,0,0.257-2.889,2.871-1.907c0,0,2.078,0.67,0.206,4.038l-2.385,4.299H4.755l-4.176-4.742
	c0,0-1.359-1.842,0.514-3.028C1.093,118.901,2.691,117.68,4.101,120.242z"/>
<g>
	<g>
		<path fill="#CE1141" d="M1.657,134.486c-0.166-0.437-0.246-0.866-0.238-1.287c0.007-0.424,0.105-0.823,0.294-1.2
			c0.189-0.377,0.473-0.721,0.851-1.033c0.378-0.311,0.848-0.575,1.411-0.787c0.56-0.216,1.075-0.328,1.544-0.345
			c0.472-0.018,0.913,0.052,1.324,0.208c0.401,0.15,0.75,0.379,1.045,0.684c0.297,0.306,0.53,0.683,0.703,1.134
			c0.084,0.225,0.148,0.442,0.189,0.65c0.042,0.207,0.069,0.405,0.083,0.592c0.01,0.16,0.01,0.329,0,0.506
			c-0.011,0.177-0.029,0.354-0.052,0.531l-1.074,0.41l-0.028-0.073c0.042-0.104,0.091-0.238,0.146-0.399
			c0.055-0.16,0.098-0.349,0.13-0.563c0.028-0.206,0.033-0.422,0.018-0.644c-0.017-0.222-0.075-0.465-0.176-0.729
			c-0.108-0.284-0.269-0.529-0.481-0.738c-0.213-0.209-0.471-0.367-0.771-0.472c-0.299-0.103-0.64-0.14-1.024-0.113
			c-0.385,0.025-0.792,0.123-1.223,0.285c-0.458,0.175-0.831,0.381-1.12,0.616c-0.289,0.237-0.51,0.494-0.665,0.772
			c-0.15,0.27-0.235,0.553-0.252,0.845c-0.016,0.296,0.029,0.583,0.136,0.864c0.099,0.255,0.22,0.483,0.366,0.675
			c0.146,0.196,0.298,0.359,0.461,0.492c0.154,0.13,0.305,0.234,0.447,0.318c0.143,0.082,0.263,0.145,0.357,0.186l0.026,0.068
			l-1.061,0.404c-0.124-0.121-0.243-0.233-0.355-0.341c-0.112-0.104-0.233-0.239-0.364-0.403c-0.137-0.169-0.253-0.332-0.349-0.485
			C1.856,134.96,1.759,134.75,1.657,134.486z"/>
		<path fill="#CE1141" d="M2.904,137.306l7.501-0.861l0.498,1.061l-5.454,5.222l-0.427-0.909l1.54-1.438l-1.16-2.467l-2.089,0.264
			L2.904,137.306z M7.183,139.799l2.577-2.43l-3.512,0.438L7.183,139.799z"/>
		<path fill="#CE1141" d="M8.64,148.449l-0.522-0.926l3.813-5.787l-5.369,3.035L6.126,144l6.227-3.521l0.664,1.175l-3.515,5.29
			l4.931-2.784l0.435,0.769L8.64,148.449z"/>
		<path fill="#CE1141" d="M9.368,149.662l7.281-1.99l0.656,0.975l-4.589,5.994l-0.56-0.831l1.297-1.657l-1.529-2.271l-2.022,0.575
			L9.368,149.662z M13.978,151.483l2.184-2.806l-3.419,0.968L13.978,151.483z"/>
		<path fill="#CE1141" d="M19.881,157.954c-0.51,0.408-1.052,0.672-1.627,0.793c-0.576,0.122-1.117,0.104-1.626-0.061
			c-0.402-0.141-0.751-0.332-1.045-0.576c-0.293-0.243-0.622-0.593-0.984-1.045l-1.031-1.287l5.582-4.471l1.018,1.273
			c0.421,0.525,0.711,0.969,0.873,1.33c0.161,0.362,0.256,0.705,0.287,1.024c0.052,0.551-0.042,1.079-0.276,1.594
			C20.815,157.042,20.426,157.516,19.881,157.954z M19.276,157.173c0.428-0.342,0.736-0.706,0.925-1.093
			c0.188-0.385,0.254-0.786,0.2-1.202c-0.04-0.294-0.124-0.574-0.251-0.843c-0.128-0.269-0.327-0.568-0.597-0.903l-0.454-0.569
			l-4.294,3.438l0.455,0.569c0.265,0.33,0.524,0.598,0.774,0.804c0.251,0.208,0.529,0.357,0.836,0.449
			c0.381,0.118,0.769,0.127,1.164,0.024C18.427,157.746,18.841,157.52,19.276,157.173z"/>
		<path fill="#CE1141" d="M19.997,163.294l-1.89-2.031l0.536-0.497l0.62,0.669l4.17-3.883l-0.621-0.668l0.535-0.497l1.89,2.029
			l-0.536,0.497l-0.621-0.666l-4.17,3.883l0.621,0.667L19.997,163.294z"/>
		<path fill="#CE1141" d="M20.763,164.143l6.632-3.606l0.861,0.801l-3.09,6.885l-0.737-0.682l0.882-1.908l-2.011-1.862l-1.835,1.024
			L20.763,164.143z M25.669,164.856l1.479-3.229l-3.103,1.726L25.669,164.856z"/>
		<path fill="#CE1141" d="M30.344,172.215l-0.852-0.645l1.207-6.831l-3.729,4.919l-0.71-0.54l4.325-5.701l1.079,0.816l-1.128,6.257
			l3.425-4.515l0.709,0.538L30.344,172.215z"/>
		<path fill="#CE1141" d="M40.006,177.852l-0.844-0.438l1.63-3.109l-2.924-1.534l-1.63,3.108l-0.841-0.441l3.323-6.341l0.842,0.443
			l-1.302,2.483l2.924,1.533l1.302-2.483l0.841,0.441L40.006,177.852z"/>
		<path fill="#CE1141" d="M42.013,178.744l2.648-6.646l4.156,1.658l-0.313,0.786l-3.27-1.306l-0.726,1.82l3.049,1.216l-0.313,0.786
			l-3.049-1.216l-0.984,2.468l3.27,1.305l-0.313,0.785L42.013,178.744z"/>
		<path fill="#CE1141" d="M47.112,180.752l4.314-6.194l1.127,0.327l0.318,7.541l-0.965-0.279l-0.065-2.104l-2.625-0.765
			l-1.185,1.743L47.112,180.752z M51.815,179.189l-0.121-3.544l-1.999,2.928L51.815,179.189z"/>
		<path fill="#CE1141" d="M59.714,183.754l-1.213-0.229l-1.699-3.218l-1.075-0.202l-0.527,2.798l-0.932-0.178l1.326-7.028
			l1.813,0.343c0.404,0.076,0.738,0.161,1.002,0.258c0.264,0.095,0.504,0.247,0.721,0.453c0.214,0.203,0.372,0.444,0.468,0.718
			c0.097,0.276,0.11,0.598,0.041,0.966c-0.098,0.517-0.31,0.923-0.636,1.219c-0.327,0.295-0.732,0.485-1.215,0.567L59.714,183.754z
			 M58.65,178.323c0.039-0.203,0.038-0.392-0.006-0.564c-0.043-0.171-0.13-0.324-0.262-0.451c-0.117-0.112-0.261-0.204-0.43-0.273
			c-0.17-0.07-0.387-0.128-0.648-0.179l-0.93-0.175l-0.5,2.643l0.825,0.157c0.269,0.052,0.515,0.072,0.739,0.067
			c0.223-0.007,0.425-0.069,0.605-0.188c0.161-0.106,0.291-0.245,0.39-0.414C58.532,178.775,58.604,178.566,58.65,178.323z"/>
		<path fill="#CE1141" d="M62.408,184.022l0.634-6.277l-2.392-0.24l0.085-0.841l5.728,0.577l-0.084,0.841l-2.391-0.242l-0.634,6.277
			L62.408,184.022z"/>
		<path fill="#CE1141" d="M76.552,184.4l-1.234,0.014l-2.302-2.814l-1.085,0.014l0.038,2.845l-0.952,0.014l-0.095-7.158l1.843-0.023
			c0.409-0.005,0.753,0.013,1.03,0.052c0.277,0.043,0.542,0.142,0.795,0.304c0.251,0.158,0.451,0.361,0.6,0.611
			c0.149,0.251,0.226,0.563,0.231,0.938c0.007,0.525-0.12,0.97-0.381,1.324c-0.259,0.355-0.619,0.621-1.073,0.799L76.552,184.4z
			 M74.433,179.286c-0.003-0.21-0.041-0.393-0.118-0.554c-0.075-0.162-0.191-0.291-0.346-0.393
			c-0.136-0.089-0.294-0.149-0.474-0.184c-0.18-0.034-0.402-0.05-0.668-0.047l-0.943,0.014l0.037,2.699l0.836-0.012
			c0.272-0.003,0.517-0.028,0.734-0.081c0.218-0.052,0.401-0.153,0.553-0.307c0.137-0.133,0.237-0.297,0.301-0.483
			C74.407,179.754,74.437,179.536,74.433,179.286z"/>
		<path fill="#CE1141" d="M77.868,184.411l-0.637-7.122l4.463-0.4l0.074,0.842l-3.512,0.313l0.174,1.951l3.273-0.293l0.076,0.842
			l-3.274,0.291l0.237,2.654l3.513-0.316l0.074,0.841L77.868,184.411z"/>
		<path fill="#CE1141" d="M86.072,183.512c-0.51,0.094-0.953,0.123-1.331,0.082c-0.377-0.04-0.737-0.105-1.081-0.202l-0.217-1.175
			l0.065-0.013c0.363,0.233,0.754,0.396,1.175,0.481c0.42,0.09,0.811,0.099,1.172,0.031c0.517-0.095,0.887-0.276,1.112-0.541
			c0.225-0.263,0.304-0.572,0.239-0.926c-0.052-0.281-0.164-0.496-0.335-0.647c-0.172-0.152-0.417-0.24-0.735-0.271
			c-0.227-0.022-0.436-0.035-0.624-0.044c-0.187-0.008-0.422-0.023-0.705-0.04c-0.254-0.021-0.486-0.061-0.696-0.123
			c-0.211-0.062-0.405-0.157-0.581-0.287c-0.175-0.129-0.321-0.289-0.439-0.481c-0.12-0.195-0.204-0.432-0.255-0.704
			c-0.104-0.571,0.029-1.093,0.402-1.561c0.372-0.468,0.902-0.764,1.593-0.894c0.393-0.071,0.773-0.102,1.139-0.087
			s0.712,0.067,1.037,0.154l0.207,1.119l-0.071,0.015c-0.262-0.165-0.581-0.291-0.958-0.38c-0.377-0.086-0.76-0.094-1.143-0.023
			c-0.435,0.078-0.769,0.246-0.998,0.5c-0.229,0.251-0.315,0.544-0.253,0.874c0.055,0.302,0.179,0.524,0.368,0.672
			c0.191,0.146,0.443,0.234,0.758,0.26c0.208,0.018,0.46,0.033,0.761,0.05c0.299,0.014,0.548,0.031,0.749,0.053
			c0.511,0.059,0.907,0.219,1.186,0.476c0.279,0.257,0.459,0.606,0.54,1.043c0.051,0.273,0.044,0.556-0.017,0.845
			c-0.063,0.289-0.177,0.543-0.344,0.769c-0.188,0.246-0.417,0.45-0.68,0.614C86.847,183.312,86.5,183.431,86.072,183.512z"/>
		<path fill="#CE1141" d="M90.201,182.515l-1.921-6.89l4.311-1.2l0.228,0.813l-3.394,0.945l0.526,1.887l3.161-0.88l0.228,0.815
			l-3.162,0.88l0.714,2.557l3.393-0.943l0.228,0.813L90.201,182.515z"/>
		<path fill="#CE1141" d="M95.472,181.025l-0.292-7.546l1.097-0.418l4.802,5.828l-0.939,0.357l-1.315-1.635l-2.557,0.973
			l0.104,2.096L95.472,181.025z M98.286,176.943l-2.231-2.753l0.169,3.541L98.286,176.943z"/>
		<path fill="#CE1141" d="M107.327,175.822l-1.106,0.552l-3.293-1.537l-0.979,0.485l1.267,2.547l-0.849,0.422l-3.186-6.406
			l1.651-0.82c0.369-0.182,0.685-0.316,0.953-0.397c0.269-0.085,0.549-0.107,0.848-0.074c0.294,0.032,0.563,0.129,0.806,0.292
			c0.244,0.161,0.448,0.41,0.615,0.745c0.234,0.472,0.311,0.924,0.23,1.357c-0.083,0.435-0.289,0.831-0.624,1.185L107.327,175.822z
			 M103.203,172.14c-0.093-0.188-0.208-0.336-0.346-0.448c-0.139-0.114-0.299-0.179-0.483-0.203
			c-0.161-0.021-0.33-0.007-0.507,0.043c-0.177,0.045-0.386,0.129-0.624,0.248l-0.846,0.419l1.199,2.412l0.75-0.374
			c0.245-0.12,0.455-0.251,0.629-0.393c0.174-0.14,0.297-0.311,0.368-0.515c0.064-0.18,0.084-0.369,0.061-0.564
			C103.379,172.571,103.313,172.36,103.203,172.14z"/>
		<path fill="#CE1141" d="M110.879,173.77c-0.397,0.249-0.804,0.411-1.218,0.486c-0.416,0.074-0.827,0.059-1.233-0.055
			c-0.407-0.112-0.801-0.321-1.181-0.632c-0.378-0.311-0.73-0.721-1.049-1.232c-0.319-0.507-0.532-0.99-0.64-1.446
			c-0.108-0.458-0.125-0.905-0.055-1.338c0.072-0.426,0.229-0.812,0.47-1.161c0.241-0.35,0.566-0.653,0.977-0.912
			c0.203-0.128,0.404-0.232,0.6-0.313c0.196-0.08,0.385-0.146,0.565-0.197c0.156-0.04,0.321-0.072,0.498-0.099
			c0.175-0.025,0.352-0.041,0.531-0.053l0.61,0.973l-0.065,0.04c-0.112-0.019-0.252-0.041-0.421-0.064
			c-0.169-0.022-0.361-0.027-0.578-0.018c-0.207,0.015-0.419,0.053-0.635,0.111c-0.215,0.062-0.443,0.165-0.682,0.315
			c-0.258,0.162-0.47,0.369-0.633,0.618c-0.165,0.251-0.269,0.534-0.314,0.849c-0.042,0.313-0.011,0.658,0.09,1.028
			c0.101,0.371,0.273,0.753,0.518,1.144c0.262,0.413,0.535,0.74,0.824,0.977c0.288,0.236,0.584,0.404,0.888,0.501
			c0.295,0.095,0.588,0.122,0.879,0.079c0.293-0.042,0.565-0.142,0.821-0.301c0.233-0.147,0.432-0.311,0.595-0.492
			c0.162-0.181,0.293-0.366,0.393-0.548c0.097-0.178,0.172-0.345,0.225-0.5c0.054-0.157,0.091-0.286,0.115-0.389l0.061-0.038
			l0.604,0.963c-0.094,0.143-0.182,0.283-0.264,0.412c-0.082,0.135-0.19,0.28-0.324,0.439c-0.141,0.167-0.277,0.313-0.409,0.438
			C111.306,173.48,111.12,173.618,110.879,173.77z"/>
		<path fill="#CE1141" d="M118.108,168.333l-0.751,0.587l-2.157-2.76l-2.588,2.024l2.159,2.758l-0.751,0.589l-4.407-5.638
			l0.75-0.586l1.731,2.211l2.586-2.023l-1.729-2.211l0.75-0.588L118.108,168.333z"/>
		<path fill="#CE1141" d="M124.525,162.292c-0.32,0.343-0.67,0.604-1.053,0.784c-0.383,0.178-0.786,0.268-1.208,0.264
			c-0.421-0.005-0.855-0.108-1.303-0.311c-0.446-0.203-0.89-0.51-1.33-0.922c-0.438-0.407-0.768-0.82-0.99-1.236
			c-0.221-0.416-0.354-0.843-0.395-1.279c-0.04-0.428,0.014-0.843,0.157-1.242c0.144-0.399,0.381-0.778,0.712-1.132
			c0.164-0.176,0.33-0.329,0.499-0.459c0.169-0.13,0.336-0.238,0.497-0.334c0.141-0.079,0.293-0.154,0.456-0.222
			c0.164-0.07,0.33-0.131,0.502-0.188l0.839,0.787l-0.052,0.057c-0.114,0.01-0.256,0.021-0.425,0.043
			c-0.17,0.021-0.357,0.065-0.565,0.13c-0.198,0.066-0.394,0.154-0.588,0.268c-0.194,0.112-0.386,0.271-0.579,0.476
			c-0.208,0.223-0.359,0.478-0.454,0.763c-0.095,0.284-0.122,0.583-0.085,0.901c0.041,0.313,0.157,0.637,0.35,0.97
			c0.193,0.333,0.458,0.657,0.795,0.973c0.358,0.337,0.708,0.581,1.047,0.734c0.339,0.157,0.668,0.242,0.986,0.26
			c0.309,0.016,0.6-0.031,0.87-0.146c0.273-0.117,0.511-0.282,0.717-0.501c0.189-0.204,0.337-0.412,0.448-0.629
			c0.11-0.217,0.19-0.428,0.242-0.629c0.047-0.199,0.076-0.378,0.088-0.543s0.016-0.3,0.012-0.404l0.049-0.051l0.829,0.773
			c-0.053,0.166-0.104,0.323-0.149,0.472c-0.045,0.145-0.113,0.314-0.202,0.503c-0.093,0.199-0.188,0.376-0.284,0.529
			C124.865,161.903,124.719,162.083,124.525,162.292z"/>
		<path fill="#CE1141" d="M126.979,159.317l-5.638-4.411l2.759-3.525l0.667,0.521l-2.172,2.779l1.545,1.209l2.027-2.592l0.667,0.523
			l-2.027,2.59l2.089,1.636l2.173-2.78l0.667,0.524L126.979,159.317z"/>
		<path fill="#CE1141" d="M133.57,150.044l-0.583,0.895l-6.896-0.71l5.169,3.364l-0.485,0.745l-5.995-3.902l0.737-1.133l6.32,0.674
			l-4.746-3.089l0.483-0.745L133.57,150.044z"/>
		<path fill="#CE1141" d="M135.462,146.687l-5.553-3.001l-1.144,2.113l-0.742-0.399l2.739-5.067l0.742,0.401l-1.143,2.114
			l5.554,3.003L135.462,146.687z"/>
		<path fill="#CE1141" d="M139.961,137.366l-0.507,1.126l-3.525,0.896l-0.448,0.994l2.595,1.168l-0.391,0.869l-6.524-2.944
			l0.756-1.681c0.17-0.374,0.332-0.679,0.486-0.913c0.155-0.232,0.358-0.434,0.609-0.592c0.25-0.162,0.52-0.257,0.81-0.287
			c0.29-0.028,0.606,0.034,0.949,0.189c0.478,0.215,0.825,0.517,1.037,0.903s0.301,0.826,0.268,1.313L139.961,137.366z
			 M134.432,137.125c-0.19-0.086-0.374-0.129-0.55-0.129c-0.178,0.003-0.344,0.054-0.501,0.15c-0.137,0.088-0.259,0.203-0.367,0.353
			c-0.107,0.15-0.216,0.345-0.325,0.588l-0.388,0.86l2.458,1.106l0.343-0.763c0.113-0.249,0.191-0.481,0.238-0.701
			c0.046-0.218,0.033-0.43-0.041-0.633c-0.066-0.179-0.169-0.34-0.312-0.476C134.843,137.345,134.659,137.226,134.432,137.125z"/>
		<path fill="#CE1141" d="M140.427,136.127l-6.699-2.512l1.574-4.193l0.791,0.294l-1.239,3.307l1.834,0.685l1.153-3.075l0.792,0.297
			l-1.155,3.076l2.494,0.936l1.239-3.305l0.791,0.298L140.427,136.127z"/>
	</g>
</g>
<g>
	<path fill="#CE1141" d="M6.353,111.958c0.019,0.401-0.032,0.773-0.151,1.113c-0.12,0.342-0.308,0.641-0.562,0.896
		c-0.255,0.257-0.579,0.459-0.972,0.611c-0.391,0.153-0.843,0.241-1.36,0.263c-0.512,0.024-0.963-0.02-1.349-0.134
		c-0.388-0.112-0.729-0.289-1.021-0.525c-0.285-0.231-0.508-0.512-0.666-0.839c-0.161-0.325-0.248-0.699-0.268-1.112
		c-0.009-0.206-0.002-0.397,0.02-0.58c0.021-0.18,0.054-0.348,0.093-0.503c0.036-0.133,0.081-0.271,0.136-0.412
		c0.056-0.142,0.118-0.28,0.186-0.419l0.984-0.043l0.004,0.064c-0.063,0.074-0.139,0.17-0.228,0.287
		c-0.089,0.115-0.175,0.258-0.257,0.421c-0.08,0.162-0.142,0.336-0.189,0.521c-0.047,0.188-0.065,0.4-0.054,0.641
		c0.012,0.261,0.077,0.505,0.195,0.733c0.117,0.228,0.283,0.425,0.5,0.589c0.215,0.165,0.484,0.287,0.803,0.37
		c0.319,0.081,0.677,0.113,1.072,0.097c0.419-0.021,0.778-0.088,1.077-0.203c0.299-0.114,0.548-0.266,0.749-0.447
		c0.195-0.18,0.339-0.387,0.431-0.621c0.094-0.235,0.133-0.48,0.122-0.739c-0.01-0.235-0.049-0.452-0.117-0.649
		c-0.066-0.197-0.147-0.373-0.24-0.524c-0.092-0.148-0.185-0.274-0.279-0.379c-0.094-0.107-0.174-0.188-0.24-0.249l-0.003-0.061
		l0.972-0.045c0.069,0.132,0.135,0.256,0.198,0.373c0.063,0.117,0.125,0.26,0.189,0.427c0.066,0.174,0.116,0.338,0.154,0.487
		C6.318,111.519,6.342,111.716,6.353,111.958z"/>
	<path fill="#CE1141" d="M6.176,109.246l-6.129-0.187l0.116-3.838l0.726,0.022l-0.092,3.025l1.679,0.049l0.086-2.821l0.726,0.023
		l-0.085,2.819l2.273,0.071l0.093-3.025l0.725,0.021L6.176,109.246z"/>
	<path fill="#CE1141" d="M6.8,100.084l-0.087,0.907l-5.519,2.2l5.265,0.498l-0.071,0.756l-6.106-0.578l0.108-1.149l5.067-1.998
		l-4.834-0.457l0.071-0.756L6.8,100.084z"/>
	<path fill="#CE1141" d="M7.308,97.393l-5.315-1.015l-0.387,2.025l-0.711-0.137l0.926-4.848l0.711,0.135L2.146,95.58l5.314,1.015
		L7.308,97.393z"/>
	<path fill="#CE1141" d="M9.27,89.326l-0.28,1.021l-2.861,1.23l-0.247,0.9l2.351,0.643l-0.215,0.788L2.1,92.292l0.417-1.526
		c0.093-0.339,0.189-0.617,0.289-0.836c0.1-0.219,0.245-0.414,0.438-0.584c0.188-0.17,0.403-0.287,0.646-0.35
		s0.518-0.053,0.828,0.031c0.435,0.119,0.769,0.328,1,0.628c0.231,0.298,0.365,0.657,0.402,1.074L9.27,89.326z M4.556,89.861
		c-0.171-0.045-0.333-0.058-0.483-0.032c-0.15,0.024-0.286,0.089-0.405,0.192c-0.104,0.091-0.191,0.208-0.263,0.348
		c-0.071,0.141-0.136,0.32-0.197,0.541l-0.212,0.779l2.229,0.61l0.19-0.692c0.062-0.227,0.098-0.435,0.106-0.626
		c0.009-0.192-0.029-0.366-0.12-0.529c-0.08-0.144-0.189-0.265-0.328-0.36C4.935,89.995,4.763,89.917,4.556,89.861z"/>
	<path fill="#CE1141" d="M9.464,88.831l-5.772-2.063l1.292-3.616l0.685,0.246l-1.018,2.845l1.582,0.564l0.946-2.647l0.685,0.244
		L6.917,87.05l2.139,0.766l1.017-2.843l0.685,0.244L9.464,88.831z"/>
	<path fill="#CE1141" d="M14.631,77.378c-0.193,0.352-0.43,0.643-0.709,0.873c-0.28,0.23-0.596,0.389-0.946,0.475
		c-0.352,0.085-0.734,0.092-1.148,0.017c-0.414-0.073-0.847-0.233-1.301-0.483c-0.45-0.246-0.812-0.52-1.083-0.818
		c-0.271-0.297-0.472-0.624-0.6-0.979c-0.124-0.348-0.168-0.701-0.133-1.064c0.035-0.362,0.153-0.727,0.352-1.091
		c0.1-0.179,0.205-0.342,0.318-0.483c0.113-0.145,0.228-0.271,0.341-0.384c0.099-0.097,0.21-0.19,0.331-0.281
		c0.121-0.093,0.246-0.18,0.376-0.261l0.862,0.473l-0.032,0.057c-0.092,0.031-0.206,0.074-0.341,0.128
		c-0.136,0.056-0.284,0.13-0.441,0.229c-0.149,0.097-0.292,0.212-0.428,0.347c-0.137,0.135-0.263,0.308-0.379,0.521
		c-0.125,0.228-0.198,0.47-0.216,0.727c-0.018,0.257,0.022,0.511,0.119,0.767c0.101,0.251,0.267,0.496,0.496,0.73
		c0.232,0.237,0.521,0.451,0.867,0.641c0.369,0.203,0.71,0.332,1.025,0.39c0.314,0.058,0.607,0.059,0.875,0.006
		c0.259-0.053,0.49-0.153,0.691-0.306c0.202-0.153,0.364-0.342,0.488-0.568c0.114-0.207,0.195-0.412,0.24-0.615
		c0.044-0.204,0.068-0.395,0.067-0.574c-0.002-0.174-0.017-0.33-0.041-0.469c-0.026-0.139-0.05-0.252-0.076-0.337l0.03-0.056
		l0.851,0.469c-0.009,0.148-0.018,0.288-0.025,0.42c-0.007,0.133-0.027,0.287-0.062,0.463c-0.035,0.184-0.077,0.35-0.124,0.498
		C14.831,76.983,14.748,77.166,14.631,77.378z"/>
	<path fill="#CE1141" d="M15.529,75.509l-3.995-5.09l0.551-0.842l6.262,1.634l-0.473,0.722l-1.74-0.476l-1.282,1.956l1.129,1.405
		L15.529,75.509z M15.43,71.265l-2.931-0.789l1.896,2.368L15.43,71.265z"/>
	<path fill="#CE1141" d="M21.425,67.247l-0.563,0.723l-5.835-1.118l4.171,3.252l-0.471,0.602l-4.835-3.771l0.713-0.914l5.344,1.045
		l-3.829-2.987l0.471-0.603L21.425,67.247z"/>
	<path fill="#CE1141" d="M21.836,66.74l-3.113-5.674l0.68-0.737l5.91,2.636l-0.582,0.632l-1.634-0.751l-1.586,1.723l0.883,1.566
		L21.836,66.74z M22.432,62.539l-2.768-1.262l1.487,2.651L22.432,62.539z"/>
	<path fill="#CE1141" d="M27.259,56.999c0.379,0.413,0.638,0.86,0.776,1.345c0.139,0.485,0.154,0.947,0.043,1.393
		c-0.096,0.354-0.238,0.663-0.43,0.926c-0.19,0.266-0.466,0.565-0.832,0.902l-1.039,0.955l-4.152-4.512l1.025-0.943
		c0.425-0.391,0.786-0.664,1.085-0.823c0.299-0.157,0.586-0.259,0.856-0.305c0.468-0.075,0.927-0.026,1.378,0.145
		C26.425,56.251,26.853,56.558,27.259,56.999z M26.626,57.564c-0.32-0.348-0.649-0.59-0.99-0.729s-0.686-0.173-1.039-0.103
		c-0.249,0.05-0.482,0.137-0.704,0.262c-0.22,0.124-0.465,0.312-0.736,0.56l-0.456,0.422L25.9,61.45l0.457-0.419
		c0.267-0.246,0.479-0.481,0.641-0.707c0.159-0.228,0.271-0.475,0.329-0.74c0.079-0.332,0.061-0.665-0.05-0.995
		C27.166,58.255,26.948,57.916,26.626,57.564z"/>
	<path fill="#CE1141" d="M31.764,57.326l-1.862,1.495l-0.392-0.486l0.613-0.492l-3.057-3.812l-0.613,0.492l-0.391-0.488l1.862-1.492
		l0.391,0.486l-0.613,0.492l3.057,3.811l0.613-0.492L31.764,57.326z"/>
	<path fill="#CE1141" d="M32.597,56.678l-3.544-5.009l3.14-2.222l0.418,0.591l-2.476,1.753l0.973,1.373l2.306-1.631l0.417,0.591
		l-2.304,1.631l1.317,1.861l2.476-1.751l0.417,0.592L32.597,56.678z"/>
	<path fill="#CE1141" d="M40.302,51.695l-0.788,0.469l-5.038-3.158l2.705,4.547l-0.656,0.389l-3.137-5.271l0.998-0.592l4.607,2.91
		l-2.483-4.176l0.655-0.39L40.302,51.695z"/>
	<path fill="#CE1141" d="M49.74,44.169c0.201,0.523,0.276,1.036,0.227,1.537c-0.049,0.502-0.208,0.939-0.473,1.313
		c-0.219,0.293-0.467,0.527-0.742,0.705c-0.274,0.176-0.644,0.354-1.108,0.532l-1.32,0.509l-2.203-5.725l1.304-0.502
		c0.539-0.207,0.977-0.329,1.314-0.366c0.336-0.038,0.641-0.028,0.91,0.03c0.463,0.102,0.874,0.315,1.231,0.641
		C49.238,43.169,49.525,43.611,49.74,44.169z M48.942,44.463c-0.169-0.439-0.387-0.788-0.653-1.043s-0.577-0.413-0.93-0.476
		c-0.251-0.045-0.5-0.05-0.753-0.016c-0.252,0.035-0.549,0.119-0.893,0.252l-0.581,0.223l1.697,4.412l0.582-0.224
		c0.339-0.131,0.625-0.271,0.857-0.423c0.234-0.152,0.427-0.341,0.582-0.568c0.196-0.279,0.302-0.596,0.321-0.945
		C49.189,45.306,49.115,44.909,48.942,44.463z"/>
	<path fill="#CE1141" d="M51.751,46.752l-1.733-5.88l3.686-1.086l0.205,0.691l-2.901,0.855l0.475,1.612l2.705-0.798l0.205,0.693
		l-2.705,0.797l0.646,2.191l2.899-0.855l0.205,0.692L51.751,46.752z"/>
	<path fill="#CE1141" d="M66.351,43.772l-1.048,0.132l-2.234-2.174l-0.929,0.118l0.309,2.421l-0.808,0.103l-0.775-6.082l1.569-0.2
		c0.347-0.045,0.643-0.063,0.883-0.056c0.24,0.009,0.476,0.068,0.706,0.181c0.23,0.107,0.42,0.262,0.572,0.461
		c0.15,0.2,0.246,0.459,0.287,0.777c0.058,0.447-0.006,0.834-0.195,1.162c-0.188,0.329-0.467,0.59-0.838,0.783L66.351,43.772z
		 M64.047,39.625c-0.023-0.176-0.074-0.328-0.154-0.457c-0.081-0.129-0.192-0.23-0.333-0.3c-0.124-0.062-0.265-0.098-0.421-0.109
		c-0.157-0.013-0.348-0.003-0.574,0.026l-0.802,0.102l0.292,2.288l0.711-0.09c0.231-0.031,0.438-0.077,0.619-0.142
		c0.18-0.064,0.327-0.17,0.441-0.313c0.103-0.129,0.173-0.276,0.208-0.44C64.069,40.025,64.074,39.837,64.047,39.625z"/>
	<path fill="#CE1141" d="M66.897,43.761l-0.307-6.125l3.831-0.193l0.037,0.727l-3.015,0.151L67.527,40l2.811-0.141l0.036,0.727
		l-2.811,0.141l0.115,2.268l3.015-0.15l0.037,0.727L66.897,43.761z"/>
	<path fill="#CE1141" d="M74.081,43.736c-0.401-0.012-0.768-0.087-1.102-0.23c-0.332-0.143-0.618-0.35-0.856-0.622
		s-0.418-0.608-0.542-1.011c-0.125-0.402-0.181-0.859-0.168-1.376c0.013-0.515,0.09-0.958,0.23-1.336
		c0.14-0.379,0.337-0.706,0.594-0.983c0.251-0.268,0.548-0.469,0.885-0.604c0.339-0.137,0.716-0.199,1.13-0.188
		c0.207,0.006,0.399,0.025,0.578,0.061c0.18,0.035,0.346,0.077,0.498,0.128c0.131,0.044,0.265,0.099,0.402,0.164
		c0.136,0.065,0.272,0.137,0.405,0.215l-0.025,0.983l-0.066-0.002c-0.07-0.067-0.159-0.148-0.269-0.246
		c-0.111-0.096-0.247-0.191-0.406-0.287c-0.154-0.088-0.323-0.164-0.505-0.223c-0.183-0.061-0.395-0.092-0.636-0.099
		c-0.261-0.007-0.509,0.04-0.746,0.142c-0.236,0.102-0.444,0.254-0.625,0.457c-0.179,0.205-0.318,0.465-0.422,0.777
		c-0.104,0.313-0.161,0.667-0.171,1.063c-0.011,0.42,0.031,0.783,0.125,1.088c0.093,0.307,0.226,0.566,0.396,0.779
		c0.165,0.208,0.361,0.365,0.589,0.474c0.229,0.109,0.471,0.167,0.729,0.173c0.236,0.006,0.455-0.017,0.657-0.069
		c0.202-0.053,0.382-0.12,0.541-0.205c0.154-0.08,0.286-0.163,0.398-0.251c0.112-0.086,0.2-0.16,0.265-0.222l0.062,0.001
		l-0.025,0.973c-0.137,0.059-0.266,0.116-0.386,0.17c-0.121,0.056-0.268,0.107-0.439,0.158c-0.18,0.054-0.346,0.094-0.5,0.12
		C74.524,43.731,74.326,43.742,74.081,43.736z"/>
	<path fill="#CE1141" d="M81.24,44.183l-0.813-0.078l0.282-2.994l-2.801-0.264l-0.283,2.994l-0.813-0.077l0.577-6.106l0.813,0.077
		l-0.227,2.392l2.801,0.266L81.005,38l0.812,0.076L81.24,44.183z"/>
	<path fill="#CE1141" d="M82.523,44.417l1.134-6.028l3.773,0.71l-0.133,0.712l-2.974-0.56l-0.311,1.652l2.774,0.52l-0.134,0.714
		l-2.773-0.522l-0.422,2.24l2.975,0.56l-0.135,0.713L82.523,44.417z"/>
	<path fill="#CE1141" d="M91.805,46.572l-1.022-0.275l-1.244-2.855l-0.904-0.242l-0.631,2.353l-0.788-0.211l1.588-5.921l1.528,0.41
		c0.34,0.09,0.62,0.187,0.84,0.285c0.219,0.1,0.414,0.242,0.585,0.434c0.171,0.188,0.289,0.402,0.354,0.646
		c0.064,0.241,0.055,0.518-0.027,0.829c-0.117,0.434-0.325,0.768-0.623,1c-0.299,0.232-0.657,0.368-1.074,0.406L91.805,46.572z
		 M91.248,41.865c0.046-0.172,0.056-0.332,0.032-0.483c-0.026-0.149-0.091-0.284-0.195-0.403c-0.093-0.104-0.209-0.191-0.35-0.261
		c-0.14-0.071-0.321-0.136-0.542-0.195l-0.783-0.21l-0.598,2.23l0.694,0.188c0.227,0.06,0.436,0.095,0.627,0.104
		c0.191,0.009,0.368-0.032,0.53-0.121c0.144-0.081,0.263-0.189,0.36-0.329C91.117,42.244,91.193,42.072,91.248,41.865z"/>
	<path fill="#CE1141" d="M94.539,47.675c-0.377-0.135-0.701-0.321-0.974-0.561c-0.272-0.24-0.479-0.526-0.62-0.859
		c-0.14-0.332-0.208-0.71-0.202-1.129c0.008-0.421,0.098-0.875,0.27-1.361c0.173-0.484,0.383-0.884,0.634-1.2
		c0.251-0.317,0.542-0.565,0.873-0.749c0.322-0.178,0.665-0.277,1.028-0.301c0.363-0.024,0.742,0.033,1.132,0.172
		c0.194,0.07,0.37,0.148,0.53,0.236c0.159,0.09,0.304,0.182,0.433,0.277c0.109,0.082,0.221,0.176,0.33,0.28
		c0.11,0.105,0.216,0.216,0.319,0.331l-0.331,0.925l-0.062-0.021c-0.045-0.087-0.105-0.193-0.18-0.317
		c-0.075-0.127-0.173-0.259-0.296-0.399c-0.119-0.133-0.256-0.254-0.41-0.368c-0.155-0.113-0.347-0.211-0.574-0.292
		c-0.246-0.087-0.497-0.119-0.752-0.097c-0.256,0.023-0.502,0.103-0.737,0.241c-0.232,0.139-0.448,0.342-0.644,0.607
		c-0.197,0.265-0.36,0.584-0.495,0.957c-0.14,0.396-0.213,0.755-0.219,1.074c-0.006,0.32,0.039,0.607,0.133,0.865
		c0.092,0.248,0.231,0.459,0.414,0.633c0.183,0.175,0.395,0.305,0.639,0.392c0.221,0.079,0.437,0.126,0.645,0.137
		c0.209,0.013,0.4,0.005,0.578-0.026c0.171-0.029,0.323-0.067,0.457-0.115c0.133-0.047,0.24-0.091,0.321-0.129l0.058,0.021
		l-0.325,0.917c-0.148,0.015-0.29,0.029-0.421,0.044c-0.131,0.015-0.287,0.02-0.465,0.015c-0.188-0.006-0.358-0.021-0.513-0.043
		C94.962,47.81,94.771,47.756,94.539,47.675z"/>
	<path fill="#CE1141" d="M101.19,50.358l-0.743-0.337l1.236-2.73l-2.566-1.16l-1.236,2.73l-0.742-0.337l2.527-5.587l0.741,0.337
		l-0.991,2.192l2.566,1.162l0.992-2.193l0.743,0.337L101.19,50.358z"/>
	<path fill="#CE1141" d="M102.347,50.959l2.969-5.365l3.362,1.862l-0.352,0.636l-2.647-1.466l-0.813,1.47l2.465,1.364l-0.353,0.637
		l-2.466-1.365l-1.1,1.986l2.647,1.467l-0.351,0.636L102.347,50.959z"/>
	<path fill="#CE1141" d="M110.996,56.343l3.766-4.842l3.025,2.354l-0.445,0.572l-2.379-1.852l-1.032,1.326l2.217,1.723l-0.445,0.572
		l-2.218-1.722l-1.396,1.796l2.38,1.852l-0.446,0.572L110.996,56.343z"/>
	<path fill="#CE1141" d="M117.985,62.259l-0.673-0.615l1.565-5.733l-3.567,3.905l-0.56-0.513l4.136-4.528l0.853,0.779l-1.453,5.25
		l3.275-3.586l0.562,0.512L117.985,62.259z"/>
	<path fill="#CE1141" d="M122.234,67.048c-0.26-0.305-0.449-0.628-0.565-0.971c-0.117-0.344-0.154-0.694-0.11-1.054
		c0.043-0.358,0.173-0.718,0.389-1.079c0.214-0.361,0.518-0.711,0.91-1.045c0.391-0.335,0.772-0.576,1.147-0.726
		c0.374-0.148,0.75-0.221,1.128-0.214c0.368,0.006,0.715,0.09,1.043,0.25c0.326,0.162,0.625,0.398,0.895,0.714
		c0.135,0.157,0.248,0.312,0.342,0.47c0.094,0.156,0.174,0.308,0.238,0.455c0.055,0.125,0.102,0.262,0.146,0.408
		c0.044,0.146,0.081,0.293,0.112,0.444l-0.749,0.639l-0.043-0.049c0.003-0.097,0.004-0.218,0.001-0.363
		c-0.003-0.146-0.022-0.31-0.061-0.49c-0.038-0.174-0.097-0.349-0.175-0.523c-0.078-0.175-0.196-0.354-0.353-0.537
		c-0.169-0.198-0.371-0.353-0.604-0.46c-0.233-0.106-0.485-0.16-0.758-0.158c-0.27,0.004-0.558,0.072-0.858,0.203
		c-0.303,0.132-0.604,0.326-0.903,0.582c-0.318,0.275-0.562,0.547-0.724,0.822c-0.164,0.273-0.269,0.544-0.313,0.813
		c-0.044,0.263-0.029,0.514,0.043,0.755c0.072,0.242,0.191,0.461,0.359,0.658c0.154,0.178,0.317,0.325,0.49,0.441
		c0.175,0.112,0.346,0.203,0.513,0.264c0.164,0.061,0.314,0.104,0.452,0.129c0.14,0.025,0.253,0.042,0.342,0.049l0.04,0.047
		l-0.736,0.63c-0.135-0.062-0.265-0.117-0.385-0.171c-0.121-0.053-0.259-0.126-0.412-0.221c-0.159-0.098-0.3-0.194-0.422-0.29
		C122.532,67.375,122.392,67.234,122.234,67.048z"/>
	<path fill="#CE1141" d="M123.666,68.544l6.173-1.947l0.591,0.811l-3.735,5.287l-0.509-0.697l1.052-1.452l-1.382-1.894l-1.705,0.559
		L123.666,68.544z M127.672,69.943l1.771-2.461l-2.882,0.939L127.672,69.943z"/>
	<path fill="#CE1141" d="M129.531,77.293l-0.554-0.901l1.059-2.936l-0.491-0.796l-2.079,1.278l-0.428-0.695l5.223-3.217l0.831,1.35
		c0.185,0.301,0.323,0.561,0.416,0.784c0.091,0.224,0.135,0.462,0.127,0.719c-0.004,0.254-0.066,0.492-0.185,0.712
		c-0.118,0.221-0.316,0.414-0.588,0.583c-0.384,0.236-0.765,0.335-1.14,0.301c-0.376-0.038-0.732-0.185-1.062-0.444L129.531,77.293z
		 M132.359,73.484c0.152-0.094,0.271-0.203,0.355-0.329c0.083-0.126,0.128-0.27,0.133-0.428c0.005-0.139-0.019-0.282-0.074-0.431
		c-0.054-0.146-0.14-0.318-0.26-0.512l-0.424-0.69l-1.967,1.211l0.378,0.612c0.122,0.197,0.249,0.367,0.382,0.505
		c0.134,0.138,0.29,0.229,0.468,0.274c0.161,0.041,0.323,0.043,0.488,0.008C132.004,73.669,132.177,73.596,132.359,73.484z"/>
	<path fill="#CE1141" d="M134.691,80.72c-0.5,0.251-1.001,0.379-1.506,0.379c-0.505,0.001-0.955-0.111-1.354-0.339
		c-0.313-0.188-0.572-0.413-0.775-0.667c-0.203-0.257-0.417-0.607-0.641-1.052l-0.637-1.261l5.471-2.766l0.629,1.246
		c0.262,0.516,0.427,0.94,0.498,1.273c0.071,0.33,0.09,0.633,0.06,0.907c-0.054,0.472-0.225,0.901-0.514,1.29
		C135.637,80.12,135.225,80.45,134.691,80.72z M134.318,79.955c0.42-0.213,0.745-0.463,0.972-0.754
		c0.227-0.29,0.354-0.615,0.382-0.975c0.02-0.252-0.001-0.502-0.062-0.749c-0.06-0.247-0.173-0.535-0.338-0.863l-0.282-0.556
		l-4.219,2.133l0.281,0.555c0.164,0.324,0.332,0.596,0.506,0.811c0.174,0.217,0.381,0.392,0.623,0.522
		c0.298,0.165,0.624,0.24,0.974,0.224C133.504,80.285,133.893,80.169,134.318,79.955z"/>
	<path fill="#CE1141" d="M133.14,84.952l-0.925-2.189l0.576-0.243l0.304,0.719l4.496-1.9l-0.302-0.719l0.577-0.242l0.924,2.189
		l-0.576,0.244l-0.304-0.719l-4.497,1.897l0.305,0.72L133.14,84.952z"/>
	<path fill="#CE1141" d="M140.094,88.271c-0.179,0.308-0.436,0.588-0.771,0.838c-0.335,0.252-0.744,0.459-1.228,0.625
		c-0.469,0.16-0.914,0.246-1.335,0.257c-0.42,0.009-0.797-0.054-1.131-0.192c-0.352-0.145-0.645-0.354-0.881-0.623
		c-0.237-0.273-0.42-0.599-0.549-0.979c-0.135-0.392-0.188-0.769-0.165-1.128c0.025-0.359,0.13-0.697,0.315-1.013
		c0.18-0.312,0.438-0.592,0.775-0.841c0.335-0.248,0.74-0.452,1.217-0.615c0.488-0.166,0.937-0.254,1.347-0.26
		c0.41-0.004,0.786,0.06,1.128,0.193c0.332,0.135,0.621,0.337,0.863,0.607c0.241,0.27,0.429,0.602,0.563,0.99
		c0.134,0.395,0.187,0.775,0.158,1.139C140.371,87.634,140.269,87.967,140.094,88.271z M137.821,88.929
		c0.384-0.131,0.71-0.291,0.98-0.475c0.267-0.185,0.473-0.385,0.617-0.602c0.147-0.223,0.235-0.459,0.261-0.71
		c0.026-0.251-0.008-0.511-0.1-0.782c-0.095-0.28-0.228-0.508-0.396-0.684c-0.168-0.175-0.384-0.309-0.646-0.4
		c-0.248-0.085-0.537-0.118-0.864-0.098c-0.328,0.021-0.679,0.096-1.057,0.225c-0.762,0.261-1.29,0.619-1.585,1.078
		c-0.296,0.457-0.351,0.955-0.168,1.492c0.184,0.537,0.534,0.896,1.046,1.075C136.422,89.23,137.059,89.189,137.821,88.929z"/>
	<path fill="#CE1141" d="M136.303,95.089l-0.883-3.441l5.941-1.523l0.203,0.793l-5.241,1.342l0.68,2.65L136.303,95.089z"/>
	<path fill="#CE1141" d="M142.544,99.046c-0.226,0.275-0.523,0.513-0.893,0.709c-0.37,0.195-0.807,0.337-1.313,0.426
		c-0.488,0.086-0.942,0.1-1.359,0.045s-0.78-0.178-1.089-0.366c-0.324-0.197-0.584-0.448-0.775-0.753
		c-0.191-0.307-0.321-0.656-0.391-1.052c-0.072-0.407-0.067-0.788,0.013-1.14c0.083-0.353,0.238-0.67,0.47-0.953
		c0.228-0.28,0.526-0.517,0.897-0.71c0.37-0.192,0.803-0.332,1.298-0.419c0.508-0.09,0.966-0.104,1.373-0.045
		c0.407,0.058,0.768,0.18,1.085,0.363c0.308,0.187,0.562,0.432,0.759,0.736c0.196,0.303,0.33,0.659,0.401,1.066
		c0.073,0.41,0.065,0.794-0.02,1.149C142.917,98.459,142.764,98.774,142.544,99.046z M140.194,99.342
		c0.401-0.069,0.749-0.175,1.041-0.315c0.294-0.141,0.528-0.307,0.704-0.5c0.181-0.195,0.303-0.416,0.368-0.66
		s0.072-0.507,0.023-0.787c-0.051-0.291-0.146-0.539-0.286-0.738c-0.14-0.2-0.332-0.365-0.574-0.495
		c-0.233-0.124-0.515-0.2-0.84-0.233c-0.327-0.029-0.686-0.01-1.079,0.059c-0.793,0.139-1.372,0.41-1.734,0.817
		c-0.362,0.405-0.495,0.89-0.397,1.45c0.097,0.559,0.386,0.968,0.865,1.226C138.764,99.422,139.4,99.48,140.194,99.342z"/>
	<path fill="#CE1141" d="M137.515,104.228c-0.037-0.432-0.003-0.833,0.098-1.205c0.102-0.369,0.276-0.691,0.523-0.973
		c0.249-0.278,0.568-0.504,0.957-0.675c0.388-0.169,0.841-0.278,1.361-0.321c0.493-0.041,0.941-0.009,1.343,0.097
		c0.401,0.105,0.751,0.274,1.049,0.51c0.288,0.226,0.522,0.515,0.698,0.866c0.174,0.353,0.28,0.744,0.317,1.177
		c0.016,0.206,0.018,0.404,0.003,0.595c-0.014,0.192-0.039,0.375-0.078,0.551c-0.029,0.142-0.072,0.299-0.131,0.472
		c-0.059,0.176-0.109,0.317-0.152,0.425l-0.98,0.082l-0.007-0.068c0.083-0.108,0.159-0.22,0.23-0.337
		c0.071-0.114,0.145-0.273,0.222-0.479c0.068-0.171,0.12-0.365,0.157-0.583c0.038-0.22,0.045-0.45,0.025-0.697
		c-0.049-0.587-0.312-1.045-0.786-1.37c-0.474-0.326-1.078-0.458-1.815-0.396c-0.411,0.034-0.765,0.112-1.063,0.234
		c-0.298,0.121-0.546,0.281-0.746,0.479c-0.197,0.192-0.34,0.417-0.429,0.675c-0.09,0.258-0.122,0.541-0.097,0.851
		c0.021,0.23,0.055,0.458,0.107,0.682c0.053,0.225,0.118,0.413,0.195,0.564l1.583-0.133l-0.119-1.418l0.714-0.059l0.186,2.219
		l-2.67,0.223c-0.056-0.1-0.126-0.233-0.211-0.401c-0.086-0.167-0.156-0.325-0.209-0.473c-0.077-0.194-0.137-0.372-0.182-0.531
		C137.565,104.653,137.534,104.457,137.515,104.228z"/>
	<path fill="#CE1141" d="M137.845,109.466l-0.038-2.38l0.624-0.011l0.013,0.782l4.886-0.077L143.317,107l0.623-0.011l0.04,2.382
		l-0.625,0.007l-0.012-0.78l-4.888,0.078l0.014,0.781L137.845,109.466z"/>
	<path fill="#CE1141" d="M137.846,110.535l6.125,0.274l-0.171,3.836l-0.725-0.029l0.135-3.026l-1.678-0.074l-0.124,2.822
		l-0.725-0.031l0.125-2.824l-2.275-0.101l-0.135,3.024l-0.724-0.031L137.846,110.535z"/>
</g>
<g>
	<path d="M178.831,72.822c-0.122-0.141-0.272-0.211-0.454-0.211c-0.102,0-0.309,0.132-0.621,0.395s-0.758,0.55-1.333,0.865
		c-0.575,0.314-1.308,0.594-2.196,0.837s-1.969,0.364-3.242,0.364c-1.413,0-2.705-0.202-3.876-0.605
		c-1.172-0.405-2.177-0.984-3.013-1.742c-0.838-0.758-1.486-1.656-1.949-2.697c-0.463-1.039-0.695-2.175-0.695-3.406
		c0-1.031,0.217-2.011,0.649-2.939c0.433-0.93,1.058-1.752,1.874-2.468c0.816-0.718,1.806-1.289,2.967-1.712
		c1.162-0.425,2.469-0.639,3.922-0.639c1.012,0,1.91,0.088,2.697,0.259s1.473,0.358,2.061,0.561
		c0.586,0.202,1.064,0.389,1.438,0.562c0.374,0.17,0.633,0.256,0.772,0.256c0.163,0,0.263-0.024,0.304-0.076
		c0.039-0.049,0.09-0.115,0.151-0.197l0.363,0.244l-1.878,3.24l-0.395-0.182c0.102-0.101,0.152-0.232,0.152-0.393
		c0-0.163-0.152-0.368-0.455-0.622c-0.303-0.251-0.717-0.494-1.24-0.727c-0.527-0.231-1.143-0.435-1.85-0.606
		c-0.707-0.171-1.463-0.258-2.271-0.258s-1.62,0.116-2.438,0.35c-0.819,0.231-1.546,0.59-2.182,1.074
		c-0.637,0.484-1.157,1.105-1.562,1.862c-0.403,0.757-0.604,1.66-0.604,2.709c0,0.909,0.206,1.741,0.621,2.498
		c0.413,0.759,0.963,1.408,1.65,1.954c0.688,0.545,1.469,0.969,2.347,1.271c0.879,0.304,1.784,0.454,2.712,0.454
		c0.727,0,1.418-0.105,2.076-0.318c0.655-0.213,1.236-0.469,1.74-0.773c0.506-0.302,0.91-0.609,1.212-0.923
		c0.303-0.313,0.456-0.569,0.456-0.771c0-0.184-0.051-0.324-0.153-0.426l0.395-0.243l2.242,2.908L178.831,72.822z"/>
	<path d="M179.521,74.625c0.324,0,0.541-0.07,0.651-0.211c0.112-0.143,0.218-0.324,0.319-0.547l4.787-10.971
		c0.099-0.242,0.149-0.416,0.149-0.516c0-0.102-0.056-0.193-0.166-0.273c-0.111-0.08-0.308-0.132-0.591-0.151v-0.304h4.908v0.364
		c-0.162,0-0.318,0.024-0.469,0.075c-0.152,0.051-0.229,0.146-0.229,0.289c0,0.1,0.025,0.201,0.076,0.301
		c0.051,0.102,0.096,0.203,0.137,0.305l5.18,11.033c0.06,0.143,0.151,0.278,0.272,0.408c0.121,0.132,0.343,0.197,0.666,0.197v0.363
		h-3.815v-0.363c0.362,0,0.605-0.028,0.727-0.09c0.121-0.06,0.182-0.151,0.182-0.272c0-0.142-0.021-0.263-0.061-0.362
		c-0.04-0.1-0.082-0.202-0.121-0.303l-1.242-2.54h-7.361l-1.029,2.298c-0.082,0.182-0.168,0.354-0.259,0.515
		s-0.136,0.294-0.136,0.393c0,0.121,0.06,0.213,0.182,0.272c0.121,0.062,0.334,0.09,0.637,0.09v0.363h-3.395V74.625z M184.218,69.35
		h5.907l-3.061-6.362L184.218,69.35z"/>
	<path d="M196.026,74.625c0.323,0,0.54-0.056,0.652-0.166c0.11-0.111,0.167-0.339,0.167-0.682V62.865
		c0-0.343-0.057-0.57-0.167-0.682c-0.112-0.111-0.329-0.167-0.652-0.167v-0.364h4.426v0.364c-0.323,0-0.54,0.024-0.651,0.075
		s-0.167,0.117-0.167,0.197c0,0.061,0.112,0.233,0.334,0.516l8.216,9.426v-9.365c0-0.343-0.055-0.57-0.166-0.682
		s-0.328-0.167-0.651-0.167v-0.364h3.343v0.364c-0.324,0-0.541,0.056-0.652,0.167s-0.166,0.339-0.166,0.682v10.912
		c0,0.343,0.055,0.57,0.166,0.682c0.111,0.11,0.328,0.166,0.652,0.166v0.363h-4.063v-0.363c0.403,0,0.646-0.02,0.728-0.061
		c0.081-0.039,0.12-0.11,0.12-0.213c0-0.1-0.034-0.186-0.105-0.256c-0.07-0.07-0.156-0.167-0.258-0.289l-8.58-9.79v9.76
		c0,0.344,0.056,0.571,0.166,0.683c0.112,0.11,0.329,0.166,0.652,0.166v0.363h-3.343V74.625z"/>
	<path d="M211.482,74.625c0.324,0,0.541-0.07,0.651-0.211c0.11-0.143,0.216-0.324,0.318-0.547l4.786-10.971
		c0.1-0.242,0.15-0.416,0.15-0.516c0-0.102-0.055-0.193-0.166-0.273c-0.11-0.08-0.308-0.132-0.59-0.151v-0.304h4.906v0.364
		c-0.16,0-0.316,0.024-0.469,0.075s-0.228,0.146-0.228,0.289c0,0.1,0.024,0.201,0.075,0.301c0.051,0.102,0.098,0.203,0.138,0.305
		l5.181,11.033c0.059,0.143,0.15,0.278,0.271,0.408c0.121,0.132,0.344,0.197,0.666,0.197v0.363h-3.815v-0.363
		c0.362,0,0.605-0.028,0.727-0.09c0.12-0.06,0.182-0.151,0.182-0.272c0-0.142-0.021-0.263-0.062-0.362
		c-0.039-0.1-0.08-0.202-0.12-0.303l-1.243-2.54h-7.36l-1.029,2.298c-0.081,0.182-0.167,0.354-0.259,0.515
		c-0.09,0.161-0.135,0.294-0.135,0.393c0,0.121,0.059,0.213,0.182,0.272c0.12,0.062,0.334,0.09,0.636,0.09v0.363h-3.394V74.625z
		 M216.179,69.35h5.905l-3.059-6.362L216.179,69.35z"/>
	<path d="M228.502,62.183c-0.092-0.111-0.297-0.167-0.62-0.167v-0.364h7.33c1.191,0,2.222,0.174,3.09,0.516
		c0.869,0.344,1.581,0.813,2.136,1.41c0.557,0.595,0.965,1.298,1.228,2.105c0.262,0.809,0.394,1.688,0.394,2.637
		c0,0.932-0.132,1.805-0.394,2.623c-0.263,0.817-0.671,1.525-1.228,2.121c-0.555,0.597-1.267,1.066-2.136,1.41
		c-0.868,0.342-1.898,0.514-3.09,0.514h-7.33v-0.363c0.323,0,0.528-0.056,0.62-0.166c0.092-0.111,0.137-0.339,0.137-0.682V62.865
		C228.639,62.522,228.594,62.294,228.502,62.183z M234.847,73.283c0.95,0,1.753-0.131,2.409-0.395
		c0.658-0.262,1.193-0.619,1.607-1.074c0.414-0.452,0.718-0.977,0.91-1.572c0.191-0.595,0.287-1.235,0.287-1.922
		c0-0.685-0.096-1.325-0.287-1.921c-0.192-0.594-0.496-1.12-0.91-1.573c-0.414-0.455-0.949-0.812-1.607-1.074
		c-0.656-0.262-1.459-0.394-2.409-0.394h-4.335v9.925H234.847z"/>
	<path d="M244.512,74.625c0.323,0,0.529-0.056,0.621-0.166c0.092-0.111,0.137-0.339,0.137-0.682V62.865
		c0-0.343-0.045-0.57-0.137-0.682s-0.298-0.167-0.621-0.167v-0.364h3.389v0.364c-0.324,0-0.531,0.056-0.621,0.167
		c-0.092,0.111-0.137,0.339-0.137,0.682v10.912c0,0.343,0.045,0.57,0.137,0.682c0.09,0.11,0.297,0.166,0.621,0.166v0.363h-3.389
		V74.625z"/>
	<path d="M249.288,74.625c0.323,0,0.54-0.07,0.651-0.211c0.111-0.143,0.217-0.324,0.318-0.547l4.787-10.971
		c0.101-0.242,0.15-0.416,0.15-0.516c0-0.102-0.056-0.193-0.166-0.273c-0.111-0.08-0.309-0.132-0.59-0.151v-0.304h4.906v0.364
		c-0.162,0-0.317,0.024-0.471,0.075c-0.149,0.051-0.227,0.146-0.227,0.289c0,0.1,0.026,0.201,0.077,0.301
		c0.05,0.102,0.095,0.203,0.137,0.305l5.179,11.033c0.062,0.143,0.152,0.278,0.273,0.408c0.121,0.132,0.344,0.197,0.666,0.197v0.363
		h-3.816v-0.363c0.363,0,0.605-0.028,0.727-0.09c0.12-0.06,0.182-0.151,0.182-0.272c0-0.142-0.021-0.263-0.062-0.362
		s-0.081-0.202-0.12-0.303l-1.242-2.54h-7.361l-1.029,2.298c-0.08,0.182-0.168,0.354-0.258,0.515
		c-0.092,0.161-0.137,0.294-0.137,0.393c0,0.121,0.061,0.213,0.182,0.272c0.121,0.062,0.334,0.09,0.637,0.09v0.363h-3.394V74.625z
		 M253.984,69.35h5.907l-3.06-6.362L253.984,69.35z"/>
	<path d="M265.793,74.625c0.324,0,0.541-0.056,0.65-0.166c0.112-0.111,0.168-0.339,0.168-0.682V62.865
		c0-0.343-0.056-0.57-0.168-0.682c-0.109-0.111-0.326-0.167-0.65-0.167v-0.364h4.426v0.364c-0.324,0-0.541,0.024-0.65,0.075
		c-0.112,0.051-0.168,0.117-0.168,0.197c0,0.061,0.111,0.233,0.334,0.516l8.216,9.426v-9.365c0-0.343-0.056-0.57-0.167-0.682
		c-0.109-0.111-0.328-0.167-0.65-0.167v-0.364h3.342v0.364c-0.324,0-0.541,0.056-0.652,0.167c-0.11,0.111-0.166,0.339-0.166,0.682
		v10.912c0,0.343,0.056,0.57,0.166,0.682c0.111,0.11,0.328,0.166,0.652,0.166v0.363h-4.062v-0.363c0.403,0,0.646-0.02,0.727-0.061
		c0.081-0.039,0.121-0.11,0.121-0.213c0-0.1-0.034-0.186-0.104-0.256c-0.072-0.07-0.158-0.167-0.259-0.289l-8.58-9.79v9.76
		c0,0.344,0.056,0.571,0.167,0.683c0.111,0.11,0.327,0.166,0.651,0.166v0.363h-3.343V74.625z"/>
	<path d="M179.453,100.936c0.101,0.13,0.293,0.196,0.576,0.196v0.363h-3.992v-0.363c0.283,0,0.475-0.066,0.576-0.197
		c0.1-0.131,0.15-0.309,0.15-0.531v-6.064h-10.715v6.064c0,0.223,0.051,0.4,0.152,0.531c0.1,0.131,0.291,0.197,0.574,0.197v0.363
		h-3.992v-0.363c0.283,0,0.475-0.066,0.576-0.196c0.102-0.132,0.15-0.308,0.15-0.53V86.649c0-0.222-0.049-0.397-0.15-0.529
		s-0.293-0.198-0.576-0.198v-0.362h3.992v0.362c-0.283,0-0.475,0.066-0.574,0.198c-0.102,0.132-0.152,0.308-0.152,0.529v5.692
		h10.715v-5.692c0-0.222-0.051-0.397-0.15-0.529c-0.102-0.132-0.293-0.198-0.576-0.198v-0.362h3.992v0.362
		c-0.283,0-0.476,0.066-0.576,0.198c-0.102,0.132-0.15,0.308-0.15,0.529v13.757C179.303,100.628,179.352,100.804,179.453,100.936z"
		/>
	<path d="M184.045,88.69c-0.092-0.111-0.277-0.167-0.561-0.167V88.16h12.206c0.303,0,0.505-0.056,0.606-0.168
		c0.099-0.11,0.15-0.297,0.15-0.561h0.364v3.162h-0.364c0-0.263-0.052-0.451-0.15-0.561c-0.102-0.111-0.304-0.166-0.606-0.166
		h-9.513v3.932h6.695c0.302,0,0.504-0.057,0.605-0.167c0.102-0.111,0.152-0.298,0.152-0.561h0.363v3.16h-0.363
		c0-0.263-0.051-0.448-0.152-0.56c-0.102-0.113-0.304-0.168-0.605-0.168h-6.695v4.286h9.846c0.303,0,0.504-0.056,0.606-0.165
		c0.101-0.112,0.151-0.299,0.151-0.563h0.363v3.08h-0.363c0-0.268-0.051-0.441-0.151-0.522c-0.103-0.083-0.304-0.124-0.606-0.124
		h-12.539v-0.363c0.283,0,0.469-0.056,0.561-0.166c0.09-0.112,0.136-0.34,0.136-0.684v-10.91
		C184.181,89.029,184.135,88.801,184.045,88.69z"/>
	<path d="M197.185,101.132c0.322,0,0.539-0.071,0.649-0.213c0.111-0.141,0.219-0.322,0.318-0.545l4.787-10.973
		c0.101-0.242,0.151-0.414,0.151-0.515s-0.056-0.193-0.166-0.272c-0.112-0.082-0.31-0.132-0.591-0.152V88.16h4.907v0.363
		c-0.161,0-0.319,0.027-0.47,0.076c-0.152,0.051-0.228,0.146-0.228,0.288c0,0.101,0.025,0.202,0.075,0.304
		c0.052,0.102,0.098,0.201,0.138,0.303l5.181,11.032c0.059,0.142,0.15,0.278,0.272,0.409c0.12,0.131,0.343,0.197,0.666,0.197v0.363
		h-3.816v-0.363c0.362,0,0.604-0.029,0.726-0.09s0.182-0.151,0.182-0.272c0-0.141-0.02-0.261-0.061-0.364
		c-0.039-0.1-0.08-0.2-0.121-0.301l-1.242-2.542h-7.36l-1.03,2.299c-0.081,0.181-0.166,0.354-0.258,0.515
		c-0.09,0.162-0.136,0.293-0.136,0.394c0,0.121,0.06,0.212,0.181,0.272s0.334,0.09,0.637,0.09v0.363h-3.392V101.132z
		 M201.879,95.857h5.908l-3.061-6.361L201.879,95.857z"/>
	<path d="M216.516,100.966c0.092,0.111,0.299,0.166,0.621,0.166v0.363h-3.387v-0.363c0.323,0,0.529-0.056,0.621-0.166
		c0.09-0.112,0.137-0.34,0.137-0.684v-10.91c0-0.344-0.047-0.571-0.137-0.683c-0.092-0.111-0.298-0.167-0.621-0.167V88.16h9.275
		c1.333,0,2.304,0.334,2.91,1.002c0.605,0.667,0.91,1.578,0.91,2.73c0,1.174-0.318,2.059-0.956,2.654
		c-0.636,0.598-1.54,0.917-2.712,0.957l3.331,5.084c0.142,0.223,0.263,0.369,0.364,0.439c0.1,0.07,0.23,0.105,0.394,0.105v0.363
		h-3.272v-0.363c0.223,0,0.359-0.014,0.41-0.045c0.05-0.031,0.076-0.096,0.076-0.196c0-0.103-0.032-0.202-0.093-0.303
		c-0.06-0.101-0.142-0.243-0.241-0.424l-2.973-4.661h-4.794v4.781C216.38,100.628,216.425,100.855,216.516,100.966z M222.845,93.798
		c0.728,0,1.243-0.161,1.547-0.484c0.304-0.324,0.456-0.818,0.456-1.484c0-0.727-0.156-1.256-0.471-1.588
		c-0.313-0.334-0.925-0.5-1.836-0.5h-6.161v4.057H222.845z"/>
	<path d="M240.353,90.572c0-0.262-0.051-0.449-0.152-0.561c-0.101-0.111-0.303-0.167-0.604-0.167h-4.697v10.438
		c0,0.345,0.046,0.572,0.137,0.683c0.092,0.112,0.299,0.168,0.621,0.168v0.363h-3.512v-0.363c0.322,0,0.529-0.056,0.622-0.168
		c0.091-0.11,0.136-0.338,0.136-0.683V89.844h-4.696c-0.302,0-0.505,0.056-0.605,0.167s-0.151,0.299-0.151,0.561h-0.363v-3.141
		h0.363c0,0.264,0.051,0.45,0.151,0.561c0.101,0.112,0.304,0.168,0.605,0.168h11.39c0.302,0,0.504-0.056,0.604-0.168
		c0.102-0.11,0.152-0.297,0.152-0.561h0.362v3.141H240.353z"/>
	<path d="M166.201,127.443c0.1,0.132,0.291,0.195,0.574,0.195v0.366h-3.992v-0.366c0.283,0,0.475-0.063,0.576-0.195
		s0.15-0.309,0.15-0.531v-13.756c0-0.222-0.049-0.397-0.15-0.529s-0.293-0.198-0.576-0.198v-0.362h10.134
		c1.996,0,3.427,0.379,4.294,1.136c0.866,0.759,1.301,1.854,1.301,3.29c0,1.273-0.332,2.285-0.998,3.032s-1.754,1.222-3.266,1.427
		l3.816,5.901c0.222,0.324,0.398,0.535,0.529,0.635c0.133,0.104,0.35,0.152,0.652,0.152v0.365h-4.363v-0.366
		c0.264,0,0.43-0.021,0.501-0.059c0.07-0.041,0.105-0.11,0.105-0.214c0-0.12-0.051-0.231-0.151-0.333l-3.723-5.937h-5.566v5.815
		C166.049,127.134,166.1,127.311,166.201,127.443z M172.676,119.036c1.231,0,2.098-0.232,2.604-0.697
		c0.504-0.464,0.757-1.101,0.757-1.91c0-0.403-0.051-0.748-0.151-1.03c-0.102-0.282-0.283-0.519-0.546-0.713
		c-0.261-0.189-0.62-0.331-1.073-0.423c-0.454-0.091-1.033-0.137-1.74-0.137h-6.477v4.91H172.676z"/>
	<path d="M182.348,115.197c-0.092-0.111-0.278-0.166-0.561-0.166v-0.365h12.207c0.302,0,0.504-0.055,0.605-0.165
		c0.1-0.112,0.15-0.299,0.15-0.563h0.364v3.161h-0.364c0-0.262-0.051-0.449-0.15-0.561c-0.102-0.111-0.304-0.165-0.605-0.165h-9.512
		v3.931h6.693c0.303,0,0.505-0.056,0.605-0.167c0.102-0.111,0.152-0.296,0.152-0.559h0.362v3.159h-0.362
		c0-0.262-0.051-0.45-0.152-0.561c-0.101-0.11-0.303-0.166-0.605-0.166h-6.693v4.286h9.844c0.304,0,0.505-0.057,0.606-0.166
		c0.101-0.112,0.151-0.298,0.151-0.562h0.363v3.078h-0.363c0-0.268-0.051-0.439-0.151-0.523c-0.102-0.081-0.303-0.12-0.606-0.12
		h-12.539v-0.366c0.282,0,0.469-0.054,0.561-0.165c0.09-0.112,0.137-0.339,0.137-0.683v-10.911
		C182.484,115.535,182.438,115.308,182.348,115.197z"/>
	<path d="M198.115,124.272c-0.041,0.203-0.061,0.333-0.061,0.395c0,0.161,0.156,0.349,0.469,0.561
		c0.314,0.212,0.728,0.409,1.242,0.59c0.516,0.181,1.109,0.338,1.787,0.469c0.678,0.133,1.379,0.197,2.106,0.197
		c1.392,0,2.479-0.186,3.255-0.559c0.779-0.374,1.168-0.902,1.168-1.589c0-0.645-0.27-1.099-0.805-1.362
		c-0.537-0.262-1.21-0.448-2.02-0.559c-0.811-0.113-1.687-0.192-2.628-0.243c-0.942-0.051-1.817-0.176-2.626-0.377
		c-0.811-0.202-1.484-0.535-2.02-0.999c-0.537-0.465-0.805-1.16-0.805-2.089c0-0.768,0.156-1.418,0.47-1.951
		c0.314-0.535,0.735-0.97,1.261-1.302c0.527-0.332,1.141-0.574,1.839-0.727c0.697-0.151,1.423-0.225,2.172-0.225
		c0.789,0,1.489,0.053,2.096,0.165c0.606,0.111,1.129,0.238,1.563,0.38c0.436,0.143,0.785,0.271,1.049,0.382
		c0.264,0.112,0.456,0.167,0.578,0.167c0.1,0,0.182-0.024,0.241-0.076c0.062-0.05,0.142-0.166,0.243-0.35l0.394,0.152l-1.128,2.973
		l-0.365-0.151c0.02-0.039,0.035-0.084,0.045-0.136c0.011-0.05,0.016-0.126,0.016-0.228c0-0.161-0.137-0.333-0.41-0.516
		c-0.273-0.181-0.637-0.353-1.094-0.513c-0.456-0.163-0.974-0.293-1.551-0.395c-0.577-0.1-1.17-0.152-1.777-0.152
		c-0.791,0-1.43,0.063-1.914,0.196c-0.487,0.131-0.867,0.303-1.141,0.514c-0.273,0.213-0.46,0.456-0.563,0.726
		c-0.1,0.273-0.15,0.55-0.15,0.832c0,0.584,0.267,1.003,0.804,1.255c0.536,0.253,1.21,0.428,2.02,0.528
		c0.81,0.103,1.685,0.177,2.627,0.229c0.941,0.049,1.816,0.176,2.626,0.378c0.811,0.201,1.484,0.528,2.02,0.981
		c0.537,0.452,0.806,1.133,0.806,2.039c0,1.452-0.519,2.515-1.558,3.191c-1.039,0.673-2.719,1.013-5.04,1.013
		c-0.789,0-1.505-0.058-2.151-0.168s-1.217-0.241-1.711-0.394c-0.496-0.15-0.915-0.293-1.258-0.424
		c-0.343-0.128-0.596-0.196-0.758-0.196c-0.161,0-0.282,0.053-0.363,0.153c-0.08,0.101-0.143,0.2-0.182,0.301l-0.363-0.121
		l1.182-3.057L198.115,124.272z"/>
	<path d="M212.611,115.197c-0.091-0.111-0.277-0.166-0.561-0.166v-0.365h12.206c0.302,0,0.505-0.055,0.604-0.165
		c0.103-0.112,0.153-0.299,0.153-0.563h0.362v3.161h-0.362c0-0.262-0.051-0.449-0.153-0.561c-0.1-0.111-0.303-0.165-0.604-0.165
		h-9.511v3.931h6.693c0.303,0,0.505-0.056,0.607-0.167c0.1-0.111,0.149-0.296,0.149-0.559h0.364v3.159h-0.364
		c0-0.262-0.05-0.45-0.149-0.561c-0.103-0.11-0.305-0.166-0.607-0.166h-6.693v4.286h9.844c0.304,0,0.506-0.057,0.606-0.166
		c0.101-0.112,0.152-0.298,0.152-0.562h0.362v3.078h-0.362c0-0.268-0.052-0.439-0.152-0.523c-0.101-0.081-0.303-0.12-0.606-0.12
		h-12.539v-0.366c0.283,0,0.47-0.054,0.561-0.165c0.091-0.112,0.137-0.339,0.137-0.683v-10.911
		C212.748,115.535,212.702,115.308,212.611,115.197z"/>
	<path d="M225.75,127.638c0.324,0,0.54-0.068,0.652-0.211c0.11-0.141,0.217-0.325,0.318-0.547l4.785-10.973
		c0.102-0.242,0.152-0.411,0.152-0.516c0-0.1-0.056-0.19-0.167-0.271c-0.111-0.081-0.308-0.132-0.591-0.151v-0.305h4.908v0.365
		c-0.162,0-0.317,0.023-0.471,0.076c-0.15,0.049-0.227,0.146-0.227,0.285c0,0.104,0.025,0.204,0.076,0.304
		c0.05,0.102,0.096,0.204,0.137,0.304l5.178,11.033c0.063,0.143,0.154,0.278,0.274,0.409c0.122,0.133,0.343,0.196,0.666,0.196v0.366
		h-3.817v-0.365c0.365,0,0.606-0.03,0.729-0.089c0.12-0.063,0.182-0.153,0.182-0.272c0-0.142-0.021-0.264-0.062-0.364
		s-0.081-0.201-0.12-0.304l-1.242-2.539h-7.362l-1.029,2.298c-0.081,0.183-0.167,0.354-0.258,0.514
		c-0.091,0.162-0.136,0.295-0.136,0.396c0,0.119,0.061,0.209,0.182,0.272c0.121,0.059,0.333,0.089,0.636,0.089v0.365h-3.394V127.638
		z M230.447,122.364h5.906l-3.06-6.361L230.447,122.364z"/>
	<path d="M245.082,127.473c0.091,0.112,0.299,0.166,0.621,0.166v0.365h-3.387v-0.366c0.322,0,0.529-0.054,0.62-0.165
		c0.091-0.112,0.137-0.339,0.137-0.683v-10.911c0-0.345-0.046-0.571-0.137-0.683s-0.298-0.166-0.62-0.166v-0.365h9.275
		c1.334,0,2.304,0.336,2.91,1.001c0.606,0.671,0.91,1.58,0.91,2.731c0,1.175-0.32,2.06-0.956,2.656
		c-0.636,0.598-1.541,0.917-2.713,0.957l3.331,5.083c0.143,0.223,0.264,0.371,0.365,0.439c0.101,0.07,0.232,0.105,0.393,0.105v0.365
		h-3.271v-0.365c0.223,0,0.358-0.017,0.409-0.045c0.05-0.029,0.075-0.097,0.075-0.198c0-0.101-0.029-0.2-0.091-0.302
		c-0.06-0.101-0.14-0.241-0.242-0.423l-2.972-4.66h-4.794v4.781C244.946,127.136,244.99,127.361,245.082,127.473z M251.41,120.304
		c0.729,0,1.245-0.161,1.547-0.484c0.305-0.321,0.457-0.817,0.457-1.483c0-0.726-0.156-1.257-0.469-1.588
		c-0.315-0.336-0.928-0.499-1.839-0.499h-6.16v4.055H251.41z"/>
	<path d="M268.795,118.447c0.04-0.118,0.06-0.2,0.06-0.241v-0.273c0-0.119-0.131-0.277-0.394-0.468
		c-0.263-0.193-0.61-0.385-1.045-0.577c-0.435-0.191-0.918-0.354-1.453-0.485c-0.536-0.133-1.076-0.196-1.621-0.196
		c-0.869,0-1.646,0.137-2.333,0.41c-0.687,0.271-1.271,0.643-1.757,1.117s-0.854,1.022-1.105,1.646
		c-0.253,0.626-0.379,1.292-0.379,1.998c0,0.705,0.126,1.36,0.379,1.965c0.252,0.605,0.615,1.124,1.09,1.559
		c0.475,0.433,1.035,0.774,1.682,1.026s1.363,0.38,2.15,0.38s1.49-0.082,2.105-0.243c0.616-0.163,1.137-0.357,1.56-0.592
		c0.425-0.232,0.749-0.465,0.971-0.698c0.222-0.229,0.333-0.407,0.333-0.53c0-0.221-0.04-0.421-0.121-0.604l0.303-0.181l2.119,2.786
		l-0.332,0.24c-0.162-0.12-0.283-0.195-0.363-0.225c-0.08-0.032-0.151-0.045-0.213-0.045c-0.182,0-0.43,0.101-0.741,0.301
		c-0.313,0.202-0.723,0.423-1.228,0.666c-0.504,0.241-1.105,0.451-1.803,0.634c-0.695,0.181-1.528,0.272-2.498,0.272
		c-1.031,0-1.994-0.138-2.894-0.409c-0.899-0.273-1.681-0.697-2.347-1.272c-0.667-0.573-1.191-1.286-1.575-2.132
		c-0.383-0.848-0.575-1.815-0.575-2.906c0-1.09,0.197-2.058,0.59-2.903c0.394-0.848,0.934-1.564,1.621-2.149
		c0.686-0.584,1.483-1.035,2.393-1.346c0.908-0.314,1.877-0.467,2.908-0.467c0.869,0,1.584,0.048,2.15,0.147
		c0.565,0.105,1.151,0.267,1.757,0.488c0.403,0.142,0.737,0.274,0.999,0.397c0.264,0.121,0.465,0.184,0.606,0.184
		c0.161,0,0.323-0.112,0.484-0.336l0.364,0.123l-1.484,3.123L268.795,118.447z"/>
	<path d="M286.435,127.473c0.092,0.111,0.298,0.165,0.622,0.165v0.366h-3.389v-0.366c0.324,0,0.531-0.054,0.623-0.165
		c0.09-0.112,0.135-0.339,0.135-0.683v-5.031h-9.154v5.031c0,0.344,0.045,0.57,0.136,0.683c0.092,0.111,0.298,0.165,0.622,0.165
		v0.366h-3.389v-0.366c0.325,0,0.532-0.054,0.623-0.165c0.09-0.112,0.135-0.339,0.135-0.683v-10.911
		c0-0.345-0.045-0.571-0.135-0.683c-0.091-0.111-0.298-0.166-0.623-0.166v-0.365h3.389v0.364c-0.324,0-0.53,0.056-0.622,0.165
		c-0.091,0.113-0.136,0.339-0.136,0.683v4.178h9.154v-4.178c0-0.344-0.045-0.569-0.135-0.683c-0.092-0.109-0.299-0.165-0.623-0.165
		v-0.364h3.389v0.365c-0.324,0-0.53,0.055-0.622,0.166c-0.091,0.111-0.136,0.338-0.136,0.683v10.911
		C286.299,127.134,286.344,127.361,286.435,127.473z"/>
	<path d="M178.831,152.343c-0.122-0.141-0.272-0.211-0.454-0.211c-0.102,0-0.309,0.13-0.621,0.393
		c-0.313,0.264-0.758,0.554-1.333,0.865c-0.575,0.315-1.308,0.596-2.196,0.84c-0.889,0.24-1.969,0.362-3.242,0.362
		c-1.413,0-2.705-0.202-3.876-0.604c-1.172-0.404-2.177-0.983-3.013-1.741c-0.838-0.759-1.486-1.658-1.949-2.699
		c-0.463-1.038-0.695-2.175-0.695-3.407c0-1.029,0.217-2.008,0.649-2.939c0.433-0.926,1.058-1.751,1.874-2.469
		c0.816-0.716,1.806-1.288,2.967-1.71c1.162-0.425,2.469-0.636,3.922-0.636c1.012,0,1.91,0.084,2.697,0.257
		c0.787,0.172,1.473,0.359,2.061,0.56c0.586,0.204,1.064,0.389,1.438,0.561c0.374,0.171,0.633,0.258,0.772,0.258
		c0.163,0,0.263-0.024,0.304-0.075c0.039-0.05,0.09-0.116,0.151-0.198l0.363,0.243l-1.878,3.24l-0.395-0.183
		c0.102-0.1,0.152-0.23,0.152-0.393c0-0.16-0.152-0.367-0.455-0.621c-0.303-0.251-0.717-0.494-1.24-0.729
		c-0.527-0.23-1.143-0.433-1.85-0.604c-0.707-0.17-1.463-0.256-2.271-0.256s-1.62,0.114-2.438,0.348
		c-0.819,0.231-1.546,0.592-2.182,1.075c-0.637,0.483-1.157,1.104-1.562,1.862c-0.403,0.756-0.604,1.659-0.604,2.708
		c0,0.909,0.206,1.742,0.621,2.498c0.413,0.758,0.963,1.41,1.65,1.954s1.469,0.97,2.347,1.27c0.879,0.306,1.784,0.455,2.712,0.455
		c0.727,0,1.418-0.104,2.076-0.318c0.655-0.211,1.236-0.47,1.74-0.772c0.506-0.303,0.91-0.61,1.212-0.923
		c0.303-0.314,0.456-0.57,0.456-0.772c0-0.183-0.051-0.322-0.153-0.425l0.395-0.242l2.242,2.909L178.831,152.343z"/>
	<path d="M182.348,141.704c-0.092-0.11-0.278-0.165-0.561-0.165v-0.365h12.207c0.302,0,0.504-0.055,0.605-0.167
		c0.1-0.111,0.15-0.299,0.15-0.561h0.364v3.16h-0.364c0-0.263-0.051-0.448-0.15-0.562c-0.102-0.111-0.304-0.164-0.605-0.164h-9.512
		v3.931h6.693c0.303,0,0.505-0.056,0.605-0.166c0.102-0.112,0.152-0.298,0.152-0.562h0.362v3.16h-0.362
		c0-0.262-0.051-0.448-0.152-0.56c-0.101-0.111-0.303-0.167-0.605-0.167h-6.693v4.286h9.844c0.304,0,0.505-0.055,0.606-0.165
		c0.101-0.113,0.151-0.299,0.151-0.562h0.363v3.077h-0.363c0-0.267-0.051-0.439-0.151-0.521c-0.102-0.082-0.303-0.124-0.606-0.124
		h-12.539v-0.363c0.282,0,0.469-0.053,0.561-0.166c0.09-0.11,0.137-0.339,0.137-0.682v-10.912
		C182.484,142.042,182.438,141.813,182.348,141.704z"/>
	<path d="M197.691,154.145c0.324,0,0.541-0.053,0.652-0.166c0.111-0.11,0.166-0.339,0.166-0.682v-10.912
		c0-0.343-0.055-0.572-0.166-0.682c-0.111-0.11-0.328-0.165-0.652-0.165v-0.365h4.427v0.365c-0.323,0-0.54,0.022-0.651,0.073
		c-0.11,0.053-0.166,0.117-0.166,0.196c0,0.063,0.11,0.234,0.333,0.517l8.216,9.428v-9.367c0-0.343-0.057-0.572-0.166-0.682
		c-0.111-0.11-0.328-0.165-0.65-0.165v-0.365h3.342v0.365c-0.324,0-0.541,0.055-0.653,0.165c-0.11,0.109-0.165,0.339-0.165,0.682
		v10.912c0,0.343,0.055,0.571,0.165,0.682c0.112,0.113,0.329,0.166,0.653,0.166v0.363h-4.063v-0.363
		c0.405,0,0.647-0.018,0.729-0.059c0.08-0.041,0.12-0.113,0.12-0.213c0-0.103-0.034-0.187-0.105-0.257
		c-0.07-0.072-0.156-0.168-0.259-0.288l-8.579-9.79v9.758c0,0.344,0.056,0.572,0.166,0.683c0.112,0.113,0.328,0.166,0.652,0.166
		v0.363h-3.344V154.145z"/>
	<path d="M226.598,143.584c0-0.262-0.052-0.446-0.151-0.56c-0.101-0.109-0.304-0.167-0.605-0.167h-4.696v10.438
		c0,0.344,0.045,0.572,0.137,0.684c0.091,0.112,0.298,0.166,0.621,0.166v0.363h-3.513v-0.363c0.323,0,0.53-0.054,0.621-0.166
		c0.091-0.111,0.137-0.34,0.137-0.684v-10.438h-4.695c-0.304,0-0.505,0.058-0.606,0.167c-0.1,0.113-0.15,0.298-0.15,0.56h-0.363
		v-3.139h0.363c0,0.262,0.051,0.449,0.15,0.561c0.102,0.112,0.303,0.167,0.606,0.167h11.389c0.302,0,0.505-0.055,0.605-0.167
		c0.1-0.111,0.151-0.299,0.151-0.561h0.363v3.139H226.598z"/>
	<path d="M230.783,153.981c0.091,0.111,0.298,0.165,0.621,0.165v0.362h-3.387v-0.363c0.322,0,0.529-0.053,0.619-0.166
		c0.092-0.11,0.137-0.339,0.137-0.682v-10.912c0-0.343-0.045-0.572-0.137-0.682c-0.09-0.11-0.297-0.165-0.619-0.165v-0.365h9.275
		c1.332,0,2.303,0.334,2.909,1c0.606,0.669,0.91,1.581,0.91,2.734c0,1.171-0.319,2.057-0.956,2.654
		c-0.637,0.596-1.54,0.916-2.713,0.955l3.333,5.085c0.141,0.222,0.263,0.367,0.362,0.438c0.102,0.072,0.232,0.106,0.395,0.106v0.362
		h-3.272v-0.362c0.224,0,0.36-0.013,0.41-0.044c0.05-0.03,0.075-0.097,0.075-0.199c0-0.099-0.031-0.2-0.091-0.301
		c-0.062-0.1-0.142-0.241-0.242-0.425l-2.972-4.66h-4.795v4.781C230.646,153.641,230.691,153.87,230.783,153.981z M237.111,146.811
		c0.729,0,1.244-0.16,1.549-0.483c0.303-0.323,0.455-0.817,0.455-1.483c0-0.728-0.158-1.258-0.472-1.591
		c-0.313-0.332-0.926-0.5-1.835-0.5h-6.162v4.058H237.111z"/>
	<path d="M244.539,141.704c-0.09-0.11-0.277-0.165-0.56-0.165v-0.365h12.207c0.302,0,0.503-0.055,0.605-0.167
		c0.1-0.111,0.15-0.299,0.15-0.561h0.364v3.16h-0.364c0-0.263-0.051-0.448-0.15-0.562c-0.103-0.111-0.304-0.164-0.605-0.164h-9.513
		v3.931h6.693c0.303,0,0.506-0.056,0.605-0.166c0.103-0.112,0.153-0.298,0.153-0.562h0.362v3.16h-0.362
		c0-0.262-0.051-0.448-0.153-0.56c-0.1-0.111-0.303-0.167-0.605-0.167h-6.693v4.286h9.844c0.304,0,0.505-0.055,0.607-0.165
		c0.1-0.113,0.151-0.299,0.151-0.562h0.362v3.077h-0.362c0-0.267-0.052-0.439-0.151-0.521c-0.103-0.082-0.304-0.124-0.607-0.124
		h-12.538v-0.363c0.282,0,0.47-0.053,0.56-0.166c0.092-0.11,0.137-0.339,0.137-0.682v-10.912
		C244.676,142.042,244.631,141.813,244.539,141.704z"/>
</g>
</svg>
