<?xml version="1.0" encoding="utf-8"?>
<!-- Generator: Adobe Illustrator 15.0.2, SVG Export Plug-In  -->
<!DOCTYPE svg PUBLIC "-//W3C//DTD SVG 1.1//EN" "http://www.w3.org/Graphics/SVG/1.1/DTD/svg11.dtd" [
	<!ENTITY ns_flows "http://ns.adobe.com/Flows/1.0/">
]>
<svg version="1.1"
	 xmlns="http://www.w3.org/2000/svg" xmlns:xlink="http://www.w3.org/1999/xlink" xmlns:a="http://ns.adobe.com/AdobeSVGViewerExtensions/3.0/"
	 x="0px" y="0px" width="304px" height="73px" viewBox="0 0 304 73" overflow="visible" enable-background="new 0 0 304 73"
	 xml:space="preserve">
<defs>
</defs>
<path fill="#FFFFFF" d="M15.6,12.9l0.3,0.3l0.4,0.3l0.5,0.4l0.6,0.4l0.4,0.3l0.3,0.2c3-1.2,6.5-1.8,10.2-1.8c3.7,0,7.2,0.7,10.2,1.8
	l0,0l0.3-0.2l0.5-0.3l0.5-0.4l0.5-0.4l0.5-0.3l0.2-0.1l0.2-0.1l0.1-0.1l-0.3,0l-0.4-0.1L40,12.8l-0.5-0.1l-0.4-0.1l-0.3-0.1h-0.1
	L39.8,9l-3.4,1l-0.1-2.7l-4.5,4.4l1.6-8.5l-3.5,1.6L28.4,0l-1.6,4.5L23.2,3l1.8,8.5l-4.4-4.2V10L17,8.8l0.9,3.7l-2.4,0.3L15.6,12.9z
	"/>
<path fill="#FFFFFF" d="M23.7,27.9l1.3,1.2c0,0,0.7-1.2,3-1.7c2.3-0.5,7.5-0.1,12.4,7c1.3,2.1,2.5,5.3,2.7,8.1
	c0.4,4.6-0.7,8.6-0.7,8.6s-1.6,7-3.9,7.6c0.1,0.3,0.7,1.7,0.7,1.7s2.7-0.5,4.3-6.6c1.5-5.6,1.8-7.1,1.3-12.4
	c-0.4-5.3-4.1-10.6-7.5-12.9C33.9,26.1,28.7,23.4,23.7,27.9z"/>
<path fill="#FFFFFF" d="M24.8,40c0,0-1.3-3.7-1.4-5.3c2-2.2,4.4-4,7.5-3.6c0,0,0.6,0,1.3,0.3c2,0.8,5.5,2.8,3.4,5.7
	c0,0,2.4,0.8,3.7,4.5c0.5,1.3,0.5,2.9,0.6,5.1c0,1.4-0.6,4.9-0.6,4.9l-1.8-0.3c0,0,0.7-2.7,0.7-5.5c-0.1-2.7-0.6-5.8-3-7
	c-1-0.6-2.1-0.6-3.2-0.5c-2.5,0.3-4.7,1.9-5,2.3c0,0,0.9,2.2,2.6,5c1.8,2.8,4.4,6.3,7.3,8.8l-1.2,1.3c0,0-7.2-6.6-10.2-14
	c-3,1.2-4.6,4.9-4.5,5.2c0.1,0.2,1.1,2.6,3.2,4.7c2.1,2.1,5.3,3.7,7.5,4.3c-0.3,0.8-0.6,1.7-0.6,1.7s-7.5-1.7-11.6-9.5
	c-2.3-5.2-1.4-10-1.4-10l1.7,0.3c0,0-0.5,3.7,0.3,6.1C21.9,41.2,24.5,40.1,24.8,40z M25.3,35.2c0,0,0.7,3,1,3.5
	c2.1-1.6,4.8-2.2,6.5-2.4c1.7-0.2,1.5-0.3,1.7-0.7c0.2-0.4,0-0.8-0.6-1.4c-0.6-0.6-2-1.5-3.2-1.6c-1.2-0.1-2.4,0.2-3.5,0.9
	C26.1,34.4,25.3,35.2,25.3,35.2z"/>
<path fill="#FFFFFF" d="M12.4,39.3c-0.3,3.7,1.1,8.1,1.1,8.1c2.4,6.2,7.5,10.3,13.7,13.2c6.1,2.9,8.5,1.2,8.5,1.2s-0.2-0.3-0.8-1.6
	c0,0,0,0,0,0c-0.4,0.2-1.1,0.4-1.9,0.3c-1.8-0.2-3.7-1-5.2-1.6c-7.5-3-11.2-9.5-11.2-9.5c-4.1-7.2-1.7-13.2-1.4-13.9
	c0.2-0.6,1.5-4.6,5.7-4.7v-1.8c0,0-2.1-0.1-4,1.4c-1.9,1.5-2.7,3-2.7,3S12.8,35.1,12.4,39.3z"/>
<path fill="#FFFFFF" d="M55.6,47.7c0,0,0.5-1,1.1-0.6c0.7,0.4,0.5,1.1,0,1.6l-1.4,1.5l-1.1-2c0,0-0.5-0.9,0.4-1.4
	C54.6,46.8,55.4,46.5,55.6,47.7"/>
<path fill="#FFFFFF" d="M1.6,47.7c0,0,0.1-1.1,1.1-0.8c0,0,0.8,0.3,0.1,1.6l-0.9,1.7h0l-1.7-1.9c0,0-0.5-0.7,0.2-1.2
	C0.4,47.1,1.1,46.7,1.6,47.7z"/>
<path fill="#FFFFFF" d="M0.7,53.3c-0.1-0.2-0.1-0.3-0.1-0.5c0-0.2,0-0.3,0.1-0.5C0.8,52.2,0.9,52,1,51.9c0.1-0.1,0.3-0.2,0.6-0.3
	c0.2-0.1,0.4-0.1,0.6-0.1c0.2,0,0.4,0,0.5,0.1c0.2,0.1,0.3,0.1,0.4,0.3c0.1,0.1,0.2,0.3,0.3,0.5c0,0.1,0.1,0.2,0.1,0.3
	c0,0.1,0,0.2,0,0.2c0,0.1,0,0.1,0,0.2c0,0.1,0,0.1,0,0.2l-0.4,0.2l0,0c0,0,0-0.1,0.1-0.2c0-0.1,0-0.1,0.1-0.2c0-0.1,0-0.2,0-0.3
	c0-0.1,0-0.2-0.1-0.3c0-0.1-0.1-0.2-0.2-0.3C2.8,52,2.7,52,2.6,51.9s-0.3-0.1-0.4,0c-0.2,0-0.3,0-0.5,0.1c-0.2,0.1-0.3,0.2-0.4,0.2
	c-0.1,0.1-0.2,0.2-0.3,0.3c-0.1,0.1-0.1,0.2-0.1,0.3c0,0.1,0,0.2,0.1,0.3c0,0.1,0.1,0.2,0.1,0.3c0.1,0.1,0.1,0.1,0.2,0.2
	c0.1,0.1,0.1,0.1,0.2,0.1s0.1,0.1,0.1,0.1l0,0l-0.4,0.2c0,0-0.1-0.1-0.1-0.1c0,0-0.1-0.1-0.1-0.2c-0.1-0.1-0.1-0.1-0.1-0.2
	C0.7,53.5,0.7,53.4,0.7,53.3z"/>
<path fill="#FFFFFF" d="M1.1,54.4l3-0.3l0.2,0.4l-2.2,2.1L2,56.2l0.6-0.6l-0.5-1l-0.8,0.1L1.1,54.4z M2.8,55.4l1-1l-1.4,0.2
	L2.8,55.4z"/>
<path fill="#FFFFFF" d="M3.4,58.9l-0.2-0.4l1.5-2.3l-2.1,1.2l-0.2-0.3l2.5-1.4l0.3,0.5l-1.4,2.1l2-1.1l0.2,0.3L3.4,58.9z"/>
<path fill="#FFFFFF" d="M3.7,59.3l2.9-0.8l0.3,0.4L5,61.3L4.8,61l0.5-0.7l-0.6-0.9l-0.8,0.2L3.7,59.3z M5.5,60.1l0.9-1.1l-1.4,0.4
	L5.5,60.1z"/>
<path fill="#FFFFFF" d="M7.9,62.6c-0.2,0.2-0.4,0.3-0.6,0.3s-0.4,0-0.6,0c-0.2-0.1-0.3-0.1-0.4-0.2c-0.1-0.1-0.2-0.2-0.4-0.4
	l-0.4-0.5L7.6,60L8,60.5c0.2,0.2,0.3,0.4,0.3,0.5c0.1,0.1,0.1,0.3,0.1,0.4c0,0.2,0,0.4-0.1,0.6C8.3,62.3,8.1,62.5,7.9,62.6z
	 M7.6,62.3C7.8,62.2,7.9,62,8,61.9c0.1-0.2,0.1-0.3,0.1-0.5c0-0.1,0-0.2-0.1-0.3c-0.1-0.1-0.1-0.2-0.2-0.4l-0.2-0.2l-1.7,1.4L6,62.1
	c0.1,0.1,0.2,0.2,0.3,0.3c0.1,0.1,0.2,0.1,0.3,0.2c0.2,0,0.3,0,0.5,0C7.3,62.5,7.5,62.5,7.6,62.3z"/>
<path fill="#FFFFFF" d="M7.9,64.7l-0.8-0.8l0.2-0.2L7.6,64l1.7-1.5L9,62.2L9.3,62l0.8,0.8L9.8,63l-0.2-0.3l-1.7,1.5l0.2,0.3
	L7.9,64.7z"/>
<path fill="#FFFFFF" d="M8.2,65.1l2.6-1.4l0.3,0.3L10,66.7l-0.3-0.3l0.4-0.8l-0.8-0.7l-0.7,0.4L8.2,65.1z M10.2,65.4l0.6-1.3
	l-1.2,0.7L10.2,65.4z"/>
<path fill="#FFFFFF" d="M12,68.3L11.7,68l0.5-2.7l-1.5,2l-0.3-0.2l1.7-2.3l0.4,0.3l-0.4,2.5l1.4-1.8l0.3,0.2L12,68.3z"/>
<path fill="#FFFFFF" d="M15.9,70.5l-0.3-0.2l0.6-1.2L15,68.5l-0.6,1.2L14,69.6l1.3-2.5l0.3,0.2l-0.5,1l1.2,0.6l0.5-1l0.3,0.2
	L15.9,70.5z"/>
<path fill="#FFFFFF" d="M16.7,70.9l1.1-2.6l1.6,0.7l-0.1,0.3l-1.3-0.5l-0.3,0.7l1.2,0.5l-0.1,0.3l-1.2-0.5l-0.4,1l1.3,0.5l-0.1,0.3
	L16.7,70.9z"/>
<path fill="#FFFFFF" d="M18.7,71.7l1.7-2.5l0.4,0.1l0.1,3l-0.4-0.1l0-0.8l-1-0.3L19,71.8L18.7,71.7z M20.5,71l0-1.4l-0.8,1.2
	L20.5,71z"/>
<path fill="#FFFFFF" d="M23.7,72.9l-0.5-0.1l-0.7-1.3l-0.4-0.1l-0.2,1.1l-0.4-0.1l0.5-2.8l0.7,0.1c0.2,0,0.3,0.1,0.4,0.1
	c0.1,0,0.2,0.1,0.3,0.2c0.1,0.1,0.1,0.2,0.2,0.3s0,0.2,0,0.4c0,0.2-0.1,0.4-0.3,0.5c-0.1,0.1-0.3,0.2-0.5,0.2L23.7,72.9z M23.3,70.7
	c0-0.1,0-0.2,0-0.2c0-0.1-0.1-0.1-0.1-0.2c0,0-0.1-0.1-0.2-0.1c-0.1,0-0.2-0.1-0.3-0.1L22.4,70l-0.2,1l0.3,0.1c0.1,0,0.2,0,0.3,0
	c0.1,0,0.2,0,0.2-0.1c0.1,0,0.1-0.1,0.2-0.2C23.2,70.9,23.2,70.8,23.3,70.7z"/>
<path fill="#FFFFFF" d="M24.7,73l0.3-2.5L24,70.4l0-0.3l2.3,0.2l0,0.3l-0.9-0.1L25.1,73L24.7,73z"/>
<path fill="#FFFFFF" d="M30.3,73.1l-0.5,0L28.9,72l-0.4,0l0,1.1l-0.4,0l0-2.8l0.7,0c0.2,0,0.3,0,0.4,0s0.2,0.1,0.3,0.1
	c0.1,0.1,0.2,0.1,0.2,0.2c0.1,0.1,0.1,0.2,0.1,0.4c0,0.2,0,0.4-0.2,0.5s-0.2,0.2-0.4,0.3L30.3,73.1z M29.5,71.1c0-0.1,0-0.2,0-0.2
	c0-0.1-0.1-0.1-0.1-0.2c-0.1,0-0.1-0.1-0.2-0.1c-0.1,0-0.2,0-0.3,0l-0.4,0l0,1.1l0.3,0c0.1,0,0.2,0,0.3,0s0.2-0.1,0.2-0.1
	c0.1-0.1,0.1-0.1,0.1-0.2C29.5,71.3,29.5,71.2,29.5,71.1z"/>
<path fill="#FFFFFF" d="M30.9,73.1l-0.3-2.8l1.8-0.2l0,0.3L31,70.6l0.1,0.8l1.3-0.1l0,0.3l-1.3,0.1l0.1,1.1l1.4-0.1l0,0.3L30.9,73.1
	z"/>
<path fill="#FFFFFF" d="M34.1,72.8c-0.2,0-0.4,0-0.5,0c-0.1,0-0.3,0-0.4-0.1l-0.1-0.5l0,0c0.1,0.1,0.3,0.2,0.5,0.2
	c0.2,0,0.3,0,0.5,0c0.2,0,0.4-0.1,0.4-0.2c0.1-0.1,0.1-0.2,0.1-0.4c0-0.1-0.1-0.2-0.1-0.3c-0.1-0.1-0.2-0.1-0.3-0.1
	c-0.1,0-0.2,0-0.2,0c-0.1,0-0.2,0-0.3,0c-0.1,0-0.2,0-0.3,0c-0.1,0-0.2-0.1-0.2-0.1c-0.1-0.1-0.1-0.1-0.2-0.2c0-0.1-0.1-0.2-0.1-0.3
	c0-0.2,0-0.4,0.2-0.6c0.1-0.2,0.4-0.3,0.6-0.4c0.2,0,0.3,0,0.5,0c0.1,0,0.3,0,0.4,0.1l0.1,0.4l0,0c-0.1-0.1-0.2-0.1-0.4-0.1
	c-0.2,0-0.3,0-0.5,0c-0.2,0-0.3,0.1-0.4,0.2c-0.1,0.1-0.1,0.2-0.1,0.3c0,0.1,0.1,0.2,0.1,0.3c0.1,0.1,0.2,0.1,0.3,0.1
	c0.1,0,0.2,0,0.3,0c0.1,0,0.2,0,0.3,0c0.2,0,0.4,0.1,0.5,0.2c0.1,0.1,0.2,0.2,0.2,0.4c0,0.1,0,0.2,0,0.3c0,0.1-0.1,0.2-0.1,0.3
	c-0.1,0.1-0.2,0.2-0.3,0.2C34.4,72.7,34.3,72.7,34.1,72.8z"/>
<path fill="#FFFFFF" d="M35.8,72.4L35,69.6l1.7-0.5l0.1,0.3l-1.3,0.4l0.2,0.7l1.3-0.3l0.1,0.3l-1.3,0.3l0.3,1l1.3-0.4l0.1,0.3
	L35.8,72.4z"/>
<path fill="#FFFFFF" d="M37.9,71.8l-0.1-3l0.4-0.2l1.9,2.3l-0.4,0.1l-0.5-0.6l-1,0.4l0,0.8L37.9,71.8z M39,70.2l-0.9-1.1l0.1,1.4
	L39,70.2z"/>
<path fill="#FFFFFF" d="M42.6,69.7l-0.4,0.2l-1.3-0.6l-0.4,0.2l0.5,1l-0.3,0.2l-1.3-2.5l0.7-0.3c0.1-0.1,0.3-0.1,0.4-0.2
	c0.1,0,0.2,0,0.3,0c0.1,0,0.2,0.1,0.3,0.1c0.1,0.1,0.2,0.2,0.2,0.3c0.1,0.2,0.1,0.4,0.1,0.5c0,0.2-0.1,0.3-0.2,0.5L42.6,69.7z
	 M40.9,68.2c0-0.1-0.1-0.1-0.1-0.2c-0.1,0-0.1-0.1-0.2-0.1c-0.1,0-0.1,0-0.2,0s-0.2,0.1-0.2,0.1l-0.3,0.2l0.5,1l0.3-0.1
	c0.1,0,0.2-0.1,0.2-0.2c0.1-0.1,0.1-0.1,0.1-0.2c0-0.1,0-0.1,0-0.2C41,68.4,41,68.3,40.9,68.2z"/>
<path fill="#FFFFFF" d="M44,68.9c-0.2,0.1-0.3,0.2-0.5,0.2c-0.2,0-0.3,0-0.5,0c-0.2,0-0.3-0.1-0.5-0.3c-0.1-0.1-0.3-0.3-0.4-0.5
	c-0.1-0.2-0.2-0.4-0.3-0.6c0-0.2,0-0.4,0-0.5c0-0.2,0.1-0.3,0.2-0.5c0.1-0.1,0.2-0.3,0.4-0.4c0.1,0,0.2-0.1,0.2-0.1
	c0.1,0,0.2-0.1,0.2-0.1c0.1,0,0.1,0,0.2,0s0.1,0,0.2,0l0.2,0.4l0,0c0,0-0.1,0-0.2,0c-0.1,0-0.1,0-0.2,0c-0.1,0-0.2,0-0.3,0
	c-0.1,0-0.2,0.1-0.3,0.1c-0.1,0.1-0.2,0.1-0.3,0.2c-0.1,0.1-0.1,0.2-0.1,0.3c0,0.1,0,0.3,0,0.4c0,0.1,0.1,0.3,0.2,0.5
	c0.1,0.2,0.2,0.3,0.3,0.4c0.1,0.1,0.2,0.2,0.4,0.2c0.1,0,0.2,0,0.3,0c0.1,0,0.2-0.1,0.3-0.1c0.1-0.1,0.2-0.1,0.2-0.2
	c0.1-0.1,0.1-0.1,0.2-0.2c0-0.1,0.1-0.1,0.1-0.2c0-0.1,0-0.1,0-0.2l0,0l0.2,0.4c0,0.1-0.1,0.1-0.1,0.2c0,0.1-0.1,0.1-0.1,0.2
	c-0.1,0.1-0.1,0.1-0.2,0.2S44.1,68.8,44,68.9z"/>
<path fill="#FFFFFF" d="M46.8,66.7L46.5,67l-0.9-1.1l-1,0.8l0.9,1.1L45.2,68l-1.7-2.2l0.3-0.2l0.7,0.9l1-0.8l-0.7-0.9l0.3-0.2
	L46.8,66.7z"/>
<path fill="#FFFFFF" d="M49.4,64.3c-0.1,0.1-0.3,0.2-0.4,0.3c-0.2,0.1-0.3,0.1-0.5,0.1s-0.3,0-0.5-0.1c-0.2-0.1-0.4-0.2-0.5-0.4
	c-0.2-0.2-0.3-0.3-0.4-0.5c-0.1-0.2-0.1-0.3-0.2-0.5c0-0.2,0-0.3,0.1-0.5c0.1-0.2,0.2-0.3,0.3-0.4c0.1-0.1,0.1-0.1,0.2-0.2
	c0.1-0.1,0.1-0.1,0.2-0.1c0.1,0,0.1-0.1,0.2-0.1c0.1,0,0.1-0.1,0.2-0.1l0.3,0.3l0,0c0,0-0.1,0-0.2,0c-0.1,0-0.1,0-0.2,0.1
	c-0.1,0-0.2,0.1-0.2,0.1c-0.1,0-0.2,0.1-0.2,0.2c-0.1,0.1-0.1,0.2-0.2,0.3c0,0.1,0,0.2,0,0.4c0,0.1,0.1,0.3,0.1,0.4
	c0.1,0.1,0.2,0.3,0.3,0.4c0.1,0.1,0.3,0.2,0.4,0.3c0.1,0.1,0.3,0.1,0.4,0.1c0.1,0,0.2,0,0.3-0.1c0.1,0,0.2-0.1,0.3-0.2
	c0.1-0.1,0.1-0.2,0.2-0.2c0-0.1,0.1-0.2,0.1-0.2c0-0.1,0-0.2,0-0.2c0-0.1,0-0.1,0-0.2l0,0l0.3,0.3c0,0.1,0,0.1-0.1,0.2
	c0,0.1,0,0.1-0.1,0.2c0,0.1-0.1,0.1-0.1,0.2C49.5,64.2,49.4,64.3,49.4,64.3z"/>
<path fill="#FFFFFF" d="M50.3,63.2l-2.2-1.7l1.1-1.4l0.3,0.2l-0.9,1.1l0.6,0.5l0.8-1l0.3,0.2l-0.8,1l0.8,0.6l0.9-1.1l0.3,0.2
	L50.3,63.2z"/>
<path fill="#FFFFFF" d="M53,59.5l-0.2,0.4L50,59.6l2,1.3l-0.2,0.3l-2.4-1.5l0.3-0.4l2.5,0.3l-1.9-1.2l0.2-0.3L53,59.5z"/>
<path fill="#FFFFFF" d="M53.7,58.2L51.5,57l-0.5,0.8l-0.3-0.2l1.1-2l0.3,0.2l-0.5,0.8l2.2,1.2L53.7,58.2z"/>
<path fill="#FFFFFF" d="M55.5,54.5l-0.2,0.4l-1.4,0.4l-0.2,0.4l1,0.5l-0.2,0.3L52,55.3l0.3-0.7c0.1-0.1,0.1-0.3,0.2-0.4
	s0.1-0.2,0.2-0.2c0.1-0.1,0.2-0.1,0.3-0.1c0.1,0,0.2,0,0.4,0.1c0.2,0.1,0.3,0.2,0.4,0.4c0.1,0.2,0.1,0.3,0.1,0.5L55.5,54.5z
	 M53.3,54.4c-0.1,0-0.1-0.1-0.2-0.1c-0.1,0-0.1,0-0.2,0.1c-0.1,0-0.1,0.1-0.1,0.1s-0.1,0.1-0.1,0.2l-0.2,0.3l1,0.4l0.1-0.3
	c0-0.1,0.1-0.2,0.1-0.3c0-0.1,0-0.2,0-0.3c0-0.1-0.1-0.1-0.1-0.2C53.5,54.5,53.4,54.4,53.3,54.4z"/>
<path fill="#FFFFFF" d="M55.7,54L53,53l0.6-1.7l0.3,0.1l-0.5,1.3l0.7,0.3l0.5-1.2l0.3,0.1l-0.5,1.2l1,0.4l0.5-1.3l0.3,0.1L55.7,54z"
	/>
<path fill="#FFFFFF" d="M2.5,44.4c0,0.2,0,0.3-0.1,0.4s-0.1,0.3-0.2,0.4c-0.1,0.1-0.2,0.2-0.4,0.2c-0.2,0.1-0.3,0.1-0.5,0.1
	c-0.2,0-0.4,0-0.5-0.1c-0.2,0-0.3-0.1-0.4-0.2c-0.1-0.1-0.2-0.2-0.3-0.3C0,44.8,0,44.7,0,44.5c0-0.1,0-0.2,0-0.2c0-0.1,0-0.1,0-0.2
	c0-0.1,0-0.1,0.1-0.2c0-0.1,0-0.1,0.1-0.2l0.4,0l0,0c0,0-0.1,0.1-0.1,0.1c0,0-0.1,0.1-0.1,0.2c0,0.1-0.1,0.1-0.1,0.2
	c0,0.1,0,0.2,0,0.3c0,0.1,0,0.2,0.1,0.3c0,0.1,0.1,0.2,0.2,0.2c0.1,0.1,0.2,0.1,0.3,0.1c0.1,0,0.3,0,0.4,0c0.2,0,0.3,0,0.4-0.1
	c0.1,0,0.2-0.1,0.3-0.2c0.1-0.1,0.1-0.2,0.2-0.2c0-0.1,0.1-0.2,0-0.3c0-0.1,0-0.2,0-0.3c0-0.1-0.1-0.1-0.1-0.2
	c0-0.1-0.1-0.1-0.1-0.2c0,0-0.1-0.1-0.1-0.1l0,0l0.4,0c0,0.1,0.1,0.1,0.1,0.1c0,0,0,0.1,0.1,0.2c0,0.1,0,0.1,0.1,0.2
	C2.5,44.2,2.5,44.3,2.5,44.4z"/>
<path fill="#FFFFFF" d="M2.4,43.3L0,43.2l0-1.5l0.3,0l0,1.2l0.7,0l0-1.1l0.3,0l0,1.1l0.9,0l0-1.2l0.3,0L2.4,43.3z"/>
<path fill="#FFFFFF" d="M2.7,39.7l0,0.4l-2.2,0.9l2.1,0.2l0,0.3l-2.4-0.2l0-0.5l2-0.8l-1.9-0.2l0-0.3L2.7,39.7z"/>
<path fill="#FFFFFF" d="M2.9,38.6l-2.1-0.4L0.6,39L0.4,39L0.7,37L1,37.1l-0.2,0.8L3,38.3L2.9,38.6z"/>
<path fill="#FFFFFF" d="M3.7,35.4l-0.1,0.4l-1.1,0.5l-0.1,0.4l0.9,0.3l-0.1,0.3l-2.3-0.6L1,36c0-0.1,0.1-0.2,0.1-0.3
	s0.1-0.2,0.2-0.2c0.1-0.1,0.2-0.1,0.3-0.1c0.1,0,0.2,0,0.3,0c0.2,0,0.3,0.1,0.4,0.2c0.1,0.1,0.1,0.3,0.2,0.4L3.7,35.4z M1.8,35.6
	c-0.1,0-0.1,0-0.2,0c-0.1,0-0.1,0-0.2,0.1c0,0-0.1,0.1-0.1,0.1c0,0.1-0.1,0.1-0.1,0.2l-0.1,0.3l0.9,0.2l0.1-0.3c0-0.1,0-0.2,0-0.2
	s0-0.1,0-0.2c0-0.1-0.1-0.1-0.1-0.1C2,35.7,1.9,35.7,1.8,35.6z"/>
<path fill="#FFFFFF" d="M3.8,35.2l-2.3-0.8L2,33l0.3,0.1l-0.4,1.1l0.6,0.2l0.4-1l0.3,0.1l-0.4,1.1l0.8,0.3L4,33.7l0.3,0.1L3.8,35.2z
	"/>
<path fill="#FFFFFF" d="M5.8,30.7c-0.1,0.1-0.2,0.3-0.3,0.3c-0.1,0.1-0.2,0.2-0.4,0.2c-0.1,0-0.3,0-0.5,0c-0.2,0-0.3-0.1-0.5-0.2
	c-0.2-0.1-0.3-0.2-0.4-0.3c-0.1-0.1-0.2-0.2-0.2-0.4c0-0.1-0.1-0.3-0.1-0.4c0-0.1,0.1-0.3,0.1-0.4c0-0.1,0.1-0.1,0.1-0.2
	c0-0.1,0.1-0.1,0.1-0.2c0,0,0.1-0.1,0.1-0.1c0,0,0.1-0.1,0.1-0.1l0.3,0.2l0,0c0,0-0.1,0-0.1,0.1c-0.1,0-0.1,0.1-0.2,0.1
	c-0.1,0-0.1,0.1-0.2,0.1c-0.1,0.1-0.1,0.1-0.1,0.2c0,0.1-0.1,0.2-0.1,0.3s0,0.2,0,0.3c0,0.1,0.1,0.2,0.2,0.3
	c0.1,0.1,0.2,0.2,0.3,0.3c0.1,0.1,0.3,0.1,0.4,0.2c0.1,0,0.2,0,0.3,0c0.1,0,0.2-0.1,0.3-0.1c0.1-0.1,0.1-0.1,0.2-0.2
	c0-0.1,0.1-0.2,0.1-0.2c0-0.1,0-0.2,0-0.2c0-0.1,0-0.1,0-0.2c0-0.1,0-0.1,0-0.1l0,0L6,29.9C6,30,6,30,6,30.1c0,0.1,0,0.1,0,0.2
	c0,0.1,0,0.1,0,0.2C5.9,30.5,5.8,30.6,5.8,30.7z"/>
<path fill="#FFFFFF" d="M6.2,29.9l-1.6-2l0.2-0.3l2.5,0.6l-0.2,0.3l-0.7-0.2l-0.5,0.8l0.4,0.6L6.2,29.9z M6.1,28.3L5,27.9l0.8,0.9
	L6.1,28.3z"/>
<path fill="#FFFFFF" d="M8.5,26.7l-0.2,0.3L6,26.5l1.7,1.3L7.4,28l-1.9-1.5l0.3-0.4l2.1,0.4l-1.5-1.2l0.2-0.2L8.5,26.7z"/>
<path fill="#FFFFFF" d="M8.7,26.5l-1.2-2.2l0.3-0.3l2.3,1l-0.2,0.2l-0.6-0.3l-0.6,0.7l0.4,0.6L8.7,26.5z M8.9,24.8l-1.1-0.5l0.6,1.1
	L8.9,24.8z"/>
<path fill="#FFFFFF" d="M10.8,22.6c0.2,0.2,0.3,0.3,0.3,0.5c0.1,0.2,0.1,0.4,0,0.6c0,0.1-0.1,0.3-0.2,0.4c-0.1,0.1-0.2,0.2-0.3,0.4
	l-0.4,0.4L8.6,23L9,22.6c0.2-0.2,0.3-0.3,0.4-0.3c0.1-0.1,0.2-0.1,0.3-0.1c0.2,0,0.4,0,0.5,0.1C10.5,22.3,10.6,22.4,10.8,22.6z
	 M10.6,22.8c-0.1-0.1-0.3-0.2-0.4-0.3c-0.1-0.1-0.3-0.1-0.4,0c-0.1,0-0.2,0.1-0.3,0.1c-0.1,0-0.2,0.1-0.3,0.2L9,23l1.3,1.4l0.2-0.2
	c0.1-0.1,0.2-0.2,0.3-0.3c0.1-0.1,0.1-0.2,0.1-0.3c0-0.1,0-0.3,0-0.4S10.7,23,10.6,22.8z"/>
<path fill="#FFFFFF" d="M12.6,22.7l-0.7,0.6l-0.2-0.2l0.2-0.2l-1.2-1.5l-0.2,0.2l-0.2-0.2l0.7-0.6l0.2,0.2L11,21.2l1.2,1.5l0.2-0.2
	L12.6,22.7z"/>
<path fill="#FFFFFF" d="M12.9,22.5l-1.4-2l1.2-0.9l0.2,0.2l-1,0.7l0.4,0.5l0.9-0.6l0.2,0.2l-0.9,0.6l0.5,0.7l1-0.7l0.2,0.2
	L12.9,22.5z"/>
<path fill="#FFFFFF" d="M16,20.5l-0.3,0.2l-2-1.3l1.1,1.8l-0.3,0.2l-1.2-2.1l0.4-0.2l1.8,1.2l-1-1.7l0.3-0.2L16,20.5z"/>
<path fill="#FFFFFF" d="M19.7,17.5c0.1,0.2,0.1,0.4,0.1,0.6c0,0.2-0.1,0.4-0.2,0.5c-0.1,0.1-0.2,0.2-0.3,0.3
	c-0.1,0.1-0.3,0.1-0.4,0.2l-0.5,0.2l-0.9-2.3l0.5-0.2c0.2-0.1,0.4-0.1,0.5-0.1c0.1,0,0.3,0,0.4,0c0.2,0,0.3,0.1,0.5,0.3
	C19.5,17.1,19.6,17.3,19.7,17.5z M19.4,17.6c-0.1-0.2-0.2-0.3-0.3-0.4c-0.1-0.1-0.2-0.2-0.4-0.2c-0.1,0-0.2,0-0.3,0
	c-0.1,0-0.2,0-0.4,0.1l-0.2,0.1l0.7,1.8l0.2-0.1c0.1-0.1,0.2-0.1,0.3-0.2c0.1-0.1,0.2-0.1,0.2-0.2c0.1-0.1,0.1-0.2,0.1-0.4
	C19.5,18,19.5,17.8,19.4,17.6z"/>
<path fill="#FFFFFF" d="M20.5,18.5l-0.7-2.3l1.5-0.4l0.1,0.3l-1.2,0.3l0.2,0.6l1.1-0.3l0.1,0.3l-1.1,0.3l0.3,0.9l1.1-0.3l0.1,0.3
	L20.5,18.5z"/>
<path fill="#FFFFFF" d="M26.3,17.4l-0.4,0.1L25,16.5l-0.4,0l0.1,1l-0.3,0l-0.3-2.4l0.6-0.1c0.1,0,0.3,0,0.3,0c0.1,0,0.2,0,0.3,0.1
	c0.1,0,0.2,0.1,0.2,0.2c0.1,0.1,0.1,0.2,0.1,0.3c0,0.2,0,0.3-0.1,0.5c-0.1,0.1-0.2,0.2-0.3,0.3L26.3,17.4z M25.4,15.7
	c0-0.1,0-0.1-0.1-0.2c0-0.1-0.1-0.1-0.1-0.1c0,0-0.1,0-0.2,0c-0.1,0-0.1,0-0.2,0l-0.3,0l0.1,0.9l0.3,0c0.1,0,0.2,0,0.2-0.1
	c0.1,0,0.1-0.1,0.2-0.1c0-0.1,0.1-0.1,0.1-0.2C25.4,15.9,25.4,15.8,25.4,15.7z"/>
<path fill="#FFFFFF" d="M26.5,17.4l-0.1-2.4l1.5-0.1l0,0.3l-1.2,0.1l0,0.7l1.1-0.1l0,0.3l-1.1,0.1l0,0.9L28,17l0,0.3L26.5,17.4z"/>
<path fill="#FFFFFF" d="M29.4,17.3c-0.2,0-0.3,0-0.4-0.1c-0.1-0.1-0.2-0.1-0.3-0.2c-0.1-0.1-0.2-0.2-0.2-0.4c0-0.2-0.1-0.3-0.1-0.5
	c0-0.2,0-0.4,0.1-0.5c0.1-0.2,0.1-0.3,0.2-0.4c0.1-0.1,0.2-0.2,0.4-0.2c0.1-0.1,0.3-0.1,0.4-0.1c0.1,0,0.2,0,0.2,0
	c0.1,0,0.1,0,0.2,0.1c0.1,0,0.1,0,0.2,0.1c0.1,0,0.1,0.1,0.2,0.1l0,0.4l0,0c0,0-0.1-0.1-0.1-0.1c0,0-0.1-0.1-0.2-0.1
	c-0.1,0-0.1-0.1-0.2-0.1c-0.1,0-0.2,0-0.3,0c-0.1,0-0.2,0-0.3,0.1c-0.1,0-0.2,0.1-0.2,0.2c-0.1,0.1-0.1,0.2-0.2,0.3
	s-0.1,0.3-0.1,0.4c0,0.2,0,0.3,0.1,0.4c0,0.1,0.1,0.2,0.2,0.3c0.1,0.1,0.1,0.1,0.2,0.2c0.1,0,0.2,0.1,0.3,0.1c0.1,0,0.2,0,0.3,0
	c0.1,0,0.2,0,0.2-0.1c0.1,0,0.1-0.1,0.2-0.1s0.1-0.1,0.1-0.1h0l0,0.4c-0.1,0-0.1,0-0.2,0.1c0,0-0.1,0-0.2,0.1c-0.1,0-0.1,0-0.2,0
	C29.5,17.3,29.5,17.3,29.4,17.3z"/>
<path fill="#FFFFFF" d="M32.2,17.5l-0.3,0l0.1-1.2l-1.1-0.1l-0.1,1.2l-0.3,0l0.2-2.4l0.3,0l-0.1,0.9L32,16l0.1-0.9l0.3,0L32.2,17.5z
	"/>
<path fill="#FFFFFF" d="M32.7,17.6l0.5-2.4l1.5,0.3l-0.1,0.3l-1.2-0.2l-0.1,0.7l1.1,0.2l-0.1,0.3l-1.1-0.2l-0.2,0.9l1.2,0.2
	l-0.1,0.3L32.7,17.6z"/>
<path fill="#FFFFFF" d="M36.4,18.5L36,18.4l-0.5-1.1l-0.4-0.1l-0.2,0.9L34.6,18l0.6-2.3l0.6,0.2c0.1,0,0.2,0.1,0.3,0.1
	c0.1,0,0.2,0.1,0.2,0.2c0.1,0.1,0.1,0.2,0.1,0.3c0,0.1,0,0.2,0,0.3c0,0.2-0.1,0.3-0.2,0.4c-0.1,0.1-0.3,0.1-0.4,0.2L36.4,18.5z
	 M36.2,16.6c0-0.1,0-0.1,0-0.2c0-0.1,0-0.1-0.1-0.2c0,0-0.1-0.1-0.1-0.1c-0.1,0-0.1-0.1-0.2-0.1L35.4,16l-0.2,0.9l0.3,0.1
	c0.1,0,0.2,0,0.2,0c0.1,0,0.1,0,0.2,0c0.1,0,0.1-0.1,0.1-0.1C36.1,16.7,36.2,16.7,36.2,16.6z"/>
<path fill="#FFFFFF" d="M37.5,18.9c-0.1-0.1-0.3-0.1-0.4-0.2c-0.1-0.1-0.2-0.2-0.2-0.3c-0.1-0.1-0.1-0.3-0.1-0.4
	c0-0.2,0-0.3,0.1-0.5s0.2-0.4,0.3-0.5s0.2-0.2,0.3-0.3c0.1-0.1,0.3-0.1,0.4-0.1c0.1,0,0.3,0,0.4,0.1c0.1,0,0.1,0.1,0.2,0.1
	c0.1,0,0.1,0.1,0.2,0.1c0,0,0.1,0.1,0.1,0.1c0,0,0.1,0.1,0.1,0.1l-0.1,0.4l0,0c0,0,0-0.1-0.1-0.1c0,0-0.1-0.1-0.1-0.2
	c0-0.1-0.1-0.1-0.2-0.1c-0.1,0-0.1-0.1-0.2-0.1c-0.1,0-0.2,0-0.3,0c-0.1,0-0.2,0-0.3,0.1c-0.1,0.1-0.2,0.1-0.3,0.2
	c-0.1,0.1-0.1,0.2-0.2,0.4c-0.1,0.2-0.1,0.3-0.1,0.4s0,0.2,0.1,0.3c0,0.1,0.1,0.2,0.2,0.3c0.1,0.1,0.2,0.1,0.3,0.2
	c0.1,0,0.2,0,0.3,0.1c0.1,0,0.2,0,0.2,0c0.1,0,0.1,0,0.2,0c0.1,0,0.1,0,0.1-0.1l0,0L38.3,19c-0.1,0-0.1,0-0.2,0c-0.1,0-0.1,0-0.2,0
	c-0.1,0-0.1,0-0.2,0C37.6,19,37.6,18.9,37.5,18.9z"/>
<path fill="#FFFFFF" d="M40.1,20l-0.3-0.1l0.5-1.1l-1-0.5l-0.5,1.1l-0.3-0.1l1-2.2l0.3,0.1L39.4,18l1,0.5l0.4-0.9l0.3,0.1L40.1,20z"
	/>
<path fill="#FFFFFF" d="M40.6,20.2l1.2-2.1l1.3,0.7l-0.1,0.3l-1.1-0.6l-0.3,0.6l1,0.5l-0.1,0.3l-1-0.5L41,20.1l1,0.6l-0.1,0.3
	L40.6,20.2z"/>
<path fill="#FFFFFF" d="M44,22.3l1.5-1.9l1.2,0.9l-0.2,0.2l-0.9-0.7l-0.4,0.5l0.9,0.7l-0.2,0.2L45,21.6l-0.6,0.7l0.9,0.7l-0.2,0.2
	L44,22.3z"/>
<path fill="#FFFFFF" d="M46.8,24.7l-0.3-0.2l0.6-2.3l-1.4,1.5l-0.2-0.2l1.6-1.8l0.3,0.3l-0.6,2.1l1.3-1.4l0.2,0.2L46.8,24.7z"/>
<path fill="#FFFFFF" d="M48.5,26.6c-0.1-0.1-0.2-0.2-0.2-0.4c0-0.1-0.1-0.3,0-0.4c0-0.1,0.1-0.3,0.2-0.4c0.1-0.1,0.2-0.3,0.4-0.4
	c0.2-0.1,0.3-0.2,0.5-0.3c0.1-0.1,0.3-0.1,0.4-0.1c0.1,0,0.3,0,0.4,0.1c0.1,0.1,0.2,0.2,0.4,0.3c0.1,0.1,0.1,0.1,0.1,0.2
	c0,0.1,0.1,0.1,0.1,0.2c0,0,0,0.1,0.1,0.2c0,0.1,0,0.1,0,0.2l-0.3,0.3l0,0c0,0,0-0.1,0-0.1s0-0.1,0-0.2c0-0.1,0-0.1-0.1-0.2
	c0-0.1-0.1-0.1-0.1-0.2C50.1,25,50,25,49.9,24.9c-0.1,0-0.2-0.1-0.3-0.1c-0.1,0-0.2,0-0.3,0.1c-0.1,0.1-0.2,0.1-0.4,0.2
	c-0.1,0.1-0.2,0.2-0.3,0.3c-0.1,0.1-0.1,0.2-0.1,0.3c0,0.1,0,0.2,0,0.3c0,0.1,0.1,0.2,0.1,0.3c0.1,0.1,0.1,0.1,0.2,0.2
	c0.1,0,0.1,0.1,0.2,0.1c0.1,0,0.1,0,0.2,0.1c0.1,0,0.1,0,0.1,0l0,0L49.1,27C49.1,27,49,27,49,27c0,0-0.1,0-0.2-0.1
	c-0.1,0-0.1-0.1-0.2-0.1C48.6,26.7,48.5,26.7,48.5,26.6z"/>
<path fill="#FFFFFF" d="M49,27.2l2.4-0.8l0.2,0.3l-1.5,2.1L50,28.5l0.4-0.6l-0.5-0.8l-0.7,0.2L49,27.2z M50.6,27.7l0.7-1l-1.1,0.4
	L50.6,27.7z"/>
<path fill="#FFFFFF" d="M51.4,30.6l-0.2-0.4l0.4-1.2l-0.2-0.3l-0.8,0.5L50.4,29l2.1-1.3l0.3,0.5c0.1,0.1,0.1,0.2,0.2,0.3
	c0,0.1,0.1,0.2,0.1,0.3c0,0.1,0,0.2-0.1,0.3c0,0.1-0.1,0.2-0.2,0.2c-0.2,0.1-0.3,0.1-0.5,0.1c-0.1,0-0.3-0.1-0.4-0.2L51.4,30.6z
	 M52.5,29.1c0.1,0,0.1-0.1,0.1-0.1c0,0,0.1-0.1,0.1-0.2c0-0.1,0-0.1,0-0.2c0-0.1-0.1-0.1-0.1-0.2l-0.2-0.3l-0.8,0.5l0.2,0.2
	c0,0.1,0.1,0.1,0.2,0.2c0.1,0.1,0.1,0.1,0.2,0.1c0.1,0,0.1,0,0.2,0C52.3,29.2,52.4,29.2,52.5,29.1z"/>
<path fill="#FFFFFF" d="M53.4,32c-0.2,0.1-0.4,0.2-0.6,0.2s-0.4,0-0.5-0.1c-0.1-0.1-0.2-0.2-0.3-0.3c-0.1-0.1-0.2-0.2-0.3-0.4
	l-0.3-0.5l2.2-1.1l0.2,0.5c0.1,0.2,0.2,0.4,0.2,0.5c0,0.1,0,0.3,0,0.4c0,0.2-0.1,0.4-0.2,0.5C53.8,31.8,53.6,31.9,53.4,32z
	 M53.3,31.7c0.2-0.1,0.3-0.2,0.4-0.3s0.1-0.2,0.2-0.4c0-0.1,0-0.2,0-0.3c0-0.1-0.1-0.2-0.1-0.3l-0.1-0.2L51.8,31l0.1,0.2
	c0.1,0.1,0.1,0.2,0.2,0.3c0.1,0.1,0.2,0.2,0.2,0.2c0.1,0.1,0.2,0.1,0.4,0.1C52.9,31.8,53.1,31.8,53.3,31.7z"/>
<path fill="#FFFFFF" d="M52.8,33.7l-0.4-0.9l0.2-0.1l0.1,0.3l1.8-0.8L54.4,32l0.2-0.1l0.4,0.9l-0.2,0.1l-0.1-0.3l-1.8,0.8l0.1,0.3
	L52.8,33.7z"/>
<path fill="#FFFFFF" d="M55.5,35c-0.1,0.1-0.2,0.2-0.3,0.3c-0.1,0.1-0.3,0.2-0.5,0.2c-0.2,0.1-0.4,0.1-0.5,0.1c-0.2,0-0.3,0-0.4-0.1
	c-0.1-0.1-0.3-0.1-0.3-0.2c-0.1-0.1-0.2-0.2-0.2-0.4c-0.1-0.2-0.1-0.3-0.1-0.4c0-0.1,0.1-0.3,0.1-0.4c0.1-0.1,0.2-0.2,0.3-0.3
	c0.1-0.1,0.3-0.2,0.5-0.2c0.2-0.1,0.4-0.1,0.5-0.1s0.3,0,0.4,0.1c0.1,0.1,0.2,0.1,0.3,0.2c0.1,0.1,0.2,0.2,0.2,0.4
	c0.1,0.2,0.1,0.3,0.1,0.5C55.7,34.7,55.6,34.9,55.5,35z M54.6,35.3c0.2-0.1,0.3-0.1,0.4-0.2c0.1-0.1,0.2-0.2,0.2-0.2
	c0.1-0.1,0.1-0.2,0.1-0.3c0-0.1,0-0.2,0-0.3c0-0.1-0.1-0.2-0.2-0.3c-0.1-0.1-0.2-0.1-0.3-0.2c-0.1,0-0.2,0-0.3,0
	c-0.1,0-0.3,0-0.4,0.1c-0.3,0.1-0.5,0.2-0.6,0.4c-0.1,0.2-0.1,0.4-0.1,0.6c0.1,0.2,0.2,0.4,0.4,0.4C54.1,35.4,54.3,35.4,54.6,35.3z"
	/>
<path fill="#FFFFFF" d="M54,37.7l-0.4-1.4l2.4-0.6l0.1,0.3L54,36.6l0.3,1.1L54,37.7z"/>
<path fill="#FFFFFF" d="M56.5,39.3c-0.1,0.1-0.2,0.2-0.4,0.3c-0.1,0.1-0.3,0.1-0.5,0.2c-0.2,0-0.4,0-0.5,0c-0.2,0-0.3-0.1-0.4-0.1
	c-0.1-0.1-0.2-0.2-0.3-0.3c-0.1-0.1-0.1-0.3-0.2-0.4c0-0.2,0-0.3,0-0.5c0-0.1,0.1-0.3,0.2-0.4c0.1-0.1,0.2-0.2,0.4-0.3
	c0.1-0.1,0.3-0.1,0.5-0.2c0.2,0,0.4,0,0.5,0s0.3,0.1,0.4,0.1c0.1,0.1,0.2,0.2,0.3,0.3c0.1,0.1,0.1,0.3,0.2,0.4c0,0.2,0,0.3,0,0.5
	C56.7,39,56.6,39.2,56.5,39.3z M55.6,39.4c0.2,0,0.3-0.1,0.4-0.1c0.1-0.1,0.2-0.1,0.3-0.2c0.1-0.1,0.1-0.2,0.1-0.3
	c0-0.1,0-0.2,0-0.3c0-0.1-0.1-0.2-0.1-0.3c-0.1-0.1-0.1-0.1-0.2-0.2c-0.1,0-0.2-0.1-0.3-0.1c-0.1,0-0.3,0-0.4,0
	c-0.3,0.1-0.5,0.2-0.7,0.3c-0.1,0.2-0.2,0.4-0.2,0.6s0.2,0.4,0.3,0.5C55,39.4,55.3,39.4,55.6,39.4z"/>
<path fill="#FFFFFF" d="M54.5,41.3c0-0.2,0-0.3,0-0.5c0-0.1,0.1-0.3,0.2-0.4c0.1-0.1,0.2-0.2,0.4-0.3c0.2-0.1,0.3-0.1,0.5-0.1
	c0.2,0,0.4,0,0.5,0c0.2,0,0.3,0.1,0.4,0.2c0.1,0.1,0.2,0.2,0.3,0.3c0.1,0.1,0.1,0.3,0.1,0.5c0,0.1,0,0.2,0,0.2c0,0.1,0,0.1,0,0.2
	c0,0.1,0,0.1-0.1,0.2c0,0.1,0,0.1-0.1,0.2l-0.4,0l0,0c0,0,0.1-0.1,0.1-0.1c0,0,0.1-0.1,0.1-0.2c0-0.1,0-0.1,0.1-0.2
	c0-0.1,0-0.2,0-0.3c0-0.2-0.1-0.4-0.3-0.5c-0.2-0.1-0.4-0.2-0.7-0.2c-0.2,0-0.3,0-0.4,0.1s-0.2,0.1-0.3,0.2
	c-0.1,0.1-0.1,0.2-0.2,0.3c0,0.1,0,0.2,0,0.3c0,0.1,0,0.2,0,0.3c0,0.1,0,0.2,0.1,0.2l0.6-0.1l0-0.6l0.3,0l0.1,0.9l-1.1,0.1
	c0,0,0-0.1-0.1-0.2c0-0.1-0.1-0.1-0.1-0.2c0-0.1-0.1-0.1-0.1-0.2C54.5,41.5,54.5,41.4,54.5,41.3z"/>
<path fill="#FFFFFF" d="M54.6,43.4l0-0.9l0.2,0l0,0.3l1.9,0l0-0.3l0.2,0l0,0.9l-0.2,0l0-0.3l-1.9,0l0,0.3L54.6,43.4z"/>
<path fill="#FFFFFF" d="M54.7,43.8l2.4,0.1L57,45.5l-0.3,0l0.1-1.2l-0.7,0l0,1.1l-0.3,0l0.1-1.1l-0.9,0l-0.1,1.2l-0.3,0L54.7,43.8z"
	/>
<path fill="#FFFFFF" d="M70.9,28.9c0-0.1-0.1-0.1-0.2-0.1c0,0-0.1,0.1-0.2,0.2c-0.1,0.1-0.3,0.2-0.5,0.3s-0.5,0.2-0.9,0.3
	c-0.4,0.1-0.8,0.1-1.3,0.1c-0.6,0-1.1-0.1-1.5-0.2c-0.5-0.2-0.9-0.4-1.2-0.7c-0.3-0.3-0.6-0.7-0.8-1.1c-0.2-0.4-0.3-0.9-0.3-1.4
	c0-0.4,0.1-0.8,0.3-1.2c0.2-0.4,0.4-0.7,0.7-1c0.3-0.3,0.7-0.5,1.2-0.7s1-0.3,1.6-0.3c0.4,0,0.8,0,1.1,0.1c0.3,0.1,0.6,0.1,0.8,0.2
	c0.2,0.1,0.4,0.2,0.6,0.2c0.1,0.1,0.2,0.1,0.3,0.1c0.1,0,0.1,0,0.1,0c0,0,0,0,0.1-0.1l0.1,0.1l-0.7,1.3l-0.2-0.1
	c0,0,0.1-0.1,0.1-0.2c0-0.1-0.1-0.1-0.2-0.2c-0.1-0.1-0.3-0.2-0.5-0.3s-0.5-0.2-0.7-0.2c-0.3-0.1-0.6-0.1-0.9-0.1
	c-0.3,0-0.6,0-1,0.1c-0.3,0.1-0.6,0.2-0.9,0.4c-0.3,0.2-0.5,0.4-0.6,0.7c-0.2,0.3-0.2,0.7-0.2,1.1c0,0.4,0.1,0.7,0.2,1
	c0.2,0.3,0.4,0.6,0.7,0.8c0.3,0.2,0.6,0.4,0.9,0.5c0.3,0.1,0.7,0.2,1.1,0.2c0.3,0,0.6,0,0.8-0.1s0.5-0.2,0.7-0.3
	c0.2-0.1,0.4-0.2,0.5-0.4s0.2-0.2,0.2-0.3c0-0.1,0-0.1-0.1-0.2l0.2-0.1l0.9,1.2L70.9,28.9z"/>
<path fill="#FFFFFF" d="M71.2,29.6c0.1,0,0.2,0,0.3-0.1c0-0.1,0.1-0.1,0.1-0.2l1.9-4.3c0-0.1,0.1-0.2,0.1-0.2c0,0,0-0.1-0.1-0.1
	s-0.1-0.1-0.2-0.1v-0.1h1.9v0.1c-0.1,0-0.1,0-0.2,0c-0.1,0-0.1,0.1-0.1,0.1c0,0,0,0.1,0,0.1c0,0,0,0.1,0.1,0.1l2.1,4.4
	c0,0.1,0.1,0.1,0.1,0.2c0,0.1,0.1,0.1,0.3,0.1v0.1h-1.5v-0.1c0.1,0,0.2,0,0.3,0c0,0,0.1-0.1,0.1-0.1c0-0.1,0-0.1,0-0.1s0-0.1,0-0.1
	l-0.5-1h-2.9l-0.4,0.9c0,0.1-0.1,0.1-0.1,0.2c0,0.1-0.1,0.1-0.1,0.2c0,0,0,0.1,0.1,0.1c0,0,0.1,0,0.3,0v0.1h-1.3L71.2,29.6
	L71.2,29.6z M73,27.5h2.3L74.2,25L73,27.5z"/>
<path fill="#FFFFFF" d="M77.7,29.6c0.1,0,0.2,0,0.3-0.1c0,0,0.1-0.1,0.1-0.3v-4.3c0-0.1,0-0.2-0.1-0.3s-0.1-0.1-0.3-0.1v-0.1h1.8
	v0.1c-0.1,0-0.2,0-0.3,0c0,0-0.1,0-0.1,0.1c0,0,0,0.1,0.1,0.2l3.3,3.7v-3.7c0-0.1,0-0.2-0.1-0.3s-0.1-0.1-0.3-0.1v-0.1h1.3v0.1
	c-0.1,0-0.2,0-0.3,0.1c0,0-0.1,0.1-0.1,0.3v4.3c0,0.1,0,0.2,0.1,0.3c0,0,0.1,0.1,0.3,0.1v0.1h-1.6v-0.1c0.2,0,0.3,0,0.3,0
	c0,0,0,0,0-0.1s0-0.1,0-0.1c0,0-0.1-0.1-0.1-0.1l-3.4-3.9v3.9c0,0.1,0,0.2,0.1,0.3s0.1,0.1,0.3,0.1v0.1h-1.3V29.6z"/>
<path fill="#FFFFFF" d="M83.8,29.6c0.1,0,0.2,0,0.3-0.1c0-0.1,0.1-0.1,0.1-0.2l1.9-4.3c0-0.1,0.1-0.2,0.1-0.2c0,0,0-0.1-0.1-0.1
	s-0.1-0.1-0.2-0.1v-0.1h1.9v0.1c-0.1,0-0.1,0-0.2,0c-0.1,0-0.1,0.1-0.1,0.1c0,0,0,0.1,0,0.1c0,0,0,0.1,0.1,0.1l2.1,4.4
	c0,0.1,0.1,0.1,0.1,0.2c0,0.1,0.1,0.1,0.3,0.1v0.1h-1.5v-0.1c0.1,0,0.2,0,0.3,0c0,0,0.1-0.1,0.1-0.1c0-0.1,0-0.1,0-0.1
	c0,0,0-0.1,0-0.1l-0.5-1h-2.9L85,29.1c0,0.1-0.1,0.1-0.1,0.2c0,0.1-0.1,0.1-0.1,0.2c0,0,0,0.1,0.1,0.1c0,0,0.1,0,0.3,0v0.1h-1.3
	V29.6L83.8,29.6z M85.7,27.5H88L86.8,25L85.7,27.5z"/>
<path fill="#FFFFFF" d="M90.6,24.7c0,0-0.1-0.1-0.2-0.1v-0.1h2.9c0.5,0,0.9,0.1,1.2,0.2c0.3,0.1,0.6,0.3,0.8,0.6s0.4,0.5,0.5,0.8
	c0.1,0.3,0.2,0.7,0.2,1c0,0.4-0.1,0.7-0.2,1c-0.1,0.3-0.3,0.6-0.5,0.8c-0.2,0.2-0.5,0.4-0.8,0.6c-0.3,0.1-0.8,0.2-1.2,0.2h-2.9v-0.1
	c0.1,0,0.2,0,0.2-0.1c0,0,0.1-0.1,0.1-0.3v-4.3C90.6,24.8,90.6,24.7,90.6,24.7z M93.1,29.1c0.4,0,0.7-0.1,1-0.2
	c0.3-0.1,0.5-0.2,0.6-0.4c0.2-0.2,0.3-0.4,0.4-0.6c0.1-0.2,0.1-0.5,0.1-0.8c0-0.3,0-0.5-0.1-0.8c-0.1-0.2-0.2-0.4-0.4-0.6
	c-0.2-0.2-0.4-0.3-0.6-0.4c-0.3-0.1-0.6-0.2-1-0.2h-1.7v3.9H93.1z"/>
<path fill="#FFFFFF" d="M96.9,29.6c0.1,0,0.2,0,0.2-0.1s0.1-0.1,0.1-0.3v-4.3c0-0.1,0-0.2-0.1-0.3s-0.1-0.1-0.2-0.1v-0.1h1.3v0.1
	c-0.1,0-0.2,0-0.2,0.1S98,24.8,98,24.9v4.3c0,0.1,0,0.2,0.1,0.3s0.1,0.1,0.2,0.1v0.1h-1.3V29.6z"/>
<path fill="#FFFFFF" d="M98.8,29.6c0.1,0,0.2,0,0.3-0.1c0-0.1,0.1-0.1,0.1-0.2l1.9-4.3c0-0.1,0.1-0.2,0.1-0.2c0,0,0-0.1-0.1-0.1
	s-0.1-0.1-0.2-0.1v-0.1h1.9v0.1c-0.1,0-0.1,0-0.2,0c-0.1,0-0.1,0.1-0.1,0.1c0,0,0,0.1,0,0.1c0,0,0,0.1,0.1,0.1l2.1,4.4
	c0,0.1,0.1,0.1,0.1,0.2c0,0.1,0.1,0.1,0.3,0.1v0.1h-1.5v-0.1c0.1,0,0.2,0,0.3,0c0,0,0.1-0.1,0.1-0.1c0-0.1,0-0.1,0-0.1s0-0.1,0-0.1
	l-0.5-1h-2.9l-0.4,0.9c0,0.1-0.1,0.1-0.1,0.2c0,0.1-0.1,0.1-0.1,0.2c0,0,0,0.1,0.1,0.1c0,0,0.1,0,0.3,0v0.1h-1.3L98.8,29.6
	L98.8,29.6z M100.7,27.5h2.3l-1.2-2.5L100.7,27.5z"/>
<path fill="#FFFFFF" d="M105.4,29.6c0.1,0,0.2,0,0.3-0.1c0,0,0.1-0.1,0.1-0.3v-4.3c0-0.1,0-0.2-0.1-0.3c0,0-0.1-0.1-0.3-0.1v-0.1
	h1.8v0.1c-0.1,0-0.2,0-0.3,0c0,0-0.1,0-0.1,0.1c0,0,0,0.1,0.1,0.2l3.3,3.7v-3.7c0-0.1,0-0.2-0.1-0.3c0,0-0.1-0.1-0.3-0.1v-0.1h1.3
	v0.1c-0.1,0-0.2,0-0.3,0.1s-0.1,0.1-0.1,0.3v4.3c0,0.1,0,0.2,0.1,0.3c0,0,0.1,0.1,0.3,0.1v0.1h-1.6v-0.1c0.2,0,0.3,0,0.3,0
	c0,0,0,0,0-0.1s0-0.1,0-0.1c0,0-0.1-0.1-0.1-0.1l-3.4-3.9v3.9c0,0.1,0,0.2,0.1,0.3s0.1,0.1,0.3,0.1v0.1h-1.3L105.4,29.6L105.4,29.6z
	"/>
<path fill="#FFFFFF" d="M71.1,40c0,0.1,0.1,0.1,0.2,0.1v0.1h-1.6v-0.1c0.1,0,0.2,0,0.2-0.1c0-0.1,0.1-0.1,0.1-0.2v-2.4h-4.2v2.4
	c0,0.1,0,0.2,0.1,0.2c0,0.1,0.1,0.1,0.2,0.1v0.1h-1.6v-0.1c0.1,0,0.2,0,0.2-0.1c0-0.1,0.1-0.1,0.1-0.2v-5.5c0-0.1,0-0.2-0.1-0.2
	c0-0.1-0.1-0.1-0.2-0.1v-0.1h1.6v0.1c-0.1,0-0.2,0-0.2,0.1c0,0.1-0.1,0.1-0.1,0.2v2.3h4.2v-2.3c0-0.1,0-0.2-0.1-0.2
	c0-0.1-0.1-0.1-0.2-0.1v-0.1h1.6v0.1c-0.1,0-0.2,0-0.2,0.1c0,0.1-0.1,0.1-0.1,0.2v5.5C71.1,39.9,71.1,40,71.1,40z"/>
<path fill="#FFFFFF" d="M73,35.2c0,0-0.1-0.1-0.2-0.1V35h4.8c0.1,0,0.2,0,0.2-0.1c0,0,0.1-0.1,0.1-0.2H78v1.3h-0.1
	c0-0.1,0-0.2-0.1-0.2c0,0-0.1-0.1-0.2-0.1h-3.8v1.6h2.7c0.1,0,0.2,0,0.2-0.1s0.1-0.1,0.1-0.2h0.1v1.3h-0.1c0-0.1,0-0.2-0.1-0.2
	c0,0-0.1-0.1-0.2-0.1h-2.7v1.7h3.9c0.1,0,0.2,0,0.2-0.1c0,0,0.1-0.1,0.1-0.2h0.1v1.2H78c0-0.1,0-0.2-0.1-0.2c0,0-0.1,0-0.2,0h-5
	v-0.1c0.1,0,0.2,0,0.2-0.1s0.1-0.1,0.1-0.3v-4.3C73,35.3,73,35.2,73,35.2z"/>
<path fill="#FFFFFF" d="M78.2,40.1c0.1,0,0.2,0,0.3-0.1c0-0.1,0.1-0.1,0.1-0.2l1.9-4.4c0-0.1,0.1-0.2,0.1-0.2s0-0.1-0.1-0.1
	c0,0-0.1-0.1-0.2-0.1V35h1.9v0.1c-0.1,0-0.1,0-0.2,0c-0.1,0-0.1,0.1-0.1,0.1c0,0,0,0.1,0,0.1c0,0,0,0.1,0.1,0.1l2.1,4.4
	c0,0.1,0.1,0.1,0.1,0.2c0,0.1,0.1,0.1,0.3,0.1v0.1h-1.5v-0.1c0.1,0,0.2,0,0.3,0c0,0,0.1-0.1,0.1-0.1c0-0.1,0-0.1,0-0.1
	c0,0,0-0.1,0-0.1l-0.5-1h-2.9l-0.4,0.9c0,0.1-0.1,0.1-0.1,0.2c0,0.1-0.1,0.1-0.1,0.2c0,0,0,0.1,0.1,0.1c0,0,0.1,0,0.3,0v0.1h-1.3
	L78.2,40.1L78.2,40.1z M80,38h2.3l-1.2-2.5L80,38z"/>
<path fill="#FFFFFF" d="M85.8,40c0,0,0.1,0.1,0.2,0.1v0.1h-1.3v-0.1c0.1,0,0.2,0,0.2-0.1c0,0,0.1-0.1,0.1-0.3v-4.3
	c0-0.1,0-0.2-0.1-0.3c0,0-0.1-0.1-0.2-0.1V35h3.7c0.5,0,0.9,0.1,1.2,0.4c0.2,0.3,0.4,0.6,0.4,1.1c0,0.5-0.1,0.8-0.4,1.1
	c-0.3,0.2-0.6,0.4-1.1,0.4l1.3,2c0.1,0.1,0.1,0.1,0.1,0.2c0,0,0.1,0,0.2,0v0.1h-1.3v-0.1c0.1,0,0.1,0,0.2,0c0,0,0,0,0-0.1
	c0,0,0-0.1,0-0.1c0,0-0.1-0.1-0.1-0.2l-1.2-1.8h-1.9v1.9C85.8,39.9,85.8,40,85.8,40z M88.4,37.2c0.3,0,0.5-0.1,0.6-0.2
	c0.1-0.1,0.2-0.3,0.2-0.6c0-0.3-0.1-0.5-0.2-0.6c-0.1-0.1-0.4-0.2-0.7-0.2h-2.4v1.6L88.4,37.2L88.4,37.2z"/>
<path fill="#FFFFFF" d="M95.3,35.9c0-0.1,0-0.2-0.1-0.2s-0.1-0.1-0.2-0.1h-1.9v4.1c0,0.1,0,0.2,0.1,0.3c0,0,0.1,0.1,0.2,0.1v0.1H92
	v-0.1c0.1,0,0.2,0,0.2-0.1c0,0,0.1-0.1,0.1-0.3v-4.1h-1.9c-0.1,0-0.2,0-0.2,0.1c0,0-0.1,0.1-0.1,0.2H90v-1.2h0.1
	c0,0.1,0,0.2,0.1,0.2c0,0,0.1,0.1,0.2,0.1H95c0.1,0,0.2,0,0.2-0.1c0,0,0.1-0.1,0.1-0.2h0.1v1.2H95.3z"/>
<path fill="#FFFFFF" d="M65.9,50.5c0,0.1,0.1,0.1,0.2,0.1v0.1h-1.6v-0.1c0.1,0,0.2,0,0.2-0.1c0-0.1,0.1-0.1,0.1-0.2v-5.5
	c0-0.1,0-0.2-0.1-0.2s-0.1-0.1-0.2-0.1v-0.1h4c0.8,0,1.4,0.1,1.7,0.5c0.3,0.3,0.5,0.7,0.5,1.3c0,0.5-0.1,0.9-0.4,1.2
	c-0.3,0.3-0.7,0.5-1.3,0.6l1.5,2.3c0.1,0.1,0.2,0.2,0.2,0.3c0.1,0,0.1,0.1,0.3,0.1v0.1h-1.7v-0.1c0.1,0,0.2,0,0.2,0c0,0,0,0,0-0.1
	c0,0,0-0.1-0.1-0.1L68,48h-2.2v2.3C65.8,50.4,65.9,50.5,65.9,50.5z M68.5,47.2c0.5,0,0.8-0.1,1-0.3c0.2-0.2,0.3-0.4,0.3-0.8
	c0-0.2,0-0.3-0.1-0.4c0-0.1-0.1-0.2-0.2-0.3c-0.1-0.1-0.2-0.1-0.4-0.2c-0.2,0-0.4-0.1-0.7-0.1h-2.6v1.9L68.5,47.2L68.5,47.2z"/>
<path fill="#FFFFFF" d="M72.3,45.7c0,0-0.1-0.1-0.2-0.1v-0.1h4.8c0.1,0,0.2,0,0.2-0.1c0,0,0.1-0.1,0.1-0.2h0.1v1.3h-0.1
	c0-0.1,0-0.2-0.1-0.2s-0.1-0.1-0.2-0.1h-3.8v1.6h2.7c0.1,0,0.2,0,0.2-0.1c0,0,0.1-0.1,0.1-0.2h0.1v1.3h-0.1c0-0.1,0-0.2-0.1-0.2
	c0,0-0.1-0.1-0.2-0.1h-2.7v1.7H77c0.1,0,0.2,0,0.2-0.1c0,0,0.1-0.1,0.1-0.2h0.1V51h-0.1c0-0.1,0-0.2-0.1-0.2c0,0-0.1,0-0.2,0h-5
	v-0.1c0.1,0,0.2,0,0.2-0.1c0,0,0.1-0.1,0.1-0.3v-4.3C72.3,45.8,72.3,45.7,72.3,45.7z"/>
<path fill="#FFFFFF" d="M78.5,49.3c0,0.1,0,0.1,0,0.2c0,0.1,0.1,0.1,0.2,0.2c0.1,0.1,0.3,0.2,0.5,0.2c0.2,0.1,0.4,0.1,0.7,0.2
	c0.3,0.1,0.5,0.1,0.8,0.1c0.6,0,1-0.1,1.3-0.2s0.5-0.4,0.5-0.6c0-0.3-0.1-0.4-0.3-0.5c-0.2-0.1-0.5-0.2-0.8-0.2
	c-0.3,0-0.7-0.1-1-0.1c-0.4,0-0.7-0.1-1-0.1c-0.3-0.1-0.6-0.2-0.8-0.4c-0.2-0.2-0.3-0.5-0.3-0.8c0-0.3,0.1-0.6,0.2-0.8
	c0.1-0.2,0.3-0.4,0.5-0.5c0.2-0.1,0.5-0.2,0.7-0.3c0.3-0.1,0.6-0.1,0.9-0.1c0.3,0,0.6,0,0.8,0.1c0.2,0,0.4,0.1,0.6,0.2
	c0.2,0.1,0.3,0.1,0.4,0.2c0.1,0,0.2,0.1,0.2,0.1c0,0,0.1,0,0.1,0c0,0,0.1-0.1,0.1-0.1l0.2,0.1l-0.4,1.2l-0.1-0.1c0,0,0,0,0-0.1
	c0,0,0,0,0-0.1c0-0.1-0.1-0.1-0.2-0.2c-0.1-0.1-0.3-0.1-0.4-0.2c-0.2-0.1-0.4-0.1-0.6-0.2s-0.5-0.1-0.7-0.1c-0.3,0-0.6,0-0.8,0.1
	c-0.2,0.1-0.3,0.1-0.5,0.2c-0.1,0.1-0.2,0.2-0.2,0.3s-0.1,0.2-0.1,0.3c0,0.2,0.1,0.4,0.3,0.5c0.2,0.1,0.5,0.2,0.8,0.2
	c0.3,0,0.7,0.1,1,0.1c0.4,0,0.7,0.1,1,0.1c0.3,0.1,0.6,0.2,0.8,0.4c0.2,0.2,0.3,0.4,0.3,0.8c0,0.6-0.2,1-0.6,1.3
	c-0.4,0.3-1.1,0.4-2,0.4c-0.3,0-0.6,0-0.9-0.1c-0.3,0-0.5-0.1-0.7-0.2c-0.2-0.1-0.4-0.1-0.5-0.2s-0.2-0.1-0.3-0.1
	c-0.1,0-0.1,0-0.1,0.1s-0.1,0.1-0.1,0.1l-0.1,0l0.5-1.2L78.5,49.3z"/>
<path fill="#FFFFFF" d="M84.3,45.7c0,0-0.1-0.1-0.2-0.1v-0.1h4.8c0.1,0,0.2,0,0.2-0.1c0,0,0.1-0.1,0.1-0.2h0.1v1.3h-0.1
	c0-0.1,0-0.2-0.1-0.2c0,0-0.1-0.1-0.2-0.1h-3.8v1.6h2.7c0.1,0,0.2,0,0.2-0.1s0.1-0.1,0.1-0.2h0.1v1.3h-0.1c0-0.1,0-0.2-0.1-0.2
	c0,0-0.1-0.1-0.2-0.1h-2.7v1.7H89c0.1,0,0.2,0,0.2-0.1c0,0,0.1-0.1,0.1-0.2h0.1V51h-0.1c0-0.1,0-0.2-0.1-0.2c0,0-0.1,0-0.2,0h-5
	v-0.1c0.1,0,0.2,0,0.2-0.1c0,0,0.1-0.1,0.1-0.3v-4.3C84.3,45.8,84.3,45.7,84.3,45.7z"/>
<path fill="#FFFFFF" d="M89.5,50.6c0.1,0,0.2,0,0.3-0.1c0-0.1,0.1-0.1,0.1-0.2l1.9-4.4c0-0.1,0.1-0.2,0.1-0.2c0,0,0-0.1-0.1-0.1
	c0,0-0.1-0.1-0.2-0.1v-0.1h1.9v0.1c-0.1,0-0.1,0-0.2,0c-0.1,0-0.1,0.1-0.1,0.1c0,0,0,0.1,0,0.1c0,0,0,0.1,0.1,0.1l2.1,4.4
	c0,0.1,0.1,0.1,0.1,0.2c0,0.1,0.1,0.1,0.3,0.1v0.1h-1.5v-0.1c0.1,0,0.2,0,0.3,0c0,0,0.1-0.1,0.1-0.1c0-0.1,0-0.1,0-0.1
	c0,0,0-0.1,0-0.1l-0.5-1h-2.9l-0.4,0.9c0,0.1-0.1,0.1-0.1,0.2c0,0.1-0.1,0.1-0.1,0.2c0,0,0,0.1,0.1,0.1c0,0,0.1,0,0.3,0v0.1h-1.3
	L89.5,50.6L89.5,50.6z M91.4,48.5h2.3L92.5,46L91.4,48.5z"/>
<path fill="#FFFFFF" d="M97.2,50.5c0,0,0.1,0.1,0.2,0.1v0.1h-1.3v-0.1c0.1,0,0.2,0,0.2-0.1c0,0,0.1-0.1,0.1-0.3v-4.3
	c0-0.1,0-0.2-0.1-0.3c0,0-0.1-0.1-0.2-0.1v-0.1h3.7c0.5,0,0.9,0.1,1.2,0.4c0.2,0.3,0.4,0.6,0.4,1.1c0,0.5-0.1,0.8-0.4,1.1
	c-0.3,0.2-0.6,0.4-1.1,0.4l1.3,2c0.1,0.1,0.1,0.1,0.1,0.2c0,0,0.1,0,0.2,0v0.1h-1.3v-0.1c0.1,0,0.1,0,0.2,0c0,0,0,0,0-0.1
	c0,0,0-0.1,0-0.1c0,0-0.1-0.1-0.1-0.2L99,48.4h-1.9v1.9C97.1,50.4,97.1,50.5,97.2,50.5z M99.7,47.7c0.3,0,0.5-0.1,0.6-0.2
	c0.1-0.1,0.2-0.3,0.2-0.6c0-0.3-0.1-0.5-0.2-0.6c-0.1-0.1-0.4-0.2-0.7-0.2h-2.4v1.6H99.7z"/>
<path fill="#FFFFFF" d="M106.6,47C106.6,46.9,106.6,46.9,106.6,47l0-0.2c0,0-0.1-0.1-0.2-0.2c-0.1-0.1-0.2-0.2-0.4-0.2
	c-0.2-0.1-0.4-0.1-0.6-0.2c-0.2-0.1-0.4-0.1-0.6-0.1c-0.3,0-0.7,0.1-0.9,0.2c-0.3,0.1-0.5,0.3-0.7,0.4c-0.2,0.2-0.3,0.4-0.4,0.7
	c-0.1,0.2-0.2,0.5-0.2,0.8c0,0.3,0,0.5,0.2,0.8c0.1,0.2,0.2,0.4,0.4,0.6c0.2,0.2,0.4,0.3,0.7,0.4c0.3,0.1,0.5,0.2,0.9,0.2
	c0.3,0,0.6,0,0.8-0.1c0.2-0.1,0.5-0.1,0.6-0.2c0.2-0.1,0.3-0.2,0.4-0.3c0.1-0.1,0.1-0.2,0.1-0.2c0-0.1,0-0.2,0-0.2l0.1-0.1l0.8,1.1
	l-0.1,0.1c-0.1,0-0.1-0.1-0.1-0.1c0,0-0.1,0-0.1,0c-0.1,0-0.2,0-0.3,0.1c-0.1,0.1-0.3,0.2-0.5,0.3c-0.2,0.1-0.4,0.2-0.7,0.3
	c-0.3,0.1-0.6,0.1-1,0.1c-0.4,0-0.8-0.1-1.1-0.2c-0.4-0.1-0.7-0.3-0.9-0.5c-0.3-0.2-0.5-0.5-0.6-0.8c-0.2-0.3-0.2-0.7-0.2-1.2
	c0-0.4,0.1-0.8,0.2-1.2c0.2-0.3,0.4-0.6,0.6-0.9c0.3-0.2,0.6-0.4,0.9-0.5c0.4-0.1,0.7-0.2,1.2-0.2c0.3,0,0.6,0,0.9,0.1
	c0.2,0,0.5,0.1,0.7,0.2c0.2,0.1,0.3,0.1,0.4,0.2c0.1,0,0.2,0.1,0.2,0.1c0.1,0,0.1,0,0.2-0.1l0.1,0l-0.6,1.2L106.6,47z"/>
<path fill="#FFFFFF" d="M113.6,50.5c0,0,0.1,0.1,0.2,0.1v0.1h-1.3v-0.1c0.1,0,0.2,0,0.2-0.1c0,0,0.1-0.1,0.1-0.3v-2h-3.6v2
	c0,0.1,0,0.2,0.1,0.3c0,0,0.1,0.1,0.2,0.1v0.1h-1.3v-0.1c0.1,0,0.2,0,0.2-0.1s0.1-0.1,0.1-0.3v-4.3c0-0.1,0-0.2-0.1-0.3
	c0,0-0.1-0.1-0.2-0.1v-0.1h1.3v0.1c-0.1,0-0.2,0-0.2,0.1c0,0-0.1,0.1-0.1,0.3v1.7h3.6v-1.7c0-0.1,0-0.2-0.1-0.3c0,0-0.1-0.1-0.2-0.1
	v-0.1h1.3v0.1c-0.1,0-0.2,0-0.2,0.1s-0.1,0.1-0.1,0.3v4.3C113.5,50.4,113.5,50.5,113.6,50.5z"/>
<path fill="#FFFFFF" d="M70.9,60.4c0-0.1-0.1-0.1-0.2-0.1c0,0-0.1,0.1-0.2,0.2c-0.1,0.1-0.3,0.2-0.5,0.3c-0.2,0.1-0.5,0.2-0.9,0.3
	c-0.4,0.1-0.8,0.1-1.3,0.1c-0.6,0-1.1-0.1-1.5-0.2c-0.5-0.2-0.9-0.4-1.2-0.7c-0.3-0.3-0.6-0.7-0.8-1.1c-0.2-0.4-0.3-0.9-0.3-1.4
	c0-0.4,0.1-0.8,0.3-1.2c0.2-0.4,0.4-0.7,0.7-1c0.3-0.3,0.7-0.5,1.2-0.7c0.5-0.2,1-0.3,1.6-0.3c0.4,0,0.8,0,1.1,0.1
	c0.3,0.1,0.6,0.1,0.8,0.2c0.2,0.1,0.4,0.2,0.6,0.2c0.1,0.1,0.2,0.1,0.3,0.1c0.1,0,0.1,0,0.1,0c0,0,0,0,0.1-0.1l0.1,0.1l-0.7,1.3
	l-0.2-0.1c0,0,0.1-0.1,0.1-0.2c0-0.1-0.1-0.1-0.2-0.2c-0.1-0.1-0.3-0.2-0.5-0.3c-0.2-0.1-0.5-0.2-0.7-0.2c-0.3-0.1-0.6-0.1-0.9-0.1
	c-0.3,0-0.6,0-1,0.1c-0.3,0.1-0.6,0.2-0.9,0.4s-0.5,0.4-0.6,0.7c-0.2,0.3-0.2,0.7-0.2,1.1c0,0.4,0.1,0.7,0.2,1
	c0.2,0.3,0.4,0.6,0.7,0.8c0.3,0.2,0.6,0.4,0.9,0.5c0.3,0.1,0.7,0.2,1.1,0.2c0.3,0,0.6,0,0.8-0.1s0.5-0.2,0.7-0.3
	c0.2-0.1,0.4-0.2,0.5-0.4c0.1-0.1,0.2-0.2,0.2-0.3c0-0.1,0-0.1-0.1-0.2l0.2-0.1l0.9,1.2L70.9,60.4z"/>
<path fill="#FFFFFF" d="M72.3,56.2c0,0-0.1-0.1-0.2-0.1V56h4.8c0.1,0,0.2,0,0.2-0.1c0,0,0.1-0.1,0.1-0.2h0.1v1.3h-0.1
	c0-0.1,0-0.2-0.1-0.2c0,0-0.1-0.1-0.2-0.1h-3.8v1.6h2.7c0.1,0,0.2,0,0.2-0.1c0,0,0.1-0.1,0.1-0.2h0.1v1.3h-0.1c0-0.1,0-0.2-0.1-0.2
	c0,0-0.1-0.1-0.2-0.1h-2.7v1.7H77c0.1,0,0.2,0,0.2-0.1c0,0,0.1-0.1,0.1-0.2h0.1v1.2h-0.1c0-0.1,0-0.2-0.1-0.2c0,0-0.1,0-0.2,0h-5
	v-0.1c0.1,0,0.2,0,0.2-0.1c0,0,0.1-0.1,0.1-0.3v-4.3C72.3,56.3,72.3,56.2,72.3,56.2z"/>
<path fill="#FFFFFF" d="M78.4,61.1c0.1,0,0.2,0,0.3-0.1c0,0,0.1-0.1,0.1-0.3v-4.3c0-0.1,0-0.2-0.1-0.3c0,0-0.1-0.1-0.3-0.1V56h1.8
	v0.1c-0.1,0-0.2,0-0.3,0s-0.1,0-0.1,0.1c0,0,0,0.1,0.1,0.2l3.3,3.7v-3.7c0-0.1,0-0.2-0.1-0.3c0,0-0.1-0.1-0.3-0.1V56h1.3v0.1
	c-0.1,0-0.2,0-0.3,0.1c0,0-0.1,0.1-0.1,0.3v4.3c0,0.1,0,0.2,0.1,0.3c0,0,0.1,0.1,0.3,0.1v0.1h-1.6v-0.1c0.2,0,0.3,0,0.3,0s0,0,0-0.1
	c0,0,0-0.1,0-0.1c0,0-0.1-0.1-0.1-0.1l-3.4-3.9v3.9c0,0.1,0,0.2,0.1,0.3c0,0,0.1,0.1,0.3,0.1v0.1h-1.3L78.4,61.1L78.4,61.1z"/>
<path fill="#FFFFFF" d="M89.8,56.9c0-0.1,0-0.2-0.1-0.2c0,0-0.1-0.1-0.2-0.1h-1.9v4.1c0,0.1,0,0.2,0.1,0.3s0.1,0.1,0.2,0.1v0.1h-1.4
	v-0.1c0.1,0,0.2,0,0.2-0.1c0,0,0.1-0.1,0.1-0.3v-4.1H85c-0.1,0-0.2,0-0.2,0.1c0,0-0.1,0.1-0.1,0.2h-0.1v-1.2h0.1
	c0,0.1,0,0.2,0.1,0.2c0,0,0.1,0.1,0.2,0.1h4.5c0.1,0,0.2,0,0.2-0.1c0,0,0.1-0.1,0.1-0.2H90v1.2H89.8z"/>
<path fill="#FFFFFF" d="M91.5,61c0,0,0.1,0.1,0.2,0.1v0.1h-1.3v-0.1c0.1,0,0.2,0,0.2-0.1c0,0,0.1-0.1,0.1-0.3v-4.3
	c0-0.1,0-0.2-0.1-0.3c0,0-0.1-0.1-0.2-0.1V56h3.7c0.5,0,0.9,0.1,1.2,0.4c0.2,0.3,0.4,0.6,0.4,1.1c0,0.5-0.1,0.8-0.4,1.1
	c-0.3,0.2-0.6,0.4-1.1,0.4l1.3,2c0.1,0.1,0.1,0.1,0.1,0.2c0,0,0.1,0,0.2,0v0.1h-1.3v-0.1c0.1,0,0.1,0,0.2,0c0,0,0,0,0-0.1
	c0,0,0-0.1,0-0.1c0,0-0.1-0.1-0.1-0.2l-1.2-1.8h-1.9v1.9C91.4,60.9,91.5,61,91.5,61z M94,58.2c0.3,0,0.5-0.1,0.6-0.2
	c0.1-0.1,0.2-0.3,0.2-0.6c0-0.3-0.1-0.5-0.2-0.6c-0.1-0.1-0.4-0.2-0.7-0.2h-2.4v1.6L94,58.2L94,58.2z"/>
<path fill="#FFFFFF" d="M97,56.2c0,0-0.1-0.1-0.2-0.1V56h4.8c0.1,0,0.2,0,0.2-0.1c0,0,0.1-0.1,0.1-0.2h0.1v1.3h-0.1
	c0-0.1,0-0.2-0.1-0.2c0,0-0.1-0.1-0.2-0.1h-3.8v1.6h2.7c0.1,0,0.2,0,0.2-0.1c0,0,0.1-0.1,0.1-0.2h0.1v1.3h-0.1c0-0.1,0-0.2-0.1-0.2
	c0,0-0.1-0.1-0.2-0.1h-2.7v1.7h3.9c0.1,0,0.2,0,0.2-0.1c0,0,0.1-0.1,0.1-0.2h0.1v1.2H102c0-0.1,0-0.2-0.1-0.2c0,0-0.1,0-0.2,0h-5
	v-0.1c0.1,0,0.2,0,0.2-0.1c0,0,0.1-0.1,0.1-0.3v-4.3C97,56.3,97,56.2,97,56.2z"/>
<circle fill="#FFFFFF" cx="239.7" cy="65.5" r="1"/>
<path fill="#FFFFFF" d="M174.5,57.7c-0.4-0.1-0.9-0.2-1.3-0.3c-0.5-0.1-1.1-0.3-1.6-0.5c-1.1-0.3-2.1-0.7-3.1-1.1
	c-2-0.9-3.7-2.1-5.3-3.6c-1.6-1.5-3-3.2-4.2-5c-1.2-1.8-2.1-3.8-2.8-5.9c-0.6-2.2-0.9-4.4-1.1-6.6c0-0.3-0.1-0.6-0.1-0.8
	c0-10.1,6-18.8,14.7-22.6c-9.9,3.2-17.1,12.5-17.1,23.5c0,13.5,10.7,24.4,24.1,24.8h125.9v-0.6v-0.4V58c-0.2,0-0.4,0-0.6,0
	c-0.2,0-0.5,0-0.7,0c-0.3,0-0.6,0-0.9,0c-0.4,0-0.8,0-1.2,0c-0.5,0-1,0-1.5,0c-0.6,0-1.3,0-1.9,0c-0.8,0-1.5,0-2.3,0
	c-0.9,0-1.8,0-2.7,0c-1,0-2,0-3,0c-1.1,0-2.2,0-3.3,0c-1.2,0-2.3,0-3.5,0c-1.2,0-2.5,0-3.7,0c-1.3,0-2.6,0-3.9,0c-1.3,0-2.7,0-4,0
	c-1.4,0-2.7,0-4.1,0c-1.4,0-2.8,0-4.2,0c-1.4,0-2.9,0-4.3,0c-1.5,0-2.9,0-4.4,0c-1.5,0-3,0-4.4,0c-1.5,0-3,0-4.5,0c-1.5,0-3,0-4.5,0
	c-1.5,0-3,0-4.6,0c-1.5,0-3,0-4.6,0c-1.5,0-3,0-4.5,0c-1.5,0-3,0-4.5,0c-1.5,0-2.9,0-4.4,0c-1.4,0-2.9,0-4.3,0c-1.4,0-2.8,0-4.2,0
	c-1.3,0-2.7,0-4,0c-1.3,0-2.6,0-3.8,0c-1.2,0-2.4,0-3.7,0c-1.1,0-2.3,0-3.4,0c-1.1,0-2.1,0-3.2,0c-1,0-2,0-2.9,0c-0.9,0-1.8,0-2.7,0
	c-0.8,0-1.6,0-2.4,0c-0.7,0-1.4,0-2.1,0c-0.6,0-1.3,0-1.9,0c-0.6,0-1.1,0-1.7-0.1C175.8,57.9,175.2,57.8,174.5,57.7z"/>
<g>
	<g>
		<path fill="#FFFFFF" d="M179.1,67.2c0.1,0,0.2,0,0.2-0.1v-3.2c0-0.1-0.1-0.1-0.2-0.1v-0.1h1.2v0.1c-0.1,0-0.2,0-0.2,0.1V67
			c0,0.1,0.1,0.1,0.2,0.1v0.1h-1.2V67.2z"/>
		<path fill="#FFFFFF" d="M189.1,66.8C189.1,66.8,189.1,66.8,189.1,66.8C189,66.8,189,66.8,189.1,66.8c-0.1,0-0.2,0-0.3,0.1
			c-0.1,0.1-0.2,0.1-0.4,0.2c-0.2,0.1-0.4,0.1-0.6,0.2c-0.2,0.1-0.4,0.1-0.7,0.1c-0.3,0-0.6,0-0.9-0.1s-0.5-0.2-0.7-0.4
			c-0.2-0.2-0.4-0.4-0.5-0.6c-0.1-0.2-0.2-0.5-0.2-0.8c0-0.3,0.1-0.6,0.2-0.8c0.1-0.2,0.3-0.4,0.5-0.6c0.2-0.2,0.5-0.3,0.7-0.4
			s0.6-0.1,0.9-0.1c0.2,0,0.5,0,0.7,0.1c0.2,0,0.4,0.1,0.5,0.1c0.1,0,0.3,0.1,0.4,0.1s0.1,0.1,0.2,0.1c0,0,0,0,0.1,0c0,0,0,0,0-0.1
			l0.1,0.1l-0.6,0.9l-0.1,0c0,0,0,0,0,0c0,0,0,0,0,0c0-0.1-0.1-0.1-0.1-0.2s-0.2-0.1-0.3-0.1c-0.1,0-0.3-0.1-0.4-0.1s-0.3,0-0.4,0
			c-0.2,0-0.4,0-0.6,0.1c-0.2,0.1-0.3,0.1-0.5,0.2c-0.1,0.1-0.2,0.2-0.3,0.4c-0.1,0.2-0.1,0.3-0.1,0.5s0,0.4,0.1,0.5
			c0.1,0.2,0.2,0.3,0.3,0.4c0.1,0.1,0.3,0.2,0.5,0.3c0.2,0.1,0.4,0.1,0.6,0.1c0.2,0,0.3,0,0.5-0.1c0.2,0,0.3-0.1,0.5-0.1
			c0.1-0.1,0.3-0.1,0.3-0.2c0.1-0.1,0.1-0.1,0.1-0.2c0,0,0-0.1,0-0.1l0.1-0.1L189.1,66.8L189.1,66.8z"/>
		<path fill="#FFFFFF" d="M193.8,67.3v-0.1c0.2,0,0.3,0,0.3-0.1v-3.2c0-0.1-0.1-0.1-0.3-0.1v-0.1h2.5c0.5,0,0.8,0.1,1.1,0.3
			c0.3,0.2,0.4,0.5,0.4,0.9c0,0.4-0.1,0.7-0.4,0.9c-0.3,0.2-0.6,0.3-1.1,0.3h-1.4V67c0,0.1,0.1,0.1,0.2,0.1v0.1H193.8z M196.4,65.1
			c0.2,0,0.3,0,0.4-0.1c0.1-0.1,0.2-0.2,0.2-0.4c0-0.2-0.1-0.3-0.2-0.4c-0.1-0.1-0.2-0.1-0.4-0.1h-1.5v0.9H196.4z"/>
		<path fill="#FFFFFF" d="M204.5,63.5c0.3,0,0.5,0,0.7,0.1s0.4,0.2,0.6,0.3c0.2,0.2,0.3,0.3,0.4,0.6c0.1,0.2,0.1,0.5,0.1,0.8
			s0,0.6-0.1,0.8c-0.1,0.2-0.2,0.4-0.4,0.6c-0.2,0.2-0.4,0.3-0.6,0.3s-0.5,0.1-0.7,0.1h-2.4v-0.1c0.1,0,0.2,0,0.2-0.1v-3.2
			c0-0.1-0.1-0.1-0.2-0.1v-0.1H204.5z M204.2,66.7c0.2,0,0.4,0,0.6-0.1s0.3-0.1,0.4-0.2s0.2-0.2,0.2-0.4c0.1-0.2,0.1-0.4,0.1-0.6
			s0-0.5-0.1-0.6c-0.1-0.2-0.1-0.3-0.2-0.4s-0.2-0.2-0.4-0.2s-0.4-0.1-0.6-0.1h-1.1v2.5H204.2z"/>
		<path fill="#FFFFFF" d="M214.2,63.8c0-0.1-0.1-0.1-0.2-0.1v-0.1h1.1v0.1c0,0-0.1,0-0.1,0s0,0.1,0,0.1V67c0,0,0,0.1,0,0.1
			s0.1,0,0.1,0v0.1h-1.1v-0.1c0.1,0,0.2,0,0.2-0.1v-1.3h-2.3V67c0,0,0,0.1,0,0.1s0.1,0,0.1,0v0.1H211v-0.1c0.1,0,0.1,0,0.1-0.1v-3.2
			c0-0.1,0-0.1-0.1-0.1v-0.1h1.1v0.1c0,0-0.1,0-0.1,0s0,0.1,0,0.1V65h2.3V63.8z"/>
		<path fill="#FFFFFF" d="M220.1,67.2c0,0,0.1,0,0.1,0c0,0,0-0.1,0-0.1v-3.3c0,0,0-0.1,0-0.1c0,0-0.1,0-0.1,0v-0.1h1.3v0.1
			c0,0,0,0-0.1,0c0,0,0,0,0,0.1c0,0,0,0.1,0,0.1c0,0,0,0.1,0.1,0.1l1,1.9l1-1.8c0-0.1,0.1-0.1,0.1-0.1c0,0,0-0.1,0-0.1
			c0-0.1,0-0.1-0.1-0.1v-0.1h1.3v0.1c0,0-0.1,0-0.1,0s0,0,0,0.1V67c0,0,0,0.1,0,0.1s0.1,0,0.1,0v0.1h-1.1v-0.1c0.1,0,0.2,0,0.2-0.1
			v-2.4h0l-1.4,2.6h0l-1.4-2.6h0V67c0,0.1,0.1,0.1,0.2,0.1v0.1h-1.1V67.2z"/>
	</g>
</g>
<path fill="#FFFFFF" d="M258,66.8C258,66.8,258,66.8,258,66.8C258,66.8,258,66.8,258,66.8c-0.1,0-0.2,0-0.3,0.1
	c-0.1,0.1-0.2,0.1-0.4,0.2c-0.2,0.1-0.4,0.1-0.6,0.2c-0.2,0.1-0.4,0.1-0.7,0.1c-0.3,0-0.6,0-0.9-0.1s-0.5-0.2-0.7-0.4
	c-0.2-0.2-0.4-0.4-0.5-0.6c-0.1-0.2-0.2-0.5-0.2-0.8c0-0.3,0.1-0.6,0.2-0.8c0.1-0.2,0.3-0.4,0.5-0.6c0.2-0.2,0.5-0.3,0.7-0.4
	s0.6-0.1,0.9-0.1c0.2,0,0.5,0,0.7,0.1c0.2,0,0.4,0.1,0.5,0.1c0.1,0,0.3,0.1,0.4,0.1s0.1,0.1,0.2,0.1c0,0,0,0,0.1,0c0,0,0,0,0-0.1
	l0.1,0.1l-0.6,0.9l-0.1,0c0,0,0,0,0,0c0,0,0,0,0,0c0-0.1-0.1-0.1-0.1-0.2s-0.2-0.1-0.3-0.1c-0.1,0-0.3-0.1-0.4-0.1s-0.3,0-0.4,0
	c-0.2,0-0.4,0-0.6,0.1c-0.2,0.1-0.3,0.1-0.5,0.2c-0.1,0.1-0.2,0.2-0.3,0.4c-0.1,0.2-0.1,0.3-0.1,0.5s0,0.4,0.1,0.5
	c0.1,0.2,0.2,0.3,0.3,0.4c0.1,0.1,0.3,0.2,0.5,0.3c0.2,0.1,0.4,0.1,0.6,0.1c0.2,0,0.3,0,0.5-0.1c0.2,0,0.3-0.1,0.5-0.1
	c0.1-0.1,0.3-0.1,0.3-0.2c0.1-0.1,0.1-0.1,0.1-0.2c0,0,0-0.1,0-0.1l0.1-0.1L258,66.8L258,66.8z"/>
<path fill="#FFFFFF" d="M262.8,67.2c0.1,0,0.2,0,0.2-0.1v-3.2c0-0.1-0.1-0.1-0.2-0.1v-0.1h1.2v0.1c-0.1,0-0.2,0-0.2,0.1V67
	c0,0.1,0.1,0.1,0.2,0.1v0.1h-1.2V67.2z"/>
<path fill="#FFFFFF" d="M271,63.5c0.3,0,0.5,0,0.7,0.1s0.4,0.2,0.6,0.3c0.2,0.2,0.3,0.3,0.4,0.6c0.1,0.2,0.1,0.5,0.1,0.8
	s0,0.6-0.1,0.8c-0.1,0.2-0.2,0.4-0.4,0.6c-0.2,0.2-0.4,0.3-0.6,0.3s-0.5,0.1-0.7,0.1h-2.4v-0.1c0.1,0,0.2,0,0.2-0.1v-3.2
	c0-0.1-0.1-0.1-0.2-0.1v-0.1H271z M270.7,66.7c0.2,0,0.4,0,0.6-0.1s0.3-0.1,0.4-0.2s0.2-0.2,0.2-0.4c0.1-0.2,0.1-0.4,0.1-0.6
	s0-0.5-0.1-0.6c-0.1-0.2-0.1-0.3-0.2-0.4s-0.2-0.2-0.4-0.2s-0.4-0.1-0.6-0.1h-1.1v2.5H270.7z"/>
<path fill="#FFFFFF" d="M277.4,67.3v-0.1c0.2,0,0.3,0,0.3-0.1v-3.2c0-0.1-0.1-0.1-0.3-0.1v-0.1h2.5c0.5,0,0.8,0.1,1.1,0.3
	c0.3,0.2,0.4,0.5,0.4,0.9c0,0.4-0.1,0.7-0.4,0.9c-0.3,0.2-0.6,0.3-1.1,0.3h-1.4V67c0,0.1,0.1,0.1,0.2,0.1v0.1H277.4z M280,65.1
	c0.2,0,0.3,0,0.4-0.1c0.1-0.1,0.2-0.2,0.2-0.4c0-0.2-0.1-0.3-0.2-0.4c-0.1-0.1-0.2-0.1-0.4-0.1h-1.5v0.9H280z"/>
<path fill="#FFFFFF" d="M286.1,66.1L286.1,66.1c0.1,0.1,0.1,0.1,0.1,0.2c0,0.1,0.1,0.1,0.2,0.2s0.2,0.1,0.3,0.1
	c0.1,0,0.3,0.1,0.4,0.1s0.3,0,0.4,0c0.1,0,0.2,0,0.3,0s0.3,0,0.4-0.1s0.2-0.1,0.3-0.2c0.1-0.1,0.1-0.2,0.1-0.3c0-0.1,0-0.2-0.1-0.2
	c-0.1-0.1-0.2-0.1-0.3-0.1c-0.1,0-0.3,0-0.5,0c-0.2,0-0.4,0-0.5,0c-0.2,0-0.4,0-0.5-0.1s-0.3-0.1-0.5-0.2c-0.1-0.1-0.2-0.2-0.3-0.3
	c-0.1-0.1-0.1-0.3-0.1-0.5c0-0.1,0-0.3,0.1-0.4c0.1-0.1,0.2-0.3,0.3-0.4c0.1-0.1,0.3-0.2,0.5-0.3c0.2-0.1,0.5-0.1,0.8-0.1
	c0.3,0,0.5,0,0.7,0.1c0.2,0,0.3,0.1,0.5,0.1s0.2,0.1,0.3,0.1s0.2,0.1,0.2,0.1c0.1,0,0.1,0,0.1,0l0.1,0.1l-0.5,0.9l-0.1,0
	c0-0.1,0-0.1-0.1-0.2c0-0.1-0.1-0.1-0.2-0.2c-0.1-0.1-0.2-0.1-0.3-0.1s-0.2-0.1-0.4-0.1c-0.1,0-0.3,0-0.4,0c-0.1,0-0.2,0-0.3,0
	s-0.2,0-0.3,0.1s-0.2,0.1-0.2,0.1s-0.1,0.1-0.1,0.2c0,0.1,0,0.2,0.1,0.3c0.1,0.1,0.2,0.1,0.3,0.1s0.3,0,0.5,0.1c0.2,0,0.4,0,0.5,0
	c0.2,0,0.4,0,0.5,0.1s0.3,0.1,0.5,0.2c0.1,0.1,0.2,0.2,0.3,0.3c0.1,0.1,0.1,0.3,0.1,0.5c0,0.2-0.1,0.5-0.2,0.6
	c-0.1,0.2-0.3,0.3-0.5,0.4c-0.2,0.1-0.4,0.2-0.6,0.2c-0.2,0-0.4,0-0.6,0c-0.3,0-0.5,0-0.7,0c-0.2,0-0.3-0.1-0.5-0.1
	c-0.1,0-0.2-0.1-0.3-0.1c-0.1,0-0.1-0.1-0.2-0.1c0,0-0.1,0-0.1,0.1l-0.1-0.1L286.1,66.1z"/>
<path fill="#FFFFFF" d="M294.2,67.2c0,0,0.1,0,0.1,0c0,0,0-0.1,0-0.1v-3.3c0,0,0-0.1,0-0.1c0,0-0.1,0-0.1,0v-0.1h1.3v0.1
	c0,0,0,0-0.1,0c0,0,0,0,0,0.1c0,0,0,0.1,0,0.1c0,0,0,0.1,0.1,0.1l1,1.9l1-1.8c0-0.1,0.1-0.1,0.1-0.1c0,0,0-0.1,0-0.1
	c0-0.1,0-0.1-0.1-0.1v-0.1h1.3v0.1c0,0-0.1,0-0.1,0s0,0,0,0.1V67c0,0,0,0.1,0,0.1s0.1,0,0.1,0v0.1h-1.1v-0.1c0.1,0,0.2,0,0.2-0.1
	v-2.4h0l-1.4,2.6h0l-1.4-2.6h0V67c0,0.1,0.1,0.1,0.2,0.1v0.1h-1.1V67.2z"/>
<path fill="#FFFFFF" d="M178.5,33.8c0.2,0,0.3-0.1,0.3-0.2v-4.5c0-0.1-0.1-0.2-0.3-0.2v-0.2h1.7v0.2c-0.2,0-0.3,0.1-0.3,0.2v4.5
	c0,0.1,0.1,0.2,0.3,0.2v0.2h-1.7V33.8z"/>
<path fill="#FFFFFF" d="M182.4,33.8c0.1,0,0.2,0,0.2-0.1c0,0,0.1-0.1,0.1-0.2V30c0-0.1,0-0.2-0.1-0.2c0,0-0.1-0.1-0.2-0.1v-0.1h1.5
	v0.1c-0.1,0-0.2,0-0.2,0c0,0-0.1,0-0.1,0.1c0,0,0,0.1,0.1,0.2l2.7,3.1V30c0-0.1,0-0.2-0.1-0.2c0,0-0.1-0.1-0.2-0.1v-0.1h1.1v0.1
	c-0.1,0-0.2,0-0.2,0.1c0,0-0.1,0.1-0.1,0.2v3.6c0,0.1,0,0.2,0.1,0.2c0,0,0.1,0.1,0.2,0.1v0.1h-1.4v-0.1c0.1,0,0.2,0,0.2,0
	c0,0,0,0,0-0.1c0,0,0-0.1,0-0.1c0,0-0.1-0.1-0.1-0.1l-2.9-3.2v3.2c0,0.1,0,0.2,0.1,0.2c0,0,0.1,0.1,0.2,0.1v0.1h-1.1V33.8z"/>
<path fill="#FFFFFF" d="M193.4,30.4c0-0.1,0-0.1,0-0.2c0,0-0.1-0.1-0.2-0.1h-1.6v3.4c0,0.1,0,0.2,0,0.2c0,0,0.1,0.1,0.2,0.1v0.1
	h-1.2v-0.1c0.1,0,0.2,0,0.2-0.1c0,0,0-0.1,0-0.2v-3.4h-1.6c-0.1,0-0.2,0-0.2,0.1c0,0-0.1,0.1-0.1,0.2H189v-1h0.1
	c0,0.1,0,0.1,0.1,0.2c0,0,0.1,0.1,0.2,0.1h3.8c0.1,0,0.2,0,0.2-0.1c0,0,0-0.1,0-0.2h0.1v1H193.4z"/>
<path fill="#FFFFFF" d="M195.4,30c0-0.1,0-0.2,0-0.2c0,0-0.1-0.1-0.2-0.1v-0.1h4.1c0.1,0,0.2,0,0.2-0.1c0,0,0-0.1,0-0.2h0.1v1h-0.1
	c0-0.1,0-0.1,0-0.2c0,0-0.1-0.1-0.2-0.1h-3.2v1.3h2.2c0.1,0,0.2,0,0.2-0.1c0,0,0-0.1,0-0.2h0.1v1h-0.1c0-0.1,0-0.1,0-0.2
	c0,0-0.1-0.1-0.2-0.1h-2.2v1.4h3.3c0.1,0,0.2,0,0.2-0.1c0,0,0.1-0.1,0.1-0.2h0.1v1h-0.1c0-0.1,0-0.1-0.1-0.2c0,0-0.1,0-0.2,0h-4.2
	v-0.1c0.1,0,0.2,0,0.2-0.1c0,0,0-0.1,0-0.2V30z"/>
<path fill="#FFFFFF" d="M202.7,33.5c0,0.1,0,0.2,0,0.2c0,0,0.1,0.1,0.2,0.1v0.1h-1.1v-0.1c0.1,0,0.2,0,0.2-0.1c0,0,0-0.1,0-0.2V30
	c0-0.1,0-0.2,0-0.2c0,0-0.1-0.1-0.2-0.1v-0.1h3.1c0.4,0,0.8,0.1,1,0.3s0.3,0.5,0.3,0.9c0,0.4-0.1,0.7-0.3,0.9
	c-0.2,0.2-0.5,0.3-0.9,0.3l1.1,1.7c0,0.1,0.1,0.1,0.1,0.1c0,0,0.1,0,0.1,0v0.1h-1.1v-0.1c0.1,0,0.1,0,0.1,0c0,0,0,0,0-0.1
	c0,0,0-0.1,0-0.1c0,0,0-0.1-0.1-0.1l-1-1.5h-1.6V33.5z M204.9,31.4c0.2,0,0.4-0.1,0.5-0.2c0.1-0.1,0.2-0.3,0.2-0.5
	c0-0.2-0.1-0.4-0.2-0.5c-0.1-0.1-0.3-0.2-0.6-0.2h-2v1.3H204.9z"/>
<path fill="#FFFFFF" d="M208.5,33.8c0.1,0,0.2,0,0.2-0.1c0,0,0.1-0.1,0.1-0.2V30c0-0.1,0-0.2-0.1-0.2c0,0-0.1-0.1-0.2-0.1v-0.1h1.5
	v0.1c-0.1,0-0.2,0-0.2,0c0,0-0.1,0-0.1,0.1c0,0,0,0.1,0.1,0.2l2.7,3.1V30c0-0.1,0-0.2-0.1-0.2c0,0-0.1-0.1-0.2-0.1v-0.1h1.1v0.1
	c-0.1,0-0.2,0-0.2,0.1c0,0-0.1,0.1-0.1,0.2v3.6c0,0.1,0,0.2,0.1,0.2c0,0,0.1,0.1,0.2,0.1v0.1H212v-0.1c0.1,0,0.2,0,0.2,0
	c0,0,0,0,0-0.1c0,0,0-0.1,0-0.1c0,0-0.1-0.1-0.1-0.1l-2.9-3.2v3.2c0,0.1,0,0.2,0.1,0.2c0,0,0.1,0.1,0.2,0.1v0.1h-1.1V33.8z"/>
<path fill="#FFFFFF" d="M215,33.8c0.1,0,0.2,0,0.2-0.1c0,0,0.1-0.1,0.1-0.2l1.6-3.6c0-0.1,0.1-0.1,0.1-0.2c0,0,0-0.1-0.1-0.1
	s-0.1,0-0.2,0v-0.1h1.6v0.1c-0.1,0-0.1,0-0.2,0c0,0-0.1,0-0.1,0.1c0,0,0,0.1,0,0.1c0,0,0,0.1,0,0.1l1.7,3.6c0,0,0.1,0.1,0.1,0.1
	s0.1,0.1,0.2,0.1v0.1h-1.3v-0.1c0.1,0,0.2,0,0.2,0c0,0,0.1,0,0.1-0.1c0,0,0-0.1,0-0.1c0,0,0-0.1,0-0.1l-0.4-0.8h-2.4l-0.3,0.8
	c0,0.1-0.1,0.1-0.1,0.2c0,0.1,0,0.1,0,0.1c0,0,0,0.1,0.1,0.1c0,0,0.1,0,0.2,0v0.1H215V33.8z M216.6,32.1h2l-1-2.1L216.6,32.1z"/>
<path fill="#FFFFFF" d="M225.6,30.4c0-0.1,0-0.1,0-0.2c0,0-0.1-0.1-0.2-0.1h-1.6v3.4c0,0.1,0,0.2,0,0.2c0,0,0.1,0.1,0.2,0.1v0.1
	h-1.2v-0.1c0.1,0,0.2,0,0.2-0.1c0,0,0-0.1,0-0.2v-3.4h-1.6c-0.1,0-0.2,0-0.2,0.1c0,0-0.1,0.1-0.1,0.2h-0.1v-1h0.1
	c0,0.1,0,0.1,0.1,0.2c0,0,0.1,0.1,0.2,0.1h3.8c0.1,0,0.2,0,0.2-0.1c0,0,0-0.1,0-0.2h0.1v1H225.6z"/>
<path fill="#FFFFFF" d="M227.6,33.8c0.1,0,0.2,0,0.2-0.1c0,0,0-0.1,0-0.2V30c0-0.1,0-0.2,0-0.2c0,0-0.1-0.1-0.2-0.1v-0.1h1.1v0.1
	c-0.1,0-0.2,0-0.2,0.1c0,0,0,0.1,0,0.2v3.6c0,0.1,0,0.2,0,0.2c0,0,0.1,0.1,0.2,0.1v0.1h-1.1V33.8z"/>
<path fill="#FFFFFF" d="M233.4,29.5c0.4,0,0.7,0.1,1.1,0.2c0.3,0.1,0.6,0.3,0.8,0.5c0.2,0.2,0.4,0.4,0.5,0.7
	c0.1,0.3,0.2,0.6,0.2,0.9c0,0.3-0.1,0.6-0.2,0.9c-0.1,0.3-0.3,0.5-0.5,0.7c-0.2,0.2-0.5,0.4-0.8,0.5s-0.7,0.2-1.1,0.2
	s-0.7-0.1-1.1-0.2s-0.6-0.3-0.8-0.5c-0.2-0.2-0.4-0.4-0.5-0.7c-0.1-0.3-0.2-0.6-0.2-0.9c0-0.3,0.1-0.6,0.2-0.9
	c0.1-0.3,0.3-0.5,0.5-0.7c0.2-0.2,0.5-0.4,0.8-0.5C232.7,29.6,233,29.5,233.4,29.5z M233.4,30.1c-0.3,0-0.5,0-0.8,0.1
	c-0.2,0.1-0.4,0.2-0.6,0.4c-0.2,0.2-0.3,0.3-0.4,0.5c-0.1,0.2-0.1,0.4-0.1,0.7c0,0.2,0,0.5,0.1,0.7c0.1,0.2,0.2,0.4,0.4,0.5
	s0.4,0.3,0.6,0.4c0.2,0.1,0.5,0.1,0.8,0.1c0.3,0,0.5,0,0.8-0.1c0.2-0.1,0.4-0.2,0.6-0.4c0.2-0.2,0.3-0.3,0.4-0.5
	c0.1-0.2,0.1-0.4,0.1-0.7c0-0.2,0-0.4-0.1-0.7c-0.1-0.2-0.2-0.4-0.4-0.5c-0.2-0.2-0.4-0.3-0.6-0.4C234,30.1,233.7,30.1,233.4,30.1z"
	/>
<path fill="#FFFFFF" d="M237.9,33.8c0.1,0,0.2,0,0.2-0.1c0,0,0.1-0.1,0.1-0.2V30c0-0.1,0-0.2-0.1-0.2c0,0-0.1-0.1-0.2-0.1v-0.1h1.5
	v0.1c-0.1,0-0.2,0-0.2,0c0,0-0.1,0-0.1,0.1c0,0,0,0.1,0.1,0.2L242,33V30c0-0.1,0-0.2-0.1-0.2c0,0-0.1-0.1-0.2-0.1v-0.1h1.1v0.1
	c-0.1,0-0.2,0-0.2,0.1c0,0-0.1,0.1-0.1,0.2v3.6c0,0.1,0,0.2,0.1,0.2c0,0,0.1,0.1,0.2,0.1v0.1h-1.4v-0.1c0.1,0,0.2,0,0.2,0
	c0,0,0,0,0-0.1c0,0,0-0.1,0-0.1c0,0-0.1-0.1-0.1-0.1l-2.9-3.2v3.2c0,0.1,0,0.2,0.1,0.2c0,0,0.1,0.1,0.2,0.1v0.1h-1.1V33.8z"/>
<path fill="#FFFFFF" d="M244.4,33.8c0.1,0,0.2,0,0.2-0.1c0,0,0.1-0.1,0.1-0.2l1.6-3.6c0-0.1,0.1-0.1,0.1-0.2c0,0,0-0.1-0.1-0.1
	s-0.1,0-0.2,0v-0.1h1.6v0.1c-0.1,0-0.1,0-0.2,0c0,0-0.1,0-0.1,0.1c0,0,0,0.1,0,0.1c0,0,0,0.1,0,0.1l1.7,3.6c0,0,0.1,0.1,0.1,0.1
	s0.1,0.1,0.2,0.1v0.1h-1.3v-0.1c0.1,0,0.2,0,0.2,0c0,0,0.1,0,0.1-0.1c0,0,0-0.1,0-0.1c0,0,0-0.1,0-0.1l-0.4-0.8h-2.4l-0.3,0.8
	c0,0.1-0.1,0.1-0.1,0.2c0,0.1,0,0.1,0,0.1c0,0,0,0.1,0.1,0.1c0,0,0.1,0,0.2,0v0.1h-1.1V33.8z M246,32.1h2l-1-2.1L246,32.1z"/>
<path fill="#FFFFFF" d="M255.6,34.1c0-0.1,0-0.1-0.1-0.1s-0.1,0-0.2,0h-4v-0.1c0.1,0,0.2,0,0.2-0.1c0,0,0-0.1,0-0.2V30
	c0-0.1,0-0.2,0-0.2c0,0-0.1-0.1-0.2-0.1v-0.1h1.1v0.1c-0.1,0-0.2,0-0.2,0.1c0,0,0,0.1,0,0.2v3.4h3.2c0.1,0,0.2,0,0.2-0.1
	c0,0,0.1-0.1,0.1-0.2h0.1v1H255.6z"/>
<path fill="#FFFFFF" d="M266.5,33.2C266.5,33.2,266.4,33.2,266.5,33.2c-0.1,0-0.1,0-0.1,0c0,0-0.1,0-0.3,0.1
	c-0.2,0.1-0.3,0.2-0.6,0.3c-0.2,0.1-0.5,0.2-0.8,0.3s-0.6,0.1-0.9,0.1c-0.4,0-0.8-0.1-1.2-0.2c-0.4-0.1-0.7-0.3-1-0.5
	c-0.3-0.2-0.5-0.5-0.7-0.8s-0.3-0.7-0.3-1.2c0-0.4,0.1-0.8,0.3-1.2c0.2-0.3,0.4-0.6,0.7-0.8c0.3-0.2,0.6-0.4,1-0.5
	c0.4-0.1,0.8-0.2,1.2-0.2c0.3,0,0.7,0,0.9,0.1c0.3,0.1,0.5,0.1,0.7,0.2c0.2,0.1,0.4,0.1,0.5,0.2c0.1,0.1,0.2,0.1,0.2,0.1
	c0,0,0.1,0,0.1,0c0,0,0-0.1,0.1-0.1l0.2,0.1l-0.8,1.2l-0.1-0.1c0,0,0,0,0-0.1c0,0,0,0,0-0.1c0-0.1-0.1-0.1-0.2-0.2
	c-0.1-0.1-0.3-0.1-0.4-0.2c-0.2-0.1-0.4-0.1-0.6-0.1c-0.2,0-0.4-0.1-0.5-0.1c-0.3,0-0.6,0-0.8,0.1c-0.3,0.1-0.5,0.2-0.7,0.3
	s-0.3,0.3-0.5,0.6s-0.2,0.5-0.2,0.8c0,0.3,0.1,0.5,0.2,0.8c0.1,0.2,0.3,0.4,0.5,0.6c0.2,0.2,0.4,0.3,0.7,0.3
	c0.3,0.1,0.5,0.1,0.8,0.1c0.2,0,0.4,0,0.7-0.1c0.2,0,0.5-0.1,0.6-0.2c0.2-0.1,0.4-0.2,0.5-0.3c0.1-0.1,0.2-0.2,0.2-0.3
	c0,0,0-0.1,0-0.1l0.1-0.1L266.5,33.2L266.5,33.2z"/>
<path fill="#FFFFFF" d="M269,30c0-0.1,0-0.2,0-0.2c0,0-0.1-0.1-0.2-0.1v-0.1h4.1c0.1,0,0.2,0,0.2-0.1c0,0,0-0.1,0-0.2h0.1v1h-0.1
	c0-0.1,0-0.1,0-0.2c0,0-0.1-0.1-0.2-0.1h-3.2v1.3h2.2c0.1,0,0.2,0,0.2-0.1c0,0,0-0.1,0-0.2h0.1v1h-0.1c0-0.1,0-0.1,0-0.2
	c0,0-0.1-0.1-0.2-0.1h-2.2v1.4h3.3c0.1,0,0.2,0,0.2-0.1c0,0,0.1-0.1,0.1-0.2h0.1v1h-0.1c0-0.1,0-0.1-0.1-0.2c0,0-0.1,0-0.2,0h-4.2
	v-0.1c0.1,0,0.2,0,0.2-0.1c0,0,0-0.1,0-0.2V30z"/>
<path fill="#FFFFFF" d="M275.4,33.8c0.1,0,0.2,0,0.2-0.1c0,0,0.1-0.1,0.1-0.2V30c0-0.1,0-0.2-0.1-0.2c0,0-0.1-0.1-0.2-0.1v-0.1h1.5
	v0.1c-0.1,0-0.2,0-0.2,0c0,0-0.1,0-0.1,0.1c0,0,0,0.1,0.1,0.2l2.7,3.1V30c0-0.1,0-0.2-0.1-0.2c0,0-0.1-0.1-0.2-0.1v-0.1h1.1v0.1
	c-0.1,0-0.2,0-0.2,0.1c0,0-0.1,0.1-0.1,0.2v3.6c0,0.1,0,0.2,0.1,0.2c0,0,0.1,0.1,0.2,0.1v0.1h-1.4v-0.1c0.1,0,0.2,0,0.2,0
	c0,0,0,0,0-0.1c0,0,0-0.1,0-0.1c0,0-0.1-0.1-0.1-0.1l-2.9-3.2v3.2c0,0.1,0,0.2,0.1,0.2c0,0,0.1,0.1,0.2,0.1v0.1h-1.1V33.8z"/>
<path fill="#FFFFFF" d="M286.4,30.4c0-0.1,0-0.1,0-0.2c0,0-0.1-0.1-0.2-0.1h-1.6v3.4c0,0.1,0,0.2,0,0.2c0,0,0.1,0.1,0.2,0.1v0.1
	h-1.2v-0.1c0.1,0,0.2,0,0.2-0.1c0,0,0-0.1,0-0.2v-3.4h-1.6c-0.1,0-0.2,0-0.2,0.1c0,0-0.1,0.1-0.1,0.2h-0.1v-1h0.1
	c0,0.1,0,0.1,0.1,0.2c0,0,0.1,0.1,0.2,0.1h3.8c0.1,0,0.2,0,0.2-0.1c0,0,0-0.1,0-0.2h0.1v1H286.4z"/>
<path fill="#FFFFFF" d="M289.1,33.5c0,0.1,0,0.2,0,0.2c0,0,0.1,0.1,0.2,0.1v0.1h-1.1v-0.1c0.1,0,0.2,0,0.2-0.1c0,0,0-0.1,0-0.2V30
	c0-0.1,0-0.2,0-0.2c0,0-0.1-0.1-0.2-0.1v-0.1h3.1c0.4,0,0.8,0.1,1,0.3s0.3,0.5,0.3,0.9c0,0.4-0.1,0.7-0.3,0.9
	c-0.2,0.2-0.5,0.3-0.9,0.3l1.1,1.7c0,0.1,0.1,0.1,0.1,0.1c0,0,0.1,0,0.1,0v0.1h-1.1v-0.1c0.1,0,0.1,0,0.1,0c0,0,0,0,0-0.1
	c0,0,0-0.1,0-0.1c0,0,0-0.1-0.1-0.1l-1-1.5h-1.6V33.5z M291.2,31.4c0.2,0,0.4-0.1,0.5-0.2c0.1-0.1,0.2-0.3,0.2-0.5
	c0-0.2-0.1-0.4-0.2-0.5c-0.1-0.1-0.3-0.2-0.6-0.2h-2v1.3H291.2z"/>
<path fill="#FFFFFF" d="M295.1,30c0-0.1,0-0.2,0-0.2c0,0-0.1-0.1-0.2-0.1v-0.1h4.1c0.1,0,0.2,0,0.2-0.1c0,0,0-0.1,0-0.2h0.1v1h-0.1
	c0-0.1,0-0.1,0-0.2c0,0-0.1-0.1-0.2-0.1h-3.2v1.3h2.2c0.1,0,0.2,0,0.2-0.1c0,0,0-0.1,0-0.2h0.1v1h-0.1c0-0.1,0-0.1,0-0.2
	c0,0-0.1-0.1-0.2-0.1h-2.2v1.4h3.3c0.1,0,0.2,0,0.2-0.1c0,0,0.1-0.1,0.1-0.2h0.1v1h-0.1c0-0.1,0-0.1-0.1-0.2c0,0-0.1,0-0.2,0h-4.2
	v-0.1c0.1,0,0.2,0,0.2-0.1c0,0,0-0.1,0-0.2V30z"/>
<path fill="#FFFFFF" d="M181.7,39.8c0-0.1,0-0.1,0-0.1c0,0-0.1,0-0.2,0h-2.4v1.1h1.6c0.1,0,0.1,0,0.2,0c0,0,0-0.1,0-0.1h0.1v0.8
	h-0.1c0-0.1,0-0.1,0-0.1c0,0-0.1,0-0.2,0h-1.6v1.2c0,0.1,0,0.2,0,0.2c0,0,0.1,0,0.2,0v0.1h-1v-0.1c0.1,0,0.2,0,0.2,0
	c0,0,0-0.1,0-0.2v-2.9c0-0.1,0-0.2,0-0.2c0,0-0.1,0-0.2,0v-0.1h3.1c0.1,0,0.1,0,0.2,0c0,0,0-0.1,0-0.1h0.1L181.7,39.8L181.7,39.8z"
	/>
<path fill="#FFFFFF" d="M184.4,39.1c0.3,0,0.6,0,0.9,0.1c0.3,0.1,0.5,0.2,0.7,0.4s0.3,0.4,0.4,0.6s0.1,0.5,0.1,0.7s0,0.5-0.1,0.7
	s-0.2,0.4-0.4,0.6s-0.4,0.3-0.7,0.4c-0.3,0.1-0.5,0.1-0.9,0.1c-0.3,0-0.6,0-0.9-0.1c-0.3-0.1-0.5-0.2-0.7-0.4s-0.3-0.4-0.4-0.6
	s-0.1-0.5-0.1-0.7s0-0.5,0.1-0.7s0.2-0.4,0.4-0.6s0.4-0.3,0.7-0.4S184,39.1,184.4,39.1z M184.4,39.6c-0.2,0-0.4,0-0.6,0.1
	c-0.2,0.1-0.3,0.2-0.5,0.3c-0.1,0.1-0.2,0.3-0.3,0.4c-0.1,0.2-0.1,0.3-0.1,0.5c0,0.2,0,0.4,0.1,0.5c0.1,0.2,0.2,0.3,0.3,0.4
	c0.1,0.1,0.3,0.2,0.5,0.3c0.2,0.1,0.4,0.1,0.6,0.1s0.4,0,0.6-0.1c0.2-0.1,0.3-0.2,0.5-0.3c0.1-0.1,0.2-0.3,0.3-0.4
	c0.1-0.2,0.1-0.3,0.1-0.5c0-0.2,0-0.4-0.1-0.5c-0.1-0.2-0.2-0.3-0.3-0.4c-0.1-0.1-0.3-0.2-0.5-0.3C184.8,39.6,184.6,39.6,184.4,39.6
	z"/>
<path fill="#FFFFFF" d="M188,42.4c0,0.1,0,0.2,0,0.2c0,0,0.1,0,0.2,0v0.1h-0.9v-0.1c0.1,0,0.1,0,0.2,0c0,0,0-0.1,0-0.2v-2.9
	c0-0.1,0-0.2,0-0.2c0,0-0.1,0-0.2,0v-0.1h2.5c0.4,0,0.6,0.1,0.8,0.3s0.2,0.4,0.2,0.7c0,0.3-0.1,0.5-0.3,0.7
	c-0.2,0.2-0.4,0.2-0.7,0.3l0.9,1.4c0,0.1,0.1,0.1,0.1,0.1c0,0,0.1,0,0.1,0v0.1h-0.9v-0.1c0.1,0,0.1,0,0.1,0c0,0,0,0,0-0.1
	c0,0,0-0.1,0-0.1c0,0,0-0.1-0.1-0.1l-0.8-1.2H188V42.4z M189.8,40.7c0.2,0,0.3,0,0.4-0.1s0.1-0.2,0.1-0.4c0-0.2,0-0.3-0.1-0.4
	s-0.3-0.1-0.5-0.1H188v1.1H189.8z"/>
<path fill="#FFFFFF" d="M194,42.7v-0.1c0.2,0,0.3,0,0.3-0.1v-3.7c0-0.1-0.1-0.1-0.3-0.1v-0.1h2.9c0.5,0,0.9,0.1,1.2,0.3
	c0.3,0.2,0.5,0.5,0.5,1c0,0.5-0.2,0.8-0.5,1c-0.3,0.2-0.7,0.3-1.2,0.3h-1.7v1.4c0,0.1,0.1,0.1,0.3,0.1v0.1H194z M197,40.3
	c0.2,0,0.3,0,0.5-0.1s0.2-0.2,0.2-0.4c0-0.2-0.1-0.3-0.2-0.4c-0.1-0.1-0.3-0.1-0.5-0.1h-1.8v1H197z"/>
<path fill="#FFFFFF" d="M200,42.4c0,0.1,0,0.2,0,0.2c0,0,0.1,0,0.2,0v0.1h-0.9v-0.1c0.1,0,0.1,0,0.2,0c0,0,0-0.1,0-0.2v-2.9
	c0-0.1,0-0.2,0-0.2c0,0-0.1,0-0.2,0v-0.1h2.5c0.4,0,0.6,0.1,0.8,0.3s0.2,0.4,0.2,0.7c0,0.3-0.1,0.5-0.3,0.7
	c-0.2,0.2-0.4,0.2-0.7,0.3l0.9,1.4c0,0.1,0.1,0.1,0.1,0.1c0,0,0.1,0,0.1,0v0.1h-0.9v-0.1c0.1,0,0.1,0,0.1,0c0,0,0,0,0-0.1
	c0,0,0-0.1,0-0.1c0,0,0-0.1-0.1-0.1l-0.8-1.2H200V42.4z M201.8,40.7c0.2,0,0.3,0,0.4-0.1s0.1-0.2,0.1-0.4c0-0.2,0-0.3-0.1-0.4
	s-0.3-0.1-0.5-0.1H200v1.1H201.8z"/>
<path fill="#FFFFFF" d="M205.7,39.1c0.3,0,0.6,0,0.9,0.1c0.3,0.1,0.5,0.2,0.7,0.4s0.3,0.4,0.4,0.6s0.1,0.5,0.1,0.7s0,0.5-0.1,0.7
	s-0.2,0.4-0.4,0.6s-0.4,0.3-0.7,0.4c-0.3,0.1-0.5,0.1-0.9,0.1c-0.3,0-0.6,0-0.9-0.1c-0.3-0.1-0.5-0.2-0.7-0.4s-0.3-0.4-0.4-0.6
	s-0.1-0.5-0.1-0.7s0-0.5,0.1-0.7s0.2-0.4,0.4-0.6s0.4-0.3,0.7-0.4S205.4,39.1,205.7,39.1z M205.7,39.6c-0.2,0-0.4,0-0.6,0.1
	c-0.2,0.1-0.3,0.2-0.5,0.3c-0.1,0.1-0.2,0.3-0.3,0.4c-0.1,0.2-0.1,0.3-0.1,0.5c0,0.2,0,0.4,0.1,0.5c0.1,0.2,0.2,0.3,0.3,0.4
	c0.1,0.1,0.3,0.2,0.5,0.3c0.2,0.1,0.4,0.1,0.6,0.1s0.4,0,0.6-0.1c0.2-0.1,0.3-0.2,0.5-0.3c0.1-0.1,0.2-0.3,0.3-0.4
	c0.1-0.2,0.1-0.3,0.1-0.5c0-0.2,0-0.4-0.1-0.5c-0.1-0.2-0.2-0.3-0.3-0.4c-0.1-0.1-0.3-0.2-0.5-0.3C206.2,39.6,206,39.6,205.7,39.6z"
	/>
<path fill="#FFFFFF" d="M212,39.8c0-0.1,0-0.1,0-0.1c0,0-0.1,0-0.2,0h-2.4v1.1h1.6c0.1,0,0.1,0,0.2,0c0,0,0-0.1,0-0.1h0.1v0.8h-0.1
	c0-0.1,0-0.1,0-0.1c0,0-0.1,0-0.2,0h-1.6v1.2c0,0.1,0,0.2,0,0.2c0,0,0.1,0,0.2,0v0.1h-1v-0.1c0.1,0,0.2,0,0.2,0c0,0,0-0.1,0-0.2
	v-2.9c0-0.1,0-0.2,0-0.2c0,0-0.1,0-0.2,0v-0.1h3.1c0.1,0,0.1,0,0.2,0c0,0,0-0.1,0-0.1h0.1L212,39.8L212,39.8z"/>
<path fill="#FFFFFF" d="M213.1,39.5c0-0.1,0-0.2,0-0.2c0,0-0.1,0-0.2,0v-0.1h3.3c0.1,0,0.1,0,0.2,0c0,0,0-0.1,0-0.1h0.1v0.8h-0.1
	c0-0.1,0-0.1,0-0.1c0,0-0.1,0-0.2,0h-2.6v1h1.8c0.1,0,0.1,0,0.2,0c0,0,0-0.1,0-0.1h0.1v0.8h-0.1c0-0.1,0-0.1,0-0.1c0,0-0.1,0-0.2,0
	h-1.8v1.1h2.7c0.1,0,0.1,0,0.2,0s0-0.1,0-0.1h0.1v0.8h-0.1c0-0.1,0-0.1,0-0.1s-0.1,0-0.2,0h-3.4v-0.1c0.1,0,0.1,0,0.2,0
	c0,0,0-0.1,0-0.2V39.5z"/>
<path fill="#FFFFFF" d="M217.7,41.7c0,0.1,0,0.1,0,0.1c0,0,0,0.1,0.1,0.1s0.2,0.1,0.3,0.2s0.3,0.1,0.5,0.1s0.4,0.1,0.6,0.1
	c0.4,0,0.7,0,0.9-0.1c0.2-0.1,0.3-0.2,0.3-0.4c0-0.2-0.1-0.3-0.2-0.4c-0.1-0.1-0.3-0.1-0.5-0.1c-0.2,0-0.5-0.1-0.7-0.1
	c-0.3,0-0.5,0-0.7-0.1s-0.4-0.1-0.5-0.3c-0.1-0.1-0.2-0.3-0.2-0.6c0-0.2,0-0.4,0.1-0.5s0.2-0.3,0.3-0.3s0.3-0.2,0.5-0.2
	c0.2,0,0.4-0.1,0.6-0.1c0.2,0,0.4,0,0.6,0s0.3,0.1,0.4,0.1c0.1,0,0.2,0.1,0.3,0.1c0.1,0,0.1,0,0.2,0c0,0,0,0,0.1,0c0,0,0,0,0.1-0.1
	l0.1,0l-0.3,0.8l-0.1,0c0,0,0,0,0,0c0,0,0,0,0-0.1c0,0,0-0.1-0.1-0.1c-0.1,0-0.2-0.1-0.3-0.1s-0.3-0.1-0.4-0.1c-0.2,0-0.3,0-0.5,0
	c-0.2,0-0.4,0-0.5,0.1c-0.1,0-0.2,0.1-0.3,0.1c-0.1,0.1-0.1,0.1-0.2,0.2c0,0.1,0,0.1,0,0.2c0,0.2,0.1,0.3,0.2,0.3
	c0.1,0.1,0.3,0.1,0.5,0.1c0.2,0,0.5,0,0.7,0.1c0.3,0,0.5,0,0.7,0.1c0.2,0.1,0.4,0.1,0.5,0.3c0.1,0.1,0.2,0.3,0.2,0.5
	c0,0.4-0.1,0.7-0.4,0.9c-0.3,0.2-0.7,0.3-1.4,0.3c-0.2,0-0.4,0-0.6,0c-0.2,0-0.3-0.1-0.5-0.1c-0.1,0-0.2-0.1-0.3-0.1
	c-0.1,0-0.2-0.1-0.2-0.1c0,0-0.1,0-0.1,0c0,0,0,0.1,0,0.1l-0.1,0L217.7,41.7L217.7,41.7z"/>
<path fill="#FFFFFF" d="M221.9,41.7c0,0.1,0,0.1,0,0.1c0,0,0,0.1,0.1,0.1s0.2,0.1,0.3,0.2s0.3,0.1,0.5,0.1s0.4,0.1,0.6,0.1
	c0.4,0,0.7,0,0.9-0.1c0.2-0.1,0.3-0.2,0.3-0.4c0-0.2-0.1-0.3-0.2-0.4c-0.1-0.1-0.3-0.1-0.5-0.1c-0.2,0-0.5-0.1-0.7-0.1
	c-0.3,0-0.5,0-0.7-0.1s-0.4-0.1-0.5-0.3c-0.1-0.1-0.2-0.3-0.2-0.6c0-0.2,0-0.4,0.1-0.5s0.2-0.3,0.3-0.3s0.3-0.2,0.5-0.2
	c0.2,0,0.4-0.1,0.6-0.1c0.2,0,0.4,0,0.6,0s0.3,0.1,0.4,0.1c0.1,0,0.2,0.1,0.3,0.1c0.1,0,0.1,0,0.2,0c0,0,0,0,0.1,0c0,0,0,0,0.1-0.1
	l0.1,0l-0.3,0.8l-0.1,0c0,0,0,0,0,0c0,0,0,0,0-0.1c0,0,0-0.1-0.1-0.1c-0.1,0-0.2-0.1-0.3-0.1s-0.3-0.1-0.4-0.1c-0.2,0-0.3,0-0.5,0
	c-0.2,0-0.4,0-0.5,0.1c-0.1,0-0.2,0.1-0.3,0.1c-0.1,0.1-0.1,0.1-0.2,0.2c0,0.1,0,0.1,0,0.2c0,0.2,0.1,0.3,0.2,0.3
	c0.1,0.1,0.3,0.1,0.5,0.1c0.2,0,0.5,0,0.7,0.1c0.3,0,0.5,0,0.7,0.1c0.2,0.1,0.4,0.1,0.5,0.3c0.1,0.1,0.2,0.3,0.2,0.5
	c0,0.4-0.1,0.7-0.4,0.9c-0.3,0.2-0.7,0.3-1.4,0.3c-0.2,0-0.4,0-0.6,0c-0.2,0-0.3-0.1-0.5-0.1c-0.1,0-0.2-0.1-0.3-0.1
	c-0.1,0-0.2-0.1-0.2-0.1c0,0-0.1,0-0.1,0c0,0,0,0.1,0,0.1l-0.1,0L221.9,41.7L221.9,41.7z"/>
<path fill="#FFFFFF" d="M226.2,42.6c0.1,0,0.1,0,0.2,0c0,0,0-0.1,0-0.2v-2.9c0-0.1,0-0.2,0-0.2c0,0-0.1,0-0.2,0v-0.1h0.9v0.1
	c-0.1,0-0.1,0-0.2,0c0,0,0,0.1,0,0.2v2.9c0,0.1,0,0.2,0,0.2c0,0,0.1,0,0.2,0v0.1L226.2,42.6L226.2,42.6z"/>
<path fill="#FFFFFF" d="M230.2,39.1c0.3,0,0.6,0,0.9,0.1c0.3,0.1,0.5,0.2,0.7,0.4s0.3,0.4,0.4,0.6s0.1,0.5,0.1,0.7s0,0.5-0.1,0.7
	s-0.2,0.4-0.4,0.6s-0.4,0.3-0.7,0.4c-0.3,0.1-0.5,0.1-0.9,0.1c-0.3,0-0.6,0-0.9-0.1c-0.3-0.1-0.5-0.2-0.7-0.4s-0.3-0.4-0.4-0.6
	s-0.1-0.5-0.1-0.7s0-0.5,0.1-0.7s0.2-0.4,0.4-0.6s0.4-0.3,0.7-0.4S229.9,39.1,230.2,39.1z M230.2,39.6c-0.2,0-0.4,0-0.6,0.1
	c-0.2,0.1-0.3,0.2-0.5,0.3c-0.1,0.1-0.2,0.3-0.3,0.4c-0.1,0.2-0.1,0.3-0.1,0.5c0,0.2,0,0.4,0.1,0.5c0.1,0.2,0.2,0.3,0.3,0.4
	c0.1,0.1,0.3,0.2,0.5,0.3c0.2,0.1,0.4,0.1,0.6,0.1s0.4,0,0.6-0.1c0.2-0.1,0.3-0.2,0.5-0.3c0.1-0.1,0.2-0.3,0.3-0.4
	c0.1-0.2,0.1-0.3,0.1-0.5c0-0.2,0-0.4-0.1-0.5c-0.1-0.2-0.2-0.3-0.3-0.4c-0.1-0.1-0.3-0.2-0.5-0.3C230.6,39.6,230.4,39.6,230.2,39.6
	z"/>
<path fill="#FFFFFF" d="M233.1,42.6c0.1,0,0.1,0,0.2,0c0,0,0-0.1,0-0.2v-2.9c0-0.1,0-0.2,0-0.2c0,0-0.1,0-0.2,0v-0.1h1.2v0.1
	c-0.1,0-0.1,0-0.2,0s0,0,0,0.1c0,0,0,0.1,0.1,0.1l2.2,2.5v-2.5c0-0.1,0-0.2,0-0.2c0,0-0.1,0-0.2,0v-0.1h0.9v0.1c-0.1,0-0.1,0-0.2,0
	c0,0,0,0.1,0,0.2v2.9c0,0.1,0,0.2,0,0.2c0,0,0.1,0,0.2,0v0.1H236v-0.1c0.1,0,0.2,0,0.2,0c0,0,0,0,0-0.1c0,0,0,0,0-0.1
	c0,0,0,0-0.1-0.1l-2.3-2.6v2.6c0,0.1,0,0.2,0,0.2c0,0,0.1,0,0.2,0v0.1L233.1,42.6L233.1,42.6z"/>
<path fill="#FFFFFF" d="M237.6,42.6c0.1,0,0.1,0,0.2-0.1c0,0,0.1-0.1,0.1-0.1l1.3-2.9c0-0.1,0-0.1,0-0.1c0,0,0-0.1,0-0.1
	c0,0-0.1,0-0.2,0v-0.1h1.3v0.1c0,0-0.1,0-0.1,0s-0.1,0-0.1,0.1c0,0,0,0.1,0,0.1c0,0,0,0.1,0,0.1l1.4,2.9c0,0,0,0.1,0.1,0.1
	c0,0,0.1,0.1,0.2,0.1v0.1h-1v-0.1c0.1,0,0.2,0,0.2,0c0,0,0,0,0-0.1c0,0,0-0.1,0-0.1c0,0,0-0.1,0-0.1l-0.3-0.7h-2l-0.3,0.6
	c0,0,0,0.1-0.1,0.1c0,0,0,0.1,0,0.1c0,0,0,0.1,0,0.1c0,0,0.1,0,0.2,0v0.1L237.6,42.6L237.6,42.6z M238.9,41.2h1.6l-0.8-1.7
	L238.9,41.2z"/>
<path fill="#FFFFFF" d="M246,42.9c0-0.1,0-0.1,0-0.1s-0.1,0-0.2,0h-3.3v-0.1c0.1,0,0.1,0,0.2,0c0,0,0-0.1,0-0.2v-2.9
	c0-0.1,0-0.2,0-0.2c0,0-0.1,0-0.2,0v-0.1h0.9v0.1c-0.1,0-0.1,0-0.2,0c0,0,0,0.1,0,0.2v2.8h2.6c0.1,0,0.1,0,0.2-0.1c0,0,0-0.1,0-0.2
	h0.1L246,42.9L246,42.9z"/>
<path fill="#FFFFFF" d="M251.5,38.5c0.3,0,0.6,0,0.8,0.1s0.5,0.2,0.7,0.4s0.3,0.4,0.5,0.7c0.1,0.3,0.2,0.6,0.2,0.9s-0.1,0.7-0.2,0.9
	c-0.1,0.3-0.3,0.5-0.5,0.7s-0.4,0.3-0.7,0.4s-0.5,0.1-0.8,0.1h-2.7v-0.1c0.1,0,0.2,0,0.2-0.1v-3.7c0-0.1-0.1-0.1-0.2-0.1v-0.1H251.5
	z M251.1,42c0.3,0,0.5,0,0.7-0.1s0.4-0.1,0.5-0.2s0.2-0.3,0.3-0.4c0.1-0.2,0.1-0.4,0.1-0.7c0-0.3,0-0.5-0.1-0.7
	c-0.1-0.2-0.2-0.3-0.3-0.4s-0.3-0.2-0.5-0.2s-0.4-0.1-0.7-0.1h-1.3V42H251.1z"/>
<path fill="#FFFFFF" d="M254.7,39.5c0-0.1,0-0.2,0-0.2c0,0-0.1,0-0.2,0v-0.1h3.3c0.1,0,0.1,0,0.2,0c0,0,0-0.1,0-0.1h0.1v0.8H258
	c0-0.1,0-0.1,0-0.1c0,0-0.1,0-0.2,0h-2.6v1h1.8c0.1,0,0.1,0,0.2,0c0,0,0-0.1,0-0.1h0.1v0.8h-0.1c0-0.1,0-0.1,0-0.1c0,0-0.1,0-0.2,0
	h-1.8v1.1h2.7c0.1,0,0.1,0,0.2,0s0-0.1,0-0.1h0.1v0.8h-0.1c0-0.1,0-0.1,0-0.1s-0.1,0-0.2,0h-3.4v-0.1c0.1,0,0.1,0,0.2,0
	c0,0,0-0.1,0-0.2V39.5z"/>
<path fill="#FFFFFF" d="M259.5,39.2L259.5,39.2c0,0.1-0.1,0.1-0.1,0.1s-0.1,0.1-0.1,0.1c0,0,0,0.1,0,0.1c0,0,0,0.1,0.1,0.1l1.2,2.4
	l1.1-2.5c0,0,0-0.1,0-0.1c0,0,0-0.1,0-0.1c0-0.1-0.1-0.1-0.2-0.1v-0.1h0.8v0.1c-0.1,0-0.1,0-0.2,0.1l-1.3,2.9c0,0,0,0.1,0,0.1
	c0,0,0,0.1,0,0.1c0,0.1,0.1,0.1,0.2,0.1v0.1h-1v-0.1c0.1,0,0.1,0,0.1-0.1c0,0,0-0.1,0-0.1c0-0.1-0.1-0.1-0.1-0.2l-1.3-2.8
	c0-0.1-0.1-0.1-0.1-0.1c0,0-0.1,0-0.2,0v-0.1H259.5z"/>
<path fill="#FFFFFF" d="M263.1,39.5c0-0.1,0-0.2,0-0.2c0,0-0.1,0-0.2,0v-0.1h3.3c0.1,0,0.1,0,0.2,0c0,0,0-0.1,0-0.1h0.1v0.8h-0.1
	c0-0.1,0-0.1,0-0.1c0,0-0.1,0-0.2,0h-2.6v1h1.8c0.1,0,0.1,0,0.2,0c0,0,0-0.1,0-0.1h0.1v0.8h-0.1c0-0.1,0-0.1,0-0.1c0,0-0.1,0-0.2,0
	h-1.8v1.1h2.7c0.1,0,0.1,0,0.2,0s0-0.1,0-0.1h0.1v0.8h-0.1c0-0.1,0-0.1,0-0.1s-0.1,0-0.2,0h-3.4v-0.1c0.1,0,0.1,0,0.2,0
	c0,0,0-0.1,0-0.2V39.5z"/>
<path fill="#FFFFFF" d="M271.1,42.9c0-0.1,0-0.1,0-0.1s-0.1,0-0.2,0h-3.3v-0.1c0.1,0,0.1,0,0.2,0c0,0,0-0.1,0-0.2v-2.9
	c0-0.1,0-0.2,0-0.2c0,0-0.1,0-0.2,0v-0.1h0.9v0.1c-0.1,0-0.1,0-0.2,0c0,0,0,0.1,0,0.2v2.8h2.6c0.1,0,0.1,0,0.2-0.1c0,0,0-0.1,0-0.2
	h0.1L271.1,42.9L271.1,42.9z"/>
<path fill="#FFFFFF" d="M273.6,39.1c0.3,0,0.6,0,0.9,0.1c0.3,0.1,0.5,0.2,0.7,0.4s0.3,0.4,0.4,0.6s0.1,0.5,0.1,0.7s0,0.5-0.1,0.7
	s-0.2,0.4-0.4,0.6s-0.4,0.3-0.7,0.4c-0.3,0.1-0.5,0.1-0.9,0.1c-0.3,0-0.6,0-0.9-0.1c-0.3-0.1-0.5-0.2-0.7-0.4s-0.3-0.4-0.4-0.6
	s-0.1-0.5-0.1-0.7s0-0.5,0.1-0.7s0.2-0.4,0.4-0.6s0.4-0.3,0.7-0.4S273.3,39.1,273.6,39.1z M273.6,39.6c-0.2,0-0.4,0-0.6,0.1
	c-0.2,0.1-0.3,0.2-0.5,0.3c-0.1,0.1-0.2,0.3-0.3,0.4c-0.1,0.2-0.1,0.3-0.1,0.5c0,0.2,0,0.4,0.1,0.5c0.1,0.2,0.2,0.3,0.3,0.4
	c0.1,0.1,0.3,0.2,0.5,0.3c0.2,0.1,0.4,0.1,0.6,0.1s0.4,0,0.6-0.1c0.2-0.1,0.3-0.2,0.5-0.3c0.1-0.1,0.2-0.3,0.3-0.4
	c0.1-0.2,0.1-0.3,0.1-0.5c0-0.2,0-0.4-0.1-0.5c-0.1-0.2-0.2-0.3-0.3-0.4c-0.1-0.1-0.3-0.2-0.5-0.3C274,39.6,273.8,39.6,273.6,39.6z"
	/>
<path fill="#FFFFFF" d="M276.7,39.5c0-0.1,0-0.2,0-0.2c0,0-0.1,0-0.2,0v-0.1h2.2c0.8,0,1.2,0.3,1.2,1c0,0.2,0,0.3-0.1,0.4
	c-0.1,0.1-0.2,0.2-0.3,0.3c-0.1,0.1-0.2,0.2-0.4,0.2s-0.3,0.1-0.4,0.1h-1.6v1.2c0,0.1,0,0.2,0,0.2c0,0,0.1,0,0.2,0v0.1h-0.9v-0.1
	c0.1,0,0.1,0,0.2,0c0,0,0-0.1,0-0.2V39.5z M278.8,40.7c0.2,0,0.4-0.1,0.5-0.2c0.1-0.1,0.2-0.2,0.2-0.4c0-0.2-0.1-0.3-0.2-0.4
	c-0.1-0.1-0.3-0.1-0.6-0.1h-1.4v1.1H278.8z"/>
<path fill="#FFFFFF" d="M284.2,42.6c0.1,0,0.1,0,0.2,0c0,0,0-0.1,0-0.2v-2.5h0l-1.5,2.7l-1.5-2.7h0v2.5c0,0.1,0,0.2,0,0.2
	c0,0,0.1,0,0.2,0v0.1h-0.9v-0.1c0.1,0,0.1,0,0.2,0c0,0,0-0.1,0-0.2v-2.9c0-0.1,0-0.2,0-0.2c0,0-0.1,0-0.2,0v-0.1h1.1v0.1
	c-0.1,0-0.2,0-0.2,0.1c0,0,0,0,0,0.1l1.2,2.2l1.2-2.2c0-0.1,0-0.1,0-0.1c0-0.1-0.1-0.1-0.2-0.1v-0.1h1.1v0.1c-0.1,0-0.1,0-0.2,0
	c0,0,0,0.1,0,0.2v2.9c0,0.1,0,0.2,0,0.2c0,0,0.1,0,0.2,0v0.1L284.2,42.6L284.2,42.6z"/>
<path fill="#FFFFFF" d="M286.5,39.5c0-0.1,0-0.2,0-0.2c0,0-0.1,0-0.2,0v-0.1h3.3c0.1,0,0.1,0,0.2,0c0,0,0-0.1,0-0.1h0.1v0.8h-0.1
	c0-0.1,0-0.1,0-0.1c0,0-0.1,0-0.2,0h-2.6v1h1.8c0.1,0,0.1,0,0.2,0c0,0,0-0.1,0-0.1h0.1v0.8h-0.1c0-0.1,0-0.1,0-0.1c0,0-0.1,0-0.2,0
	h-1.8v1.1h2.7c0.1,0,0.1,0,0.2,0s0-0.1,0-0.1h0.1v0.8H290c0-0.1,0-0.1,0-0.1s-0.1,0-0.2,0h-3.4v-0.1c0.1,0,0.1,0,0.2,0
	c0,0,0-0.1,0-0.2V39.5z"/>
<path fill="#FFFFFF" d="M291,42.6c0.1,0,0.1,0,0.2,0c0,0,0-0.1,0-0.2v-2.9c0-0.1,0-0.2,0-0.2c0,0-0.1,0-0.2,0v-0.1h1.2v0.1
	c-0.1,0-0.1,0-0.2,0s0,0,0,0.1c0,0,0,0.1,0.1,0.1l2.2,2.5v-2.5c0-0.1,0-0.2,0-0.2c0,0-0.1,0-0.2,0v-0.1h0.9v0.1c-0.1,0-0.1,0-0.2,0
	c0,0,0,0.1,0,0.2v2.9c0,0.1,0,0.2,0,0.2c0,0,0.1,0,0.2,0v0.1h-1.1v-0.1c0.1,0,0.2,0,0.2,0c0,0,0,0,0-0.1c0,0,0,0,0-0.1
	c0,0,0,0-0.1-0.1l-2.3-2.6v2.6c0,0.1,0,0.2,0,0.2c0,0,0.1,0,0.2,0v0.1L291,42.6L291,42.6z"/>
<path fill="#FFFFFF" d="M299.2,39.8c0-0.1,0-0.1,0-0.1c0,0-0.1,0-0.2,0h-1.3v2.8c0,0.1,0,0.2,0,0.2c0,0,0.1,0,0.2,0v0.1h-1v-0.1
	c0.1,0,0.1,0,0.2,0c0,0,0-0.1,0-0.2v-2.8h-1.3c-0.1,0-0.1,0-0.2,0c0,0,0,0.1,0,0.1h-0.1V39h0.1c0,0.1,0,0.1,0,0.1c0,0,0.1,0,0.2,0
	h3.1c0.1,0,0.1,0,0.2,0c0,0,0-0.1,0-0.1h0.1L299.2,39.8L299.2,39.8z"/>
<path fill="#FFFFFF" d="M178.7,52.2c0.1,0,0.2,0,0.2-0.1s0-0.1,0-0.2v-3.4c0-0.1,0-0.2,0-0.2s-0.1-0.1-0.2-0.1v-0.1h1.1v0.1
	c-0.1,0-0.2,0-0.2,0.1s0,0.1,0,0.2v3.4c0,0.1,0,0.2,0,0.2s0.1,0.1,0.2,0.1v0.1h-1.1V52.2z"/>
<path fill="#FFFFFF" d="M182,52.2c0.1,0,0.2,0,0.2-0.1c0,0,0.1-0.1,0.1-0.2v-3.4c0-0.1,0-0.2-0.1-0.2c0,0-0.1-0.1-0.2-0.1v-0.1h1.4
	v0.1c-0.1,0-0.2,0-0.2,0c0,0-0.1,0-0.1,0.1c0,0,0,0.1,0.1,0.2l2.6,3v-2.9c0-0.1,0-0.2-0.1-0.2c0,0-0.1-0.1-0.2-0.1v-0.1h1.1v0.1
	c-0.1,0-0.2,0-0.2,0.1c0,0-0.1,0.1-0.1,0.2v3.4c0,0.1,0,0.2,0.1,0.2c0,0,0.1,0.1,0.2,0.1v0.1h-1.3v-0.1c0.1,0,0.2,0,0.2,0
	c0,0,0,0,0-0.1s0-0.1,0-0.1s0-0.1-0.1-0.1l-2.7-3.1v3.1c0,0.1,0,0.2,0.1,0.2c0,0,0.1,0.1,0.2,0.1v0.1H182V52.2z"/>
<path fill="#FFFFFF" d="M196.5,47.6c0-0.1-0.1-0.2-0.2-0.2v-0.2h1.5v0.2c0,0-0.1,0-0.1,0c0,0-0.1,0.1-0.1,0.1v4.3
	c0,0.1,0,0.1,0.1,0.1c0,0,0.1,0,0.1,0v0.2h-1.5v-0.2c0.1,0,0.2-0.1,0.2-0.2v-1.8h-3.1v1.8c0,0.1,0,0.1,0.1,0.1c0,0,0.1,0,0.1,0v0.2
	h-1.5v-0.2c0.1,0,0.2-0.1,0.2-0.2v-4.3c0-0.1-0.1-0.2-0.2-0.2v-0.2h1.5v0.2c0,0-0.1,0-0.1,0s-0.1,0.1-0.1,0.1v1.6h3.1V47.6z"/>
<path fill="#FFFFFF" d="M200.1,48.5c0-0.1,0-0.2,0-0.2s-0.1-0.1-0.2-0.1v-0.1h3.9c0.1,0,0.2,0,0.2-0.1c0,0,0-0.1,0-0.2h0.1v1h-0.1
	c0-0.1,0-0.1,0-0.2c0,0-0.1-0.1-0.2-0.1h-3v1.2h2.1c0.1,0,0.2,0,0.2-0.1c0,0,0-0.1,0-0.2h0.1v1h-0.1c0-0.1,0-0.1,0-0.2
	c0,0-0.1-0.1-0.2-0.1h-2.1v1.4h3.2c0.1,0,0.2,0,0.2-0.1c0,0,0-0.1,0-0.2h0.1v1h-0.1c0-0.1,0-0.1,0-0.2c0,0-0.1,0-0.2,0h-4v-0.1
	c0.1,0,0.2,0,0.2-0.1s0-0.1,0-0.2V48.5z"/>
<path fill="#FFFFFF" d="M205.4,52.2c0.1,0,0.2,0,0.2-0.1c0,0,0.1-0.1,0.1-0.2l1.5-3.5c0-0.1,0-0.1,0-0.2c0,0,0-0.1-0.1-0.1
	c0,0-0.1,0-0.2,0v-0.1h1.6v0.1c-0.1,0-0.1,0-0.2,0c0,0-0.1,0-0.1,0.1c0,0,0,0.1,0,0.1c0,0,0,0.1,0,0.1l1.7,3.5c0,0,0,0.1,0.1,0.1
	c0,0,0.1,0.1,0.2,0.1v0.1h-1.2v-0.1c0.1,0,0.2,0,0.2,0c0,0,0.1,0,0.1-0.1c0,0,0-0.1,0-0.1c0,0,0-0.1,0-0.1l-0.4-0.8h-2.4l-0.3,0.7
	c0,0.1-0.1,0.1-0.1,0.2c0,0.1,0,0.1,0,0.1c0,0,0,0.1,0.1,0.1c0,0,0.1,0,0.2,0v0.1h-1.1V52.2z M206.9,50.5h1.9l-1-2L206.9,50.5z"/>
<path fill="#FFFFFF" d="M216,52.5c0-0.1,0-0.1,0-0.1s-0.1,0-0.2,0h-3.9v-0.1c0.1,0,0.2,0,0.2-0.1s0-0.1,0-0.2v-3.4
	c0-0.1,0-0.2,0-0.2s-0.1-0.1-0.2-0.1v-0.1h1.1v0.1c-0.1,0-0.2,0-0.2,0.1s0,0.1,0,0.2v3.3h3c0.1,0,0.2,0,0.2-0.1c0,0,0-0.1,0-0.2h0.1
	v1H216z"/>
<path fill="#FFFFFF" d="M221.1,48.8c0-0.1,0-0.1,0-0.2c0,0-0.1-0.1-0.2-0.1h-1.5v3.3c0,0.1,0,0.2,0,0.2s0.1,0.1,0.2,0.1v0.1h-1.1
	v-0.1c0.1,0,0.2,0,0.2-0.1s0-0.1,0-0.2v-3.3h-1.5c-0.1,0-0.2,0-0.2,0.1c0,0,0,0.1,0,0.2h-0.1v-1h0.1c0,0.1,0,0.1,0,0.2
	c0,0,0.1,0.1,0.2,0.1h3.7c0.1,0,0.2,0,0.2-0.1c0,0,0-0.1,0-0.2h0.1v1H221.1z"/>
<path fill="#FFFFFF" d="M227.1,51.9c0,0.1,0,0.2,0,0.2s0.1,0.1,0.2,0.1v0.1h-1.1v-0.1c0.1,0,0.2,0,0.2-0.1s0-0.1,0-0.2v-1.6h-2.9
	v1.6c0,0.1,0,0.2,0,0.2s0.1,0.1,0.2,0.1v0.1h-1.1v-0.1c0.1,0,0.2,0,0.2-0.1s0-0.1,0-0.2v-3.4c0-0.1,0-0.2,0-0.2s-0.1-0.1-0.2-0.1
	v-0.1h1.1v0.1c-0.1,0-0.2,0-0.2,0.1s0,0.1,0,0.2v1.3h2.9v-1.3c0-0.1,0-0.2,0-0.2s-0.1-0.1-0.2-0.1v-0.1h1.1v0.1
	c-0.1,0-0.2,0-0.2,0.1s0,0.1,0,0.2V51.9z"/>
<path fill="#FFFFFF" d="M232,52.2c0.1,0,0.2,0,0.2-0.1c0,0,0.1-0.1,0.1-0.2l1.5-3.5c0-0.1,0-0.1,0-0.2c0,0,0-0.1-0.1-0.1
	c0,0-0.1,0-0.2,0v-0.1h1.6v0.1c-0.1,0-0.1,0-0.2,0c0,0-0.1,0-0.1,0.1c0,0,0,0.1,0,0.1c0,0,0,0.1,0,0.1l1.7,3.5c0,0,0,0.1,0.1,0.1
	c0,0,0.1,0.1,0.2,0.1v0.1h-1.2v-0.1c0.1,0,0.2,0,0.2,0c0,0,0.1,0,0.1-0.1c0,0,0-0.1,0-0.1c0,0,0-0.1,0-0.1l-0.4-0.8h-2.4l-0.3,0.7
	c0,0.1-0.1,0.1-0.1,0.2c0,0.1,0,0.1,0,0.1c0,0,0,0.1,0.1,0.1c0,0,0.1,0,0.2,0v0.1H232V52.2z M233.5,50.5h1.9l-1-2L233.5,50.5z"/>
<path fill="#FFFFFF" d="M238.4,52.2c0.1,0,0.2,0,0.2-0.1c0,0,0.1-0.1,0.1-0.2v-3.4c0-0.1,0-0.2-0.1-0.2c0,0-0.1-0.1-0.2-0.1v-0.1
	h1.4v0.1c-0.1,0-0.2,0-0.2,0c0,0-0.1,0-0.1,0.1c0,0,0,0.1,0.1,0.2l2.6,3v-2.9c0-0.1,0-0.2-0.1-0.2c0,0-0.1-0.1-0.2-0.1v-0.1h1.1v0.1
	c-0.1,0-0.2,0-0.2,0.1c0,0-0.1,0.1-0.1,0.2v3.4c0,0.1,0,0.2,0.1,0.2c0,0,0.1,0.1,0.2,0.1v0.1h-1.3v-0.1c0.1,0,0.2,0,0.2,0
	c0,0,0,0,0-0.1s0-0.1,0-0.1s0-0.1-0.1-0.1l-2.7-3.1v3.1c0,0.1,0,0.2,0.1,0.2c0,0,0.1,0.1,0.2,0.1v0.1h-1.1V52.2z"/>
<path fill="#FFFFFF" d="M245.3,48.5c0-0.1,0-0.2,0-0.2c0,0-0.1-0.1-0.2-0.1v-0.1h2.3c0.4,0,0.7,0.1,1,0.2s0.5,0.3,0.7,0.4
	s0.3,0.4,0.4,0.7c0.1,0.3,0.1,0.5,0.1,0.8c0,0.3,0,0.6-0.1,0.8c-0.1,0.3-0.2,0.5-0.4,0.7s-0.4,0.3-0.7,0.4s-0.6,0.2-1,0.2h-2.3v-0.1
	c0.1,0,0.2,0,0.2-0.1c0,0,0-0.1,0-0.2V48.5z M247.3,51.7c0.3,0,0.6,0,0.8-0.1c0.2-0.1,0.4-0.2,0.5-0.3c0.1-0.1,0.2-0.3,0.3-0.5
	s0.1-0.4,0.1-0.6c0-0.2,0-0.4-0.1-0.6s-0.2-0.4-0.3-0.5c-0.1-0.1-0.3-0.3-0.5-0.3c-0.2-0.1-0.5-0.1-0.8-0.1h-1.4v3.1H247.3z"/>
<path fill="#FFFFFF" d="M254.6,52.1c0.1,0,0.1,0,0.1,0c0,0,0.1-0.1,0.1-0.1v-4.3c0-0.1,0-0.1-0.1-0.1s-0.1,0-0.1,0v-0.2h1.8v0.2
	c0,0-0.1,0-0.1,0c0,0-0.1,0-0.1,0.1c0,0,0,0.1,0,0.1c0,0.1,0.1,0.1,0.1,0.2l1.4,2.5l1.4-2.5c0-0.1,0.1-0.1,0.1-0.2s0-0.1,0-0.1
	c0-0.1,0-0.1-0.1-0.1v-0.2h1.8v0.2c-0.1,0-0.1,0-0.1,0c0,0-0.1,0.1-0.1,0.1v4.3c0,0.1,0,0.1,0.1,0.1c0,0,0.1,0,0.1,0v0.2h-1.5v-0.2
	c0.2,0,0.3-0.1,0.3-0.2v-3.2h0l-2,3.5h0l-1.9-3.5h0v3.2c0,0.1,0.1,0.2,0.3,0.2v0.2h-1.5V52.1z"/>
<path fill="#FFFFFF" d="M263.2,48.5c0-0.1,0-0.2,0-0.2s-0.1-0.1-0.2-0.1v-0.1h3.9c0.1,0,0.2,0,0.2-0.1c0,0,0-0.1,0-0.2h0.1v1h-0.1
	c0-0.1,0-0.1,0-0.2c0,0-0.1-0.1-0.2-0.1h-3v1.2h2.1c0.1,0,0.2,0,0.2-0.1c0,0,0-0.1,0-0.2h0.1v1h-0.1c0-0.1,0-0.1,0-0.2
	c0,0-0.1-0.1-0.2-0.1h-2.1v1.4h3.2c0.1,0,0.2,0,0.2-0.1c0,0,0-0.1,0-0.2h0.1v1h-0.1c0-0.1,0-0.1,0-0.2c0,0-0.1,0-0.2,0h-4v-0.1
	c0.1,0,0.2,0,0.2-0.1s0-0.1,0-0.2V48.5z"/>
<path fill="#FFFFFF" d="M269.4,48.5c0-0.1,0-0.2,0-0.2c0,0-0.1-0.1-0.2-0.1v-0.1h2.3c0.4,0,0.7,0.1,1,0.2s0.5,0.3,0.7,0.4
	s0.3,0.4,0.4,0.7c0.1,0.3,0.1,0.5,0.1,0.8c0,0.3,0,0.6-0.1,0.8c-0.1,0.3-0.2,0.5-0.4,0.7s-0.4,0.3-0.7,0.4s-0.6,0.2-1,0.2h-2.3v-0.1
	c0.1,0,0.2,0,0.2-0.1c0,0,0-0.1,0-0.2V48.5z M271.4,51.7c0.3,0,0.6,0,0.8-0.1c0.2-0.1,0.4-0.2,0.5-0.3c0.1-0.1,0.2-0.3,0.3-0.5
	s0.1-0.4,0.1-0.6c0-0.2,0-0.4-0.1-0.6s-0.2-0.4-0.3-0.5c-0.1-0.1-0.3-0.3-0.5-0.3c-0.2-0.1-0.5-0.1-0.8-0.1H270v3.1H271.4z"/>
<path fill="#FFFFFF" d="M275.6,52.2c0.1,0,0.2,0,0.2-0.1s0-0.1,0-0.2v-3.4c0-0.1,0-0.2,0-0.2s-0.1-0.1-0.2-0.1v-0.1h1.1v0.1
	c-0.1,0-0.2,0-0.2,0.1s0,0.1,0,0.2v3.4c0,0.1,0,0.2,0,0.2s0.1,0.1,0.2,0.1v0.1h-1.1V52.2z"/>
<path fill="#FFFFFF" d="M282.3,49.3C282.4,49.2,282.4,49.2,282.3,49.3l0-0.2c0,0,0-0.1-0.1-0.1s-0.2-0.1-0.3-0.2
	c-0.1-0.1-0.3-0.1-0.5-0.2c-0.2,0-0.3-0.1-0.5-0.1c-0.3,0-0.5,0-0.7,0.1s-0.4,0.2-0.6,0.4c-0.2,0.1-0.3,0.3-0.4,0.5
	c-0.1,0.2-0.1,0.4-0.1,0.6s0,0.4,0.1,0.6c0.1,0.2,0.2,0.4,0.3,0.5c0.2,0.1,0.3,0.2,0.5,0.3c0.2,0.1,0.4,0.1,0.7,0.1s0.5,0,0.7-0.1
	s0.4-0.1,0.5-0.2c0.1-0.1,0.2-0.1,0.3-0.2s0.1-0.1,0.1-0.2c0-0.1,0-0.1,0-0.2l0.1-0.1l0.7,0.9l-0.1,0.1c-0.1,0-0.1-0.1-0.1-0.1
	c0,0,0,0-0.1,0c-0.1,0-0.1,0-0.2,0.1c-0.1,0.1-0.2,0.1-0.4,0.2c-0.2,0.1-0.4,0.1-0.6,0.2c-0.2,0.1-0.5,0.1-0.8,0.1
	c-0.3,0-0.6,0-0.9-0.1c-0.3-0.1-0.5-0.2-0.8-0.4c-0.2-0.2-0.4-0.4-0.5-0.7c-0.1-0.3-0.2-0.6-0.2-0.9c0-0.3,0.1-0.6,0.2-0.9
	c0.1-0.3,0.3-0.5,0.5-0.7c0.2-0.2,0.5-0.3,0.8-0.4s0.6-0.1,0.9-0.1c0.3,0,0.5,0,0.7,0c0.2,0,0.4,0.1,0.6,0.2c0.1,0,0.2,0.1,0.3,0.1
	s0.1,0.1,0.2,0.1c0.1,0,0.1,0,0.2-0.1l0.1,0l-0.5,1L282.3,49.3z"/>
<path fill="#FFFFFF" d="M284.8,52.2c0.1,0,0.2,0,0.2-0.1s0-0.1,0-0.2v-3.4c0-0.1,0-0.2,0-0.2s-0.1-0.1-0.2-0.1v-0.1h1.1v0.1
	c-0.1,0-0.2,0-0.2,0.1s0,0.1,0,0.2v3.4c0,0.1,0,0.2,0,0.2s0.1,0.1,0.2,0.1v0.1h-1.1V52.2z"/>
<path fill="#FFFFFF" d="M288.2,52.2c0.1,0,0.2,0,0.2-0.1c0,0,0.1-0.1,0.1-0.2v-3.4c0-0.1,0-0.2-0.1-0.2c0,0-0.1-0.1-0.2-0.1v-0.1
	h1.4v0.1c-0.1,0-0.2,0-0.2,0c0,0-0.1,0-0.1,0.1c0,0,0,0.1,0.1,0.2l2.6,3v-2.9c0-0.1,0-0.2-0.1-0.2c0,0-0.1-0.1-0.2-0.1v-0.1h1.1v0.1
	c-0.1,0-0.2,0-0.2,0.1c0,0-0.1,0.1-0.1,0.2v3.4c0,0.1,0,0.2,0.1,0.2c0,0,0.1,0.1,0.2,0.1v0.1h-1.3v-0.1c0.1,0,0.2,0,0.2,0
	c0,0,0,0,0-0.1s0-0.1,0-0.1s0-0.1-0.1-0.1l-2.7-3.1v3.1c0,0.1,0,0.2,0.1,0.2c0,0,0.1,0.1,0.2,0.1v0.1h-1.1V52.2z"/>
<path fill="#FFFFFF" d="M295.2,48.5c0-0.1,0-0.2,0-0.2s-0.1-0.1-0.2-0.1v-0.1h3.9c0.1,0,0.2,0,0.2-0.1c0,0,0-0.1,0-0.2h0.1v1h-0.1
	c0-0.1,0-0.1,0-0.2c0,0-0.1-0.1-0.2-0.1h-3v1.2h2.1c0.1,0,0.2,0,0.2-0.1c0,0,0-0.1,0-0.2h0.1v1h-0.1c0-0.1,0-0.1,0-0.2
	c0,0-0.1-0.1-0.2-0.1h-2.1v1.4h3.2c0.1,0,0.2,0,0.2-0.1c0,0,0-0.1,0-0.2h0.1v1h-0.1c0-0.1,0-0.1,0-0.2c0,0-0.1,0-0.2,0h-4v-0.1
	c0.1,0,0.2,0,0.2-0.1s0-0.1,0-0.2V48.5z"/>
<path fill="none" d="M170.2,17.1c-1.3,3.2,0.8,7.3,4.9,10.4c1.3-1.2,2.7-2.2,4.2-3.1c-3.5-2.4-5.4-5.6-4.4-8.2
	c0.9-2.2,3.7-3.3,7.2-3c-2.9-0.4-5.9-0.1-8.7,0.7C171.9,14.7,170.8,15.8,170.2,17.1z"/>
<path fill="none" d="M168.5,47.3c-0.2-1-0.3-2.1-0.3-3.1c-3.7-2.3-6.8-5-8.9-7.8c0.2,1.4,0.5,2.8,1,4.1
	C162.3,42.9,165.1,45.3,168.5,47.3z"/>
<path fill="none" d="M190.1,21.6c0-0.1,0.1-0.1,0.1-0.2c0.7-1.7-0.8-4-3.3-5c-2.5-1-5.1-0.5-5.9,1.3c-0.7,1.6,0.6,3.7,2.9,4.8
	C185.9,21.9,188,21.6,190.1,21.6z"/>
<path fill="none" d="M171.5,31.9c0.9-1.4,1.9-2.6,3-3.8c-4.6-3.4-6.9-7.9-5.5-11.4c0.2-0.4,0.4-0.8,0.7-1.2
	c-1.3,0.7-2.5,1.5-3.6,2.5c-0.2,0.3-0.4,0.7-0.6,1.1C164,23,166.5,28,171.5,31.9z"/>
<path fill="none" d="M168.2,42.6c0.1-1.3,0.2-2.5,0.5-3.8c-4.5-3.1-7.7-6.9-9-10.7c-0.4,1.6-0.7,3.2-0.7,4.9
	C160.7,36.5,163.9,39.9,168.2,42.6z"/>
<path fill="none" d="M169,37.6c0.5-1.7,1.2-3.3,2-4.8c-4.9-3.7-7.7-8.3-7.3-12.4c-1.1,1.4-2.1,2.9-2.8,4.6
	C160.8,29.2,163.9,33.9,169,37.6z"/>
<path fill="none" d="M169.6,51.2c-2.6-1.4-4.8-3.4-6.5-5.7c-0.3-0.4-0.6-0.9-0.9-1.3c-0.8-1.2-1.4-2.5-1.9-3.9
	c-0.5-1.3-0.8-2.7-1-4.1c-0.2-1.1-0.2-2.2-0.2-3.3c0-1.6,0.3-3.3,0.7-4.9c0.2-0.8,0.5-1.6,0.8-2.4c0.1-0.2,0.2-0.4,0.3-0.7
	c0.8-1.7,1.7-3.2,2.8-4.6c0.8-0.9,1.6-1.7,2.5-2.5c1.1-0.9,2.3-1.8,3.6-2.5c1.2-0.6,2.4-1.1,3.6-1.5c2.8-0.9,5.7-1.1,8.7-0.7
	c0.1,0,0.3,0,0.4,0.1c1.6,0.2,3.1,0.6,4.6,1.3c1.6,0.7,3.1,1.5,4.4,2.5c0.4,0.3,0.8,0.6,1.1,0.9c1.5,1.3,2.8,2.8,3.9,4.5
	c0,0,0,0,0,0.1c0.1,0,0.2,0.1,0.3,0.1c-2.2-3.5-5.4-6.3-9.5-8c-10.5-4.3-22.5,0.7-26.8,11.2c-4,9.8,0.1,20.9,9.2,25.8
	C169.7,51.5,169.6,51.3,169.6,51.2z"/>
<path fill="none" d="M179.4,17c0.8-2,4.2-2.5,7.5-1.1c3.2,1.3,5.2,3.8,4.7,5.7c0.7,0,1.4,0.1,2.1,0.2c-0.3-2.6-2.9-5.3-6.7-6.9
	c-4.8-1.9-9.6-1.1-10.8,1.8c-0.9,2.3,0.7,5.3,3.7,7.3c1.1-0.6,2.2-1.1,3.4-1.5C180.4,21.2,178.7,18.8,179.4,17z"/>
<path fill="none" d="M194.8,22c0.4,0.1,0.9,0.2,1.3,0.3c0.2,0,0.3,0.1,0.5,0.2c0,0,0,0,0-0.1c-1.1-1.7-2.4-3.2-3.9-4.5
	c-0.3-0.2-0.6-0.5-0.9-0.7C193.4,18.8,194.5,20.4,194.8,22z"/>
<path fill="none" d="M169.3,50.3c-0.2-0.5-0.3-1-0.4-1.5c-2.5-1.3-4.7-2.9-6.6-4.5c0.3,0.4,0.6,0.9,0.9,1.3c0.5,0.5,1,1,1.6,1.5
	C166,48.3,167.5,49.4,169.3,50.3z"/>
<path fill="#FFFFFF" d="M187,15.9c-3.4-1.4-6.7-0.9-7.5,1.1c-0.7,1.8,1,4.2,3.9,5.7c0.2-0.1,0.4-0.1,0.7-0.2
	c-2.3-1.1-3.6-3.2-2.9-4.8c0.7-1.7,3.3-2.3,5.9-1.3c2.5,1,4,3.3,3.3,5c0,0.1-0.1,0.1-0.1,0.2c0.5,0,1.1,0,1.6,0
	C192.1,19.6,190.1,17.2,187,15.9z"/>
<path fill="#FFFFFF" d="M174.9,16.3c-1,2.5,0.9,5.8,4.4,8.2c0.2-0.1,0.4-0.2,0.6-0.3c-3-2.1-4.6-5-3.7-7.3c1.2-2.9,6-3.8,10.8-1.8
	c3.8,1.5,6.4,4.3,6.7,6.9c0.3,0.1,0.7,0.1,1,0.2c-0.3-1.6-1.4-3.3-3.1-4.8c-1.4-1-3-1.9-4.8-2.6c-1.5-0.6-3-1-4.4-1.3
	c-0.1,0-0.3,0-0.4-0.1C178.6,13,175.8,14.1,174.9,16.3z"/>
<path fill="#FFFFFF" d="M192.6,18c-0.4-0.3-0.7-0.6-1.1-0.9c0.1,0.1,0.1,0.1,0.2,0.2C192,17.5,192.3,17.7,192.6,18z"/>
<path fill="#FFFFFF" d="M174.5,28.1c0.2-0.2,0.4-0.4,0.6-0.6c-4.1-3.1-6.2-7.2-4.9-10.4c0.6-1.4,1.7-2.4,3.2-3.1
	c-1.3,0.4-2.5,0.9-3.6,1.5c-0.3,0.4-0.5,0.8-0.7,1.2C167.6,20.2,170,24.7,174.5,28.1z"/>
<path fill="#0050A2" d="M196.6,22.5C196.6,22.5,196.6,22.5,196.6,22.5C196.5,22.5,196.5,22.4,196.6,22.5
	C196.5,22.4,196.5,22.5,196.6,22.5z"/>
<path fill="#FFFFFF" d="M191.7,17.3c-0.1-0.1-0.1-0.1-0.2-0.2c-1.3-1-2.8-1.8-4.4-2.5c-1.5-0.6-3.1-1-4.6-1.3
	c1.5,0.3,2.9,0.7,4.4,1.3C188.7,15.4,190.3,16.3,191.7,17.3z"/>
<path fill="#FFFFFF" d="M164.7,47.1c-0.6-0.5-1.1-1-1.6-1.5c1.7,2.3,3.9,4.2,6.5,5.7c-0.1-0.3-0.2-0.6-0.3-0.9
	C167.5,49.4,166,48.3,164.7,47.1z"/>
<path fill="#FFFFFF" d="M168.5,47.3c-3.4-2-6.2-4.4-8.2-6.9c0.5,1.4,1.1,2.7,1.9,3.9c1.9,1.7,4.1,3.2,6.6,4.5
	C168.7,48.3,168.6,47.8,168.5,47.3z"/>
<path fill="#FFFFFF" d="M168.2,44.1c0-0.5,0-1,0-1.5c-4.3-2.8-7.5-6.2-9.1-9.6c0,1.1,0,2.2,0.2,3.3
	C161.4,39.1,164.5,41.8,168.2,44.1z"/>
<path fill="#FFFFFF" d="M168.7,38.8c0.1-0.4,0.1-0.7,0.2-1.1c0,0,0-0.1,0-0.1c-5.1-3.7-8.2-8.4-8.1-12.6c-0.1,0.2-0.2,0.4-0.3,0.7
	c-0.3,0.8-0.6,1.6-0.8,2.4C161,31.9,164.2,35.7,168.7,38.8z"/>
<path fill="#FFFFFF" d="M171,32.8c0.2-0.3,0.3-0.6,0.5-0.9c-5-3.9-7.5-8.9-5.9-12.9c0.2-0.4,0.3-0.7,0.6-1.1
	c-0.9,0.8-1.7,1.6-2.5,2.5C163.3,24.5,166.1,29.2,171,32.8z"/>
</svg>
